<?xml version="1.0" encoding="utf-8"?>
<!-- Generator: Adobe Illustrator 14.0.0, SVG Export Plug-In . SVG Version: 6.00 Build 43363)  -->
<!DOCTYPE svg PUBLIC "-//W3C//DTD SVG 1.1//EN" "http://www.w3.org/Graphics/SVG/1.1/DTD/svg11.dtd">
<svg version="1.1" id="Layer_1" xmlns="http://www.w3.org/2000/svg" xmlns:xlink="http://www.w3.org/1999/xlink" x="0px" y="0px"
	 width="341px" height="589px" viewBox="135.5 7.5 341 589" enable-background="new 135.5 7.5 341 589" xml:space="preserve">
<g id="Layer_2" display="none">
	<rect display="inline" width="600" height="600"/>
</g>
<g id="Layer_1_1_">
	<g>
		<path stroke="#FFFFFF" stroke-width="20" stroke-linejoin="round" d="M465.288,226.628c0-6.74-0.843-10.906-0.919-11.265
			l-0.01-0.052l-0.219-0.761l-0.014-0.048l-0.013-0.041c-1.041-2.885-2.585-5.421-4.866-7.266c-2.271-1.854-5.04-2.663-7.47-2.668
			l-0.123,0.001l0,0c-0.006,0-0.009,0-0.015,0l-0.038,0.001v0.001c-0.092,0.001-0.162,0.011-0.253,0.015
			c0.934-3.518,2.197-8.621,3.471-14.782c2.438-11.828,4.898-27.443,4.906-42.996c-0.021-12.586-1.562-25.2-6.593-35.919
			c-7.762-16.433-16.073-30.805-26.068-43.043c-9.99-12.236-21.711-22.298-35.972-29.897c-13.949-7.438-26.153-10.77-37.222-13.998
			c-5.586-1.628-10.614-2.802-14.911-3.577c-4.305-0.771-7.828-1.164-10.707-1.17c-0.738,0-1.866-0.016-3.266-0.016h-0.06
			c-7.094-0.001-21.057,0.409-39.028,5.023c-17.944,4.599-41.35,11.691-64.922,28.532c-0.324,0.232-0.626,0.492-0.899,0.771
			l-0.017,0.016l-0.02,0.021v0.001l-0.352,0.366c-0.604,0.629-1.874,1.978-3.612,3.925c-3.82,4.283-9.901,11.46-16.07,20.25
			c-5.04,7.186-10.148,15.45-14.126,24.207c-3.953,8.729-6.839,17.976-7.131,27.306l0,0l-0.002,0.027l-0.003,0.043l-0.002,0.047
			c-0.167,6.086-0.646,11.845-1.356,17.631l-0.011-0.001c-0.396,3.202-0.885,6.442-1.426,9.721l-0.475,0.126l-0.255,1.575
			c-0.441,0.747-0.787,1.583-0.903,2.525l-0.002,0.014l-0.003,0.016v0.001c-0.051,0.46-0.767,6.262-0.965,12.894
			c-0.121,1.712-0.197,3.495-0.236,5.278c-1.218-0.265-2.488-0.462-3.866-0.467v-0.004l-0.055-0.001c-0.003,0-0.003,0-0.003,0
			h-0.002h-0.021c-2.092,0-4.329,0.38-6.515,1.275c-2.194,0.889-4.288,2.271-6.167,4.088c-3.787,3.658-5.833,8.293-6.938,12.908
			c-0.354,1.481-0.475,2.926-0.475,4.33c0.007,3.222,0.601,6.233,0.593,9.31l0.003,0.06c0.008,6.826,0.58,13.602,0.58,19.159v0.078
			c0,0.687-0.01,1.356-0.026,2.01c-0.158,5.722-0.722,11.231-1.249,15.268c-0.262,2.021-0.515,3.674-0.698,4.809
			c-0.092,0.569-0.168,1.008-0.218,1.296l-0.055,0.32l-0.018,0.082l-0.008,0.047l-0.084,0.664l-0.005,0.037l-0.002,0.037
			c-0.008,0.141-0.05,0.779-0.05,1.837c0.002,2.364,0.197,6.831,1.426,12.377c1.188,5.296,1.913,12.504,6.238,19.25
			c3.336,5.165,5.981,8.915,8.874,11.796l0.005,0.006c1.457,1.436,3.039,2.693,4.9,3.619l-0.007-0.004
			c1.794,0.906,3.813,1.406,5.808,1.438c0.663,7.674,2.95,15.495,3.667,22.436c1.092,10.226,0.583,19.27,2.591,26.787
			c-0.261,2.274-0.48,4.638-0.652,7.121c-0.165,2.461-0.283,5.025-0.375,7.629c-0.117,0.246-0.244,0.492-0.335,0.764l-0.036,0.14
			c-0.04,0.164-0.192,0.923-0.489,2.33c-0.876,4.19-2.936,13.837-6.046,26.889c-4.206,17.708-10.413,41.695-10.433,62.621
			c0.002,4.173,0.173,8.277,0.566,12.264c0.103,1.024,0.443,2.024,0.992,2.9c0.063,0.101,14.412,23.062,33.422,48.272
			c9.511,12.606,20.18,25.779,30.913,36.995c5.369,5.611,10.754,10.738,16.076,15.083c5.356,4.372,8.332,5.598,13.412,7.952
			c0.897,0.41,1.864,0.615,2.826,0.615c0.969,0,1.938-0.208,2.834-0.622c1.738-0.812,3.03-2.333,3.581-4.159l0.008,0.003
			c0.008-0.023,8.959-21.013,13.237-34.809c2.11-6.817,4.252-13.354,6.058-18.214c0.898-2.424,1.728-4.447,2.35-5.742l0.003-0.007
			c0.046-0.103,0.086-0.171,0.13-0.263l32.789-9.952l16.924,22.967l0.054-0.054c1.483,1.76,3.235,3.323,5.252,4.939l0.005,0.006
			c4.398,3.478,10.148,7.145,16.43,10.831c9.396,5.509,19.963,11.01,28.199,15.146c4.115,2.068,7.648,3.793,10.16,5.003
			c1.254,0.608,2.251,1.084,2.938,1.412c0.346,0.162,0.61,0.289,0.792,0.373l0.206,0.099l0.054,0.026l0.011,0.006v-0.003
			l0.016,0.009c0.46,0.214,0.819,0.513,1.269,0.871c0.228,0.175,0.477,0.366,0.807,0.543c0.324,0.173,0.759,0.319,1.238,0.318
			c0.639,0,1.227-0.247,1.747-0.603c1.026-0.712,2.032-1.878,2.905-3.196c0.433-0.66,0.813-1.354,1.104-2.057
			c0.287-0.701,0.489-1.404,0.496-2.156l-0.007-0.205v-0.011c-2.854-46.643-7.332-83.242-10.215-109.913
			c-1.447-13.377-2.881-23.85-4.354-31.259c-0.271-1.335-0.315-2.888-0.315-4.43c0-0.562,0.005-1.125,0.005-1.676
			c-0.01-1.681-0.018-3.249-0.526-4.648l-0.009-0.018c-0.051-0.123-0.092-0.21-0.14-0.322c1.044-1.51,2.093-3.038,3.15-4.633
			c3.756-5.648,7.543-11.762,11.152-18.162l0.071-0.103v0.002l0.31-0.434l0.096-0.132l0.058-0.146l0.143-0.351l0.146-0.349
			c2.954-5.33,5.813-10.836,8.367-16.512c5.7-12.689,9.256-26.865,10.595-40.033h0.146v-1.272c0.048-0.403,0.31-2.733,0.72-6.265
			c0.002-0.017,0.004-0.035,0.004-0.051c0.73-0.252,1.452-0.531,2.148-0.89c0.901-0.465,2.027-0.838,3.175-1.306
			c1.14-0.471,2.337-1.043,3.297-2.088c2.7-2.979,4.46-6.41,5.74-9.787c1.904-5.082,2.764-10.2,3.213-14.124
			c0.279-2.504,0.381-4.478,0.417-5.662c0.868-2.511,1.727-5.365,2.556-8.386c1.287-4.688,2.098-9.8,2.653-14.021
			c0.275-2.11,0.487-3.997,0.662-5.485c0.157-1.396,0.29-2.458,0.384-2.922C462.325,247.071,465.28,235.244,465.288,226.628z
			 M410.801,390.007l-0.309,0.435c0.162-0.287,0.322-0.575,0.485-0.864L410.801,390.007z M449.672,258.938l-0.121,0.38
			c-0.003,0.005-0.276,1.307-0.753,3.425c-1.415,6.34-4.622,20.049-7.233,27.214l-0.12,0.688l-0.005,0.305
			c-0.021,1.569-0.301,8.971-2.455,15.743c-1.065,3.385-2.604,6.586-4.653,8.817c-1.568,1.692-3.343,2.855-5.59,3.333
			c0.13-1.06,0.294-2.408,0.487-3.994c0.726-5.884,1.841-14.808,2.903-22.626c0.53-3.908,1.046-7.543,1.49-10.375
			c0.221-1.412,0.426-2.625,0.602-3.559c0.17-0.923,0.339-1.619,0.396-1.788c0.198-0.598,0.485-1.666,0.889-3.254
			c0.808-3.181,2.029-8.323,3.357-14.249c9.323,15.243-2.573,22.692-2.573,22.692l5.374-3.139
			c6.265-6.265,1.181-20.068-1.401-25.926c0.53-2.464,1.061-4.984,1.574-7.511c1.147-5.646,2.206-11.277,2.986-16.17
			c0.777-4.906,1.275-9.029,1.281-11.855c-0.002-0.478-0.019-0.913-0.051-1.327c0.409-0.326,0.961-0.729,1.597-1.116
			c1.245-0.771,2.796-1.399,4.009-1.382c0.779,0.011,1.411,0.187,2.104,0.732c0.668,0.539,1.428,1.543,2.088,3.321
			c0.136,0.748,0.698,4.117,0.698,9.312C456.553,234.302,455.32,245.927,449.672,258.938z M425.202,314.559
			c-0.466,3.797-0.77,6.308-0.77,6.31c-0.05,0.42,0.074,0.821,0.275,1.187c-0.688,5.944-1.151,10.021-1.151,10.026l-0.007,0.047
			c-2.153,24.453-16.542,51.618-30.466,72.526c-6.951,10.458-13.775,19.368-18.857,25.66c-2.537,3.144-4.644,5.636-6.105,7.333
			c-0.732,0.851-1.309,1.504-1.696,1.941c-0.388,0.438-0.589,0.655-0.589,0.658l-0.123,0.145
			c-6.383,8.528-15.68,13.755-23.424,16.807c-3.869,1.521-7.34,2.509-9.824,3.106c-1.244,0.296-2.244,0.499-2.925,0.628
			c-0.341,0.062-0.603,0.107-0.776,0.136l-0.157,0.024c-0.478,0.021-2.464,0.104-5.257,0.214h0.007
			c-1.761,0.07-3.824,0.15-6.046,0.229c-6.258,0.223-13.647,0.449-18.067,0.449c-3.118,0-6.062-0.261-8.807-0.679h-0.051
			c-4.857-0.733-9.062-1.98-12.382-3.228c-2.604-0.979-4.659-1.947-6.052-2.673c-0.696-0.361-1.229-0.661-1.581-0.866l-0.388-0.232
			l-0.039-0.023c-36.055-28.057-56.01-53.374-66.959-71.614c-5.475-9.129-8.695-16.484-10.543-21.531
			c-0.923-2.525-1.504-4.474-1.85-5.773c-0.173-0.652-0.289-1.143-0.36-1.463l-0.073-0.353l-0.018-0.092l-0.056-0.228
			c-1.947-6.48-3.461-16.16-4.585-26.928c-1.48-14.142-2.317-30.202-2.788-43.787l-0.597-30.605c0.44-1.708,0.813-3.438,1.133-5.182
			l-0.01-0.049c1.17-6.464,1.564-13.125,1.633-19.731l0.015-0.221c0.324-4.706,0.541-9.679,0.543-14.567
			c-0.005-7.537-0.514-14.844-2.001-20.758c-0.048-0.544-0.098-1.092-0.145-1.635c-0.378-4.441-0.686-8.84-0.686-13.211
			c0-4.154,0.279-8.279,1.026-12.404c2.103-11.59,3.531-22.339,3.862-34.256c0.215-8.638,3.356-18.032,7.784-27.042
			c3.442-7.006,7.666-13.78,11.894-19.785c4.821-6.871,9.624-12.758,13.214-16.918c1.799-2.08,3.29-3.729,4.331-4.855
			c0.523-0.563,0.93-0.995,1.206-1.285l0.294-0.305c45.127-32.16,84.187-33.568,97.545-33.577c1.338,0,2.425,0.014,3.263,0.014
			h0.052c4.141,0,12.562,1.31,23.124,4.399c10.627,3.098,23.494,7.979,36.796,15.073c13.19,7.039,23.94,16.247,33.317,27.717
			c9.375,11.468,17.361,25.208,24.935,41.242c4.196,8.861,5.766,20.35,5.759,32.192c0.002,14.629-2.36,29.775-4.729,41.231
			c-1.184,5.729-2.363,10.539-3.252,13.911c-0.443,1.686-0.811,3.013-1.07,3.913c-0.254,0.903-0.398,1.37-0.398,1.37l-0.084,0.493
			c-0.774,16.256-2.727,29.635-4.832,40.609l0,0c-0.313,1.638-0.632,3.233-0.949,4.767c-2.235,10.784-4.468,18.936-5.554,25.229
			c-0.384,2.152-0.841,5.166-1.337,8.66C427.542,295.769,426.074,307.458,425.202,314.559z M404.575,564.604l-0.291-0.14
			c-5.249-2.514-18.503-8.966-31.298-16.026c-6.398-3.526-12.683-7.205-17.777-10.607c-5.088-3.381-9.012-6.566-10.541-8.764
			l-0.014-0.021l-18.289-24.821c20.718-10.524,32.062-25.893,36.147-32.365c0.454-0.409,0.871-0.801,1.213-1.153
			c0.563-0.606,0.979-1.077,1.255-1.738l0.057-0.173l7.326-30.425c1.203-1.623,9.412-12.714,16.662-22.658l0.307,0.502
			c0.533,1.028,1.161,2.923,1.777,5.521c2.188,9.128,4.474,26.976,6.758,51.715C400.105,497.689,402.357,528.599,404.575,564.604z
			 M311.213,507.017c5.074-3.229,14.443-9.237,23.947-15.558c7.022-4.666,14.109-9.495,19.587-13.496
			c1.498-1.094,2.864-2.118,4.09-3.071c-5.405,7.48-16.151,19.644-33.416,28.316c-0.321-0.19-0.683-0.296-1.053-0.187
			L311.213,507.017z M284.492,515.217l-0.157,0.095c-0.589,0.44-0.95,0.981-1.389,1.69c-1.553,2.613-3.521,7.789-5.73,14.271
			c-5.698,16.755-12.667,41.848-14.458,48.351c-8.469-4.308-18.227-12.666-28.069-22.965
			c-15.604-16.307-31.454-37.316-43.386-54.232c-5.965-8.459-10.952-15.896-14.448-21.22c-1.749-2.658-3.121-4.79-4.058-6.258
			c-0.63-0.983-1.042-1.639-1.257-1.979c-0.347-3.586-0.507-7.324-0.507-11.171c-0.002-19.759,4.139-42.151,8.292-59.571
			c2.075-8.711,4.151-16.183,5.708-21.472c0.15-0.512,0.292-0.983,0.434-1.453l4.244,67.306l0.087,0.399
			c9.309,24.062,32.804,39.799,53.851,49.614c21.065,9.812,39.789,13.689,39.853,13.706l0.209,0.023l9.183,0.438L284.492,515.217z
			 M192.148,442.569l-3.161-50.122c-0.094-3.838-0.15-7.7-0.15-11.5c0-5.848,0.146-11.508,0.445-16.764
			c6.44,16.635,25.375,52.222,78.26,93.345l0.15,0.104c0.181,0.104,13.016,8.367,31.55,8.383c9.056-0.003,29.635-0.898,29.649-0.898
			l0.2-0.021c0.103-0.016,6.511-0.935,14.674-4.15c7.942-3.139,17.573-8.482,24.593-17.435l-3.07,12.745l-3.327,11.094
			c-0.264,0.234-0.646,0.573-1.146,1.013c-2.938,2.565-9.784,8.414-18.244,14.871c-7.04,4.809-14.808,9.915-21.374,14.172
			c-2.68,1.737-5.121,3.311-7.271,4.688c-3.678,1.927-7.241,3.545-10.542,4.666c-0.154-0.007-0.324-0.016-0.585-0.028
			c-4.838-0.255-27.195-1.902-51-10.835c-11.902-4.465-24.162-10.74-34.797-19.521C206.563,467.754,197.704,456.722,192.148,442.569
			z M178.614,247.896c-0.155,1.102-0.284,1.968-0.373,2.561c-0.089,0.594-0.14,0.898-0.14,0.898l-0.025,0.362l0.855,43.702
			c-1.459,0.638-2.638,0.953-3.591,0.944c-0.742-0.001-1.401-0.151-2.176-0.532c-1.151-0.566-2.553-1.743-4.249-3.761
			c-1.695-2.013-3.675-4.832-6.067-8.562c-7.113-11.042-7.786-22.668-7.778-26.427c0-0.417,0.009-0.737,0.017-0.947l0.008-0.192
			c0.233-1.286,2.039-11.512,2.362-23.022c0.018-0.74,0.025-1.487,0.028-2.245c-0.002-6.124-0.582-12.896-0.579-19.264
			c-0.003-4.366,0.273-8.533,1.137-12.106c0.863-3.582,2.285-6.521,4.508-8.665c2.336-2.229,4.501-2.895,6.637-2.913
			c2.704-0.015,5.449,1.262,7.489,2.632c1.018,0.678,1.855,1.366,2.43,1.874l0.482,0.449c1.302,5.318,1.808,12.269,1.806,19.48
			c0,9.376-0.824,19.196-1.648,26.656C179.335,242.547,178.923,245.688,178.614,247.896z"/>
		<polygon stroke="#FFFFFF" stroke-width="20" stroke-linejoin="round" points="459.243,207.191 459.249,207.196 459.249,207.198 		
			"/>
		<polygon stroke="#FFFFFF" stroke-width="20" stroke-linejoin="round" points="220.979,52.706 220.981,52.704 220.984,52.701 		"/>
		<path fill="#D9D9D9" stroke="#FFFFFF" stroke-width="20" stroke-linejoin="round" d="M410.492,390.439l0.309-0.434l0.178-0.431
			C410.814,389.865,410.654,390.154,410.492,390.439z"/>
		<path fill="#FFFFFF" stroke="#FFFFFF" stroke-width="20" stroke-linejoin="round" d="M302.801,506.731
			c0.262,0.013,0.43,0.021,0.584,0.027c3.301-1.121,6.865-2.739,10.543-4.666c2.148-1.378,4.591-2.95,7.271-4.688
			c6.566-4.257,14.334-9.363,21.374-14.172c8.46-6.457,15.308-12.306,18.244-14.871c0.499-0.438,0.882-0.777,1.146-1.013
			l3.327-11.094l3.07-12.745c-7.02,8.951-16.649,14.296-24.593,17.435c-8.163,3.217-14.571,4.136-14.674,4.15l-0.2,0.021
			c-0.016,0-20.595,0.896-29.649,0.898c-18.534-0.016-31.369-8.277-31.55-8.383l-0.15-0.104
			c-52.885-41.123-71.819-76.71-78.26-93.345c-0.299,5.256-0.445,10.916-0.445,16.764c0,3.8,0.056,7.662,0.15,11.5l3.161,50.122
			c5.555,14.151,14.415,25.185,24.854,33.806c10.635,8.78,22.895,15.057,34.797,19.521
			C275.606,504.828,297.962,506.477,302.801,506.731z"/>
		<path fill="#FFFFFF" stroke="#FFFFFF" stroke-width="20" stroke-linejoin="round" d="M364.178,380.232
			c-0.895-4.03-12.992-5.375-23.742-12.543c-2.853-1.902-5.639-2.681-8.196-2.825l0.11-0.329l-4.035-17.949l-10.598,1.598
			l1.101,13.883c-0.33,0.031-0.683,0.051-1.026,0.051c-0.63,0-1.233-0.049-1.646-0.1l-0.459-0.045l-0.097-0.027l-0.509,3.05
			l0.509-3.05l-2.1,4.799c-13.532-4.475-14.464-1.521-19.188,0.052c-5.105,1.701-25.519,9.851-27.569,10.669
			c0.719,0.18,1.146,0.324,1.146,0.324c1.022,0.234,2.195,0.482,3.489,0.73c13.58,2.633,40.29,5.855,40.29,5.855s5.377,1.68,11.76,0
			c3.904-1.025,16.619-3.061,25.896-4.482c0,0,9.713-4.588,13.407-1.564c3.697,3.023-4.365,1.009-7.391,1.344
			c-3.022,0.337-6.115,1.098-6.115,1.098c-11.808,3.086-28.981,7.976-31.846,7.976c-3.361,0-46.698-8.399-46.698-8.399
			c-5.07,2.803-9.224,3.471-12.41,3.275c7.773,7.811,24.593,13.427,38.289,16.915c-1.639-0.803-2.586-1.378-2.586-1.378
			c13.084,4.798,25.784,4.989,34.288,4.272C360.868,397.519,364.178,380.232,364.178,380.232z M319.047,381.688
			c0,0,4.369,1.345-1.343,0s-9.743-9.406-9.743-9.406c4.368,5.039,9.408,6.72,9.408,6.72c4.366-0.673,11.422-6.384,11.422-6.384
			C326.439,377.992,319.047,381.688,319.047,381.688z M326.775,364.218c0,0-3.359,9.743-12.097,3.023c0,0,7.729,1.344,9.744-2.353
			l-1.345-17.134L326.775,364.218z"/>
		<path fill="#FFFFFF" stroke="#FFFFFF" stroke-width="20" stroke-linejoin="round" d="M430.127,278.291
			c1.086-6.293,3.317-14.445,5.554-25.229c0.317-1.533,0.636-3.129,0.949-4.767c0.569-10.971,0.92-22.761,0.582-32.45
			c-0.896-25.979-0.896-34.042-0.896-34.042s8.957-42.106,8.062-61.815c0,0-10.751-22.396-51.063-34.043
			c-2.508-0.725-4.815-1.114-7.008-1.114c-8.51,0-15.291,5.866-25.264,20.822c-4.422,6.636-12.749,10.152-22.887,10.152
			c-18.609,0-43.328-11.83-61.304-37.923c-8.129-11.799-16.716-16.384-24.801-16.384c-19.534,0-36.12,26.784-36.12,43.26
			c0,23.293-4.477,58.232-4.477,58.232s-15.228,14.333-18.814,35.833l-7.758,27.906l-0.015,0.221
			c-0.068,6.606-0.462,13.268-1.633,19.731l0.01,0.049c4.045,21.346,21.362,102.677,52.824,117.824l4.702,0.673l2.688-16.799
			c0,0-2.016-5.375,24.86-8.734c0,0,15.43-0.739,34.801-0.739c25.834,0,58.688,1.317,71.356,7.459c0,0,6.048,1.344,6.048,23.517
			c0,0,33.938-25.211,44.677-55.369c0.872-7.102,2.34-18.791,3.588-27.608C429.286,283.457,429.743,280.443,430.127,278.291z
			 M352.084,228.832c0,0,46.135-16.573,56.439,12.991C408.523,241.822,396.429,218.977,352.084,228.832z M345.812,331.855
			c13.887-7.613,0-33.594,0-33.594C363.732,330.066,345.812,331.855,345.812,331.855z M358.018,253.354
			c10.078,9.407,34.269,0.672,34.269,0.672C364.402,267.128,358.018,253.354,358.018,253.354z M386.238,238.909
			c0,0,3.022,14.782-10.752,14.782c-13.772,0-11.084-12.43-11.084-12.43s0.703-1.168,2.127-2.473
			c-3.912,1.249-8.007,3.312-12.206,6.503c0,0,23.852-25.195,46.695,1.68c0,0-6.107-5.911-15.62-8.54
			C385.682,238.599,385.949,238.725,386.238,238.909z M400.458,208.676c-9.856-4.479-50.169,6.272-50.169,6.272
			s-8.063-4.928-3.583-9.855c6.833-7.515,35.388-21.052,58.231-12.094c22.846,8.958,21.946,35.387,21.946,35.387
			C417.479,213.157,400.458,208.676,400.458,208.676z M339.54,234.207c-6.382,5.709-4.366,9.405-4.366,9.405l-1.344,37.962
			c-0.557-22.283-1.901-33.931-1.68-41.321C335.506,235.998,339.54,234.207,339.54,234.207z M335.174,331.295
			c0,0-3.022,1.008-6.383,4.031c0,0,8.733-13.102,13.773-10.75C342.564,324.576,342.564,328.271,335.174,331.295z M308.298,325.919
			c-6.72,6.048-14.446,5.712-14.446,5.712c-11.757-6.384,11.087-11.422,11.087-11.422c3.358,0.335,5.71,7.055,5.71,7.055
			L308.298,325.919z M236.069,230.176c0,0,28.647-25.303,48.128,2.355l0.248,0.332l-0.248-0.332
			c-0.942-1.226-4.695-5.664-11.423-8.37c0.536,2.25,3.02,15.115-10.167,15.419c-12.961,0.305-10.243-13.694-9.544-16.58
			C248.027,224.148,242.37,226.381,236.069,230.176z M213.896,202.627c17.469-22.844,28.219-26.204,47.705-28.891
			c19.484-2.687,41.658,10.75,49.719,18.141c6.049,5.543-1.89,12.599-6.234,15.779c-1.449,1.06-4.733-0.863-6.885-2.124
			c-32.12-18.806-38.839-16.119-38.839-16.119C247.266,186.728,213.896,202.627,213.896,202.627z M287.132,308.786
			c0,0-4.938,10.761-3.186,16.044l0.182,0.434l0.317,0.655c0,0-0.131-0.231-0.317-0.655l-0.182-0.434
			c-1.672-4.17-5.609-19.756,20.016-35.077c0.817-0.52,1.312-0.788,1.312-0.788c-0.457,0.262-0.873,0.525-1.312,0.788
			C300.783,291.776,292.479,297.829,287.132,308.786z M289.107,226.153c0.173,0.27,0.267,0.438,0.267,0.438L289.107,226.153
			c-2.122-3.328-17.616-24.514-55.723-0.905C233.384,225.248,269.776,192.422,289.107,226.153z M246.819,238.572
			c0,0,14.782,9.407,33.259,1.681C280.079,240.253,264.624,252.347,246.819,238.572z"/>
		<path fill="#FFFFFF" stroke="#FFFFFF" stroke-width="20" stroke-linejoin="round" d="M290.435,461.307
			c2.745,0.418,5.689,0.679,8.807,0.679c4.42,0,11.811-0.228,18.067-0.449c2.222-0.078,4.285-0.158,6.046-0.229h-0.007H290.435z"/>
		<path fill="#D9D9D9" stroke="#FFFFFF" stroke-width="20" stroke-linejoin="round" d="M192.641,198.822
			c3.586-21.5,18.814-35.833,18.814-35.833s4.477-34.939,4.477-58.232c0-16.476,16.586-43.26,36.12-43.26
			c8.084,0,16.672,4.585,24.801,16.384c17.976,26.093,42.694,37.923,61.304,37.923c10.138,0,18.465-3.516,22.887-10.152
			c9.973-14.956,16.754-20.822,25.264-20.822c2.191,0,4.5,0.39,7.008,1.114c40.312,11.646,51.063,34.043,51.063,34.043
			c0.896,19.709-8.062,61.815-8.062,61.815s0,8.063,0.896,34.042c0.338,9.689-0.013,21.479-0.582,32.45l0,0
			c2.105-10.974,4.059-24.353,4.832-40.609l0.084-0.493c0,0,0.146-0.467,0.398-1.37c0.261-0.9,0.627-2.228,1.07-3.913
			c0.889-3.372,2.068-8.181,3.252-13.911c2.367-11.457,4.729-26.602,4.729-41.231c0.007-11.842-1.562-23.331-5.759-32.192
			c-7.572-16.035-15.56-29.774-24.935-41.242c-9.377-11.47-20.127-20.678-33.317-27.717c-13.302-7.095-26.169-11.975-36.796-15.073
			c-10.562-3.089-18.983-4.399-23.124-4.399h-0.052c-0.838,0-1.925-0.014-3.263-0.014c-13.358,0.009-52.418,1.417-97.545,33.577
			l-0.294,0.305c-0.276,0.291-0.683,0.722-1.206,1.285c-1.041,1.126-2.531,2.775-4.331,4.855c-3.59,4.16-8.393,10.047-13.214,16.918
			c-4.228,6.005-8.452,12.779-11.894,19.785c-4.428,9.01-7.569,18.404-7.784,27.042c-0.331,11.917-1.759,22.666-3.862,34.256
			c-0.747,4.125-1.026,8.25-1.026,12.404c0,4.371,0.308,8.77,0.686,13.211c0.046,0.543,0.097,1.09,0.145,1.635
			c1.488,5.914,1.996,13.221,2.001,20.758c-0.002,4.888-0.219,9.861-0.543,14.567L192.641,198.822z"/>
		<path stroke="#FFFFFF" stroke-width="20" stroke-linejoin="round" d="M259.362,189.414c0,0,6.719-2.688,38.839,16.119
			c2.152,1.26,5.436,3.184,6.885,2.124c4.346-3.181,12.283-10.236,6.234-15.779c-8.062-7.391-30.235-20.828-49.719-18.141
			c-19.486,2.688-30.236,6.047-47.705,28.891C213.896,202.627,247.266,186.728,259.362,189.414z"/>
		<path stroke="#FFFFFF" stroke-width="20" stroke-linejoin="round" d="M404.938,192.998c-22.845-8.958-51.398,4.58-58.231,12.094
			c-4.48,4.928,3.583,9.855,3.583,9.855s40.312-10.75,50.169-6.272c0,0,17.021,4.481,26.427,19.709
			C426.885,228.385,427.783,201.956,404.938,192.998z"/>
		
			<line fill="none" stroke="#FFFFFF" stroke-width="20" stroke-linecap="round" stroke-linejoin="round" x1="284.198" y1="232.531" x2="284.445" y2="232.863"/>
		<path stroke="#FFFFFF" stroke-width="20" stroke-linejoin="round" d="M280.079,240.253c-18.478,7.727-33.259-1.681-33.259-1.681
			C264.624,252.347,280.079,240.253,280.079,240.253z"/>
		<path stroke="#FFFFFF" stroke-width="20" stroke-linejoin="round" d="M401.02,246.972c-22.845-26.875-46.695-1.68-46.695-1.68
			c4.199-3.191,8.294-5.254,12.206-6.503c-1.425,1.304-2.127,2.473-2.127,2.473s-2.688,12.43,11.084,12.43
			c13.774,0,10.752-14.782,10.752-14.782c-0.289-0.184-0.558-0.31-0.84-0.477C394.911,241.061,401.02,246.972,401.02,246.972z"/>
		<path stroke="#FFFFFF" stroke-width="20" stroke-linejoin="round" d="M392.285,254.026c0,0-24.189,8.735-34.269-0.672
			C358.018,253.354,364.402,267.128,392.285,254.026z"/>
		<path stroke="#FFFFFF" stroke-width="20" stroke-linejoin="round" d="M253.063,223.001c-0.699,2.886-3.417,16.884,9.544,16.58
			c13.187-0.304,10.704-13.17,10.167-15.419c6.728,2.707,10.481,7.144,11.423,8.37c-19.481-27.658-48.128-2.355-48.128-2.355
			C242.37,226.381,248.027,224.148,253.063,223.001z"/>
		<path stroke="#FFFFFF" stroke-width="20" stroke-linejoin="round" d="M332.15,240.253c-0.223,7.391,1.123,19.039,1.68,41.321
			l1.344-37.962c0,0-2.016-3.695,4.366-9.405C339.54,234.207,335.506,235.998,332.15,240.253z"/>
		<path stroke="#FFFFFF" stroke-width="20" stroke-linejoin="round" d="M328.791,335.326c3.359-3.023,6.383-4.031,6.383-4.031
			c7.392-3.023,7.392-6.719,7.392-6.719C337.524,322.225,328.791,335.326,328.791,335.326z"/>
		<path stroke="#FFFFFF" stroke-width="20" stroke-linejoin="round" d="M304.938,320.209c0,0-22.844,5.038-11.086,11.422
			c0,0,7.727,0.336,14.446-5.712l2.352,1.345C310.648,327.264,308.298,320.544,304.938,320.209z"/>
		<path stroke="#FFFFFF" stroke-width="20" stroke-linejoin="round" d="M284.128,325.264c0.186,0.424,0.317,0.655,0.317,0.655
			L284.128,325.264z"/>
		
			<line fill="none" stroke="#FFFFFF" stroke-width="20" stroke-linecap="round" stroke-linejoin="round" x1="283.946" y1="324.83" x2="284.128" y2="325.264"/>
		<path stroke="#FFFFFF" stroke-width="20" stroke-linejoin="round" d="M305.273,288.965c0,0-0.494,0.268-1.312,0.788
			C304.4,289.49,304.816,289.227,305.273,288.965z"/>
		<path stroke="#FFFFFF" stroke-width="20" stroke-linejoin="round" d="M303.962,289.753
			c-25.625,15.321-21.688,30.907-20.016,35.077c-1.753-5.283,3.186-16.044,3.186-16.044
			C292.479,297.829,300.783,291.776,303.962,289.753z"/>
		<path stroke="#FFFFFF" stroke-width="20" stroke-linejoin="round" d="M345.812,298.262c0,0,13.887,25.98,0,33.593
			C345.812,331.855,363.732,330.066,345.812,298.262z"/>
		
			<line fill="none" stroke="#FFFFFF" stroke-width="20" stroke-linecap="round" stroke-linejoin="round" x1="315.589" y1="361.943" x2="315.08" y2="364.994"/>
		<path fill="#D9D9D9" stroke="#FFFFFF" stroke-width="20" stroke-linejoin="round" d="M380.525,369.93
			c0-22.174-6.048-23.518-6.048-23.518c-12.67-6.141-45.522-7.459-71.356-7.459c-19.372,0-34.801,0.74-34.801,0.74
			c-26.875,3.358-24.86,8.733-24.86,8.733l-2.688,16.798l-4.702-0.672c-31.462-15.146-48.779-96.478-52.824-117.824
			c-0.32,1.743-0.693,3.473-1.133,5.182l0.597,30.605c0.47,13.585,1.307,29.645,2.788,43.787
			c1.124,10.768,2.638,20.446,4.585,26.928l0.056,0.228l0.018,0.092l0.073,0.353c0.071,0.32,0.188,0.811,0.36,1.463
			c0.346,1.301,0.927,3.248,1.85,5.773c1.848,5.047,5.068,12.402,10.543,21.531c10.949,18.24,30.904,43.559,66.959,71.614
			l0.039,0.023l0.388,0.232c0.352,0.205,0.885,0.505,1.581,0.866c1.394,0.726,3.448,1.694,6.052,2.673
			c3.321,1.246,7.525,2.493,12.382,3.228h0.051h32.915c2.793-0.108,4.779-0.192,5.257-0.214l0.157-0.024
			c0.175-0.027,0.437-0.073,0.776-0.136c0.681-0.129,1.681-0.332,2.925-0.628c2.484-0.599,5.955-1.585,9.824-3.106
			c7.744-3.051,17.041-8.277,23.424-16.807l0.123-0.145c0-0.003,0.201-0.221,0.589-0.658s0.964-1.092,1.696-1.941
			c1.463-1.697,3.568-4.189,6.105-7.333c5.082-6.292,11.906-15.202,18.857-25.66c13.924-20.908,28.312-48.073,30.466-72.526
			l0.007-0.047c0-0.006,0.465-4.082,1.151-10.026c-0.201-0.365-0.325-0.767-0.275-1.187c0-0.002,0.304-2.513,0.77-6.31
			C414.465,344.718,380.525,369.93,380.525,369.93z M328.252,403.43c6.386-0.536,10.415-1.586,10.415-1.586
			c-17.841,8.852-35.642,1.874-42.117-1.31c-13.696-3.488-30.516-9.104-38.289-16.915c-4.832-0.301-7.411-2.604-7.411-2.604
			c4.608-5.692,12.866-4.3,15.882-3.553c2.05-0.818,22.464-8.968,27.569-10.669c4.724-1.574,5.657-4.526,19.188-0.052l2.1-4.799
			l0.097,0.026l0.459,0.046c0.412,0.051,1.017,0.1,1.646,0.1c0.345,0,0.696-0.02,1.026-0.051l-1.101-13.883l10.598-1.598
			l4.035,17.949l-0.11,0.328c2.559,0.146,5.345,0.924,8.196,2.826c10.75,7.168,22.849,8.513,23.742,12.543
			C364.178,380.232,360.868,397.519,328.252,403.43z M317.594,424.578c-3.584,1.345-7.612,0.896-7.612,0.896
			s-12.096-3.582-15.231-3.582c0,0,12.092-0.897,15.677,0.446c3.584,1.343,7.168-0.896,7.168-0.896s9.855,0.897,13.889,1.792
			C331.481,423.234,321.176,423.234,317.594,424.578z M310.871,452.349c0,0,0.897-13.437,4.481-8.062
			c3.582,5.374,0.896,6.27-0.896,10.75C312.664,459.517,310.871,452.349,310.871,452.349z"/>
		<path stroke="#FFFFFF" stroke-width="20" stroke-linejoin="round" d="M328.791,372.616c0,0-7.056,5.711-11.422,6.384
			c0,0-5.04-1.682-9.408-6.721c0,0,4.031,8.062,9.743,9.408c5.712,1.344,1.343,0,1.343,0S326.439,377.992,328.791,372.616z"/>
		<path stroke="#FFFFFF" stroke-width="20" stroke-linejoin="round" d="M293.964,399.156c0,0,0.947,0.575,2.586,1.378
			c6.476,3.184,24.276,10.16,42.117,1.31c0,0-4.029,1.05-10.415,1.586C319.748,404.146,307.049,403.954,293.964,399.156z"/>
		<path stroke="#FFFFFF" stroke-width="20" stroke-linejoin="round" d="M270.671,380.343c0,0,43.337,8.4,46.698,8.4
			c2.863,0,20.038-4.89,31.846-7.976c0,0,3.093-0.761,6.115-1.098c3.023-0.335,11.088,1.682,7.391-1.344
			c-3.694-3.021-13.408,1.564-13.408,1.564c-9.276,1.422-21.991,3.457-25.896,4.482c-6.383,1.68-11.76,0-11.76,0
			s-26.71-3.225-40.29-5.855c-1.294-0.248-2.467-0.496-3.489-0.73c0,0-0.427-0.146-1.146-0.324
			c-3.016-0.747-11.274-2.141-15.882,3.553c0,0,2.58,2.303,7.411,2.604C261.447,383.812,265.601,383.146,270.671,380.343z"/>
		<path stroke="#FFFFFF" stroke-width="20" stroke-linejoin="round" d="M317.594,421.442c0,0-3.584,2.237-7.168,0.896
			c-3.585-1.345-15.677-0.446-15.677-0.446c3.136,0,15.231,3.582,15.231,3.582s4.028,0.449,7.612-0.896
			c3.582-1.344,13.889-1.344,13.889-1.344C327.449,422.341,317.594,421.442,317.594,421.442z"/>
		<path stroke="#FFFFFF" stroke-width="20" stroke-linejoin="round" d="M324.424,364.889c-2.016,3.696-9.744,2.354-9.744,2.354
			c8.736,6.72,12.097-3.023,12.097-3.023l-3.696-16.462L324.424,364.889z"/>
		<path stroke="#FFFFFF" stroke-width="20" stroke-linejoin="round" d="M315.354,444.287c-3.584-5.375-4.481,8.062-4.481,8.062
			s1.793,7.168,3.586,2.688C316.25,450.557,318.936,449.661,315.354,444.287z"/>
		<path fill="#FFFFFF" stroke="#FFFFFF" stroke-width="20" stroke-linejoin="round" d="M179.589,192.681l-0.482-0.449
			c-0.575-0.508-1.412-1.196-2.43-1.874c-2.04-1.37-4.785-2.646-7.489-2.632c-2.136,0.019-4.301,0.685-6.637,2.913
			c-2.223,2.145-3.646,5.083-4.508,8.665c-0.864,3.574-1.14,7.74-1.137,12.106c-0.003,6.369,0.577,13.141,0.579,19.264
			c-0.002,0.757-0.01,1.504-0.028,2.245c-0.323,11.511-2.128,21.737-2.362,23.022l-0.008,0.192c-0.008,0.21-0.017,0.53-0.017,0.947
			c-0.008,3.759,0.665,15.385,7.778,26.427c2.393,3.73,4.372,6.549,6.067,8.562c1.696,2.019,3.097,3.195,4.249,3.761
			c0.774,0.381,1.434,0.531,2.176,0.532c0.954,0.009,2.132-0.307,3.591-0.944l-0.855-43.702l0.025-0.359c0,0,0.05-0.308,0.14-0.901
			c0.089-0.593,0.218-1.458,0.373-2.561c0.31-2.208,0.721-5.349,1.133-9.079c0.825-7.46,1.648-17.28,1.648-26.656
			C181.397,204.949,180.891,197.999,179.589,192.681z M173.582,266.121c0,0-12.607-9.317-4.031-18.813
			c9.406-10.414,6.047-16.795,6.047-16.795s5.04,6.045-3.023,17.132C172.574,247.644,163.503,254.699,173.582,266.121z
			 M160.145,231.52c1.008-9.407,8.062-27.212,8.062-27.212l0.824,0.657c-4.083-5.929-8.373-7.727-10.231,6.062
			c0,0,0.672-37.89,18.992,12.109c0.312,0.827,0.493,1.329,0.493,1.329c-0.168-0.468-0.325-0.876-0.493-1.329
			c-1.208-3.205-4.519-11.564-8.109-17.184C167.664,208.97,160.145,231.52,160.145,231.52z"/>
		<path stroke="#FFFFFF" stroke-width="20" stroke-linejoin="round" d="M178.285,224.464c0,0-0.181-0.502-0.493-1.329
			C177.959,223.588,178.117,223.996,178.285,224.464z"/>
		<path stroke="#FFFFFF" stroke-width="20" stroke-linejoin="round" d="M175.598,230.512c0,0,3.359,6.381-6.047,16.795
			c-8.576,9.496,4.031,18.813,4.031,18.813c-10.079-11.422-1.008-18.477-1.008-18.477
			C180.637,236.557,175.598,230.512,175.598,230.512z"/>
		<path stroke="#FFFFFF" stroke-width="20" stroke-linejoin="round" d="M169.682,205.952c3.59,5.62,6.902,13.979,8.109,17.184
			c-18.319-49.999-18.992-12.109-18.992-12.109c1.858-13.788,6.148-11.99,10.231-6.062l-0.824-0.657c0,0-7.055,17.805-8.062,27.212
			C160.145,231.52,167.664,208.97,169.682,205.952z"/>
		<path fill="#FFFFFF" stroke="#FFFFFF" stroke-width="20" stroke-linejoin="round" d="M455.854,217.316
			c-0.659-1.777-1.419-2.782-2.087-3.321c-0.692-0.545-1.324-0.721-2.104-0.732c-1.213-0.017-2.764,0.611-4.009,1.382
			c-0.636,0.386-1.188,0.79-1.597,1.116c0.032,0.414,0.049,0.849,0.051,1.327c-0.006,2.827-0.503,6.95-1.281,11.855
			c-0.78,4.893-1.839,10.524-2.986,16.17c-0.515,2.527-1.044,5.047-1.574,7.511c2.582,5.858,7.666,19.661,1.401,25.926l-5.374,3.139
			c0,0,11.896-7.449,2.573-22.692c-1.328,5.926-2.551,11.068-3.357,14.249c-0.402,1.588-0.689,2.656-0.889,3.254
			c-0.06,0.168-0.228,0.864-0.396,1.788c-0.176,0.934-0.381,2.147-0.602,3.559c-0.444,2.832-0.96,6.467-1.49,10.375
			c-1.062,7.82-2.179,16.744-2.902,22.625c-0.194,1.586-0.358,2.937-0.488,3.995c2.247-0.478,4.021-1.641,5.59-3.333
			c2.049-2.23,3.588-5.434,4.653-8.818c2.154-6.771,2.435-14.172,2.455-15.742l0.005-0.305l0.12-0.688
			c2.611-7.165,5.818-20.874,7.233-27.214c0.477-2.119,0.75-3.42,0.753-3.425l0.121-0.38c5.648-13.01,6.881-24.635,6.881-32.309
			C456.553,221.433,455.989,218.064,455.854,217.316z M446.593,232.863c0-3.583,7.616-8.062,7.616-8.062
			c-8.957,8.062-5.375,28.218-5.375,28.218C445.701,242.269,446.593,232.863,446.593,232.863z"/>
		<path stroke="#FFFFFF" stroke-width="20" stroke-linejoin="round" d="M454.209,224.801c0,0-7.616,4.479-7.616,8.062
			c0,0-0.892,9.406,2.241,20.156C448.834,253.019,445.252,232.863,454.209,224.801z"/>
		<path stroke="#FFFFFF" stroke-width="20" stroke-linejoin="round" d="M289.374,226.592c0,0-0.094-0.168-0.267-0.438
			L289.374,226.592z"/>
		<path stroke="#FFFFFF" stroke-width="20" stroke-linejoin="round" d="M289.107,226.153c-19.331-33.731-55.723-0.905-55.723-0.905
			C271.491,201.64,286.985,222.825,289.107,226.153z"/>
		<path stroke="#FFFFFF" stroke-width="20" stroke-linejoin="round" d="M352.084,228.832c44.345-9.855,56.439,12.991,56.439,12.991
			C398.219,212.259,352.084,228.832,352.084,228.832z"/>
		<path fill="#CCCCCC" stroke="#FFFFFF" stroke-width="20" stroke-linejoin="round" d="M391.109,421.733
			c-0.616-2.6-1.244-4.493-1.777-5.521l-0.307-0.502c-7.25,9.944-15.459,21.035-16.662,22.658l-7.326,30.425l-0.057,0.173
			c-0.274,0.661-0.69,1.132-1.255,1.738c-0.342,0.354-0.759,0.744-1.213,1.153c-4.086,6.474-15.431,21.841-36.147,32.365
			l18.289,24.821l0.014,0.021c1.529,2.196,5.453,5.383,10.541,8.764c5.096,3.401,11.379,7.081,17.777,10.607
			c12.795,7.062,26.049,13.514,31.298,16.026l0.291,0.14c-2.218-36.006-4.47-66.915-6.708-91.155
			C395.583,448.709,393.298,430.861,391.109,421.733z"/>
		<path fill="#CCCCCC" stroke="#FFFFFF" stroke-width="20" stroke-linejoin="round" d="M325.421,503.208
			c17.265-8.674,28.011-20.836,33.416-28.316c-1.226,0.953-2.592,1.979-4.09,3.071c-5.478,4.001-12.563,8.83-19.587,13.496
			c-9.504,6.319-18.873,12.328-23.947,15.558l13.155-3.993C324.738,502.912,325.1,503.018,325.421,503.208z"/>
		<path fill="#CCCCCC" stroke="#FFFFFF" stroke-width="20" stroke-linejoin="round" d="M283.71,510.354l-0.209-0.023
			c-0.064-0.016-18.787-3.893-39.853-13.706c-21.047-9.815-44.542-25.554-53.851-49.614l-0.087-0.399l-4.244-67.306
			c-0.142,0.469-0.284,0.941-0.434,1.453c-1.556,5.289-3.632,12.762-5.708,21.473c-4.153,17.42-8.294,39.812-8.292,59.57
			c0,3.848,0.16,7.585,0.507,11.171c0.214,0.341,0.627,0.994,1.257,1.979c0.937,1.468,2.309,3.6,4.058,6.258
			c3.496,5.322,8.482,12.761,14.448,21.22c11.932,16.916,27.782,37.928,43.386,54.232c9.842,10.299,19.6,18.658,28.069,22.965
			c1.791-6.503,8.759-31.596,14.458-48.35c2.209-6.483,4.177-11.659,5.73-14.272c0.439-0.709,0.8-1.25,1.389-1.689l0.157-0.096
			l8.401-4.426L283.71,510.354z"/>
	</g>
	<g>
		<path d="M465.288,226.628c0-6.74-0.843-10.906-0.919-11.265l-0.01-0.052l-0.219-0.761l-0.014-0.048l-0.013-0.041
			c-1.041-2.885-2.585-5.421-4.866-7.266c-2.271-1.854-5.04-2.663-7.47-2.668l-0.123,0.001l0,0c-0.006,0-0.009,0-0.015,0
			l-0.038,0.001v0.001c-0.092,0.001-0.162,0.011-0.253,0.015c0.934-3.518,2.197-8.621,3.471-14.782
			c2.438-11.828,4.898-27.443,4.906-42.996c-0.021-12.586-1.562-25.2-6.593-35.919c-7.762-16.433-16.073-30.805-26.068-43.043
			c-9.99-12.236-21.711-22.298-35.972-29.897c-13.949-7.438-26.153-10.77-37.222-13.998c-5.586-1.628-10.614-2.802-14.911-3.577
			c-4.305-0.771-7.828-1.164-10.707-1.17c-0.738,0-1.866-0.016-3.266-0.016h-0.06c-7.094-0.001-21.057,0.409-39.028,5.023
			c-17.944,4.599-41.35,11.691-64.922,28.532c-0.324,0.232-0.626,0.492-0.899,0.771l-0.017,0.016l-0.02,0.021v0.001l-0.352,0.366
			c-0.604,0.629-1.874,1.978-3.612,3.925c-3.82,4.283-9.901,11.46-16.07,20.25c-5.04,7.186-10.148,15.45-14.126,24.207
			c-3.953,8.729-6.839,17.976-7.131,27.306l0,0l-0.002,0.027l-0.003,0.043l-0.002,0.047c-0.167,6.086-0.646,11.845-1.356,17.631
			l-0.011-0.001c-0.396,3.202-0.885,6.442-1.426,9.721l-0.475,0.126l-0.255,1.575c-0.441,0.747-0.787,1.583-0.903,2.525
			l-0.002,0.014l-0.003,0.016v0.001c-0.051,0.46-0.767,6.262-0.965,12.894c-0.121,1.712-0.197,3.495-0.236,5.278
			c-1.218-0.265-2.488-0.462-3.866-0.467v-0.004l-0.055-0.001c-0.003,0-0.003,0-0.003,0h-0.002h-0.021
			c-2.092,0-4.329,0.38-6.515,1.275c-2.194,0.889-4.288,2.271-6.167,4.088c-3.787,3.658-5.833,8.293-6.938,12.908
			c-0.354,1.481-0.475,2.926-0.475,4.33c0.007,3.222,0.601,6.233,0.593,9.31l0.003,0.06c0.008,6.826,0.58,13.602,0.58,19.159v0.078
			c0,0.687-0.01,1.356-0.026,2.01c-0.158,5.722-0.722,11.231-1.249,15.268c-0.262,2.021-0.515,3.674-0.698,4.809
			c-0.092,0.569-0.168,1.008-0.218,1.296l-0.055,0.32l-0.018,0.082l-0.008,0.047l-0.084,0.664l-0.005,0.037l-0.002,0.037
			c-0.008,0.141-0.05,0.779-0.05,1.837c0.002,2.364,0.197,6.831,1.426,12.377c1.188,5.296,1.913,12.504,6.238,19.25
			c3.336,5.165,5.981,8.915,8.874,11.796l0.005,0.006c1.457,1.436,3.039,2.693,4.9,3.619l-0.007-0.004
			c1.794,0.906,3.813,1.406,5.808,1.438c0.663,7.674,2.95,15.495,3.667,22.436c1.092,10.226,0.583,19.27,2.591,26.787
			c-0.261,2.274-0.48,4.638-0.652,7.121c-0.165,2.461-0.283,5.025-0.375,7.629c-0.117,0.246-0.244,0.492-0.335,0.764l-0.036,0.14
			c-0.04,0.164-0.192,0.923-0.489,2.33c-0.876,4.19-2.936,13.837-6.046,26.889c-4.206,17.708-10.413,41.695-10.433,62.621
			c0.002,4.173,0.173,8.277,0.566,12.264c0.103,1.024,0.443,2.024,0.992,2.9c0.063,0.101,14.412,23.062,33.422,48.272
			c9.511,12.606,20.18,25.779,30.913,36.995c5.369,5.611,10.754,10.738,16.076,15.083c5.356,4.372,8.332,5.598,13.412,7.952
			c0.897,0.41,1.864,0.615,2.826,0.615c0.969,0,1.938-0.208,2.834-0.622c1.738-0.812,3.03-2.333,3.581-4.159l0.008,0.003
			c0.008-0.023,8.959-21.013,13.237-34.809c2.11-6.817,4.252-13.354,6.058-18.214c0.898-2.424,1.728-4.447,2.35-5.742l0.003-0.007
			c0.046-0.103,0.086-0.171,0.13-0.263l32.789-9.952l16.924,22.967l0.054-0.054c1.483,1.76,3.235,3.323,5.252,4.939l0.005,0.006
			c4.398,3.478,10.148,7.145,16.43,10.831c9.396,5.509,19.963,11.01,28.199,15.146c4.115,2.068,7.648,3.793,10.16,5.003
			c1.254,0.608,2.251,1.084,2.938,1.412c0.346,0.162,0.61,0.289,0.792,0.373l0.206,0.099l0.054,0.026l0.011,0.006v-0.003
			l0.016,0.009c0.46,0.214,0.819,0.513,1.269,0.871c0.228,0.175,0.477,0.366,0.807,0.543c0.324,0.173,0.759,0.319,1.238,0.318
			c0.639,0,1.227-0.247,1.747-0.603c1.026-0.712,2.032-1.878,2.905-3.196c0.433-0.66,0.813-1.354,1.104-2.057
			c0.287-0.701,0.489-1.404,0.496-2.156l-0.007-0.205v-0.011c-2.854-46.643-7.332-83.242-10.215-109.913
			c-1.447-13.377-2.881-23.85-4.354-31.259c-0.271-1.335-0.315-2.888-0.315-4.43c0-0.562,0.005-1.125,0.005-1.676
			c-0.01-1.681-0.018-3.249-0.526-4.648l-0.009-0.018c-0.051-0.123-0.092-0.21-0.14-0.322c1.044-1.51,2.093-3.038,3.15-4.633
			c3.756-5.648,7.543-11.762,11.152-18.162l0.071-0.103v0.002l0.31-0.434l0.096-0.132l0.058-0.146l0.143-0.351l0.146-0.349
			c2.954-5.33,5.813-10.836,8.367-16.512c5.7-12.689,9.256-26.865,10.595-40.033h0.146v-1.272c0.048-0.403,0.31-2.733,0.72-6.265
			c0.002-0.017,0.004-0.035,0.004-0.051c0.73-0.252,1.452-0.531,2.148-0.89c0.901-0.465,2.027-0.838,3.175-1.306
			c1.14-0.471,2.337-1.043,3.297-2.088c2.7-2.979,4.46-6.41,5.74-9.787c1.904-5.082,2.764-10.2,3.213-14.124
			c0.279-2.504,0.381-4.478,0.417-5.662c0.868-2.511,1.727-5.365,2.556-8.386c1.287-4.688,2.098-9.8,2.653-14.021
			c0.275-2.11,0.487-3.997,0.662-5.485c0.157-1.396,0.29-2.458,0.384-2.922C462.325,247.071,465.28,235.244,465.288,226.628z
			 M410.801,390.007l-0.309,0.435c0.162-0.287,0.322-0.575,0.485-0.864L410.801,390.007z M449.672,258.938l-0.121,0.38
			c-0.003,0.005-0.276,1.307-0.753,3.425c-1.415,6.34-4.622,20.049-7.233,27.214l-0.12,0.688l-0.005,0.305
			c-0.021,1.569-0.301,8.971-2.455,15.743c-1.065,3.385-2.604,6.586-4.653,8.817c-1.568,1.692-3.343,2.855-5.59,3.333
			c0.13-1.06,0.294-2.408,0.487-3.994c0.726-5.884,1.841-14.808,2.903-22.626c0.53-3.908,1.046-7.543,1.49-10.375
			c0.221-1.412,0.426-2.625,0.602-3.559c0.17-0.923,0.339-1.619,0.396-1.788c0.198-0.598,0.485-1.666,0.889-3.254
			c0.808-3.181,2.029-8.323,3.357-14.249c9.323,15.243-2.573,22.692-2.573,22.692l5.374-3.139
			c6.265-6.265,1.181-20.068-1.401-25.926c0.53-2.464,1.061-4.984,1.574-7.511c1.147-5.646,2.206-11.277,2.986-16.17
			c0.777-4.906,1.275-9.029,1.281-11.855c-0.002-0.478-0.019-0.913-0.051-1.327c0.409-0.326,0.961-0.729,1.597-1.116
			c1.245-0.771,2.796-1.399,4.009-1.382c0.779,0.011,1.411,0.187,2.104,0.732c0.668,0.539,1.428,1.543,2.088,3.321
			c0.136,0.748,0.698,4.117,0.698,9.312C456.553,234.302,455.32,245.927,449.672,258.938z M425.202,314.559
			c-0.466,3.797-0.77,6.308-0.77,6.31c-0.05,0.42,0.074,0.821,0.275,1.187c-0.688,5.944-1.151,10.021-1.151,10.026l-0.007,0.047
			c-2.153,24.453-16.542,51.618-30.466,72.526c-6.951,10.458-13.775,19.368-18.857,25.66c-2.537,3.144-4.644,5.636-6.105,7.333
			c-0.732,0.851-1.309,1.504-1.696,1.941c-0.388,0.438-0.589,0.655-0.589,0.658l-0.123,0.145
			c-6.383,8.528-15.68,13.755-23.424,16.807c-3.869,1.521-7.34,2.509-9.824,3.106c-1.244,0.296-2.244,0.499-2.925,0.628
			c-0.341,0.062-0.603,0.107-0.776,0.136l-0.157,0.024c-0.478,0.021-2.464,0.104-5.257,0.214h0.007
			c-1.761,0.07-3.824,0.15-6.046,0.229c-6.258,0.223-13.647,0.449-18.067,0.449c-3.118,0-6.062-0.261-8.807-0.679h-0.051
			c-4.857-0.733-9.062-1.98-12.382-3.228c-2.604-0.979-4.659-1.947-6.052-2.673c-0.696-0.361-1.229-0.661-1.581-0.866l-0.388-0.232
			l-0.039-0.023c-36.055-28.057-56.01-53.374-66.959-71.614c-5.475-9.129-8.695-16.484-10.543-21.531
			c-0.923-2.525-1.504-4.474-1.85-5.773c-0.173-0.652-0.289-1.143-0.36-1.463l-0.073-0.353l-0.018-0.092l-0.056-0.228
			c-1.947-6.48-3.461-16.16-4.585-26.928c-1.48-14.142-2.317-30.202-2.788-43.787l-0.597-30.605c0.44-1.708,0.813-3.438,1.133-5.182
			l-0.01-0.049c1.17-6.464,1.564-13.125,1.633-19.731l0.015-0.221c0.324-4.706,0.541-9.679,0.543-14.567
			c-0.005-7.537-0.514-14.844-2.001-20.758c-0.048-0.544-0.098-1.092-0.145-1.635c-0.378-4.441-0.686-8.84-0.686-13.211
			c0-4.154,0.279-8.279,1.026-12.404c2.103-11.59,3.531-22.339,3.862-34.256c0.215-8.638,3.356-18.032,7.784-27.042
			c3.442-7.006,7.666-13.78,11.894-19.785c4.821-6.871,9.624-12.758,13.214-16.918c1.799-2.08,3.29-3.729,4.331-4.855
			c0.523-0.563,0.93-0.995,1.206-1.285l0.294-0.305c45.127-32.16,84.187-33.568,97.545-33.577c1.338,0,2.425,0.014,3.263,0.014
			h0.052c4.141,0,12.562,1.31,23.124,4.399c10.627,3.098,23.494,7.979,36.796,15.073c13.19,7.039,23.94,16.247,33.317,27.717
			c9.375,11.468,17.361,25.208,24.935,41.242c4.196,8.861,5.766,20.35,5.759,32.192c0.002,14.629-2.36,29.775-4.729,41.231
			c-1.184,5.729-2.363,10.539-3.252,13.911c-0.443,1.686-0.811,3.013-1.07,3.913c-0.254,0.903-0.398,1.37-0.398,1.37l-0.084,0.493
			c-0.774,16.256-2.727,29.635-4.832,40.609l0,0c-0.313,1.638-0.632,3.233-0.949,4.767c-2.235,10.784-4.468,18.936-5.554,25.229
			c-0.384,2.152-0.841,5.166-1.337,8.66C427.542,295.769,426.074,307.458,425.202,314.559z M404.575,564.604l-0.291-0.14
			c-5.249-2.514-18.503-8.966-31.298-16.026c-6.398-3.526-12.683-7.205-17.777-10.607c-5.088-3.381-9.012-6.566-10.541-8.764
			l-0.014-0.021l-18.289-24.821c20.718-10.524,32.062-25.893,36.147-32.365c0.454-0.409,0.871-0.801,1.213-1.153
			c0.563-0.606,0.979-1.077,1.255-1.738l0.057-0.173l7.326-30.425c1.203-1.623,9.412-12.714,16.662-22.658l0.307,0.502
			c0.533,1.028,1.161,2.923,1.777,5.521c2.188,9.128,4.474,26.976,6.758,51.715C400.105,497.689,402.357,528.599,404.575,564.604z
			 M311.213,507.017c5.074-3.229,14.443-9.237,23.947-15.558c7.022-4.666,14.109-9.495,19.587-13.496
			c1.498-1.094,2.864-2.118,4.09-3.071c-5.405,7.48-16.151,19.644-33.416,28.316c-0.321-0.19-0.683-0.296-1.053-0.187
			L311.213,507.017z M284.492,515.217l-0.157,0.095c-0.589,0.44-0.95,0.981-1.389,1.69c-1.553,2.613-3.521,7.789-5.73,14.271
			c-5.698,16.755-12.667,41.848-14.458,48.351c-8.469-4.308-18.227-12.666-28.069-22.965
			c-15.604-16.307-31.454-37.316-43.386-54.232c-5.965-8.459-10.952-15.896-14.448-21.22c-1.749-2.658-3.121-4.79-4.058-6.258
			c-0.63-0.983-1.042-1.639-1.257-1.979c-0.347-3.586-0.507-7.324-0.507-11.171c-0.002-19.759,4.139-42.151,8.292-59.571
			c2.075-8.711,4.151-16.183,5.708-21.472c0.15-0.512,0.292-0.983,0.434-1.453l4.244,67.306l0.087,0.399
			c9.309,24.062,32.804,39.799,53.851,49.614c21.065,9.812,39.789,13.689,39.853,13.706l0.209,0.023l9.183,0.438L284.492,515.217z
			 M192.148,442.569l-3.161-50.122c-0.094-3.838-0.15-7.7-0.15-11.5c0-5.848,0.146-11.508,0.445-16.764
			c6.44,16.635,25.375,52.222,78.26,93.345l0.15,0.104c0.181,0.104,13.016,8.367,31.55,8.383c9.056-0.003,29.635-0.898,29.649-0.898
			l0.2-0.021c0.103-0.016,6.511-0.935,14.674-4.15c7.942-3.139,17.573-8.482,24.593-17.435l-3.07,12.745l-3.327,11.094
			c-0.264,0.234-0.646,0.573-1.146,1.013c-2.938,2.565-9.784,8.414-18.244,14.871c-7.04,4.809-14.808,9.915-21.374,14.172
			c-2.68,1.737-5.121,3.311-7.271,4.688c-3.678,1.927-7.241,3.545-10.542,4.666c-0.154-0.007-0.324-0.016-0.585-0.028
			c-4.838-0.255-27.195-1.902-51-10.835c-11.902-4.465-24.162-10.74-34.797-19.521C206.563,467.754,197.704,456.722,192.148,442.569
			z M178.614,247.896c-0.155,1.102-0.284,1.968-0.373,2.561c-0.089,0.594-0.14,0.898-0.14,0.898l-0.025,0.362l0.855,43.702
			c-1.459,0.638-2.638,0.953-3.591,0.944c-0.742-0.001-1.401-0.151-2.176-0.532c-1.151-0.566-2.553-1.743-4.249-3.761
			c-1.695-2.013-3.675-4.832-6.067-8.562c-7.113-11.042-7.786-22.668-7.778-26.427c0-0.417,0.009-0.737,0.017-0.947l0.008-0.192
			c0.233-1.286,2.039-11.512,2.362-23.022c0.018-0.74,0.025-1.487,0.028-2.245c-0.002-6.124-0.582-12.896-0.579-19.264
			c-0.003-4.366,0.273-8.533,1.137-12.106c0.863-3.582,2.285-6.521,4.508-8.665c2.336-2.229,4.501-2.895,6.637-2.913
			c2.704-0.015,5.449,1.262,7.489,2.632c1.018,0.678,1.855,1.366,2.43,1.874l0.482,0.449c1.302,5.318,1.808,12.269,1.806,19.48
			c0,9.376-0.824,19.196-1.648,26.656C179.335,242.547,178.923,245.688,178.614,247.896z"/>
		<polygon points="459.243,207.191 459.249,207.196 459.249,207.198 		"/>
		<polygon points="220.979,52.706 220.981,52.704 220.984,52.701 		"/>
		<path fill="#D9D9D9" d="M410.492,390.439l0.309-0.434l0.178-0.431C410.814,389.865,410.654,390.154,410.492,390.439z"/>
		<path fill="#FFFFFF" d="M302.801,506.731c0.262,0.013,0.43,0.021,0.584,0.027c3.301-1.121,6.865-2.739,10.543-4.666
			c2.148-1.378,4.591-2.95,7.271-4.688c6.566-4.257,14.334-9.363,21.374-14.172c8.46-6.457,15.308-12.306,18.244-14.871
			c0.499-0.438,0.882-0.777,1.146-1.013l3.327-11.094l3.07-12.745c-7.02,8.951-16.649,14.296-24.593,17.435
			c-8.163,3.217-14.571,4.136-14.674,4.15l-0.2,0.021c-0.016,0-20.595,0.896-29.649,0.898c-18.534-0.016-31.369-8.277-31.55-8.383
			l-0.15-0.104c-52.885-41.123-71.819-76.71-78.26-93.345c-0.299,5.256-0.445,10.916-0.445,16.764c0,3.8,0.056,7.662,0.15,11.5
			l3.161,50.122c5.555,14.151,14.415,25.185,24.854,33.806c10.635,8.78,22.895,15.057,34.797,19.521
			C275.606,504.828,297.962,506.477,302.801,506.731z"/>
		<path fill="#FFFFFF" d="M364.178,380.232c-0.895-4.03-12.992-5.375-23.742-12.543c-2.853-1.902-5.639-2.681-8.196-2.825
			l0.11-0.329l-4.035-17.949l-10.598,1.598l1.101,13.883c-0.33,0.031-0.683,0.051-1.026,0.051c-0.63,0-1.233-0.049-1.646-0.1
			l-0.459-0.045l-0.097-0.027l-0.509,3.05l0.509-3.05l-2.1,4.799c-13.532-4.475-14.464-1.521-19.188,0.052
			c-5.105,1.701-25.519,9.851-27.569,10.669c0.719,0.18,1.146,0.324,1.146,0.324c1.022,0.234,2.195,0.482,3.489,0.73
			c13.58,2.633,40.29,5.855,40.29,5.855s5.377,1.68,11.76,0c3.904-1.025,16.619-3.061,25.896-4.482c0,0,9.713-4.588,13.407-1.564
			c3.697,3.023-4.365,1.009-7.391,1.344c-3.022,0.337-6.115,1.098-6.115,1.098c-11.808,3.086-28.981,7.976-31.846,7.976
			c-3.361,0-46.698-8.399-46.698-8.399c-5.07,2.803-9.224,3.471-12.41,3.275c7.773,7.811,24.593,13.427,38.289,16.915
			c-1.639-0.803-2.586-1.378-2.586-1.378c13.084,4.798,25.784,4.989,34.288,4.272C360.868,397.519,364.178,380.232,364.178,380.232z
			 M319.047,381.688c0,0,4.369,1.345-1.343,0s-9.743-9.406-9.743-9.406c4.368,5.039,9.408,6.72,9.408,6.72
			c4.366-0.673,11.422-6.384,11.422-6.384C326.439,377.992,319.047,381.688,319.047,381.688z M326.775,364.218
			c0,0-3.359,9.743-12.097,3.023c0,0,7.729,1.344,9.744-2.353l-1.345-17.134L326.775,364.218z"/>
		<path fill="#FFFFFF" d="M430.127,278.291c1.086-6.293,3.317-14.445,5.554-25.229c0.317-1.533,0.636-3.129,0.949-4.767
			c0.569-10.971,0.92-22.761,0.582-32.45c-0.896-25.979-0.896-34.042-0.896-34.042s8.957-42.106,8.062-61.815
			c0,0-10.751-22.396-51.063-34.043c-2.508-0.725-4.815-1.114-7.008-1.114c-8.51,0-15.291,5.866-25.264,20.822
			c-4.422,6.636-12.749,10.152-22.887,10.152c-18.609,0-43.328-11.83-61.304-37.923c-8.129-11.799-16.716-16.384-24.801-16.384
			c-19.534,0-36.12,26.784-36.12,43.26c0,23.293-4.477,58.232-4.477,58.232s-15.228,14.333-18.814,35.833l-7.758,27.906
			l-0.015,0.221c-0.068,6.606-0.462,13.268-1.633,19.731l0.01,0.049c4.045,21.346,21.362,102.677,52.824,117.824l4.702,0.673
			l2.688-16.799c0,0-2.016-5.375,24.86-8.734c0,0,15.43-0.739,34.801-0.739c25.834,0,58.688,1.317,71.356,7.459
			c0,0,6.048,1.344,6.048,23.517c0,0,33.938-25.211,44.677-55.369c0.872-7.102,2.34-18.791,3.588-27.608
			C429.286,283.457,429.743,280.443,430.127,278.291z M352.084,228.832c0,0,46.135-16.573,56.439,12.991
			C408.523,241.822,396.429,218.977,352.084,228.832z M345.812,331.855c13.887-7.613,0-33.594,0-33.594
			C363.732,330.066,345.812,331.855,345.812,331.855z M358.018,253.354c10.078,9.407,34.269,0.672,34.269,0.672
			C364.402,267.128,358.018,253.354,358.018,253.354z M386.238,238.909c0,0,3.022,14.782-10.752,14.782
			c-13.772,0-11.084-12.43-11.084-12.43s0.703-1.168,2.127-2.473c-3.912,1.249-8.007,3.312-12.206,6.503
			c0,0,23.852-25.195,46.695,1.68c0,0-6.107-5.911-15.62-8.54C385.682,238.599,385.949,238.725,386.238,238.909z M400.458,208.676
			c-9.856-4.479-50.169,6.272-50.169,6.272s-8.063-4.928-3.583-9.855c6.833-7.515,35.388-21.052,58.231-12.094
			c22.846,8.958,21.946,35.387,21.946,35.387C417.479,213.157,400.458,208.676,400.458,208.676z M339.54,234.207
			c-6.382,5.709-4.366,9.405-4.366,9.405l-1.344,37.962c-0.557-22.283-1.901-33.931-1.68-41.321
			C335.506,235.998,339.54,234.207,339.54,234.207z M335.174,331.295c0,0-3.022,1.008-6.383,4.031c0,0,8.733-13.102,13.773-10.75
			C342.564,324.576,342.564,328.271,335.174,331.295z M308.298,325.919c-6.72,6.048-14.446,5.712-14.446,5.712
			c-11.757-6.384,11.087-11.422,11.087-11.422c3.358,0.335,5.71,7.055,5.71,7.055L308.298,325.919z M236.069,230.176
			c0,0,28.647-25.303,48.128,2.355l0.248,0.332l-0.248-0.332c-0.942-1.226-4.695-5.664-11.423-8.37
			c0.536,2.25,3.02,15.115-10.167,15.419c-12.961,0.305-10.243-13.694-9.544-16.58C248.027,224.148,242.37,226.381,236.069,230.176z
			 M213.896,202.627c17.469-22.844,28.219-26.204,47.705-28.891c19.484-2.687,41.658,10.75,49.719,18.141
			c6.049,5.543-1.89,12.599-6.234,15.779c-1.449,1.06-4.733-0.863-6.885-2.124c-32.12-18.806-38.839-16.119-38.839-16.119
			C247.266,186.728,213.896,202.627,213.896,202.627z M287.132,308.786c0,0-4.938,10.761-3.186,16.044l0.182,0.434l0.317,0.655
			c0,0-0.131-0.231-0.317-0.655l-0.182-0.434c-1.672-4.17-5.609-19.756,20.016-35.077c0.817-0.52,1.312-0.788,1.312-0.788
			c-0.457,0.262-0.873,0.525-1.312,0.788C300.783,291.776,292.479,297.829,287.132,308.786z M289.107,226.153
			c0.173,0.27,0.267,0.438,0.267,0.438L289.107,226.153c-2.122-3.328-17.616-24.514-55.723-0.905
			C233.384,225.248,269.776,192.422,289.107,226.153z M246.819,238.572c0,0,14.782,9.407,33.259,1.681
			C280.079,240.253,264.624,252.347,246.819,238.572z"/>
		<path fill="#FFFFFF" d="M290.435,461.307c2.745,0.418,5.689,0.679,8.807,0.679c4.42,0,11.811-0.228,18.067-0.449
			c2.222-0.078,4.285-0.158,6.046-0.229h-0.007H290.435z"/>
		<path fill="#D9D9D9" d="M192.641,198.822c3.586-21.5,18.814-35.833,18.814-35.833s4.477-34.939,4.477-58.232
			c0-16.476,16.586-43.26,36.12-43.26c8.084,0,16.672,4.585,24.801,16.384c17.976,26.093,42.694,37.923,61.304,37.923
			c10.138,0,18.465-3.516,22.887-10.152c9.973-14.956,16.754-20.822,25.264-20.822c2.191,0,4.5,0.39,7.008,1.114
			c40.312,11.646,51.063,34.043,51.063,34.043c0.896,19.709-8.062,61.815-8.062,61.815s0,8.063,0.896,34.042
			c0.338,9.689-0.013,21.479-0.582,32.45l0,0c2.105-10.974,4.059-24.353,4.832-40.609l0.084-0.493c0,0,0.146-0.467,0.398-1.37
			c0.261-0.9,0.627-2.228,1.07-3.913c0.889-3.372,2.068-8.181,3.252-13.911c2.367-11.457,4.729-26.602,4.729-41.231
			c0.007-11.842-1.562-23.331-5.759-32.192c-7.572-16.035-15.56-29.774-24.935-41.242c-9.377-11.47-20.127-20.678-33.317-27.717
			c-13.302-7.095-26.169-11.975-36.796-15.073c-10.562-3.089-18.983-4.399-23.124-4.399h-0.052c-0.838,0-1.925-0.014-3.263-0.014
			c-13.358,0.009-52.418,1.417-97.545,33.577l-0.294,0.305c-0.276,0.291-0.683,0.722-1.206,1.285
			c-1.041,1.126-2.531,2.775-4.331,4.855c-3.59,4.16-8.393,10.047-13.214,16.918c-4.228,6.005-8.452,12.779-11.894,19.785
			c-4.428,9.01-7.569,18.404-7.784,27.042c-0.331,11.917-1.759,22.666-3.862,34.256c-0.747,4.125-1.026,8.25-1.026,12.404
			c0,4.371,0.308,8.77,0.686,13.211c0.046,0.543,0.097,1.09,0.145,1.635c1.488,5.914,1.996,13.221,2.001,20.758
			c-0.002,4.888-0.219,9.861-0.543,14.567L192.641,198.822z"/>
		<path d="M259.362,189.414c0,0,6.719-2.688,38.839,16.119c2.152,1.26,5.436,3.184,6.885,2.124
			c4.346-3.181,12.283-10.236,6.234-15.779c-8.062-7.391-30.235-20.828-49.719-18.141c-19.486,2.688-30.236,6.047-47.705,28.891
			C213.896,202.627,247.266,186.728,259.362,189.414z"/>
		<path d="M404.938,192.998c-22.845-8.958-51.398,4.58-58.231,12.094c-4.48,4.928,3.583,9.855,3.583,9.855
			s40.312-10.75,50.169-6.272c0,0,17.021,4.481,26.427,19.709C426.885,228.385,427.783,201.956,404.938,192.998z"/>
		<line fill="none" x1="284.198" y1="232.531" x2="284.445" y2="232.863"/>
		<path d="M280.079,240.253c-18.478,7.727-33.259-1.681-33.259-1.681C264.624,252.347,280.079,240.253,280.079,240.253z"/>
		<path d="M401.02,246.972c-22.845-26.875-46.695-1.68-46.695-1.68c4.199-3.191,8.294-5.254,12.206-6.503
			c-1.425,1.304-2.127,2.473-2.127,2.473s-2.688,12.43,11.084,12.43c13.774,0,10.752-14.782,10.752-14.782
			c-0.289-0.184-0.558-0.31-0.84-0.477C394.911,241.061,401.02,246.972,401.02,246.972z"/>
		<path d="M392.285,254.026c0,0-24.189,8.735-34.269-0.672C358.018,253.354,364.402,267.128,392.285,254.026z"/>
		<path d="M253.063,223.001c-0.699,2.886-3.417,16.884,9.544,16.58c13.187-0.304,10.704-13.17,10.167-15.419
			c6.728,2.707,10.481,7.144,11.423,8.37c-19.481-27.658-48.128-2.355-48.128-2.355C242.37,226.381,248.027,224.148,253.063,223.001
			z"/>
		<path d="M332.15,240.253c-0.223,7.391,1.123,19.039,1.68,41.321l1.344-37.962c0,0-2.016-3.695,4.366-9.405
			C339.54,234.207,335.506,235.998,332.15,240.253z"/>
		<path d="M328.791,335.326c3.359-3.023,6.383-4.031,6.383-4.031c7.392-3.023,7.392-6.719,7.392-6.719
			C337.524,322.225,328.791,335.326,328.791,335.326z"/>
		<path d="M304.938,320.209c0,0-22.844,5.038-11.086,11.422c0,0,7.727,0.336,14.446-5.712l2.352,1.345
			C310.648,327.264,308.298,320.544,304.938,320.209z"/>
		<path d="M284.128,325.264c0.186,0.424,0.317,0.655,0.317,0.655L284.128,325.264z"/>
		<line fill="none" x1="283.946" y1="324.83" x2="284.128" y2="325.264"/>
		<path d="M305.273,288.965c0,0-0.494,0.268-1.312,0.788C304.4,289.49,304.816,289.227,305.273,288.965z"/>
		<path d="M303.962,289.753c-25.625,15.321-21.688,30.907-20.016,35.077c-1.753-5.283,3.186-16.044,3.186-16.044
			C292.479,297.829,300.783,291.776,303.962,289.753z"/>
		<path d="M345.812,298.262c0,0,13.887,25.98,0,33.593C345.812,331.855,363.732,330.066,345.812,298.262z"/>
		<line fill="none" x1="315.589" y1="361.943" x2="315.08" y2="364.994"/>
		<path fill="#D9D9D9" d="M380.525,369.93c0-22.174-6.048-23.518-6.048-23.518c-12.67-6.141-45.522-7.459-71.356-7.459
			c-19.372,0-34.801,0.74-34.801,0.74c-26.875,3.358-24.86,8.733-24.86,8.733l-2.688,16.798l-4.702-0.672
			c-31.462-15.146-48.779-96.478-52.824-117.824c-0.32,1.743-0.693,3.473-1.133,5.182l0.597,30.605
			c0.47,13.585,1.307,29.645,2.788,43.787c1.124,10.768,2.638,20.446,4.585,26.928l0.056,0.228l0.018,0.092l0.073,0.353
			c0.071,0.32,0.188,0.811,0.36,1.463c0.346,1.301,0.927,3.248,1.85,5.773c1.848,5.047,5.068,12.402,10.543,21.531
			c10.949,18.24,30.904,43.559,66.959,71.614l0.039,0.023l0.388,0.232c0.352,0.205,0.885,0.505,1.581,0.866
			c1.394,0.726,3.448,1.694,6.052,2.673c3.321,1.246,7.525,2.493,12.382,3.228h0.051h32.915c2.793-0.108,4.779-0.192,5.257-0.214
			l0.157-0.024c0.175-0.027,0.437-0.073,0.776-0.136c0.681-0.129,1.681-0.332,2.925-0.628c2.484-0.599,5.955-1.585,9.824-3.106
			c7.744-3.051,17.041-8.277,23.424-16.807l0.123-0.145c0-0.003,0.201-0.221,0.589-0.658s0.964-1.092,1.696-1.941
			c1.463-1.697,3.568-4.189,6.105-7.333c5.082-6.292,11.906-15.202,18.857-25.66c13.924-20.908,28.312-48.073,30.466-72.526
			l0.007-0.047c0-0.006,0.465-4.082,1.151-10.026c-0.201-0.365-0.325-0.767-0.275-1.187c0-0.002,0.304-2.513,0.77-6.31
			C414.465,344.718,380.525,369.93,380.525,369.93z M328.252,403.43c6.386-0.536,10.415-1.586,10.415-1.586
			c-17.841,8.852-35.642,1.874-42.117-1.31c-13.696-3.488-30.516-9.104-38.289-16.915c-4.832-0.301-7.411-2.604-7.411-2.604
			c4.608-5.692,12.866-4.3,15.882-3.553c2.05-0.818,22.464-8.968,27.569-10.669c4.724-1.574,5.657-4.526,19.188-0.052l2.1-4.799
			l0.097,0.026l0.459,0.046c0.412,0.051,1.017,0.1,1.646,0.1c0.345,0,0.696-0.02,1.026-0.051l-1.101-13.883l10.598-1.598
			l4.035,17.949l-0.11,0.328c2.559,0.146,5.345,0.924,8.196,2.826c10.75,7.168,22.849,8.513,23.742,12.543
			C364.178,380.232,360.868,397.519,328.252,403.43z M317.594,424.578c-3.584,1.345-7.612,0.896-7.612,0.896
			s-12.096-3.582-15.231-3.582c0,0,12.092-0.897,15.677,0.446c3.584,1.343,7.168-0.896,7.168-0.896s9.855,0.897,13.889,1.792
			C331.481,423.234,321.176,423.234,317.594,424.578z M310.871,452.349c0,0,0.897-13.437,4.481-8.062
			c3.582,5.374,0.896,6.27-0.896,10.75C312.664,459.517,310.871,452.349,310.871,452.349z"/>
		<path d="M328.791,372.616c0,0-7.056,5.711-11.422,6.384c0,0-5.04-1.682-9.408-6.721c0,0,4.031,8.062,9.743,9.408
			c5.712,1.344,1.343,0,1.343,0S326.439,377.992,328.791,372.616z"/>
		<path d="M293.964,399.156c0,0,0.947,0.575,2.586,1.378c6.476,3.184,24.276,10.16,42.117,1.31c0,0-4.029,1.05-10.415,1.586
			C319.748,404.146,307.049,403.954,293.964,399.156z"/>
		<path d="M270.671,380.343c0,0,43.337,8.4,46.698,8.4c2.863,0,20.038-4.89,31.846-7.976c0,0,3.093-0.761,6.115-1.098
			c3.023-0.335,11.088,1.682,7.391-1.344c-3.694-3.021-13.408,1.564-13.408,1.564c-9.276,1.422-21.991,3.457-25.896,4.482
			c-6.383,1.68-11.76,0-11.76,0s-26.71-3.225-40.29-5.855c-1.294-0.248-2.467-0.496-3.489-0.73c0,0-0.427-0.146-1.146-0.324
			c-3.016-0.747-11.274-2.141-15.882,3.553c0,0,2.58,2.303,7.411,2.604C261.447,383.812,265.601,383.146,270.671,380.343z"/>
		<path d="M317.594,421.442c0,0-3.584,2.237-7.168,0.896c-3.585-1.345-15.677-0.446-15.677-0.446c3.136,0,15.231,3.582,15.231,3.582
			s4.028,0.449,7.612-0.896c3.582-1.344,13.889-1.344,13.889-1.344C327.449,422.341,317.594,421.442,317.594,421.442z"/>
		<path d="M324.424,364.889c-2.016,3.696-9.744,2.354-9.744,2.354c8.736,6.72,12.097-3.023,12.097-3.023l-3.696-16.462
			L324.424,364.889z"/>
		<path d="M315.354,444.287c-3.584-5.375-4.481,8.062-4.481,8.062s1.793,7.168,3.586,2.688
			C316.25,450.557,318.936,449.661,315.354,444.287z"/>
		<path fill="#FFFFFF" d="M179.589,192.681l-0.482-0.449c-0.575-0.508-1.412-1.196-2.43-1.874c-2.04-1.37-4.785-2.646-7.489-2.632
			c-2.136,0.019-4.301,0.685-6.637,2.913c-2.223,2.145-3.646,5.083-4.508,8.665c-0.864,3.574-1.14,7.74-1.137,12.106
			c-0.003,6.369,0.577,13.141,0.579,19.264c-0.002,0.757-0.01,1.504-0.028,2.245c-0.323,11.511-2.128,21.737-2.362,23.022
			l-0.008,0.192c-0.008,0.21-0.017,0.53-0.017,0.947c-0.008,3.759,0.665,15.385,7.778,26.427c2.393,3.73,4.372,6.549,6.067,8.562
			c1.696,2.019,3.097,3.195,4.249,3.761c0.774,0.381,1.434,0.531,2.176,0.532c0.954,0.009,2.132-0.307,3.591-0.944l-0.855-43.702
			l0.025-0.359c0,0,0.05-0.308,0.14-0.901c0.089-0.593,0.218-1.458,0.373-2.561c0.31-2.208,0.721-5.349,1.133-9.079
			c0.825-7.46,1.648-17.28,1.648-26.656C181.397,204.949,180.891,197.999,179.589,192.681z M173.582,266.121
			c0,0-12.607-9.317-4.031-18.813c9.406-10.414,6.047-16.795,6.047-16.795s5.04,6.045-3.023,17.132
			C172.574,247.644,163.503,254.699,173.582,266.121z M160.145,231.52c1.008-9.407,8.062-27.212,8.062-27.212l0.824,0.657
			c-4.083-5.929-8.373-7.727-10.231,6.062c0,0,0.672-37.89,18.992,12.109c0.312,0.827,0.493,1.329,0.493,1.329
			c-0.168-0.468-0.325-0.876-0.493-1.329c-1.208-3.205-4.519-11.564-8.109-17.184C167.664,208.97,160.145,231.52,160.145,231.52z"/>
		<path d="M178.285,224.464c0,0-0.181-0.502-0.493-1.329C177.959,223.588,178.117,223.996,178.285,224.464z"/>
		<path d="M175.598,230.512c0,0,3.359,6.381-6.047,16.795c-8.576,9.496,4.031,18.813,4.031,18.813
			c-10.079-11.422-1.008-18.477-1.008-18.477C180.637,236.557,175.598,230.512,175.598,230.512z"/>
		<path d="M169.682,205.952c3.59,5.62,6.902,13.979,8.109,17.184c-18.319-49.999-18.992-12.109-18.992-12.109
			c1.858-13.788,6.148-11.99,10.231-6.062l-0.824-0.657c0,0-7.055,17.805-8.062,27.212
			C160.145,231.52,167.664,208.97,169.682,205.952z"/>
		<path fill="#FFFFFF" d="M455.854,217.316c-0.659-1.777-1.419-2.782-2.087-3.321c-0.692-0.545-1.324-0.721-2.104-0.732
			c-1.213-0.017-2.764,0.611-4.009,1.382c-0.636,0.386-1.188,0.79-1.597,1.116c0.032,0.414,0.049,0.849,0.051,1.327
			c-0.006,2.827-0.503,6.95-1.281,11.855c-0.78,4.893-1.839,10.524-2.986,16.17c-0.515,2.527-1.044,5.047-1.574,7.511
			c2.582,5.858,7.666,19.661,1.401,25.926l-5.374,3.139c0,0,11.896-7.449,2.573-22.692c-1.328,5.926-2.551,11.068-3.357,14.249
			c-0.402,1.588-0.689,2.656-0.889,3.254c-0.06,0.168-0.228,0.864-0.396,1.788c-0.176,0.934-0.381,2.147-0.602,3.559
			c-0.444,2.832-0.96,6.467-1.49,10.375c-1.062,7.82-2.179,16.744-2.902,22.625c-0.194,1.586-0.358,2.937-0.488,3.995
			c2.247-0.478,4.021-1.641,5.59-3.333c2.049-2.23,3.588-5.434,4.653-8.818c2.154-6.771,2.435-14.172,2.455-15.742l0.005-0.305
			l0.12-0.688c2.611-7.165,5.818-20.874,7.233-27.214c0.477-2.119,0.75-3.42,0.753-3.425l0.121-0.38
			c5.648-13.01,6.881-24.635,6.881-32.309C456.553,221.433,455.989,218.064,455.854,217.316z M446.593,232.863
			c0-3.583,7.616-8.062,7.616-8.062c-8.957,8.062-5.375,28.218-5.375,28.218C445.701,242.269,446.593,232.863,446.593,232.863z"/>
		<path d="M454.209,224.801c0,0-7.616,4.479-7.616,8.062c0,0-0.892,9.406,2.241,20.156
			C448.834,253.019,445.252,232.863,454.209,224.801z"/>
		<path d="M289.374,226.592c0,0-0.094-0.168-0.267-0.438L289.374,226.592z"/>
		<path d="M289.107,226.153c-19.331-33.731-55.723-0.905-55.723-0.905C271.491,201.64,286.985,222.825,289.107,226.153z"/>
		<path d="M352.084,228.832c44.345-9.855,56.439,12.991,56.439,12.991C398.219,212.259,352.084,228.832,352.084,228.832z"/>
		<path fill="#CCCCCC" d="M391.109,421.733c-0.616-2.6-1.244-4.493-1.777-5.521l-0.307-0.502
			c-7.25,9.944-15.459,21.035-16.662,22.658l-7.326,30.425l-0.057,0.173c-0.274,0.661-0.69,1.132-1.255,1.738
			c-0.342,0.354-0.759,0.744-1.213,1.153c-4.086,6.474-15.431,21.841-36.147,32.365l18.289,24.821l0.014,0.021
			c1.529,2.196,5.453,5.383,10.541,8.764c5.096,3.401,11.379,7.081,17.777,10.607c12.795,7.062,26.049,13.514,31.298,16.026
			l0.291,0.14c-2.218-36.006-4.47-66.915-6.708-91.155C395.583,448.709,393.298,430.861,391.109,421.733z"/>
		<path fill="#CCCCCC" d="M325.421,503.208c17.265-8.674,28.011-20.836,33.416-28.316c-1.226,0.953-2.592,1.979-4.09,3.071
			c-5.478,4.001-12.563,8.83-19.587,13.496c-9.504,6.319-18.873,12.328-23.947,15.558l13.155-3.993
			C324.738,502.912,325.1,503.018,325.421,503.208z"/>
		<path fill="#CCCCCC" d="M283.71,510.354l-0.209-0.023c-0.064-0.016-18.787-3.893-39.853-13.706
			c-21.047-9.815-44.542-25.554-53.851-49.614l-0.087-0.399l-4.244-67.306c-0.142,0.469-0.284,0.941-0.434,1.453
			c-1.556,5.289-3.632,12.762-5.708,21.473c-4.153,17.42-8.294,39.812-8.292,59.57c0,3.848,0.16,7.585,0.507,11.171
			c0.214,0.341,0.627,0.994,1.257,1.979c0.937,1.468,2.309,3.6,4.058,6.258c3.496,5.322,8.482,12.761,14.448,21.22
			c11.932,16.916,27.782,37.928,43.386,54.232c9.842,10.299,19.6,18.658,28.069,22.965c1.791-6.503,8.759-31.596,14.458-48.35
			c2.209-6.483,4.177-11.659,5.73-14.272c0.439-0.709,0.8-1.25,1.389-1.689l0.157-0.096l8.401-4.426L283.71,510.354z"/>
	</g>
</g>
</svg>
