<?xml version="1.0" encoding="utf-8"?>
<!-- Generator: Adobe Illustrator 14.0.0, SVG Export Plug-In . SVG Version: 6.00 Build 43363)  -->
<!DOCTYPE svg PUBLIC "-//W3C//DTD SVG 1.1//EN" "http://www.w3.org/Graphics/SVG/1.1/DTD/svg11.dtd">
<svg version="1.1" id="Layer_1" xmlns="http://www.w3.org/2000/svg" xmlns:xlink="http://www.w3.org/1999/xlink" x="0px" y="0px"
	 width="393px" height="577px" viewBox="112.5 12.5 393 577" enable-background="new 112.5 12.5 393 577" xml:space="preserve">
<g id="Layer_2" display="none">
	<rect display="inline" width="600" height="600"/>
</g>
<g id="Layer_1_1_">
	<g>
		<g>
			<path fill="#FFFFFF" stroke="#FFFFFF" stroke-width="20" stroke-linejoin="round" d="M175.926,309.838
				c1.923,0.42,3.72,0.967,5.351,1.664c-16.366-38.552-9.553-64.255-9.553-64.255c-2.522,21.069,4.936,46.524,9.935,60.577
				c0.634,1.783,1.222,3.361,1.751,4.746c0.082,0.048,0.174,0.088,0.252,0.138c1.376,0.879,2.604,1.974,3.303,3.575l0.008-0.003
				c0.027,0.071,13.802,30.011,20.762,56.686c2.316,8.906,3.893,17.441,3.896,24.572c0,0.421-0.004,0.834-0.015,1.244
				c-0.048,1.749-0.072,3.503-0.072,5.256c-0.005,21.545,3.43,42.938,4.283,47.886c0.121,0.707,0.188,1.07,0.188,1.07l-0.009,0.002
				c0.024,0.136,0.046,0.279,0.052,0.459l-0.778,0.071c0.025,0.169,0.052,0.337,0.077,0.508l0.582,0.187v0.003l-0.022,0.076
				l-0.1,0.371c-0.057,0.233-0.133,0.588-0.216,0.994c0.937,6.067,2.052,11.629,3.365,15.843c0.762,2.475,1.605,4.44,2.413,5.716
				c1.563,0.962,7.542,4.675,12.14,8.036c1.73,1.27,3.25,2.469,4.353,3.548c1.346,1.059,40.695,31.98,66.638,60.077
				c6.562,7.116,12.266,14.033,16.312,20.331c0.238-0.22,0.479-0.423,0.724-0.645c0.31-1.988,0.718-4.294,1.27-6.784
				c1.625-7.26,4.285-15.869,9.109-21.539c3.44-4.011,10.703-11.194,18.901-19.405c8.185-8.191,17.27-17.368,24.186-25.145
				c4.605-5.172,8.261-9.772,9.955-12.837c2.594-4.657,7.544-11.153,13.106-17.828c5.561-6.666,11.71-13.449,16.63-18.484
				c2.936-2.999,5.352-5.3,7.108-6.719c0.228-0.223,0.453-0.453,0.679-0.677c-0.003-0.022-0.003-0.037-0.006-0.062
				c-0.055-0.775-0.14-1.921-0.266-3.368c-0.252-2.892-0.664-6.991-1.306-11.803c-1.281-9.614-3.485-22.07-7.115-33.305
				l-0.045-0.145l-0.029-0.144c-0.015-0.099-4.524-22.899-4.53-49.257c0.011-16.484,1.743-34.354,7.625-49.083l0.499-1.244
				c2.095-20.406,2.225-62.544,2.225-62.544c0.17,10.785,0.677,24.528,0.556,37.174c-0.104,10.653-0.541,20.333-0.773,24.854
				l0.861,0.374l0.004,0.002l0.073,0.03l0.338,0.129c0.307,0.11,0.763,0.263,1.327,0.416c1.125,0.308,2.682,0.613,4.278,0.61
				c2.104-0.004,4.16-0.488,5.841-1.93c1.675-1.444,3.25-4.036,3.842-9.06c0.996-8.647,2.144-15.52,3.032-21.021
				c0.896-5.493,1.508-9.623,1.502-12.655c0-0.728-0.035-1.393-0.102-2l-0.072-0.642l0.245-0.597c0,0,0.075-0.181,0.217-0.537
				c0.14-0.357,0.347-0.882,0.604-1.552c0.512-1.337,1.225-3.242,2.014-5.502c1.579-4.518,3.476-10.464,4.719-16.075
				c0.829-3.734,1.364-7.331,1.36-10.146c0.003-1.545-0.165-2.848-0.449-3.753c-0.29-0.922-0.644-1.371-0.951-1.59
				c-1.461-1.064-2.629-1.977-3.564-2.653c-0.937-0.682-1.639-1.105-2.082-1.276c-0.301-0.118-0.469-0.142-0.63-0.143
				c-0.189,0.002-0.431,0.034-0.884,0.235c-0.444,0.198-1.075,0.575-1.868,1.169c-1.595,1.189-3.836,3.22-6.976,6.167l-3.131,2.937
				l-26.798-104.889L362.88,63.45l-50.301-24.784L281.1,32.94l-52.938,21.033l-45.78,39.24L167.2,134.421l-7.068,97.398
				l-3.998-4.531l-0.027-0.03l-0.111-0.123l-0.458-0.483c-0.404-0.413-0.994-0.996-1.712-1.64c-1.436-1.289-3.414-2.817-5.361-3.754
				c-1.295-0.633-2.552-0.98-3.557-0.974c-1.078,0.025-1.872,0.275-2.831,1.202c-0.721,0.725-1.187,1.494-1.503,2.378
				c-0.315,0.883-0.469,1.892-0.469,3.021c-0.011,2.668,0.904,5.949,2.094,9.115c1.182,3.181,2.595,6.215,3.457,8.781
				c1.154,3.476,3.175,10.847,4.939,17.437c1.76,6.578,3.242,12.317,3.242,12.321l0.014,0.06l0.005,0.018
				c0,0,0.046,0.21,0.141,0.612c0.092,0.401,0.233,0.989,0.412,1.729c0.361,1.479,0.884,3.565,1.539,5.976
				c1.306,4.824,3.137,10.966,5.178,16.127c1.351,3.431,2.83,6.446,4.138,8.201c0.729,1.012,1.417,1.539,1.626,1.604l0.057,0.019
				C169.901,308.891,173.022,309.216,175.926,309.838z M447.281,207.856c0,0,2.59-0.738-0.372,6.288c0,0,1.11-6.658-7.026,0
				c0,0-0.654,17.227,0.79,23.649c0.621,2.098,0.916,2.809,0.317,1.133c-0.116-0.323-0.219-0.706-0.317-1.133
				c-1.246-4.226-3.793-14.132-3.084-22.012c-2.569,1.895-6.566,5.042-8.05,7.301c-0.018,0.033-0.046,0.079-0.064,0.11
				c-0.122,0.195-0.234,0.389-0.313,0.568c0,0,0.107-0.208,0.313-0.568c0.023-0.037,0.04-0.072,0.064-0.11
				C431.04,220.494,437.104,211.038,447.281,207.856z M422.129,243.362c0,0,2.22,2.592,4.07,8.879
				c1.852,6.289-4.07,11.467-4.07,11.467s4.439-7.029,1.112-10.728C419.911,249.283,422.129,243.362,422.129,243.362z
				 M210.564,218.583c0,0,21.082-28.479,47.342-7.767c0,0-5.078-3.817-12.818-5.442c0.467,1.85,1.954,8.681-1.238,10.435
				c0,0-8.32,3.884-15.534,2.034c0,0-4.4-3.895-2.871-10.462C220.617,209.496,215.574,213.018,210.564,218.583z M257.721,279.981
				c0,0-6.935-12.76,2.772-18.865C260.493,261.117,253.836,266.667,257.721,279.981z M250.476,222.175
				c-27.943,14.759-33.321,3.552-33.321,3.552C225.881,232.386,250.476,222.175,250.476,222.175z M336.406,420.461
				c-3.835,1.5-8.479,2.705-14.238,3.607c-8.047,1.507-16.97,2.383-26.904,2.383c-2.82,0-5.513-0.14-8.144-0.34
				c-1.798,0-3.632-0.009-5.54-0.026c-8.236-0.09-14.919-2.349-20.351-5.727c-33.425-13.202-43.454-43.285-43.454-43.285
				s12.549,25.604,38.399,39.557c-13.299-11.603-16.763-29.751-16.763-29.751s1.269,3.959,4.076,9.229
				c-0.067-0.238-0.129-0.481-0.191-0.725c0,0,4.195,5.128,11.731,5.128c0.687,0,1.397-0.041,2.139-0.134
				c5.781-0.724,29.441-5.682,50.761-5.682c11.418,0,22.168,1.424,29.136,5.682c3.786,2.314,6.896,3.251,9.448,3.251
				c1.977,0,3.615-0.56,4.979-1.48l15.157-40.423c0,0-8.137,39.208-17.011,49.563c-1.789,2.087-3.818,3.947-6.271,5.591
				c18.503-7.758,37.74-22.361,48.617-49.791C391.983,367.088,382.876,405.404,336.406,420.461z M288.355,330.039
				c0,0,5.526,1.619,7.027,1.441c1.502-0.183,7.106-2.123,7.106-2.123s8.189,0.541,24.247-3.164
				c16.056-3.702,22.588-2.198,22.588-2.198c-4.604,1.821-13.524,3.653-19.625,3.62c-3.919-0.016-13.975,2.062-20.662,3.547
				c-3.722,0.834-13.244,5.854-19.196,2.762c-5.956-3.096-19.685-3.227-29.191-2.087c-9.512,1.142-13.201,0.06-13.201,0.06
				c5.024-4.662,12.486-1.748,12.486-1.748C269.855,328.195,288.355,330.039,288.355,330.039z M284.091,314.631
				c0,0,9.064,4.59,22.834-1.023c0,0-5.217,2.707-10.552,4.594C296.374,318.2,288.96,317.296,284.091,314.631z M326.795,259.455
				c14.979,16.642,2.219,21.914,2.219,21.914C338.445,273.046,326.795,259.455,326.795,259.455z M331.332,218.177
				c0,0,22.198,4.117,38.055-2.862C369.387,215.315,354.701,225.494,331.332,218.177z M357.666,196.515
				c2.84,9.122-3.041,12.268-3.041,12.268c-4.256,1.665-13.312,0.741-13.312,0.741c-4.531-2.969-2.729-9.875-2.062-11.956
				c-8.112,3.294-13.288,9.548-13.288,9.548c2.222-3.328,9.247-13.314,24.043-13.684c14.797-0.369,19.233,11.836,19.233,11.836
				C366.406,199.979,361.65,197.592,357.666,196.515z M306.266,356.452c-12.261,8.877-19.598,2.262-19.598,2.262
				C292.701,361.048,306.266,356.452,306.266,356.452z M319.676,176.787c0,0,38.469-16.645,49.563-12.206
				c0,0,22.931,9.986,17.383,27.74c0,0,0.372,2.218-10.723-5.177c-11.098-7.397-37.891-6.109-58.075,7.767
				C311.905,198.98,308.21,181.594,319.676,176.787z M324.021,284.421c3.592,0.827-14.029,4.415-19.363,8.834
				c8.359,0.005,37.949,1.891,37.949,1.891c34.398,1.112,25.524,18.495,25.524,18.495c-4.812,12.026-8.233,15.435-10.562,15.435
				c-3.045,0-4.232-5.815-4.232-5.815s0-6.66-1.112-8.508c-1.108-1.852-8.136-4.068-8.136-4.068s-24.593-4.078-35.113-4.078
				c-1.753,0-3.115,0.115-3.908,0.377c-1.967,0.656-4.447,0.893-6.959,0.893c-4.573,0-9.257-0.782-11.167-1.261
				c-0.141-0.036-0.336-0.054-0.582-0.054c-4.918,0-29.749,6.709-29.749,6.709c-19.975,4.44-17.563,19.976-17.563,19.976
				c0,1.61-0.33,2.229-0.837,2.229c-1.712,0-5.453-7.039-5.453-7.039c-11.838-19.973,1.11-23.302,1.11-23.302
				c3.864-4.192,37.52-10.629,46.101-12.214c-1.336-0.659-2.89-1.368-4.771-2.118c-6.935-2.775-11.375-4.438-11.375-4.438
				s11.375-0.278,17.479,4.438c6.104,4.714,13.313,7.489,21.915,0C311.814,283.311,324.021,284.421,324.021,284.421z
				 M278.803,197.869c9.986,10.542-3.882,52.153-3.882,52.153C284.352,205.081,278.803,197.869,278.803,197.869z M212.412,177.896
				c51.783-4.069,57.329,17.384,57.329,17.384c2.59,4.438-12.573,0.371-12.573,0.371c-28.708-13.299-50.749,0.563-57.859,6.083
				c-1.59,1.236-2.883-0.724-2.902-2.024C196.194,185.071,212.412,177.896,212.412,177.896z M169.506,249.65l0.744,2.22
				c-3.329,0.739-11.098,10.359-11.098,10.359C159.894,256.679,169.506,249.65,169.506,249.65z M147.687,242.993
				c-17.017-29.589,10.725-5.178,10.725-5.178C133.629,217.843,147.687,242.993,147.687,242.993z M155.99,275.833
				c0.057-1.051,0.2-1.769,0.2-1.769C156.104,274.684,156.043,275.269,155.99,275.833c-0.207,3.919,0.867,12.745,15.736,8.957
				C171.726,284.79,154.289,294.899,155.99,275.833z"/>
			<path fill="#FFFFFF" stroke="#FFFFFF" stroke-width="20" stroke-linejoin="round" d="M288.834,297.371
				c0.005,0,0.012-0.003,0.017-0.003c-0.919-0.088-1.625-0.25-2.003-0.465c0.304,0.332,0.908,0.473,1.713,0.473
				C288.648,297.376,288.741,297.374,288.834,297.371z"/>
			<path stroke="#FFFFFF" stroke-width="20" stroke-linejoin="round" d="M350.006,193.431
				c-14.796,0.369-21.821,10.356-24.043,13.684c0,0,5.176-6.253,13.288-9.548c-0.669,2.081-2.471,8.987,2.062,11.956
				c0,0,9.057,0.924,13.312-0.741c0,0,5.881-3.146,3.041-12.268c3.984,1.078,8.74,3.464,11.573,8.752
				C369.239,205.267,364.803,193.062,350.006,193.431z"/>
			<path stroke="#FFFFFF" stroke-width="20" stroke-linejoin="round" d="M250.476,222.175c0,0-24.595,10.211-33.321,3.552
				C217.155,225.727,222.533,236.934,250.476,222.175z"/>
			<path stroke="#FFFFFF" stroke-width="20" stroke-linejoin="round" d="M369.387,215.315c-15.855,6.979-38.055,2.862-38.055,2.862
				C354.701,225.494,369.387,215.315,369.387,215.315z"/>
			<path stroke="#FFFFFF" stroke-width="20" stroke-linejoin="round" d="M228.316,217.843c7.214,1.85,15.534-2.034,15.534-2.034
				c3.191-1.754,1.705-8.585,1.238-10.435c7.74,1.625,12.818,5.442,12.818,5.442c-26.26-20.712-47.342,7.767-47.342,7.767
				c5.009-5.564,10.053-9.087,14.881-11.202C223.916,213.948,228.316,217.843,228.316,217.843z"/>
			<path stroke="#FFFFFF" stroke-width="20" stroke-linejoin="round" d="M199.309,201.734c7.111-5.519,29.152-19.381,57.859-6.083
				c0,0,15.164,4.066,12.573-0.371c0,0-5.546-21.453-57.329-17.384c0,0-16.218,7.175-16.006,21.813
				C196.426,201.01,197.719,202.97,199.309,201.734z"/>
			<path stroke="#FFFFFF" stroke-width="20" stroke-linejoin="round" d="M317.824,194.91c20.186-13.875,46.979-15.164,58.075-7.767
				c11.095,7.396,10.723,5.177,10.723,5.177c5.548-17.754-17.383-27.74-17.383-27.74c-11.096-4.438-49.563,12.206-49.563,12.206
				C308.21,181.594,311.905,198.98,317.824,194.91z"/>
			<path stroke="#FFFFFF" stroke-width="20" stroke-linejoin="round" d="M278.803,197.869c0,0,5.549,7.212-3.882,52.153
				C274.92,250.021,288.789,208.411,278.803,197.869z"/>
			<path stroke="#FFFFFF" stroke-width="20" stroke-linejoin="round" d="M326.795,259.455c0,0,11.65,13.591,2.219,21.914
				C329.014,281.368,341.772,276.097,326.795,259.455z"/>
			<path stroke="#FFFFFF" stroke-width="20" stroke-linejoin="round" d="M281.3,290.801c-6.103-4.715-17.479-4.438-17.479-4.438
				s4.441,1.662,11.375,4.438c1.881,0.75,3.435,1.459,4.771,2.118c0.001,0,0.006,0,0.008,0c3.596,1.774,5.456,3.176,6.873,3.983
				c0.377,0.215,1.083,0.377,2.003,0.465c-0.005,0-0.012,0.003-0.017,0.003c0.537,0.052,1.149,0.082,1.818,0.082
				c4.099,0,10.292-1.075,13.95-4.155c0.016-0.015,0.031-0.027,0.049-0.042h0.008c5.334-4.42,22.955-8.008,19.362-8.834
				c0,0-12.206-1.111-20.807,6.38C294.614,298.291,287.404,295.516,281.3,290.801z"/>
			<path stroke="#FFFFFF" stroke-width="20" stroke-linejoin="round" d="M257.721,279.981c-3.885-13.315,2.772-18.865,2.772-18.865
				C250.787,267.221,257.721,279.981,257.721,279.981z"/>
			<path stroke="#FFFFFF" stroke-width="20" stroke-linejoin="round" d="M306.926,313.607c-13.77,5.611-22.834,1.022-22.834,1.022
				c4.869,2.665,12.282,3.569,12.282,3.569C301.709,316.312,306.926,313.607,306.926,313.607z"/>
			<path stroke="#FFFFFF" stroke-width="20" stroke-linejoin="round" d="M306.266,356.452c0,0-13.563,4.596-19.598,2.262
				C286.668,358.714,294.005,365.329,306.266,356.452z"/>
			<path stroke="#FFFFFF" stroke-width="20" stroke-linejoin="round" d="M343.366,416.879c2.452-1.644,4.481-3.504,6.271-5.591
				c8.874-10.355,17.011-49.563,17.011-49.563l-15.157,40.423l0,0l-0.376,1.005c-7.355,16.968-27.678,19.663-50.062,19.663
				c-6.897,0-13.988-0.256-20.956-0.429c-19.603-0.49-31.089-15.912-36.608-26.268c0-0.003-0.003-0.008-0.003-0.014
				c-2.807-5.269-4.076-9.228-4.076-9.228s3.464,18.148,16.763,29.751c-25.851-13.952-38.399-39.557-38.399-39.557
				s10.029,30.083,43.454,43.285c5.431,3.378,12.115,5.637,20.351,5.727c1.908,0.019,3.742,0.026,5.54,0.026
				c2.631,0.2,5.324,0.34,8.144,0.34c9.935,0,18.857-0.876,26.904-2.383c5.76-0.902,10.403-2.107,14.238-3.607
				c46.47-15.057,55.577-53.373,55.577-53.373C381.106,394.518,361.869,409.121,343.366,416.879z"/>
			<path stroke="#FFFFFF" stroke-width="20" stroke-linejoin="round" d="M429.539,223.083c-0.024,0.038-0.041,0.073-0.064,0.11
				C429.493,223.161,429.521,223.115,429.539,223.083z"/>
			<path stroke="#FFFFFF" stroke-width="20" stroke-linejoin="round" d="M429.475,223.192c-0.206,0.36-0.313,0.568-0.313,0.568
				C429.239,223.581,429.353,223.388,429.475,223.192z"/>
			<path stroke="#FFFFFF" stroke-width="20" stroke-linejoin="round" d="M437.589,215.781c-0.709,7.88,1.838,17.786,3.084,22.012
				c-1.444-6.422-0.79-23.649-0.79-23.649c8.139-6.658,7.026,0,7.026,0c2.962-7.026,0.372-6.288,0.372-6.288
				c-10.179,3.182-16.241,12.638-17.742,15.227C431.021,220.823,435.02,217.676,437.589,215.781z"/>
			<path stroke="#FFFFFF" stroke-width="20" stroke-linejoin="round" d="M422.129,263.708c0,0,5.922-5.178,4.07-11.467
				c-1.852-6.288-4.07-8.879-4.07-8.879s-2.218,5.921,1.112,9.618C426.568,256.679,422.129,263.708,422.129,263.708z"/>
			<path stroke="#FFFFFF" stroke-width="20" stroke-linejoin="round" d="M440.673,237.793c0.1,0.428,0.201,0.81,0.317,1.133
				C441.589,240.602,441.294,239.891,440.673,237.793z"/>
			<path stroke="#FFFFFF" stroke-width="20" stroke-linejoin="round" d="M147.687,242.993c0,0-14.058-25.15,10.725-5.178
				C158.412,237.814,130.67,213.403,147.687,242.993z"/>
			<path stroke="#FFFFFF" stroke-width="20" stroke-linejoin="round" d="M170.25,251.87l-0.744-2.22c0,0-9.612,7.029-10.354,12.579
				C159.152,262.229,166.921,252.609,170.25,251.87z"/>
			<path stroke="#FFFFFF" stroke-width="20" stroke-linejoin="round" d="M155.99,275.833c-1.702,19.065,15.736,8.957,15.736,8.957
				C156.857,288.579,155.783,279.753,155.99,275.833z"/>
			<path stroke="#FFFFFF" stroke-width="20" stroke-linejoin="round" d="M155.99,275.833c0.053-0.565,0.114-1.149,0.2-1.769
				C156.19,274.064,156.047,274.783,155.99,275.833z"/>
			<path fill="#D9D9D9" stroke="#FFFFFF" stroke-width="20" stroke-linejoin="round" d="M304.604,293.298
				c-3.658,3.08-9.852,4.155-13.951,4.155c-0.669,0-1.282-0.03-1.818-0.082c-0.094,0.002-0.186,0.005-0.273,0.005
				c-0.805,0-1.409-0.141-1.713-0.473c-1.417-0.808-3.277-2.209-6.873-3.983c-0.002,0-0.007,0-0.008,0
				c-8.581,1.585-42.236,8.021-46.101,12.214c0,0-12.949,3.329-1.11,23.302c0,0,3.741,7.039,5.453,7.039
				c0.507,0,0.837-0.619,0.837-2.229c0,0-2.411-15.534,17.563-19.976c0,0,24.83-6.709,29.749-6.709c0.246,0,0.441,0.018,0.582,0.053
				c1.911,0.479,6.594,1.262,11.167,1.262c2.512,0,4.994-0.234,6.96-0.893c0.791-0.263,2.154-0.377,3.907-0.377
				c10.521,0,35.113,4.078,35.113,4.078s7.026,2.217,8.136,4.068c1.112,1.848,1.112,8.508,1.112,8.508s1.188,5.815,4.232,5.815
				c2.327,0,5.751-3.407,10.562-15.435c0,0,8.874-17.382-25.525-18.495c0,0-29.589-1.886-37.949-1.891h-0.008
				C304.634,293.271,304.617,293.283,304.604,293.298z"/>
			<path fill="#D9D9D9" stroke="#FFFFFF" stroke-width="20" stroke-linejoin="round" d="M280.098,422.387
				c6.968,0.173,14.059,0.429,20.957,0.429c22.383,0,42.704-2.695,50.061-19.663l0.376-1.005l0,0
				c-1.364,0.922-3.004,1.48-4.979,1.48c-2.552,0-5.662-0.937-9.449-3.251c-6.967-4.258-17.717-5.682-29.135-5.682
				c-21.319,0-44.98,4.958-50.761,5.682c-0.742,0.093-1.452,0.134-2.139,0.134c-7.537,0-11.731-5.128-11.731-5.128
				c0.062,0.242,0.124,0.485,0.191,0.725c0,0.004,0.003,0.01,0.003,0.013C249.009,406.475,260.495,421.896,280.098,422.387z"/>
			<path fill="#CCCCCC" stroke="#FFFFFF" stroke-width="20" stroke-linejoin="round" d="M488.977,499.97
				c0.464-0.062,0.851-0.157,1.133-0.246c-0.124-0.145-0.284-0.312-0.485-0.496c-3.164-2.988-5.974-8.151-8.709-14.358
				c-2.712-6.201-5.244-13.417-7.434-20.299c-4.085-12.871-6.941-24.57-7.3-26.047l-0.097-0.227
				c-0.11-0.243-0.276-0.604-0.499-1.066c-0.444-0.924-1.118-2.248-2.018-3.821c-1.796-3.149-4.501-7.294-8.073-11.225
				c-2.649-2.918-9.186-9.011-16.228-15.38c-7.053-6.383-14.658-13.097-19.614-17.441c-0.359-0.317-0.695-0.615-1.028-0.902
				c2.882,8.587,4.85,20.291,6.189,30.439c1.522,11.601,2.173,21.085,2.175,21.109c0.043,0.616-0.223,1.197-0.681,1.579
				c2.415,15.321,10.981,37.734,15.311,48.403c0.771,1.898,1.405,3.427,1.848,4.479c0.162-0.009,0.325-0.009,0.49,0.023
				c0.006,0.002,1.75,0.353,4.603,0.889c2.851,0.536,6.791,1.249,11.15,1.96c8.702,1.427,19.126,2.841,25.625,2.838
				C486.786,500.182,488.037,500.11,488.977,499.97z"/>
			<path fill="#CCCCCC" stroke="#FFFFFF" stroke-width="20" stroke-linejoin="round" d="M441.944,495.389
				c0.097-0.165,0.219-0.307,0.352-0.429c-2.933-6.978-14.215-34.541-17.183-52.875c-0.115,0.078-0.252,0.173-0.413,0.292
				c-0.579,0.438-1.402,1.136-2.373,2.029c-1.95,1.791-4.529,4.367-7.392,7.386c-4.119,4.342-8.833,9.601-13.214,14.815
				c-0.389,2.416-0.568,5.108-0.568,7.976c-0.003,13.778,3.926,31.238,5.89,39.08c0.176,0.705,0.334,1.327,0.477,1.867
				c11.278-0.713,19.68-5.44,25.403-10.173c5.737-4.743,8.725-9.481,9.002-9.938L441.944,495.389z"/>
			<path fill="#CCCCCC" stroke="#FFFFFF" stroke-width="20" stroke-linejoin="round" d="M369.969,533.812
				c17.604-9.877,33.512-16.728,36.335-17.923c-1.706-6.553-6.414-26.016-6.419-41.308c0-2.152,0.109-4.208,0.317-6.153
				c-1.178,1.425-2.329,2.839-3.421,4.22c-3.689,4.656-6.784,8.979-8.492,12.061c-1.504,2.701-3.982,5.971-7.11,9.686
				c-3.123,3.704-6.892,7.821-10.936,12.077c-8.081,8.513-17.266,17.571-24.501,24.846c-4.822,4.844-8.794,8.909-10.932,11.407
				c-3.544,4.099-6.075,10.906-7.652,17.217c-0.669,2.659-1.178,5.206-1.566,7.46c4.137-5.167,9.566-10.17,15.69-14.946
				C350.08,545.605,360.276,539.256,369.969,533.812z"/>
			<path stroke="#FFFFFF" stroke-width="20" stroke-linejoin="round" d="M493.598,498.052c-0.356-0.566-0.814-1.081-1.379-1.608
				c-2.386-2.188-5.214-7.105-7.817-13.102c-3.944-9.015-7.6-20.509-10.251-29.722c-1.324-4.608-2.402-8.648-3.148-11.535
				c-0.374-1.442-0.663-2.597-0.858-3.389c-0.195-0.794-0.299-1.221-0.299-1.221l-0.093-0.288
				c-0.052-0.112-3.802-9.146-11.441-17.562c-1.939-2.132-5.459-5.505-9.707-9.443c-11.188-10.359-27.317-24.463-31.066-27.732
				c-1.315-8.603-3.271-24.275-3.271-41.378c-0.008-15.266,1.62-31.612,6.467-44.961c1.423,0.381,3.323,0.743,5.473,0.753
				c2.861,0.005,6.276-0.694,9.146-3.151c2.871-2.458,4.912-6.482,5.576-12.329c0.983-8.518,2.11-15.277,3.004-20.792
				c0.89-5.522,1.562-9.791,1.565-13.468c0-0.64-0.051-1.241-0.094-1.846c0.596-1.501,2.488-6.353,4.406-12.371
				c1.154-3.618,2.312-7.638,3.188-11.589c0.874-3.954,1.479-7.822,1.48-11.244c-0.003-1.885-0.179-3.646-0.676-5.258
				c-0.496-1.601-1.36-3.132-2.812-4.188c-1.851-1.346-3.245-2.477-4.612-3.382c-0.687-0.452-1.375-0.853-2.142-1.16
				c-0.762-0.305-1.62-0.505-2.509-0.503c-1.021-0.002-2.026,0.257-2.964,0.681c-1.41,0.64-2.744,1.611-4.358,2.952
				c-0.829,0.691-1.731,1.49-2.734,2.402l-24.996-97.83l-40.697-44.469L314.19,33.803l-33.614-6.114l-55.072,21.878L178.079,90.22
				l-15.889,43.12l-6.299,86.775c-0.176-0.144-0.346-0.287-0.533-0.434c-1.355-1.06-2.933-2.14-4.682-2.989
				c-1.747-0.841-3.679-1.476-5.77-1.483c-2.206-0.025-4.592,0.826-6.417,2.689c-1.259,1.255-2.151,2.725-2.696,4.264
				c-0.55,1.542-0.763,3.14-0.763,4.724c0.01,3.749,1.152,7.477,2.413,10.886c1.268,3.392,2.695,6.5,3.395,8.612
				c1.062,3.182,3.107,10.607,4.856,17.146c0.876,3.277,1.684,6.347,2.271,8.598c0.59,2.249,0.957,3.676,0.957,3.678l0,0
				c0.173,0.769,2.164,9.47,5.039,18.277c1.509,4.61,3.242,9.231,5.166,12.862c0.97,1.82,1.973,3.396,3.147,4.654
				c0.591,0.629,1.233,1.185,1.992,1.619c0.756,0.432,1.663,0.738,2.651,0.738c3.444-0.005,7.326,0.533,10.351,1.462
				c1.511,0.459,2.807,1.021,3.689,1.581c0.901,0.555,1.3,1.1,1.356,1.279l0.019,0.049l0.03,0.068c0,0,0.092,0.199,0.268,0.59
				c1.325,2.929,7.34,16.447,13.007,32.33c2.832,7.939,5.578,16.475,7.601,24.547c2.029,8.066,3.324,15.689,3.319,21.674
				c0,0.373-0.004,0.743-0.014,1.106c-0.049,1.795-0.073,3.596-0.073,5.394c0,1.127,0.021,2.245,0.039,3.366
				c-2.855,1.506-5.652,3.835-8.454,6.714c-5.319,5.497-10.619,12.972-15.455,20.438c-4.832,7.462-9.187,14.927-12.497,20.303
				c-3.786,6.152-10.088,17.717-17.829,29.266c-7.718,11.537-16.923,23.012-26.047,28.779c-0.637,0.403-1.167,0.843-1.588,1.396
				c-0.419,0.549-0.717,1.271-0.714,2.023c0.003,0.979,0.471,1.776,0.97,2.302c0.765,0.802,1.669,1.264,2.62,1.643
				c0.955,0.363,1.961,0.608,2.925,0.727c10.544,1.285,19.27,1.823,26.505,1.826c16.38-0.012,25.149-2.736,30.022-6.006
				c1.588-1.071,2.715-2.208,3.544-3.312l1.612,4.568l0.092,0.219c1.794,3.567,5.018,6.131,8.68,8.062
				c5.505,2.893,12.15,4.424,17.461,5.286c5.141,0.83,8.989,1.005,9.277,1.017c19.117,1.603,42.718,12.842,61.377,23.74
				c9.342,5.447,17.473,10.797,23.259,14.78c2.896,1.991,5.2,3.642,6.783,4.795c0.79,0.577,1.4,1.023,1.812,1.329
				c0.411,0.309,0.618,0.463,0.618,0.466c0.7,0.53,1.675,0.515,2.355-0.042c0.573-0.474,0.79-1.228,0.615-1.928
				c3.695-6.741,10.691-13.756,19.164-20.34c12.864-10.018,29.052-19.11,42.001-25.673c6.475-3.277,12.14-5.931,16.184-7.759
				c2.021-0.913,3.638-1.622,4.747-2.104c0.719-0.311,1.197-0.514,1.461-0.625c12.514-0.854,21.811-6.282,27.929-11.506
				c4.49-3.833,7.286-7.521,8.521-9.318c2.416,0.472,8.046,1.547,14.635,2.624c8.805,1.435,19.256,2.88,26.239,2.887
				c2.2-0.007,4.048-0.131,5.564-0.525c0.762-0.207,1.46-0.47,2.109-0.981c0.323-0.257,0.632-0.591,0.862-1.015
				c0.229-0.422,0.356-0.93,0.354-1.412C494.222,499.273,493.947,498.614,493.598,498.052z M195.654,516.644l-3.272-9.268
				c-0.208-0.588-0.688-0.988-1.249-1.159c-0.027-0.577-0.054-1.241-0.084-2.083c-0.086-2.449-0.173-5.961-0.173-10.203
				c0-10.94,0.577-26.729,3.21-41.615c2.459-13.962,6.767-27.11,13.949-34.684c0.34,5.66,0.877,13.312,1.673,21.354
				c0.799,8.078,1.863,16.546,3.257,23.818c0.699,3.637,1.479,6.975,2.366,9.832c0.895,2.862,1.87,5.24,3.087,7.041l0.584,0.552
				c0.003,0.004,0.415,0.253,1.097,0.679c4.022,8.342,11.1,24.854,11.085,37.303c0,4.225-0.822,7.923-2.757,10.709
				c-0.168-0.015-0.339-0.045-0.507-0.061l-0.085-0.005l-0.287-0.013c-1.459-0.077-8.32-0.543-15.397-2.366
				c-3.537-0.905-7.124-2.159-10.085-3.813C199.116,521.021,196.844,518.998,195.654,516.644z M181.096,515.605
				c-4.638,1.883-12.177,3.408-24.15,3.405c-7.048,0.003-15.625-0.521-26.044-1.797c-0.851-0.096-1.908-0.396-2.584-0.753
				c-0.114-0.057-0.198-0.113-0.287-0.168c0.076-0.06,0.128-0.108,0.238-0.179c9.997-6.367,19.295-18.153,27.17-29.872
				c7.848-11.712,14.22-23.403,17.907-29.388c4.459-7.251,10.682-18.028,17.344-27.506c3.327-4.737,6.765-9.143,10.1-12.585
				c2.396-2.483,4.746-4.424,6.892-5.677c0.062,1.269,0.146,2.915,0.258,4.867c-8.003,7.802-12.515,21.57-15.101,36.138
				c-2.651,15.003-3.229,30.852-3.229,41.837c0,5.728,0.157,10.078,0.257,12.354c-0.753,0.315-1.241,1.062-1.165,1.899h-0.006
				l0.001,0.062c-0.001,0.203-0.034,0.91-0.512,1.874C187.464,511.557,185.744,513.71,181.096,515.605z M165.262,307.262
				c-1.308-1.755-2.787-4.77-4.138-8.201c-2.041-5.161-3.872-11.303-5.178-16.127c-0.655-2.411-1.177-4.497-1.539-5.976
				c-0.178-0.74-0.32-1.328-0.412-1.729c-0.095-0.402-0.141-0.61-0.141-0.61l-0.005-0.02l-0.014-0.06
				c0-0.004-1.482-5.743-3.242-12.321c-1.764-6.59-3.785-13.961-4.939-17.437c-0.862-2.565-2.275-5.6-3.457-8.781
				c-1.189-3.167-2.105-6.447-2.094-9.115c0-1.129,0.154-2.138,0.469-3.021c0.317-0.885,0.783-1.654,1.503-2.378
				c0.959-0.926,1.752-1.177,2.831-1.202c1.005-0.006,2.262,0.341,3.557,0.974c1.947,0.937,3.925,2.465,5.361,3.754
				c0.718,0.644,1.309,1.227,1.712,1.64l0.458,0.483l0.111,0.123l0.027,0.03l3.998,4.531l7.068-97.398l15.183-41.208l45.78-39.24
				L281.1,32.94l31.479,5.726L362.88,63.45l39.192,42.825l26.798,104.889l3.131-2.937c3.14-2.946,5.381-4.977,6.975-6.167
				c0.794-0.595,1.425-0.972,1.869-1.169c0.453-0.201,0.693-0.233,0.884-0.235c0.161,0.001,0.329,0.025,0.63,0.143
				c0.443,0.171,1.146,0.595,2.082,1.276c0.937,0.677,2.104,1.589,3.564,2.653c0.309,0.219,0.661,0.668,0.951,1.59
				c0.284,0.905,0.452,2.208,0.449,3.753c0.004,2.814-0.531,6.411-1.36,10.146c-1.243,5.61-3.14,11.557-4.719,16.075
				c-0.789,2.26-1.502,4.165-2.014,5.502c-0.258,0.67-0.465,1.195-0.604,1.552c-0.142,0.356-0.217,0.537-0.217,0.537l-0.245,0.597
				l0.072,0.642c0.065,0.607,0.102,1.271,0.102,2c0.006,3.032-0.605,7.163-1.502,12.655c-0.89,5.501-2.036,12.374-3.032,21.021
				c-0.592,5.024-2.167,7.616-3.842,9.06c-1.681,1.442-3.737,1.926-5.841,1.93c-1.598,0.003-3.153-0.302-4.278-0.61
				c-0.564-0.153-1.021-0.306-1.327-0.416l-0.338-0.129l-0.073-0.03l-0.004-0.002l-0.861-0.374
				c0.232-4.521,0.671-14.202,0.773-24.854c0.121-12.646-0.386-26.39-0.556-37.174c0,0-0.13,42.139-2.225,62.544l-0.499,1.244
				c-5.882,14.729-7.614,32.599-7.625,49.083c0.006,26.356,4.517,49.158,4.53,49.257l0.029,0.144l0.045,0.145
				c3.63,11.233,5.834,23.689,7.115,33.305c0.642,4.812,1.054,8.911,1.306,11.803c0.126,1.447,0.211,2.593,0.266,3.368
				c0.003,0.025,0.003,0.04,0.006,0.062c-0.226,0.224-0.451,0.454-0.679,0.677c-1.758,1.419-4.174,3.72-7.108,6.719
				c-4.92,5.035-11.069,11.818-16.63,18.484c-5.562,6.675-10.514,13.171-13.106,17.828c-1.694,3.063-5.35,7.665-9.955,12.837
				c-6.916,7.775-16.001,16.952-24.186,25.145c-8.198,8.211-15.461,15.396-18.901,19.405c-4.824,5.67-7.484,14.279-9.109,21.539
				c-0.552,2.49-0.96,4.796-1.27,6.784c-0.243,0.222-0.484,0.425-0.724,0.645c-4.046-6.298-9.75-13.215-16.312-20.331
				c-25.942-28.097-65.292-59.02-66.638-60.076c-1.103-1.08-2.623-2.279-4.353-3.549c-4.599-3.361-10.577-7.073-12.14-8.035
				c-0.807-1.275-1.65-3.242-2.413-5.717c-1.313-4.214-2.429-9.774-3.365-15.843c0.083-0.406,0.159-0.761,0.216-0.994l0.1-0.371
				l0.022-0.075v-0.004l-0.582-0.187c-0.025-0.171-0.052-0.339-0.077-0.508l0.778-0.071c-0.006-0.18-0.028-0.323-0.052-0.459h0.009
				c0,0-0.067-0.365-0.188-1.072c-0.853-4.947-4.288-26.341-4.283-47.886c0-1.753,0.024-3.507,0.072-5.256
				c0.011-0.41,0.015-0.823,0.015-1.244c-0.004-7.131-1.58-15.666-3.896-24.571c-6.96-26.676-20.735-56.615-20.762-56.687
				l-0.008,0.003c-0.698-1.602-1.927-2.696-3.303-3.575c-0.079-0.05-0.17-0.09-0.252-0.137c-0.53-1.386-1.118-2.964-1.751-4.747
				c-5-14.053-12.457-39.508-9.935-60.577c0,0-6.813,25.703,9.553,64.255c-1.63-0.697-3.427-1.244-5.351-1.664
				c-2.904-0.621-6.025-0.947-8.981-0.953l-0.057-0.02C166.679,308.801,165.991,308.271,165.262,307.262z M229.828,529.078
				c1.871-2.993,2.626-6.754,2.626-10.867c-0.005-8.998-3.502-19.771-6.979-28.333c-1.17-2.879-2.336-5.496-3.375-7.713
				c1.816,1.151,4.177,2.678,6.485,4.265c2.767,1.896,5.451,3.904,6.706,5.172l0.172,0.151c0.004,0.003,1.108,0.867,3.086,2.454
				c6.927,5.549,24.466,19.855,41.82,36.015c8.674,8.084,17.3,16.625,24.52,24.748c4.487,5.044,8.423,9.939,11.486,14.423
				c-5.899-4.116-14.895-10.13-25.449-16.284C272.594,542.442,249.673,531.344,229.828,529.078z M325.592,567.4
				c0.391-2.254,0.897-4.801,1.566-7.46c1.577-6.311,4.108-13.118,7.652-17.217c2.138-2.498,6.108-6.563,10.932-11.407
				c7.236-7.273,16.42-16.333,24.501-24.846c4.044-4.256,7.812-8.373,10.936-12.077c3.128-3.715,5.606-6.983,7.11-9.686
				c1.708-3.08,4.803-7.403,8.492-12.062c1.092-1.38,2.243-2.795,3.421-4.219c-0.208,1.945-0.317,4.001-0.317,6.153
				c0.005,15.292,4.713,34.755,6.419,41.308c-2.823,1.195-18.73,8.046-36.335,17.923c-9.691,5.442-19.889,11.792-28.687,18.642
				C335.158,557.23,329.729,562.233,325.592,567.4z M432.923,505.357c-5.725,4.731-14.125,9.46-25.404,10.173
				c-0.142-0.54-0.3-1.162-0.476-1.867c-1.964-7.842-5.893-25.302-5.89-39.08c0-2.866,0.181-5.56,0.568-7.976
				c4.381-5.216,9.095-10.475,13.214-14.815c2.861-3.02,5.44-5.595,7.392-7.386c0.971-0.895,1.794-1.594,2.373-2.029
				c0.161-0.119,0.298-0.214,0.413-0.292c2.968,18.334,14.25,45.897,17.183,52.875c-0.133,0.122-0.255,0.264-0.352,0.429
				l-0.021,0.031C441.646,495.876,438.66,500.614,432.923,505.357z M448.56,495.383c-2.853-0.536-4.597-0.887-4.603-0.889
				c-0.165-0.032-0.328-0.032-0.49-0.023c-0.441-1.052-1.076-2.579-1.848-4.479c-4.328-10.669-12.896-33.082-15.311-48.403
				c0.458-0.382,0.724-0.963,0.681-1.579c-0.002-0.024-0.651-9.51-2.175-21.109c-1.341-10.148-3.309-21.854-6.189-30.439
				c0.333,0.287,0.669,0.585,1.028,0.902c4.956,4.346,12.562,11.06,19.614,17.441c7.042,6.369,13.577,12.462,16.228,15.38
				c3.572,3.931,6.277,8.074,8.073,11.225c0.898,1.573,1.572,2.897,2.018,3.821c0.223,0.463,0.389,0.823,0.499,1.066l0.097,0.227
				c0.357,1.477,3.215,13.176,7.3,26.047c2.188,6.882,4.722,14.098,7.434,20.299c2.735,6.207,5.545,11.37,8.709,14.358
				c0.201,0.185,0.361,0.353,0.485,0.496c-0.282,0.089-0.669,0.185-1.133,0.246c-0.938,0.142-2.189,0.212-3.642,0.211
				c-6.499,0.003-16.923-1.411-25.625-2.838C455.351,496.632,451.409,495.919,448.56,495.383z"/>
			<path fill="#CCCCCC" stroke="#FFFFFF" stroke-width="20" stroke-linejoin="round" d="M202.066,522.662
				c2.961,1.654,6.548,2.908,10.085,3.813c7.077,1.823,13.938,2.289,15.397,2.366l0.287,0.014l0.085,0.004
				c0.168,0.016,0.339,0.046,0.507,0.061c1.936-2.786,2.757-6.484,2.757-10.709c0.015-12.449-7.062-28.961-11.085-37.303
				c-0.682-0.426-1.094-0.675-1.097-0.678l-0.584-0.553c-1.217-1.801-2.192-4.179-3.087-7.041c-0.887-2.857-1.667-6.195-2.366-9.832
				c-1.395-7.272-2.458-15.74-3.257-23.818c-0.796-8.044-1.333-15.694-1.673-21.354c-7.182,7.572-11.49,20.723-13.949,34.684
				c-2.633,14.887-3.21,30.675-3.21,41.615c0,4.242,0.086,7.755,0.173,10.203c0.03,0.843,0.057,1.506,0.084,2.083
				c0.561,0.171,1.041,0.571,1.249,1.159l3.272,9.269C196.844,518.998,199.116,521.021,202.066,522.662z"/>
			<path fill="#CCCCCC" stroke="#FFFFFF" stroke-width="20" stroke-linejoin="round" d="M188.694,508.246l-0.001-0.062h0.006
				c-0.077-0.838,0.411-1.584,1.165-1.899c-0.101-2.275-0.257-6.627-0.257-12.354c0-10.985,0.577-26.834,3.229-41.837
				c2.586-14.566,7.098-28.336,15.101-36.138c-0.112-1.952-0.195-3.599-0.258-4.867c-2.146,1.253-4.495,3.192-6.892,5.677
				c-3.335,3.442-6.772,7.848-10.1,12.585c-6.662,9.478-12.884,20.256-17.344,27.507c-3.687,5.982-10.059,17.675-17.907,29.387
				c-7.875,11.719-17.173,23.505-27.17,29.872c-0.11,0.069-0.162,0.119-0.238,0.179c0.089,0.055,0.173,0.111,0.287,0.168
				c0.677,0.355,1.734,0.657,2.584,0.753c10.42,1.274,18.997,1.8,26.044,1.797c11.973,0.003,19.512-1.522,24.15-3.405
				c4.648-1.896,6.368-4.05,7.086-5.485C188.661,509.156,188.693,508.449,188.694,508.246z"/>
			<path fill="#CCCCCC" stroke="#FFFFFF" stroke-width="20" stroke-linejoin="round" d="M316.375,569.393
				c-3.062-4.482-6.999-9.379-11.486-14.423c-7.22-8.123-15.846-16.664-24.52-24.748c-17.354-16.157-34.893-30.466-41.82-36.015
				c-1.978-1.587-3.082-2.451-3.086-2.454l-0.172-0.151c-1.254-1.268-3.938-3.274-6.706-5.172c-2.308-1.587-4.669-3.112-6.485-4.265
				c1.039,2.217,2.205,4.834,3.375,7.713c3.476,8.562,6.974,19.335,6.979,28.333c0,4.113-0.755,7.874-2.626,10.867
				c19.846,2.266,42.766,13.364,61.098,24.029C301.48,559.263,310.476,565.275,316.375,569.393z"/>
			<path stroke="#FFFFFF" stroke-width="20" stroke-linejoin="round" d="M259.935,330.146c0,0-7.462-2.914-12.486,1.75
				c0,0,3.689,1.082,13.201-0.061c9.506-1.141,23.235-1.009,29.191,2.087c5.952,3.093,15.476-1.928,19.196-2.762
				c6.688-1.485,16.743-3.562,20.662-3.547c6.101,0.032,15.021-1.8,19.625-3.62c0,0-6.532-1.504-22.588,2.197
				c-16.058,3.707-24.248,3.164-24.248,3.164s-5.604,1.941-7.105,2.123c-1.501,0.179-7.027-1.44-7.027-1.44
				S269.855,328.195,259.935,330.146z"/>
		</g>
		<path fill="#FFFFFF" stroke="#FFFFFF" stroke-width="20" d="M416.213,389.835c0,0-11.838-59.921,2.96-96.906
			c0,0,17.015,7.396,19.233-11.838c2.218-19.23,5.182-29.586,4.435-36.246c0,0,14.797-36.248,6.659-42.167
			c-8.136-5.919-7.396-7.397-19.232,3.699l-25.893-101.346l-39.947-43.646l-51.043-25.15l-32.547-5.919L226.835,51.77
			l-46.604,39.946l-15.537,42.165l-6.657,91.729c0,0-11.096-12.576-17.755-5.918c-6.656,6.658,0.743,19.234,2.964,25.89
			c2.216,6.659,8.133,29.591,8.133,29.591s8.137,36.248,15.538,36.248c7.395,0,16.269,2.22,17.751,5.916
			c0,0,25.15,54.745,24.412,81.375c-0.738,26.629,4.44,54.742,4.44,54.742s-6.099,19.294,11.099,40.685
			c21.425,26.651,69.16,58.227,95.426,79.154c35.511-30.332,68.707-97.926,105.047-133.156
			C425.092,440.138,423.612,412.766,416.213,389.835z"/>
		<path stroke="#FFFFFF" stroke-width="20" d="M257.906,210.815c0,0-24.039-18.122-47.342,7.767
			C210.564,218.583,231.646,190.103,257.906,210.815z"/>
		<path stroke="#FFFFFF" stroke-width="20" d="M325.963,207.115c0,0,10.357-12.575,24.781-11.463c0,0,12.947-0.74,18.495,9.616
			c0,0-4.438-12.205-19.233-11.836C335.21,193.8,328.185,203.787,325.963,207.115z"/>
		<path stroke="#FFFFFF" stroke-width="20" d="M250.476,222.175c0,0-24.595,10.211-33.321,3.552
			C217.155,225.727,222.533,236.934,250.476,222.175z"/>
		<path stroke="#FFFFFF" stroke-width="20" d="M331.332,218.177c0,0,22.198,4.117,38.055-2.862
			C369.387,215.315,354.701,225.494,331.332,218.177z"/>
		<path stroke="#FFFFFF" stroke-width="20" d="M244.961,204.897c0,0,2.59,8.878-1.11,10.911c0,0-8.32,3.884-15.534,2.034
			c0,0-4.624-4.067-2.772-10.911C225.544,206.932,237.196,201.383,244.961,204.897z"/>
		<path stroke="#FFFFFF" stroke-width="20" d="M339.464,196.947c0,0-3.515,9.061,1.849,12.576c0,0,9.058,0.924,13.312-0.741
			c0,0,6.288-3.328,2.774-13.131C357.399,195.651,347.972,191.583,339.464,196.947z"/>
		<path stroke="#FFFFFF" stroke-width="20" d="M269.741,195.28c0,0-5.546-21.453-57.329-17.384c0,0-16.218,7.175-16.006,21.813
			c0.02,1.3,1.312,3.26,2.902,2.024c7.111-5.519,29.152-19.381,57.859-6.083C257.168,195.651,272.332,199.718,269.741,195.28z"/>
		<path stroke="#FFFFFF" stroke-width="20" d="M319.676,176.787c0,0,38.469-16.645,49.563-12.206c0,0,22.931,9.986,17.383,27.74
			c0,0,0.372,2.218-10.723-5.177c-11.098-7.397-37.891-6.109-58.075,7.767C311.905,198.98,308.21,181.594,319.676,176.787z"/>
		<path stroke="#FFFFFF" stroke-width="20" d="M278.803,197.869c0,0,5.549,7.212-3.882,52.153
			C274.92,250.021,288.789,208.411,278.803,197.869z"/>
		<path stroke="#FFFFFF" stroke-width="20" d="M326.795,259.455c0,0,11.65,13.591,2.219,21.914
			C329.014,281.368,341.772,276.097,326.795,259.455z"/>
		<path stroke="#FFFFFF" stroke-width="20" d="M324.021,284.421c0,0-12.207-1.111-20.808,6.38c-8.601,7.489-15.811,4.714-21.915,0
			c-6.103-4.715-17.479-4.438-17.479-4.438s4.441,1.662,11.375,4.438c6.935,2.772,9.71,4.991,11.651,6.102
			c1.94,1.11,12.481,0.833,17.753-3.605C309.871,288.858,327.626,285.253,324.021,284.421z"/>
		<path stroke="#FFFFFF" stroke-width="20" d="M260.493,261.117c0,0-6.657,5.55-2.772,18.865
			C257.721,279.981,250.787,267.221,260.493,261.117z"/>
		<path stroke="#FFFFFF" stroke-width="20" d="M306.926,313.607c0,0-5.217,2.705-10.552,4.593c0,0-7.413-0.904-12.282-3.569
			C284.091,314.631,293.156,319.221,306.926,313.607z"/>
		<path stroke="#FFFFFF" stroke-width="20" d="M306.266,356.452c0,0-13.563,4.596-19.598,2.262
			C286.668,358.714,294.005,365.329,306.266,356.452z"/>
		<path stroke="#FFFFFF" stroke-width="20" d="M239.411,386.879c0,0,11.096,34.766,40.687,35.508
			c29.591,0.737,61.397,2.957,71.017-19.234l15.533-41.428c0,0-8.137,39.208-17.011,49.563
			c-8.88,10.355-23.522,15.268-68.058,14.797C246.81,425.714,239.411,386.879,239.411,386.879z"/>
		<path stroke="#FFFFFF" stroke-width="20" d="M217.775,377.073c0,0,24.965,51.043,77.118,48.269c0,0,71.57,6.104,97.091-58.254
			c0,0-14.052,59.363-96.72,59.363C234.233,426.451,217.775,377.073,217.775,377.073z"/>
		<path stroke="#FFFFFF" stroke-width="20" d="M171.724,247.247c0,0-1.11-61.583,2.219-74.898
			c3.33-13.315-9.433-37.729,3.885-58.811c13.314-21.082,35.507-56.037,67.686-66.021c0,0,13.871,11.65,13.871,17.197
			c0,5.55,42.164,0,49.379-9.985l4.438-12.206c0,0,39.946,8.322,57.146,34.953c17.199,26.63,29.958,57.145,31.623,88.214
			c0,0,18.311,48.269,17.202,77.12c0,0,6.286-33.474,15.532-40.502c0,0,0-17.754-7.21-50.487
			c-7.215-32.734-7.771-42.722-7.771-42.722s-4.993-27.185-36.618-44.939c-31.62-17.754-62.691-38.281-100.418-39.393
			c-37.726-1.11-93.21,47.162-101.529,56.037c-8.324,8.877-26.634,30.516-27.189,64.914c0,0-2.92,63.325,1.273,77.236
			c0.285,0.935,0.601,1.647,0.947,2.101c5.547,7.213,15.534,27.187,15.534,36.062L171.724,247.247L171.724,247.247z"/>
		<path stroke="#FFFFFF" stroke-width="20" d="M446.909,214.144c0,0,1.11-6.658-7.026,0c0,0-9.246,6.288-10.723,9.617
			c0,0,6.288-12.206,18.121-15.905C447.281,207.856,449.871,207.118,446.909,214.144z"/>
		<path stroke="#FFFFFF" stroke-width="20" d="M422.129,243.362c0,0-2.218,5.921,1.112,9.618c3.327,3.699-1.112,10.728-1.112,10.728
			s5.922-5.178,4.07-11.467C424.349,245.954,422.129,243.362,422.129,243.362z"/>
		<path stroke="#FFFFFF" stroke-width="20" d="M439.883,214.144c0,0-0.742,19.603,1.107,24.782
			c1.851,5.179-4.807-12.208-3.327-24.042L439.883,214.144z"/>
		<path stroke="#FFFFFF" stroke-width="20" d="M147.687,242.993c0,0-14.058-25.15,10.725-5.178
			C158.412,237.814,130.67,213.403,147.687,242.993z"/>
		<path stroke="#FFFFFF" stroke-width="20" d="M169.506,249.65c0,0-9.612,7.029-10.354,12.579c0,0,7.769-9.62,11.098-10.359
			L169.506,249.65z"/>
		<path stroke="#FFFFFF" stroke-width="20" d="M156.19,274.064c0,0-3.327,15.535,15.536,10.726
			C171.726,284.79,153.234,295.516,156.19,274.064z"/>
		<path stroke="#FFFFFF" stroke-width="20" d="M182.82,315.029c1.033,2.275,1.759,1.035,2.961,3.418c0,0-1.794-4.071-4.123-10.623
			c-5-14.053-12.457-39.508-9.935-60.577C171.724,247.247,164.486,274.525,182.82,315.029z"/>
		<path stroke="#FFFFFF" stroke-width="20" d="M419.173,292.929c0,0,0.782-12.878,0.923-27.555
			c0.121-12.646-0.386-26.39-0.556-37.174c0,0-0.184,60.29-3.698,71.572L419.173,292.929z"/>
		<path opacity="0.15" stroke="#FFFFFF" stroke-width="20" enable-background="new    " d="M239.047,333.244
			c0,0-2.411-15.534,17.563-19.975c0,0,27.373-7.396,30.33-6.656c2.961,0.736,12.576,2.218,18.126,0.367
			c5.549-1.848,39.021,3.703,39.021,3.703s7.026,2.217,8.136,4.067c1.112,1.849,1.112,8.508,1.112,8.508s3.695,18.122,14.795-9.618
			c0,0,8.874-17.382-25.524-18.495c0,0-34.767-2.218-39.574-1.849c0,0-14.247,5.731-16.185,3.605l-4.897-4.346
			c0,0-43.649,7.767-48.084,12.577c0,0-12.949,3.329-1.11,23.303C232.757,328.436,239.047,340.271,239.047,333.244z"/>
		<path opacity="0.15" stroke="#FFFFFF" stroke-width="20" enable-background="new    " d="M243.296,395.383
			c0,0,4.992,6.104,13.87,4.994c8.877-1.109,59.92-12.206,79.896,0c19.972,12.205,21.079-13.87,21.079-13.87
			s-0.553,37.728-50.488,38.28C307.652,424.787,252.17,430.891,243.296,395.383z"/>
		<path fill="#CCCCCC" stroke="#FFFFFF" stroke-width="20" stroke-linecap="round" stroke-linejoin="round" d="M415.477,383.18
			c0,0,34.029,29.59,41.426,37.729c7.396,8.136,11.093,17.01,11.093,17.01s11.831,49.563,22.928,59.918
			c11.097,10.357-47.342-1.476-47.342-1.476s-11.647,19.602-36.061,21.081c0,0-69.354,28.853-84.887,57.7
			c0,0,1.854-23.299,10.733-33.654c8.876-10.356,45.861-44.384,53.26-57.701c7.396-13.315,36.979-45.125,38.465-43.647
			c0,0-2.591-37.817-9.529-54.463L415.477,383.18z"/>
		<path fill="none" stroke="#FFFFFF" stroke-width="20" stroke-linecap="round" stroke-linejoin="round" d="M443.58,496.359
			c0,0-16.085-37.175-18.305-57.702"/>
		<path fill="none" stroke="#FFFFFF" stroke-width="20" stroke-linecap="round" stroke-linejoin="round" d="M407.521,517.996
			c0,0-9.986-35.507-6.104-53.261"/>
		<path fill="#CCCCCC" stroke="#FFFFFF" stroke-width="20" stroke-linecap="round" stroke-linejoin="round" d="M209.452,408.145
			c0,0,2.217,58.257,10.54,70.461c0,0,12.762,7.768,16.644,11.648c0,0,71.574,56.039,85.998,85.998c0,0-55.482-42.165-94.875-45.494
			c0,0-27.738-1.109-33.841-13.316l-3.33-9.433c0,0,2.221,18.679-59.917,11.099c-2.96-0.359-7.03-2.309-3.421-4.599
			c19.119-12.137,37.004-46.514,44.475-58.649C180.602,441.432,196.69,412.582,209.452,408.145z"/>
		<path fill="none" stroke="#FFFFFF" stroke-width="20" stroke-linecap="round" stroke-linejoin="round" d="M190.587,508.009
			c0,0-4.442-71.566,18.489-92.28"/>
		<path fill="none" stroke="#FFFFFF" stroke-width="20" stroke-linecap="round" stroke-linejoin="round" d="M217.952,475.276
			c0,0,22.946,41.795,9.807,55.48"/>
		<path stroke="#FFFFFF" stroke-width="20" d="M326.735,326.193c-16.058,3.705-24.247,3.164-24.247,3.164s-5.604,1.94-7.106,2.123
			c-1.501,0.178-7.027-1.441-7.027-1.441s-18.5-1.844-28.42,0.107c0,0-7.462-2.914-12.486,1.75c0,0,3.689,1.082,13.201-0.061
			c9.506-1.141,23.235-1.009,29.191,2.087c5.952,3.093,15.476-1.928,19.196-2.762c6.688-1.485,16.743-3.562,20.662-3.548
			c6.101,0.033,15.021-1.799,19.625-3.619C349.323,323.995,342.791,322.491,326.735,326.193z"/>
		<path fill="#FFFFFF" stroke="#FFFFFF" stroke-width="20" d="M416.213,389.835c0,0-11.838-59.921,2.96-96.906
			c0,0,17.015,7.396,19.233-11.838c2.218-19.23,5.182-29.586,4.435-36.246c0,0,14.797-36.248,6.659-42.167
			c-8.136-5.919-7.396-7.397-19.232,3.699l-25.893-101.346l-39.947-43.646l-51.043-25.15l-32.547-5.919L226.835,51.77
			l-46.604,39.946l-15.537,42.165l-6.657,91.729c0,0-11.096-12.576-17.755-5.918c-6.656,6.658,0.743,19.234,2.964,25.89
			c2.216,6.659,8.133,29.591,8.133,29.591s8.137,36.248,15.538,36.248c7.395,0,16.269,2.22,17.751,5.916
			c0,0,25.15,54.745,24.412,81.375c-0.738,26.629,4.44,54.742,4.44,54.742s-6.099,19.294,11.099,40.685
			c21.425,26.651,69.16,58.227,95.426,79.154c35.511-30.332,68.707-97.926,105.047-133.156
			C425.092,440.138,423.612,412.766,416.213,389.835z"/>
		<path stroke="#FFFFFF" stroke-width="20" d="M257.906,210.815c0,0-24.039-18.122-47.342,7.767
			C210.564,218.583,231.646,190.103,257.906,210.815z"/>
		<path stroke="#FFFFFF" stroke-width="20" d="M325.963,207.115c0,0,10.357-12.575,24.781-11.463c0,0,12.947-0.74,18.495,9.616
			c0,0-4.438-12.205-19.233-11.836C335.21,193.8,328.185,203.787,325.963,207.115z"/>
		<path stroke="#FFFFFF" stroke-width="20" d="M250.476,222.175c0,0-24.595,10.211-33.321,3.552
			C217.155,225.727,222.533,236.934,250.476,222.175z"/>
		<path stroke="#FFFFFF" stroke-width="20" d="M331.332,218.177c0,0,22.198,4.117,38.055-2.862
			C369.387,215.315,354.701,225.494,331.332,218.177z"/>
		<path stroke="#FFFFFF" stroke-width="20" d="M244.961,204.897c0,0,2.59,8.878-1.11,10.911c0,0-8.32,3.884-15.534,2.034
			c0,0-4.624-4.067-2.772-10.911C225.544,206.932,237.196,201.383,244.961,204.897z"/>
		<path stroke="#FFFFFF" stroke-width="20" d="M339.464,196.947c0,0-3.515,9.061,1.849,12.576c0,0,9.058,0.924,13.312-0.741
			c0,0,6.288-3.328,2.774-13.131C357.399,195.651,347.972,191.583,339.464,196.947z"/>
		<path stroke="#FFFFFF" stroke-width="20" d="M269.741,195.28c0,0-5.546-21.453-57.329-17.384c0,0-16.218,7.175-16.006,21.813
			c0.02,1.3,1.312,3.26,2.902,2.024c7.111-5.519,29.152-19.381,57.859-6.083C257.168,195.651,272.332,199.718,269.741,195.28z"/>
		<path stroke="#FFFFFF" stroke-width="20" d="M319.676,176.787c0,0,38.469-16.645,49.563-12.206c0,0,22.931,9.986,17.383,27.74
			c0,0,0.372,2.218-10.723-5.177c-11.098-7.397-37.891-6.109-58.075,7.767C311.905,198.98,308.21,181.594,319.676,176.787z"/>
		<path stroke="#FFFFFF" stroke-width="20" d="M278.803,197.869c0,0,5.549,7.212-3.882,52.153
			C274.92,250.021,288.789,208.411,278.803,197.869z"/>
		<path stroke="#FFFFFF" stroke-width="20" d="M326.795,259.455c0,0,11.65,13.591,2.219,21.914
			C329.014,281.368,341.772,276.097,326.795,259.455z"/>
		<path stroke="#FFFFFF" stroke-width="20" d="M324.021,284.421c0,0-12.207-1.111-20.808,6.38c-8.601,7.489-15.811,4.714-21.915,0
			c-6.103-4.715-17.479-4.438-17.479-4.438s4.441,1.662,11.375,4.438c6.935,2.772,9.71,4.991,11.651,6.102
			c1.94,1.11,12.481,0.833,17.753-3.605C309.871,288.858,327.626,285.253,324.021,284.421z"/>
		<path stroke="#FFFFFF" stroke-width="20" d="M260.493,261.117c0,0-6.657,5.55-2.772,18.865
			C257.721,279.981,250.787,267.221,260.493,261.117z"/>
		<path stroke="#FFFFFF" stroke-width="20" d="M306.926,313.607c0,0-5.217,2.705-10.552,4.593c0,0-7.413-0.904-12.282-3.569
			C284.091,314.631,293.156,319.221,306.926,313.607z"/>
		<path stroke="#FFFFFF" stroke-width="20" d="M306.266,356.452c0,0-13.563,4.596-19.598,2.262
			C286.668,358.714,294.005,365.329,306.266,356.452z"/>
		<path stroke="#FFFFFF" stroke-width="20" d="M239.411,386.879c0,0,11.096,34.766,40.687,35.508
			c29.591,0.737,61.397,2.957,71.017-19.234l15.533-41.428c0,0-8.137,39.208-17.011,49.563
			c-8.88,10.355-23.522,15.268-68.058,14.797C246.81,425.714,239.411,386.879,239.411,386.879z"/>
		<path stroke="#FFFFFF" stroke-width="20" d="M217.775,377.073c0,0,24.965,51.043,77.118,48.269c0,0,71.57,6.104,97.091-58.254
			c0,0-14.052,59.363-96.72,59.363C234.233,426.451,217.775,377.073,217.775,377.073z"/>
		<path stroke="#FFFFFF" stroke-width="20" d="M171.724,247.247c0,0-1.11-61.583,2.219-74.898
			c3.33-13.315-9.433-37.729,3.885-58.811c13.314-21.082,35.507-56.037,67.686-66.021c0,0,13.871,11.65,13.871,17.197
			c0,5.55,42.164,0,49.379-9.985l4.438-12.206c0,0,39.946,8.322,57.146,34.953c17.199,26.63,29.958,57.145,31.623,88.214
			c0,0,18.311,48.269,17.202,77.12c0,0,6.286-33.474,15.532-40.502c0,0,0-17.754-7.21-50.487
			c-7.215-32.734-7.771-42.722-7.771-42.722s-4.993-27.185-36.618-44.939c-31.62-17.754-62.691-38.281-100.418-39.393
			c-37.726-1.11-93.21,47.162-101.529,56.037c-8.324,8.877-26.634,30.516-27.189,64.914c0,0-2.92,63.325,1.273,77.236
			c0.285,0.935,0.601,1.647,0.947,2.101c5.547,7.213,15.534,27.187,15.534,36.062L171.724,247.247L171.724,247.247z"/>
		<path stroke="#FFFFFF" stroke-width="20" d="M446.909,214.144c0,0,1.11-6.658-7.026,0c0,0-9.246,6.288-10.723,9.617
			c0,0,6.288-12.206,18.121-15.905C447.281,207.856,449.871,207.118,446.909,214.144z"/>
		<path stroke="#FFFFFF" stroke-width="20" d="M422.129,243.362c0,0-2.218,5.921,1.112,9.618c3.327,3.699-1.112,10.728-1.112,10.728
			s5.922-5.178,4.07-11.467C424.349,245.954,422.129,243.362,422.129,243.362z"/>
		<path stroke="#FFFFFF" stroke-width="20" d="M439.883,214.144c0,0-0.742,19.603,1.107,24.782
			c1.851,5.179-4.807-12.208-3.327-24.042L439.883,214.144z"/>
		<path stroke="#FFFFFF" stroke-width="20" d="M147.687,242.993c0,0-14.058-25.15,10.725-5.178
			C158.412,237.814,130.67,213.403,147.687,242.993z"/>
		<path stroke="#FFFFFF" stroke-width="20" d="M169.506,249.65c0,0-9.612,7.029-10.354,12.579c0,0,7.769-9.62,11.098-10.359
			L169.506,249.65z"/>
		<path stroke="#FFFFFF" stroke-width="20" d="M156.19,274.064c0,0-3.327,15.535,15.536,10.726
			C171.726,284.79,153.234,295.516,156.19,274.064z"/>
		<path stroke="#FFFFFF" stroke-width="20" d="M182.82,315.029c1.033,2.275,1.759,1.035,2.961,3.418c0,0-1.794-4.071-4.123-10.623
			c-5-14.053-12.457-39.508-9.935-60.577C171.724,247.247,164.486,274.525,182.82,315.029z"/>
		<path stroke="#FFFFFF" stroke-width="20" d="M419.173,292.929c0,0,0.782-12.878,0.923-27.555
			c0.121-12.646-0.386-26.39-0.556-37.174c0,0-0.184,60.29-3.698,71.572L419.173,292.929z"/>
		<path opacity="0.15" stroke="#FFFFFF" stroke-width="20" enable-background="new    " d="M239.047,333.244
			c0,0-2.411-15.534,17.563-19.975c0,0,27.373-7.396,30.33-6.656c2.961,0.736,12.576,2.218,18.126,0.367
			c5.549-1.848,39.021,3.703,39.021,3.703s7.026,2.217,8.136,4.067c1.112,1.849,1.112,8.508,1.112,8.508s3.695,18.122,14.795-9.618
			c0,0,8.874-17.382-25.524-18.495c0,0-34.767-2.218-39.574-1.849c0,0-14.247,5.731-16.185,3.605l-4.897-4.346
			c0,0-43.649,7.767-48.084,12.577c0,0-12.949,3.329-1.11,23.303C232.757,328.436,239.047,340.271,239.047,333.244z"/>
		<path opacity="0.15" stroke="#FFFFFF" stroke-width="20" enable-background="new    " d="M243.296,395.383
			c0,0,4.992,6.104,13.87,4.994c8.877-1.109,59.92-12.206,79.896,0c19.972,12.205,21.079-13.87,21.079-13.87
			s-0.553,37.728-50.488,38.28C307.652,424.787,252.17,430.891,243.296,395.383z"/>
		<path fill="#CCCCCC" stroke="#FFFFFF" stroke-width="20" stroke-linecap="round" stroke-linejoin="round" d="M415.477,383.18
			c0,0,34.029,29.59,41.426,37.729c7.396,8.136,11.093,17.01,11.093,17.01s11.831,49.563,22.928,59.918
			c11.097,10.357-47.342-1.476-47.342-1.476s-11.647,19.602-36.061,21.081c0,0-69.354,28.853-84.887,57.7
			c0,0,1.854-23.299,10.733-33.654c8.876-10.356,45.861-44.384,53.26-57.701c7.396-13.315,36.979-45.125,38.465-43.647
			c0,0-2.591-37.817-9.529-54.463L415.477,383.18z"/>
		<path fill="none" stroke="#FFFFFF" stroke-width="20" stroke-linecap="round" stroke-linejoin="round" d="M443.58,496.359
			c0,0-16.085-37.175-18.305-57.702"/>
		<path fill="none" stroke="#FFFFFF" stroke-width="20" stroke-linecap="round" stroke-linejoin="round" d="M407.521,517.996
			c0,0-9.986-35.507-6.104-53.261"/>
		<path fill="#CCCCCC" stroke="#FFFFFF" stroke-width="20" stroke-linecap="round" stroke-linejoin="round" d="M209.452,408.145
			c0,0,2.217,58.257,10.54,70.461c0,0,12.762,7.768,16.644,11.648c0,0,71.574,56.039,85.998,85.998c0,0-55.482-42.165-94.875-45.494
			c0,0-27.738-1.109-33.841-13.316l-3.33-9.433c0,0,2.221,18.679-59.917,11.099c-2.96-0.359-7.03-2.309-3.421-4.599
			c19.119-12.137,37.004-46.514,44.475-58.649C180.602,441.432,196.69,412.582,209.452,408.145z"/>
		<path fill="none" stroke="#FFFFFF" stroke-width="20" stroke-linecap="round" stroke-linejoin="round" d="M190.587,508.009
			c0,0-4.442-71.566,18.489-92.28"/>
		<path fill="none" stroke="#FFFFFF" stroke-width="20" stroke-linecap="round" stroke-linejoin="round" d="M217.952,475.276
			c0,0,22.946,41.795,9.807,55.48"/>
		<path stroke="#FFFFFF" stroke-width="20" d="M326.735,326.193c-16.058,3.705-24.247,3.164-24.247,3.164s-5.604,1.94-7.106,2.123
			c-1.501,0.178-7.027-1.441-7.027-1.441s-18.5-1.844-28.42,0.107c0,0-7.462-2.914-12.486,1.75c0,0,3.689,1.082,13.201-0.061
			c9.506-1.141,23.235-1.009,29.191,2.087c5.952,3.093,15.476-1.928,19.196-2.762c6.688-1.485,16.743-3.562,20.662-3.548
			c6.101,0.033,15.021-1.799,19.625-3.619C349.323,323.995,342.791,322.491,326.735,326.193z"/>
	</g>
	<g>
		<g>
			<path fill="#FFFFFF" stroke="#000000" stroke-linejoin="round" d="M175.926,309.838c1.923,0.42,3.72,0.967,5.351,1.664
				c-16.366-38.552-9.553-64.255-9.553-64.255c-2.522,21.069,4.936,46.524,9.935,60.577c0.634,1.783,1.222,3.361,1.751,4.746
				c0.082,0.048,0.174,0.088,0.252,0.138c1.376,0.879,2.604,1.974,3.303,3.575l0.008-0.003c0.027,0.071,13.802,30.011,20.762,56.686
				c2.316,8.906,3.893,17.441,3.896,24.572c0,0.421-0.004,0.834-0.015,1.244c-0.048,1.749-0.072,3.503-0.072,5.256
				c-0.005,21.545,3.43,42.938,4.283,47.886c0.121,0.707,0.188,1.07,0.188,1.07l-0.009,0.002c0.024,0.136,0.046,0.279,0.052,0.459
				l-0.778,0.071c0.025,0.169,0.052,0.337,0.077,0.508l0.582,0.187v0.003l-0.022,0.076l-0.1,0.371
				c-0.057,0.233-0.133,0.588-0.216,0.994c0.937,6.067,2.052,11.629,3.365,15.843c0.762,2.475,1.605,4.44,2.413,5.716
				c1.563,0.962,7.542,4.675,12.14,8.036c1.73,1.27,3.25,2.469,4.353,3.548c1.346,1.059,40.695,31.98,66.638,60.077
				c6.562,7.116,12.266,14.033,16.312,20.331c0.238-0.22,0.479-0.423,0.724-0.645c0.31-1.988,0.718-4.294,1.27-6.784
				c1.625-7.26,4.285-15.869,9.109-21.539c3.44-4.011,10.703-11.194,18.901-19.405c8.185-8.191,17.27-17.368,24.186-25.145
				c4.605-5.172,8.261-9.772,9.955-12.837c2.594-4.657,7.544-11.153,13.106-17.828c5.561-6.666,11.71-13.449,16.63-18.484
				c2.936-2.999,5.352-5.3,7.108-6.719c0.228-0.223,0.453-0.453,0.679-0.677c-0.003-0.022-0.003-0.037-0.006-0.062
				c-0.055-0.775-0.14-1.921-0.266-3.368c-0.252-2.892-0.664-6.991-1.306-11.803c-1.281-9.614-3.485-22.07-7.115-33.305
				l-0.045-0.145l-0.029-0.144c-0.015-0.099-4.524-22.899-4.53-49.257c0.011-16.484,1.743-34.354,7.625-49.083l0.499-1.244
				c2.095-20.406,2.225-62.544,2.225-62.544c0.17,10.785,0.677,24.528,0.556,37.174c-0.104,10.653-0.541,20.333-0.773,24.854
				l0.861,0.374l0.004,0.002l0.073,0.03l0.338,0.129c0.307,0.11,0.763,0.263,1.327,0.416c1.125,0.308,2.682,0.613,4.278,0.61
				c2.104-0.004,4.16-0.488,5.841-1.93c1.675-1.444,3.25-4.036,3.842-9.06c0.996-8.647,2.144-15.52,3.032-21.021
				c0.896-5.493,1.508-9.623,1.502-12.655c0-0.728-0.035-1.393-0.102-2l-0.072-0.642l0.245-0.597c0,0,0.075-0.181,0.217-0.537
				c0.14-0.357,0.347-0.882,0.604-1.552c0.512-1.337,1.225-3.242,2.014-5.502c1.579-4.518,3.476-10.464,4.719-16.075
				c0.829-3.734,1.364-7.331,1.36-10.146c0.003-1.545-0.165-2.848-0.449-3.753c-0.29-0.922-0.644-1.371-0.951-1.59
				c-1.461-1.064-2.629-1.977-3.564-2.653c-0.937-0.682-1.639-1.105-2.082-1.276c-0.301-0.118-0.469-0.142-0.63-0.143
				c-0.189,0.002-0.431,0.034-0.884,0.235c-0.444,0.198-1.075,0.575-1.868,1.169c-1.595,1.189-3.836,3.22-6.976,6.167l-3.131,2.937
				l-26.798-104.889L362.88,63.45l-50.301-24.784L281.1,32.94l-52.938,21.033l-45.78,39.24L167.2,134.421l-7.068,97.398
				l-3.998-4.531l-0.027-0.03l-0.111-0.123l-0.458-0.483c-0.404-0.413-0.994-0.996-1.712-1.64c-1.436-1.289-3.414-2.817-5.361-3.754
				c-1.295-0.633-2.552-0.98-3.557-0.974c-1.078,0.025-1.872,0.275-2.831,1.202c-0.721,0.725-1.187,1.494-1.503,2.378
				c-0.315,0.883-0.469,1.892-0.469,3.021c-0.011,2.668,0.904,5.949,2.094,9.115c1.182,3.181,2.595,6.215,3.457,8.781
				c1.154,3.476,3.175,10.847,4.939,17.437c1.76,6.578,3.242,12.317,3.242,12.321l0.014,0.06l0.005,0.018
				c0,0,0.046,0.21,0.141,0.612c0.092,0.401,0.233,0.989,0.412,1.729c0.361,1.479,0.884,3.565,1.539,5.976
				c1.306,4.824,3.137,10.966,5.178,16.127c1.351,3.431,2.83,6.446,4.138,8.201c0.729,1.012,1.417,1.539,1.626,1.604l0.057,0.019
				C169.901,308.891,173.022,309.216,175.926,309.838z M447.281,207.856c0,0,2.59-0.738-0.372,6.288c0,0,1.11-6.658-7.026,0
				c0,0-0.654,17.227,0.79,23.649c0.621,2.098,0.916,2.809,0.317,1.133c-0.116-0.323-0.219-0.706-0.317-1.133
				c-1.246-4.226-3.793-14.132-3.084-22.012c-2.569,1.895-6.566,5.042-8.05,7.301c-0.018,0.033-0.046,0.079-0.064,0.11
				c-0.122,0.195-0.234,0.389-0.313,0.568c0,0,0.107-0.208,0.313-0.568c0.023-0.037,0.04-0.072,0.064-0.11
				C431.04,220.494,437.104,211.038,447.281,207.856z M422.129,243.362c0,0,2.22,2.592,4.07,8.879
				c1.852,6.289-4.07,11.467-4.07,11.467s4.439-7.029,1.112-10.728C419.911,249.283,422.129,243.362,422.129,243.362z
				 M210.564,218.583c0,0,21.082-28.479,47.342-7.767c0,0-5.078-3.817-12.818-5.442c0.467,1.85,1.954,8.681-1.238,10.435
				c0,0-8.32,3.884-15.534,2.034c0,0-4.4-3.895-2.871-10.462C220.617,209.496,215.574,213.018,210.564,218.583z M257.721,279.981
				c0,0-6.935-12.76,2.772-18.865C260.493,261.117,253.836,266.667,257.721,279.981z M250.476,222.175
				c-27.943,14.759-33.321,3.552-33.321,3.552C225.881,232.386,250.476,222.175,250.476,222.175z M336.406,420.461
				c-3.835,1.5-8.479,2.705-14.238,3.607c-8.047,1.507-16.97,2.383-26.904,2.383c-2.82,0-5.513-0.14-8.144-0.34
				c-1.798,0-3.632-0.009-5.54-0.026c-8.236-0.09-14.919-2.349-20.351-5.727c-33.425-13.202-43.454-43.285-43.454-43.285
				s12.549,25.604,38.399,39.557c-13.299-11.603-16.763-29.751-16.763-29.751s1.269,3.959,4.076,9.229
				c-0.067-0.238-0.129-0.481-0.191-0.725c0,0,4.195,5.128,11.731,5.128c0.687,0,1.397-0.041,2.139-0.134
				c5.781-0.724,29.441-5.682,50.761-5.682c11.418,0,22.168,1.424,29.136,5.682c3.786,2.314,6.896,3.251,9.448,3.251
				c1.977,0,3.615-0.56,4.979-1.48l15.157-40.423c0,0-8.137,39.208-17.011,49.563c-1.789,2.087-3.818,3.947-6.271,5.591
				c18.503-7.758,37.74-22.361,48.617-49.791C391.983,367.088,382.876,405.404,336.406,420.461z M288.355,330.039
				c0,0,5.526,1.619,7.027,1.441c1.502-0.183,7.106-2.123,7.106-2.123s8.189,0.541,24.247-3.164
				c16.056-3.702,22.588-2.198,22.588-2.198c-4.604,1.821-13.524,3.653-19.625,3.62c-3.919-0.016-13.975,2.062-20.662,3.547
				c-3.722,0.834-13.244,5.854-19.196,2.762c-5.956-3.096-19.685-3.227-29.191-2.087c-9.512,1.142-13.201,0.06-13.201,0.06
				c5.024-4.662,12.486-1.748,12.486-1.748C269.855,328.195,288.355,330.039,288.355,330.039z M284.091,314.631
				c0,0,9.064,4.59,22.834-1.023c0,0-5.217,2.707-10.552,4.594C296.374,318.2,288.96,317.296,284.091,314.631z M326.795,259.455
				c14.979,16.642,2.219,21.914,2.219,21.914C338.445,273.046,326.795,259.455,326.795,259.455z M331.332,218.177
				c0,0,22.198,4.117,38.055-2.862C369.387,215.315,354.701,225.494,331.332,218.177z M357.666,196.515
				c2.84,9.122-3.041,12.268-3.041,12.268c-4.256,1.665-13.312,0.741-13.312,0.741c-4.531-2.969-2.729-9.875-2.062-11.956
				c-8.112,3.294-13.288,9.548-13.288,9.548c2.222-3.328,9.247-13.314,24.043-13.684c14.797-0.369,19.233,11.836,19.233,11.836
				C366.406,199.979,361.65,197.592,357.666,196.515z M306.266,356.452c-12.261,8.877-19.598,2.262-19.598,2.262
				C292.701,361.048,306.266,356.452,306.266,356.452z M319.676,176.787c0,0,38.469-16.645,49.563-12.206
				c0,0,22.931,9.986,17.383,27.74c0,0,0.372,2.218-10.723-5.177c-11.098-7.397-37.891-6.109-58.075,7.767
				C311.905,198.98,308.21,181.594,319.676,176.787z M324.021,284.421c3.592,0.827-14.029,4.415-19.363,8.834
				c8.359,0.005,37.949,1.891,37.949,1.891c34.398,1.112,25.524,18.495,25.524,18.495c-4.812,12.026-8.233,15.435-10.562,15.435
				c-3.045,0-4.232-5.815-4.232-5.815s0-6.66-1.112-8.508c-1.108-1.852-8.136-4.068-8.136-4.068s-24.593-4.078-35.113-4.078
				c-1.753,0-3.115,0.115-3.908,0.377c-1.967,0.656-4.447,0.893-6.959,0.893c-4.573,0-9.257-0.782-11.167-1.261
				c-0.141-0.036-0.336-0.054-0.582-0.054c-4.918,0-29.749,6.709-29.749,6.709c-19.975,4.44-17.563,19.976-17.563,19.976
				c0,1.61-0.33,2.229-0.837,2.229c-1.712,0-5.453-7.039-5.453-7.039c-11.838-19.973,1.11-23.302,1.11-23.302
				c3.864-4.192,37.52-10.629,46.101-12.214c-1.336-0.659-2.89-1.368-4.771-2.118c-6.935-2.775-11.375-4.438-11.375-4.438
				s11.375-0.278,17.479,4.438c6.104,4.714,13.313,7.489,21.915,0C311.814,283.311,324.021,284.421,324.021,284.421z
				 M278.803,197.869c9.986,10.542-3.882,52.153-3.882,52.153C284.352,205.081,278.803,197.869,278.803,197.869z M212.412,177.896
				c51.783-4.069,57.329,17.384,57.329,17.384c2.59,4.438-12.573,0.371-12.573,0.371c-28.708-13.299-50.749,0.563-57.859,6.083
				c-1.59,1.236-2.883-0.724-2.902-2.024C196.194,185.071,212.412,177.896,212.412,177.896z M169.506,249.65l0.744,2.22
				c-3.329,0.739-11.098,10.359-11.098,10.359C159.894,256.679,169.506,249.65,169.506,249.65z M147.687,242.993
				c-17.017-29.589,10.725-5.178,10.725-5.178C133.629,217.843,147.687,242.993,147.687,242.993z M155.99,275.833
				c0.057-1.051,0.2-1.769,0.2-1.769C156.104,274.684,156.043,275.269,155.99,275.833c-0.207,3.919,0.867,12.745,15.736,8.957
				C171.726,284.79,154.289,294.899,155.99,275.833z"/>
			<path fill="#FFFFFF" stroke="#000000" stroke-linejoin="round" d="M288.834,297.371c0.005,0,0.012-0.003,0.017-0.003
				c-0.919-0.088-1.625-0.25-2.003-0.465c0.304,0.332,0.908,0.473,1.713,0.473C288.648,297.376,288.741,297.374,288.834,297.371z"/>
			<path stroke="#000000" stroke-linejoin="round" d="M350.006,193.431c-14.796,0.369-21.821,10.356-24.043,13.684
				c0,0,5.176-6.253,13.288-9.548c-0.669,2.081-2.471,8.987,2.062,11.956c0,0,9.057,0.924,13.312-0.741
				c0,0,5.881-3.146,3.041-12.268c3.984,1.078,8.74,3.464,11.573,8.752C369.239,205.267,364.803,193.062,350.006,193.431z"/>
			<path stroke="#000000" stroke-linejoin="round" d="M250.476,222.175c0,0-24.595,10.211-33.321,3.552
				C217.155,225.727,222.533,236.934,250.476,222.175z"/>
			<path stroke="#000000" stroke-linejoin="round" d="M369.387,215.315c-15.855,6.979-38.055,2.862-38.055,2.862
				C354.701,225.494,369.387,215.315,369.387,215.315z"/>
			<path stroke="#000000" stroke-linejoin="round" d="M228.316,217.843c7.214,1.85,15.534-2.034,15.534-2.034
				c3.191-1.754,1.705-8.585,1.238-10.435c7.74,1.625,12.818,5.442,12.818,5.442c-26.26-20.712-47.342,7.767-47.342,7.767
				c5.009-5.564,10.053-9.087,14.881-11.202C223.916,213.948,228.316,217.843,228.316,217.843z"/>
			<path stroke="#000000" stroke-linejoin="round" d="M199.309,201.734c7.111-5.519,29.152-19.381,57.859-6.083
				c0,0,15.164,4.066,12.573-0.371c0,0-5.546-21.453-57.329-17.384c0,0-16.218,7.175-16.006,21.813
				C196.426,201.01,197.719,202.97,199.309,201.734z"/>
			<path stroke="#000000" stroke-linejoin="round" d="M317.824,194.91c20.186-13.875,46.979-15.164,58.075-7.767
				c11.095,7.396,10.723,5.177,10.723,5.177c5.548-17.754-17.383-27.74-17.383-27.74c-11.096-4.438-49.563,12.206-49.563,12.206
				C308.21,181.594,311.905,198.98,317.824,194.91z"/>
			<path stroke="#000000" stroke-linejoin="round" d="M278.803,197.869c0,0,5.549,7.212-3.882,52.153
				C274.92,250.021,288.789,208.411,278.803,197.869z"/>
			<path stroke="#000000" stroke-linejoin="round" d="M326.795,259.455c0,0,11.65,13.591,2.219,21.914
				C329.014,281.368,341.772,276.097,326.795,259.455z"/>
			<path stroke="#000000" stroke-linejoin="round" d="M281.3,290.801c-6.103-4.715-17.479-4.438-17.479-4.438
				s4.441,1.662,11.375,4.438c1.881,0.75,3.435,1.459,4.771,2.118c0.001,0,0.006,0,0.008,0c3.596,1.774,5.456,3.176,6.873,3.983
				c0.377,0.215,1.083,0.377,2.003,0.465c-0.005,0-0.012,0.003-0.017,0.003c0.537,0.052,1.149,0.082,1.818,0.082
				c4.099,0,10.292-1.075,13.95-4.155c0.016-0.015,0.031-0.027,0.049-0.042h0.008c5.334-4.42,22.955-8.008,19.362-8.834
				c0,0-12.206-1.111-20.807,6.38C294.614,298.291,287.404,295.516,281.3,290.801z"/>
			<path stroke="#000000" stroke-linejoin="round" d="M257.721,279.981c-3.885-13.315,2.772-18.865,2.772-18.865
				C250.787,267.221,257.721,279.981,257.721,279.981z"/>
			<path stroke="#000000" stroke-linejoin="round" d="M306.926,313.607c-13.77,5.611-22.834,1.022-22.834,1.022
				c4.869,2.665,12.282,3.569,12.282,3.569C301.709,316.312,306.926,313.607,306.926,313.607z"/>
			<path stroke="#000000" stroke-linejoin="round" d="M306.266,356.452c0,0-13.563,4.596-19.598,2.262
				C286.668,358.714,294.005,365.329,306.266,356.452z"/>
			<path stroke="#000000" stroke-linejoin="round" d="M343.366,416.879c2.452-1.644,4.481-3.504,6.271-5.591
				c8.874-10.355,17.011-49.563,17.011-49.563l-15.157,40.423l0,0l-0.376,1.005c-7.355,16.968-27.678,19.663-50.062,19.663
				c-6.897,0-13.988-0.256-20.956-0.429c-19.603-0.49-31.089-15.912-36.608-26.268c0-0.003-0.003-0.008-0.003-0.014
				c-2.807-5.269-4.076-9.228-4.076-9.228s3.464,18.148,16.763,29.751c-25.851-13.952-38.399-39.557-38.399-39.557
				s10.029,30.083,43.454,43.285c5.431,3.378,12.115,5.637,20.351,5.727c1.908,0.019,3.742,0.026,5.54,0.026
				c2.631,0.2,5.324,0.34,8.144,0.34c9.935,0,18.857-0.876,26.904-2.383c5.76-0.902,10.403-2.107,14.238-3.607
				c46.47-15.057,55.577-53.373,55.577-53.373C381.106,394.518,361.869,409.121,343.366,416.879z"/>
			<path stroke="#000000" stroke-linejoin="round" d="M429.539,223.083c-0.024,0.038-0.041,0.073-0.064,0.11
				C429.493,223.161,429.521,223.115,429.539,223.083z"/>
			<path stroke="#000000" stroke-linejoin="round" d="M429.475,223.192c-0.206,0.36-0.313,0.568-0.313,0.568
				C429.239,223.581,429.353,223.388,429.475,223.192z"/>
			<path stroke="#000000" stroke-linejoin="round" d="M437.589,215.781c-0.709,7.88,1.838,17.786,3.084,22.012
				c-1.444-6.422-0.79-23.649-0.79-23.649c8.139-6.658,7.026,0,7.026,0c2.962-7.026,0.372-6.288,0.372-6.288
				c-10.179,3.182-16.241,12.638-17.742,15.227C431.021,220.823,435.02,217.676,437.589,215.781z"/>
			<path stroke="#000000" stroke-linejoin="round" d="M422.129,263.708c0,0,5.922-5.178,4.07-11.467
				c-1.852-6.288-4.07-8.879-4.07-8.879s-2.218,5.921,1.112,9.618C426.568,256.679,422.129,263.708,422.129,263.708z"/>
			<path stroke="#000000" stroke-linejoin="round" d="M440.673,237.793c0.1,0.428,0.201,0.81,0.317,1.133
				C441.589,240.602,441.294,239.891,440.673,237.793z"/>
			<path stroke="#000000" stroke-linejoin="round" d="M147.687,242.993c0,0-14.058-25.15,10.725-5.178
				C158.412,237.814,130.67,213.403,147.687,242.993z"/>
			<path stroke="#000000" stroke-linejoin="round" d="M170.25,251.87l-0.744-2.22c0,0-9.612,7.029-10.354,12.579
				C159.152,262.229,166.921,252.609,170.25,251.87z"/>
			<path stroke="#000000" stroke-linejoin="round" d="M155.99,275.833c-1.702,19.065,15.736,8.957,15.736,8.957
				C156.857,288.579,155.783,279.753,155.99,275.833z"/>
			<path stroke="#000000" stroke-linejoin="round" d="M155.99,275.833c0.053-0.565,0.114-1.149,0.2-1.769
				C156.19,274.064,156.047,274.783,155.99,275.833z"/>
			<path fill="#D9D9D9" stroke="#000000" stroke-linejoin="round" d="M304.604,293.298c-3.658,3.08-9.852,4.155-13.951,4.155
				c-0.669,0-1.282-0.03-1.818-0.082c-0.094,0.002-0.186,0.005-0.273,0.005c-0.805,0-1.409-0.141-1.713-0.473
				c-1.417-0.808-3.277-2.209-6.873-3.983c-0.002,0-0.007,0-0.008,0c-8.581,1.585-42.236,8.021-46.101,12.214
				c0,0-12.949,3.329-1.11,23.302c0,0,3.741,7.039,5.453,7.039c0.507,0,0.837-0.619,0.837-2.229c0,0-2.411-15.534,17.563-19.976
				c0,0,24.83-6.709,29.749-6.709c0.246,0,0.441,0.018,0.582,0.053c1.911,0.479,6.594,1.262,11.167,1.262
				c2.512,0,4.994-0.234,6.96-0.893c0.791-0.263,2.154-0.377,3.907-0.377c10.521,0,35.113,4.078,35.113,4.078
				s7.026,2.217,8.136,4.068c1.112,1.848,1.112,8.508,1.112,8.508s1.188,5.815,4.232,5.815c2.327,0,5.751-3.407,10.562-15.435
				c0,0,8.874-17.382-25.525-18.495c0,0-29.589-1.886-37.949-1.891h-0.008C304.634,293.271,304.617,293.283,304.604,293.298z"/>
			<path fill="#D9D9D9" stroke="#000000" stroke-linejoin="round" d="M280.098,422.387c6.968,0.173,14.059,0.429,20.957,0.429
				c22.383,0,42.704-2.695,50.061-19.663l0.376-1.005l0,0c-1.364,0.922-3.004,1.48-4.979,1.48c-2.552,0-5.662-0.937-9.449-3.251
				c-6.967-4.258-17.717-5.682-29.135-5.682c-21.319,0-44.98,4.958-50.761,5.682c-0.742,0.093-1.452,0.134-2.139,0.134
				c-7.537,0-11.731-5.128-11.731-5.128c0.062,0.242,0.124,0.485,0.191,0.725c0,0.004,0.003,0.01,0.003,0.013
				C249.009,406.475,260.495,421.896,280.098,422.387z"/>
			<path fill="#CCCCCC" stroke="#000000" stroke-linejoin="round" d="M488.977,499.97c0.464-0.062,0.851-0.157,1.133-0.246
				c-0.124-0.145-0.284-0.312-0.485-0.496c-3.164-2.988-5.974-8.151-8.709-14.358c-2.712-6.201-5.244-13.417-7.434-20.299
				c-4.085-12.871-6.941-24.57-7.3-26.047l-0.097-0.227c-0.11-0.243-0.276-0.604-0.499-1.066c-0.444-0.924-1.118-2.248-2.018-3.821
				c-1.796-3.149-4.501-7.294-8.073-11.225c-2.649-2.918-9.186-9.011-16.228-15.38c-7.053-6.383-14.658-13.097-19.614-17.441
				c-0.359-0.317-0.695-0.615-1.028-0.902c2.882,8.587,4.85,20.291,6.189,30.439c1.522,11.601,2.173,21.085,2.175,21.109
				c0.043,0.616-0.223,1.197-0.681,1.579c2.415,15.321,10.981,37.734,15.311,48.403c0.771,1.898,1.405,3.427,1.848,4.479
				c0.162-0.009,0.325-0.009,0.49,0.023c0.006,0.002,1.75,0.353,4.603,0.889c2.851,0.536,6.791,1.249,11.15,1.96
				c8.702,1.427,19.126,2.841,25.625,2.838C486.786,500.182,488.037,500.11,488.977,499.97z"/>
			<path fill="#CCCCCC" stroke="#000000" stroke-linejoin="round" d="M441.944,495.389c0.097-0.165,0.219-0.307,0.352-0.429
				c-2.933-6.978-14.215-34.541-17.183-52.875c-0.115,0.078-0.252,0.173-0.413,0.292c-0.579,0.438-1.402,1.136-2.373,2.029
				c-1.95,1.791-4.529,4.367-7.392,7.386c-4.119,4.342-8.833,9.601-13.214,14.815c-0.389,2.416-0.568,5.108-0.568,7.976
				c-0.003,13.778,3.926,31.238,5.89,39.08c0.176,0.705,0.334,1.327,0.477,1.867c11.278-0.713,19.68-5.44,25.403-10.173
				c5.737-4.743,8.725-9.481,9.002-9.938L441.944,495.389z"/>
			<path fill="#CCCCCC" stroke="#000000" stroke-linejoin="round" d="M369.969,533.812c17.604-9.877,33.512-16.728,36.335-17.923
				c-1.706-6.553-6.414-26.016-6.419-41.308c0-2.152,0.109-4.208,0.317-6.153c-1.178,1.425-2.329,2.839-3.421,4.22
				c-3.689,4.656-6.784,8.979-8.492,12.061c-1.504,2.701-3.982,5.971-7.11,9.686c-3.123,3.704-6.892,7.821-10.936,12.077
				c-8.081,8.513-17.266,17.571-24.501,24.846c-4.822,4.844-8.794,8.909-10.932,11.407c-3.544,4.099-6.075,10.906-7.652,17.217
				c-0.669,2.659-1.178,5.206-1.566,7.46c4.137-5.167,9.566-10.17,15.69-14.946C350.08,545.605,360.276,539.256,369.969,533.812z"/>
			<path stroke="#000000" stroke-linejoin="round" d="M493.598,498.052c-0.356-0.566-0.814-1.081-1.379-1.608
				c-2.386-2.188-5.214-7.105-7.817-13.102c-3.944-9.015-7.6-20.509-10.251-29.722c-1.324-4.608-2.402-8.648-3.148-11.535
				c-0.374-1.442-0.663-2.597-0.858-3.389c-0.195-0.794-0.299-1.221-0.299-1.221l-0.093-0.288
				c-0.052-0.112-3.802-9.146-11.441-17.562c-1.939-2.132-5.459-5.505-9.707-9.443c-11.188-10.359-27.317-24.463-31.066-27.732
				c-1.315-8.603-3.271-24.275-3.271-41.378c-0.008-15.266,1.62-31.612,6.467-44.961c1.423,0.381,3.323,0.743,5.473,0.753
				c2.861,0.005,6.276-0.694,9.146-3.151c2.871-2.458,4.912-6.482,5.576-12.329c0.983-8.518,2.11-15.277,3.004-20.792
				c0.89-5.522,1.562-9.791,1.565-13.468c0-0.64-0.051-1.241-0.094-1.846c0.596-1.501,2.488-6.353,4.406-12.371
				c1.154-3.618,2.312-7.638,3.188-11.589c0.874-3.954,1.479-7.822,1.48-11.244c-0.003-1.885-0.179-3.646-0.676-5.258
				c-0.496-1.601-1.36-3.132-2.812-4.188c-1.851-1.346-3.245-2.477-4.612-3.382c-0.687-0.452-1.375-0.853-2.142-1.16
				c-0.762-0.305-1.62-0.505-2.509-0.503c-1.021-0.002-2.026,0.257-2.964,0.681c-1.41,0.64-2.744,1.611-4.358,2.952
				c-0.829,0.691-1.731,1.49-2.734,2.402l-24.996-97.83l-40.697-44.469L314.19,33.803l-33.614-6.114l-55.072,21.878L178.079,90.22
				l-15.889,43.12l-6.299,86.775c-0.176-0.144-0.346-0.287-0.533-0.434c-1.355-1.06-2.933-2.14-4.682-2.989
				c-1.747-0.841-3.679-1.476-5.77-1.483c-2.206-0.025-4.592,0.826-6.417,2.689c-1.259,1.255-2.151,2.725-2.696,4.264
				c-0.55,1.542-0.763,3.14-0.763,4.724c0.01,3.749,1.152,7.477,2.413,10.886c1.268,3.392,2.695,6.5,3.395,8.612
				c1.062,3.182,3.107,10.607,4.856,17.146c0.876,3.277,1.684,6.347,2.271,8.598c0.59,2.249,0.957,3.676,0.957,3.678l0,0
				c0.173,0.769,2.164,9.47,5.039,18.277c1.509,4.61,3.242,9.231,5.166,12.862c0.97,1.82,1.973,3.396,3.147,4.654
				c0.591,0.629,1.233,1.185,1.992,1.619c0.756,0.432,1.663,0.738,2.651,0.738c3.444-0.005,7.326,0.533,10.351,1.462
				c1.511,0.459,2.807,1.021,3.689,1.581c0.901,0.555,1.3,1.1,1.356,1.279l0.019,0.049l0.03,0.068c0,0,0.092,0.199,0.268,0.59
				c1.325,2.929,7.34,16.447,13.007,32.33c2.832,7.939,5.578,16.475,7.601,24.547c2.029,8.066,3.324,15.689,3.319,21.674
				c0,0.373-0.004,0.743-0.014,1.106c-0.049,1.795-0.073,3.596-0.073,5.394c0,1.127,0.021,2.245,0.039,3.366
				c-2.855,1.506-5.652,3.835-8.454,6.714c-5.319,5.497-10.619,12.972-15.455,20.438c-4.832,7.462-9.187,14.927-12.497,20.303
				c-3.786,6.152-10.088,17.717-17.829,29.266c-7.718,11.537-16.923,23.012-26.047,28.779c-0.637,0.403-1.167,0.843-1.588,1.396
				c-0.419,0.549-0.717,1.271-0.714,2.023c0.003,0.979,0.471,1.776,0.97,2.302c0.765,0.802,1.669,1.264,2.62,1.643
				c0.955,0.363,1.961,0.608,2.925,0.727c10.544,1.285,19.27,1.823,26.505,1.826c16.38-0.012,25.149-2.736,30.022-6.006
				c1.588-1.071,2.715-2.208,3.544-3.312l1.612,4.568l0.092,0.219c1.794,3.567,5.018,6.131,8.68,8.062
				c5.505,2.893,12.15,4.424,17.461,5.286c5.141,0.83,8.989,1.005,9.277,1.017c19.117,1.603,42.718,12.842,61.377,23.74
				c9.342,5.447,17.473,10.797,23.259,14.78c2.896,1.991,5.2,3.642,6.783,4.795c0.79,0.577,1.4,1.023,1.812,1.329
				c0.411,0.309,0.618,0.463,0.618,0.466c0.7,0.53,1.675,0.515,2.355-0.042c0.573-0.474,0.79-1.228,0.615-1.928
				c3.695-6.741,10.691-13.756,19.164-20.34c12.864-10.018,29.052-19.11,42.001-25.673c6.475-3.277,12.14-5.931,16.184-7.759
				c2.021-0.913,3.638-1.622,4.747-2.104c0.719-0.311,1.197-0.514,1.461-0.625c12.514-0.854,21.811-6.282,27.929-11.506
				c4.49-3.833,7.286-7.521,8.521-9.318c2.416,0.472,8.046,1.547,14.635,2.624c8.805,1.435,19.256,2.88,26.239,2.887
				c2.2-0.007,4.048-0.131,5.564-0.525c0.762-0.207,1.46-0.47,2.109-0.981c0.323-0.257,0.632-0.591,0.862-1.015
				c0.229-0.422,0.356-0.93,0.354-1.412C494.222,499.273,493.947,498.614,493.598,498.052z M195.654,516.644l-3.272-9.268
				c-0.208-0.588-0.688-0.988-1.249-1.159c-0.027-0.577-0.054-1.241-0.084-2.083c-0.086-2.449-0.173-5.961-0.173-10.203
				c0-10.94,0.577-26.729,3.21-41.615c2.459-13.962,6.767-27.11,13.949-34.684c0.34,5.66,0.877,13.312,1.673,21.354
				c0.799,8.078,1.863,16.546,3.257,23.818c0.699,3.637,1.479,6.975,2.366,9.832c0.895,2.862,1.87,5.24,3.087,7.041l0.584,0.552
				c0.003,0.004,0.415,0.253,1.097,0.679c4.022,8.342,11.1,24.854,11.085,37.303c0,4.225-0.822,7.923-2.757,10.709
				c-0.168-0.015-0.339-0.045-0.507-0.061l-0.085-0.005l-0.287-0.013c-1.459-0.077-8.32-0.543-15.397-2.366
				c-3.537-0.905-7.124-2.159-10.085-3.813C199.116,521.021,196.844,518.998,195.654,516.644z M181.096,515.605
				c-4.638,1.883-12.177,3.408-24.15,3.405c-7.048,0.003-15.625-0.521-26.044-1.797c-0.851-0.096-1.908-0.396-2.584-0.753
				c-0.114-0.057-0.198-0.113-0.287-0.168c0.076-0.06,0.128-0.108,0.238-0.179c9.997-6.367,19.295-18.153,27.17-29.872
				c7.848-11.712,14.22-23.403,17.907-29.388c4.459-7.251,10.682-18.028,17.344-27.506c3.327-4.737,6.765-9.143,10.1-12.585
				c2.396-2.483,4.746-4.424,6.892-5.677c0.062,1.269,0.146,2.915,0.258,4.867c-8.003,7.802-12.515,21.57-15.101,36.138
				c-2.651,15.003-3.229,30.852-3.229,41.837c0,5.728,0.157,10.078,0.257,12.354c-0.753,0.315-1.241,1.062-1.165,1.899h-0.006
				l0.001,0.062c-0.001,0.203-0.034,0.91-0.512,1.874C187.464,511.557,185.744,513.71,181.096,515.605z M165.262,307.262
				c-1.308-1.755-2.787-4.77-4.138-8.201c-2.041-5.161-3.872-11.303-5.178-16.127c-0.655-2.411-1.177-4.497-1.539-5.976
				c-0.178-0.74-0.32-1.328-0.412-1.729c-0.095-0.402-0.141-0.61-0.141-0.61l-0.005-0.02l-0.014-0.06
				c0-0.004-1.482-5.743-3.242-12.321c-1.764-6.59-3.785-13.961-4.939-17.437c-0.862-2.565-2.275-5.6-3.457-8.781
				c-1.189-3.167-2.105-6.447-2.094-9.115c0-1.129,0.154-2.138,0.469-3.021c0.317-0.885,0.783-1.654,1.503-2.378
				c0.959-0.926,1.752-1.177,2.831-1.202c1.005-0.006,2.262,0.341,3.557,0.974c1.947,0.937,3.925,2.465,5.361,3.754
				c0.718,0.644,1.309,1.227,1.712,1.64l0.458,0.483l0.111,0.123l0.027,0.03l3.998,4.531l7.068-97.398l15.183-41.208l45.78-39.24
				L281.1,32.94l31.479,5.726L362.88,63.45l39.192,42.825l26.798,104.889l3.131-2.937c3.14-2.946,5.381-4.977,6.975-6.167
				c0.794-0.595,1.425-0.972,1.869-1.169c0.453-0.201,0.693-0.233,0.884-0.235c0.161,0.001,0.329,0.025,0.63,0.143
				c0.443,0.171,1.146,0.595,2.082,1.276c0.937,0.677,2.104,1.589,3.564,2.653c0.309,0.219,0.661,0.668,0.951,1.59
				c0.284,0.905,0.452,2.208,0.449,3.753c0.004,2.814-0.531,6.411-1.36,10.146c-1.243,5.61-3.14,11.557-4.719,16.075
				c-0.789,2.26-1.502,4.165-2.014,5.502c-0.258,0.67-0.465,1.195-0.604,1.552c-0.142,0.356-0.217,0.537-0.217,0.537l-0.245,0.597
				l0.072,0.642c0.065,0.607,0.102,1.271,0.102,2c0.006,3.032-0.605,7.163-1.502,12.655c-0.89,5.501-2.036,12.374-3.032,21.021
				c-0.592,5.024-2.167,7.616-3.842,9.06c-1.681,1.442-3.737,1.926-5.841,1.93c-1.598,0.003-3.153-0.302-4.278-0.61
				c-0.564-0.153-1.021-0.306-1.327-0.416l-0.338-0.129l-0.073-0.03l-0.004-0.002l-0.861-0.374
				c0.232-4.521,0.671-14.202,0.773-24.854c0.121-12.646-0.386-26.39-0.556-37.174c0,0-0.13,42.139-2.225,62.544l-0.499,1.244
				c-5.882,14.729-7.614,32.599-7.625,49.083c0.006,26.356,4.517,49.158,4.53,49.257l0.029,0.144l0.045,0.145
				c3.63,11.233,5.834,23.689,7.115,33.305c0.642,4.812,1.054,8.911,1.306,11.803c0.126,1.447,0.211,2.593,0.266,3.368
				c0.003,0.025,0.003,0.04,0.006,0.062c-0.226,0.224-0.451,0.454-0.679,0.677c-1.758,1.419-4.174,3.72-7.108,6.719
				c-4.92,5.035-11.069,11.818-16.63,18.484c-5.562,6.675-10.514,13.171-13.106,17.828c-1.694,3.063-5.35,7.665-9.955,12.837
				c-6.916,7.775-16.001,16.952-24.186,25.145c-8.198,8.211-15.461,15.396-18.901,19.405c-4.824,5.67-7.484,14.279-9.109,21.539
				c-0.552,2.49-0.96,4.796-1.27,6.784c-0.243,0.222-0.484,0.425-0.724,0.645c-4.046-6.298-9.75-13.215-16.312-20.331
				c-25.942-28.097-65.292-59.02-66.638-60.076c-1.103-1.08-2.623-2.279-4.353-3.549c-4.599-3.361-10.577-7.073-12.14-8.035
				c-0.807-1.275-1.65-3.242-2.413-5.717c-1.313-4.214-2.429-9.774-3.365-15.843c0.083-0.406,0.159-0.761,0.216-0.994l0.1-0.371
				l0.022-0.075v-0.004l-0.582-0.187c-0.025-0.171-0.052-0.339-0.077-0.508l0.778-0.071c-0.006-0.18-0.028-0.323-0.052-0.459h0.009
				c0,0-0.067-0.365-0.188-1.072c-0.853-4.947-4.288-26.341-4.283-47.886c0-1.753,0.024-3.507,0.072-5.256
				c0.011-0.41,0.015-0.823,0.015-1.244c-0.004-7.131-1.58-15.666-3.896-24.571c-6.96-26.676-20.735-56.615-20.762-56.687
				l-0.008,0.003c-0.698-1.602-1.927-2.696-3.303-3.575c-0.079-0.05-0.17-0.09-0.252-0.137c-0.53-1.386-1.118-2.964-1.751-4.747
				c-5-14.053-12.457-39.508-9.935-60.577c0,0-6.813,25.703,9.553,64.255c-1.63-0.697-3.427-1.244-5.351-1.664
				c-2.904-0.621-6.025-0.947-8.981-0.953l-0.057-0.02C166.679,308.801,165.991,308.271,165.262,307.262z M229.828,529.078
				c1.871-2.993,2.626-6.754,2.626-10.867c-0.005-8.998-3.502-19.771-6.979-28.333c-1.17-2.879-2.336-5.496-3.375-7.713
				c1.816,1.151,4.177,2.678,6.485,4.265c2.767,1.896,5.451,3.904,6.706,5.172l0.172,0.151c0.004,0.003,1.108,0.867,3.086,2.454
				c6.927,5.549,24.466,19.855,41.82,36.015c8.674,8.084,17.3,16.625,24.52,24.748c4.487,5.044,8.423,9.939,11.486,14.423
				c-5.899-4.116-14.895-10.13-25.449-16.284C272.594,542.442,249.673,531.344,229.828,529.078z M325.592,567.4
				c0.391-2.254,0.897-4.801,1.566-7.46c1.577-6.311,4.108-13.118,7.652-17.217c2.138-2.498,6.108-6.563,10.932-11.407
				c7.236-7.273,16.42-16.333,24.501-24.846c4.044-4.256,7.812-8.373,10.936-12.077c3.128-3.715,5.606-6.983,7.11-9.686
				c1.708-3.08,4.803-7.403,8.492-12.062c1.092-1.38,2.243-2.795,3.421-4.219c-0.208,1.945-0.317,4.001-0.317,6.153
				c0.005,15.292,4.713,34.755,6.419,41.308c-2.823,1.195-18.73,8.046-36.335,17.923c-9.691,5.442-19.889,11.792-28.687,18.642
				C335.158,557.23,329.729,562.233,325.592,567.4z M432.923,505.357c-5.725,4.731-14.125,9.46-25.404,10.173
				c-0.142-0.54-0.3-1.162-0.476-1.867c-1.964-7.842-5.893-25.302-5.89-39.08c0-2.866,0.181-5.56,0.568-7.976
				c4.381-5.216,9.095-10.475,13.214-14.815c2.861-3.02,5.44-5.595,7.392-7.386c0.971-0.895,1.794-1.594,2.373-2.029
				c0.161-0.119,0.298-0.214,0.413-0.292c2.968,18.334,14.25,45.897,17.183,52.875c-0.133,0.122-0.255,0.264-0.352,0.429
				l-0.021,0.031C441.646,495.876,438.66,500.614,432.923,505.357z M448.56,495.383c-2.853-0.536-4.597-0.887-4.603-0.889
				c-0.165-0.032-0.328-0.032-0.49-0.023c-0.441-1.052-1.076-2.579-1.848-4.479c-4.328-10.669-12.896-33.082-15.311-48.403
				c0.458-0.382,0.724-0.963,0.681-1.579c-0.002-0.024-0.651-9.51-2.175-21.109c-1.341-10.148-3.309-21.854-6.189-30.439
				c0.333,0.287,0.669,0.585,1.028,0.902c4.956,4.346,12.562,11.06,19.614,17.441c7.042,6.369,13.577,12.462,16.228,15.38
				c3.572,3.931,6.277,8.074,8.073,11.225c0.898,1.573,1.572,2.897,2.018,3.821c0.223,0.463,0.389,0.823,0.499,1.066l0.097,0.227
				c0.357,1.477,3.215,13.176,7.3,26.047c2.188,6.882,4.722,14.098,7.434,20.299c2.735,6.207,5.545,11.37,8.709,14.358
				c0.201,0.185,0.361,0.353,0.485,0.496c-0.282,0.089-0.669,0.185-1.133,0.246c-0.938,0.142-2.189,0.212-3.642,0.211
				c-6.499,0.003-16.923-1.411-25.625-2.838C455.351,496.632,451.409,495.919,448.56,495.383z"/>
			<path fill="#CCCCCC" stroke="#000000" stroke-linejoin="round" d="M202.066,522.662c2.961,1.654,6.548,2.908,10.085,3.813
				c7.077,1.823,13.938,2.289,15.397,2.366l0.287,0.014l0.085,0.004c0.168,0.016,0.339,0.046,0.507,0.061
				c1.936-2.786,2.757-6.484,2.757-10.709c0.015-12.449-7.062-28.961-11.085-37.303c-0.682-0.426-1.094-0.675-1.097-0.678
				l-0.584-0.553c-1.217-1.801-2.192-4.179-3.087-7.041c-0.887-2.857-1.667-6.195-2.366-9.832
				c-1.395-7.272-2.458-15.74-3.257-23.818c-0.796-8.044-1.333-15.694-1.673-21.354c-7.182,7.572-11.49,20.723-13.949,34.684
				c-2.633,14.887-3.21,30.675-3.21,41.615c0,4.242,0.086,7.755,0.173,10.203c0.03,0.843,0.057,1.506,0.084,2.083
				c0.561,0.171,1.041,0.571,1.249,1.159l3.272,9.269C196.844,518.998,199.116,521.021,202.066,522.662z"/>
			<path fill="#CCCCCC" stroke="#000000" stroke-linejoin="round" d="M188.694,508.246l-0.001-0.062h0.006
				c-0.077-0.838,0.411-1.584,1.165-1.899c-0.101-2.275-0.257-6.627-0.257-12.354c0-10.985,0.577-26.834,3.229-41.837
				c2.586-14.566,7.098-28.336,15.101-36.138c-0.112-1.952-0.195-3.599-0.258-4.867c-2.146,1.253-4.495,3.192-6.892,5.677
				c-3.335,3.442-6.772,7.848-10.1,12.585c-6.662,9.478-12.884,20.256-17.344,27.507c-3.687,5.982-10.059,17.675-17.907,29.387
				c-7.875,11.719-17.173,23.505-27.17,29.872c-0.11,0.069-0.162,0.119-0.238,0.179c0.089,0.055,0.173,0.111,0.287,0.168
				c0.677,0.355,1.734,0.657,2.584,0.753c10.42,1.274,18.997,1.8,26.044,1.797c11.973,0.003,19.512-1.522,24.15-3.405
				c4.648-1.896,6.368-4.05,7.086-5.485C188.661,509.156,188.693,508.449,188.694,508.246z"/>
			<path fill="#CCCCCC" stroke="#000000" stroke-linejoin="round" d="M316.375,569.393c-3.062-4.482-6.999-9.379-11.486-14.423
				c-7.22-8.123-15.846-16.664-24.52-24.748c-17.354-16.157-34.893-30.466-41.82-36.015c-1.978-1.587-3.082-2.451-3.086-2.454
				l-0.172-0.151c-1.254-1.268-3.938-3.274-6.706-5.172c-2.308-1.587-4.669-3.112-6.485-4.265c1.039,2.217,2.205,4.834,3.375,7.713
				c3.476,8.562,6.974,19.335,6.979,28.333c0,4.113-0.755,7.874-2.626,10.867c19.846,2.266,42.766,13.364,61.098,24.029
				C301.48,559.263,310.476,565.275,316.375,569.393z"/>
			<path stroke="#000000" stroke-linejoin="round" d="M259.935,330.146c0,0-7.462-2.914-12.486,1.75c0,0,3.689,1.082,13.201-0.061
				c9.506-1.141,23.235-1.009,29.191,2.087c5.952,3.093,15.476-1.928,19.196-2.762c6.688-1.485,16.743-3.562,20.662-3.547
				c6.101,0.032,15.021-1.8,19.625-3.62c0,0-6.532-1.504-22.588,2.197c-16.058,3.707-24.248,3.164-24.248,3.164
				s-5.604,1.941-7.105,2.123c-1.501,0.179-7.027-1.44-7.027-1.44S269.855,328.195,259.935,330.146z"/>
		</g>
		<path fill="#FFFFFF" stroke="#000000" stroke-width="2" d="M416.213,389.835c0,0-11.838-59.921,2.96-96.906
			c0,0,17.015,7.396,19.233-11.838c2.218-19.23,5.182-29.586,4.435-36.246c0,0,14.797-36.248,6.659-42.167
			c-8.136-5.919-7.396-7.397-19.232,3.699l-25.893-101.346l-39.947-43.646l-51.043-25.15l-32.547-5.919L226.835,51.77
			l-46.604,39.946l-15.537,42.165l-6.657,91.729c0,0-11.096-12.576-17.755-5.918c-6.656,6.658,0.743,19.234,2.964,25.89
			c2.216,6.659,8.133,29.591,8.133,29.591s8.137,36.248,15.538,36.248c7.395,0,16.269,2.22,17.751,5.916
			c0,0,25.15,54.745,24.412,81.375c-0.738,26.629,4.44,54.742,4.44,54.742s-6.099,19.294,11.099,40.685
			c21.425,26.651,69.16,58.227,95.426,79.154c35.511-30.332,68.707-97.926,105.047-133.156
			C425.092,440.138,423.612,412.766,416.213,389.835z"/>
		<path d="M257.906,210.815c0,0-24.039-18.122-47.342,7.767C210.564,218.583,231.646,190.103,257.906,210.815z"/>
		<path d="M325.963,207.115c0,0,10.357-12.575,24.781-11.463c0,0,12.947-0.74,18.495,9.616c0,0-4.438-12.205-19.233-11.836
			C335.21,193.8,328.185,203.787,325.963,207.115z"/>
		<path d="M250.476,222.175c0,0-24.595,10.211-33.321,3.552C217.155,225.727,222.533,236.934,250.476,222.175z"/>
		<path d="M331.332,218.177c0,0,22.198,4.117,38.055-2.862C369.387,215.315,354.701,225.494,331.332,218.177z"/>
		<path d="M244.961,204.897c0,0,2.59,8.878-1.11,10.911c0,0-8.32,3.884-15.534,2.034c0,0-4.624-4.067-2.772-10.911
			C225.544,206.932,237.196,201.383,244.961,204.897z"/>
		<path d="M339.464,196.947c0,0-3.515,9.061,1.849,12.576c0,0,9.058,0.924,13.312-0.741c0,0,6.288-3.328,2.774-13.131
			C357.399,195.651,347.972,191.583,339.464,196.947z"/>
		<path d="M269.741,195.28c0,0-5.546-21.453-57.329-17.384c0,0-16.218,7.175-16.006,21.813c0.02,1.3,1.312,3.26,2.902,2.024
			c7.111-5.519,29.152-19.381,57.859-6.083C257.168,195.651,272.332,199.718,269.741,195.28z"/>
		<path d="M319.676,176.787c0,0,38.469-16.645,49.563-12.206c0,0,22.931,9.986,17.383,27.74c0,0,0.372,2.218-10.723-5.177
			c-11.098-7.397-37.891-6.109-58.075,7.767C311.905,198.98,308.21,181.594,319.676,176.787z"/>
		<path d="M278.803,197.869c0,0,5.549,7.212-3.882,52.153C274.92,250.021,288.789,208.411,278.803,197.869z"/>
		<path d="M326.795,259.455c0,0,11.65,13.591,2.219,21.914C329.014,281.368,341.772,276.097,326.795,259.455z"/>
		<path d="M324.021,284.421c0,0-12.207-1.111-20.808,6.38c-8.601,7.489-15.811,4.714-21.915,0
			c-6.103-4.715-17.479-4.438-17.479-4.438s4.441,1.662,11.375,4.438c6.935,2.772,9.71,4.991,11.651,6.102
			c1.94,1.11,12.481,0.833,17.753-3.605C309.871,288.858,327.626,285.253,324.021,284.421z"/>
		<path d="M260.493,261.117c0,0-6.657,5.55-2.772,18.865C257.721,279.981,250.787,267.221,260.493,261.117z"/>
		<path d="M306.926,313.607c0,0-5.217,2.705-10.552,4.593c0,0-7.413-0.904-12.282-3.569
			C284.091,314.631,293.156,319.221,306.926,313.607z"/>
		<path d="M306.266,356.452c0,0-13.563,4.596-19.598,2.262C286.668,358.714,294.005,365.329,306.266,356.452z"/>
		<path d="M239.411,386.879c0,0,11.096,34.766,40.687,35.508c29.591,0.737,61.397,2.957,71.017-19.234l15.533-41.428
			c0,0-8.137,39.208-17.011,49.563c-8.88,10.355-23.522,15.268-68.058,14.797C246.81,425.714,239.411,386.879,239.411,386.879z"/>
		<path d="M217.775,377.073c0,0,24.965,51.043,77.118,48.269c0,0,71.57,6.104,97.091-58.254c0,0-14.052,59.363-96.72,59.363
			C234.233,426.451,217.775,377.073,217.775,377.073z"/>
		<path d="M171.724,247.247c0,0-1.11-61.583,2.219-74.898c3.33-13.315-9.433-37.729,3.885-58.811
			c13.314-21.082,35.507-56.037,67.686-66.021c0,0,13.871,11.65,13.871,17.197c0,5.55,42.164,0,49.379-9.985l4.438-12.206
			c0,0,39.946,8.322,57.146,34.953c17.199,26.63,29.958,57.145,31.623,88.214c0,0,18.311,48.269,17.202,77.12
			c0,0,6.286-33.474,15.532-40.502c0,0,0-17.754-7.21-50.487c-7.215-32.734-7.771-42.722-7.771-42.722s-4.993-27.185-36.618-44.939
			c-31.62-17.754-62.691-38.281-100.418-39.393c-37.726-1.11-93.21,47.162-101.529,56.037c-8.324,8.877-26.634,30.516-27.189,64.914
			c0,0-2.92,63.325,1.273,77.236c0.285,0.935,0.601,1.647,0.947,2.101c5.547,7.213,15.534,27.187,15.534,36.062L171.724,247.247
			L171.724,247.247z"/>
		<path d="M446.909,214.144c0,0,1.11-6.658-7.026,0c0,0-9.246,6.288-10.723,9.617c0,0,6.288-12.206,18.121-15.905
			C447.281,207.856,449.871,207.118,446.909,214.144z"/>
		<path d="M422.129,243.362c0,0-2.218,5.921,1.112,9.618c3.327,3.699-1.112,10.728-1.112,10.728s5.922-5.178,4.07-11.467
			C424.349,245.954,422.129,243.362,422.129,243.362z"/>
		<path d="M439.883,214.144c0,0-0.742,19.603,1.107,24.782c1.851,5.179-4.807-12.208-3.327-24.042L439.883,214.144z"/>
		<path d="M147.687,242.993c0,0-14.058-25.15,10.725-5.178C158.412,237.814,130.67,213.403,147.687,242.993z"/>
		<path d="M169.506,249.65c0,0-9.612,7.029-10.354,12.579c0,0,7.769-9.62,11.098-10.359L169.506,249.65z"/>
		<path d="M156.19,274.064c0,0-3.327,15.535,15.536,10.726C171.726,284.79,153.234,295.516,156.19,274.064z"/>
		<path d="M182.82,315.029c1.033,2.275,1.759,1.035,2.961,3.418c0,0-1.794-4.071-4.123-10.623c-5-14.053-12.457-39.508-9.935-60.577
			C171.724,247.247,164.486,274.525,182.82,315.029z"/>
		<path d="M419.173,292.929c0,0,0.782-12.878,0.923-27.555c0.121-12.646-0.386-26.39-0.556-37.174c0,0-0.184,60.29-3.698,71.572
			L419.173,292.929z"/>
		<path opacity="0.15" enable-background="new    " d="M239.047,333.244c0,0-2.411-15.534,17.563-19.975
			c0,0,27.373-7.396,30.33-6.656c2.961,0.736,12.576,2.218,18.126,0.367c5.549-1.848,39.021,3.703,39.021,3.703
			s7.026,2.217,8.136,4.067c1.112,1.849,1.112,8.508,1.112,8.508s3.695,18.122,14.795-9.618c0,0,8.874-17.382-25.524-18.495
			c0,0-34.767-2.218-39.574-1.849c0,0-14.247,5.731-16.185,3.605l-4.897-4.346c0,0-43.649,7.767-48.084,12.577
			c0,0-12.949,3.329-1.11,23.303C232.757,328.436,239.047,340.271,239.047,333.244z"/>
		<path opacity="0.15" enable-background="new    " d="M243.296,395.383c0,0,4.992,6.104,13.87,4.994
			c8.877-1.109,59.92-12.206,79.896,0c19.972,12.205,21.079-13.87,21.079-13.87s-0.553,37.728-50.488,38.28
			C307.652,424.787,252.17,430.891,243.296,395.383z"/>
		<path fill="#CCCCCC" stroke="#000000" stroke-width="1.5" stroke-linecap="round" stroke-linejoin="round" d="M415.477,383.18
			c0,0,34.029,29.59,41.426,37.729c7.396,8.136,11.093,17.01,11.093,17.01s11.831,49.563,22.928,59.918
			c11.097,10.357-47.342-1.476-47.342-1.476s-11.647,19.602-36.061,21.081c0,0-69.354,28.853-84.887,57.7
			c0,0,1.854-23.299,10.733-33.654c8.876-10.356,45.861-44.384,53.26-57.701c7.396-13.315,36.979-45.125,38.465-43.647
			c0,0-2.591-37.817-9.529-54.463L415.477,383.18z"/>
		<path fill="none" stroke="#000000" stroke-width="0.5" stroke-linecap="round" stroke-linejoin="round" d="M443.58,496.359
			c0,0-16.085-37.175-18.305-57.702"/>
		<path fill="none" stroke="#000000" stroke-width="0.5" stroke-linecap="round" stroke-linejoin="round" d="M407.521,517.996
			c0,0-9.986-35.507-6.104-53.261"/>
		<path fill="#CCCCCC" stroke="#000000" stroke-width="1.5" stroke-linecap="round" stroke-linejoin="round" d="M209.452,408.145
			c0,0,2.217,58.257,10.54,70.461c0,0,12.762,7.768,16.644,11.648c0,0,71.574,56.039,85.998,85.998c0,0-55.482-42.165-94.875-45.494
			c0,0-27.738-1.109-33.841-13.316l-3.33-9.433c0,0,2.221,18.679-59.917,11.099c-2.96-0.359-7.03-2.309-3.421-4.599
			c19.119-12.137,37.004-46.514,44.475-58.649C180.602,441.432,196.69,412.582,209.452,408.145z"/>
		<path fill="none" stroke="#000000" stroke-width="0.5" stroke-linecap="round" stroke-linejoin="round" d="M190.587,508.009
			c0,0-4.442-71.566,18.489-92.28"/>
		<path fill="none" stroke="#000000" stroke-width="0.5" stroke-linecap="round" stroke-linejoin="round" d="M217.952,475.276
			c0,0,22.946,41.795,9.807,55.48"/>
		<path d="M326.735,326.193c-16.058,3.705-24.247,3.164-24.247,3.164s-5.604,1.94-7.106,2.123c-1.501,0.178-7.027-1.441-7.027-1.441
			s-18.5-1.844-28.42,0.107c0,0-7.462-2.914-12.486,1.75c0,0,3.689,1.082,13.201-0.061c9.506-1.141,23.235-1.009,29.191,2.087
			c5.952,3.093,15.476-1.928,19.196-2.762c6.688-1.485,16.743-3.562,20.662-3.548c6.101,0.033,15.021-1.799,19.625-3.619
			C349.323,323.995,342.791,322.491,326.735,326.193z"/>
		<path fill="#FFFFFF" stroke="#000000" stroke-width="2" d="M416.213,389.835c0,0-11.838-59.921,2.96-96.906
			c0,0,17.015,7.396,19.233-11.838c2.218-19.23,5.182-29.586,4.435-36.246c0,0,14.797-36.248,6.659-42.167
			c-8.136-5.919-7.396-7.397-19.232,3.699l-25.893-101.346l-39.947-43.646l-51.043-25.15l-32.547-5.919L226.835,51.77
			l-46.604,39.946l-15.537,42.165l-6.657,91.729c0,0-11.096-12.576-17.755-5.918c-6.656,6.658,0.743,19.234,2.964,25.89
			c2.216,6.659,8.133,29.591,8.133,29.591s8.137,36.248,15.538,36.248c7.395,0,16.269,2.22,17.751,5.916
			c0,0,25.15,54.745,24.412,81.375c-0.738,26.629,4.44,54.742,4.44,54.742s-6.099,19.294,11.099,40.685
			c21.425,26.651,69.16,58.227,95.426,79.154c35.511-30.332,68.707-97.926,105.047-133.156
			C425.092,440.138,423.612,412.766,416.213,389.835z"/>
		<path d="M257.906,210.815c0,0-24.039-18.122-47.342,7.767C210.564,218.583,231.646,190.103,257.906,210.815z"/>
		<path d="M325.963,207.115c0,0,10.357-12.575,24.781-11.463c0,0,12.947-0.74,18.495,9.616c0,0-4.438-12.205-19.233-11.836
			C335.21,193.8,328.185,203.787,325.963,207.115z"/>
		<path d="M250.476,222.175c0,0-24.595,10.211-33.321,3.552C217.155,225.727,222.533,236.934,250.476,222.175z"/>
		<path d="M331.332,218.177c0,0,22.198,4.117,38.055-2.862C369.387,215.315,354.701,225.494,331.332,218.177z"/>
		<path d="M244.961,204.897c0,0,2.59,8.878-1.11,10.911c0,0-8.32,3.884-15.534,2.034c0,0-4.624-4.067-2.772-10.911
			C225.544,206.932,237.196,201.383,244.961,204.897z"/>
		<path d="M339.464,196.947c0,0-3.515,9.061,1.849,12.576c0,0,9.058,0.924,13.312-0.741c0,0,6.288-3.328,2.774-13.131
			C357.399,195.651,347.972,191.583,339.464,196.947z"/>
		<path d="M269.741,195.28c0,0-5.546-21.453-57.329-17.384c0,0-16.218,7.175-16.006,21.813c0.02,1.3,1.312,3.26,2.902,2.024
			c7.111-5.519,29.152-19.381,57.859-6.083C257.168,195.651,272.332,199.718,269.741,195.28z"/>
		<path d="M319.676,176.787c0,0,38.469-16.645,49.563-12.206c0,0,22.931,9.986,17.383,27.74c0,0,0.372,2.218-10.723-5.177
			c-11.098-7.397-37.891-6.109-58.075,7.767C311.905,198.98,308.21,181.594,319.676,176.787z"/>
		<path d="M278.803,197.869c0,0,5.549,7.212-3.882,52.153C274.92,250.021,288.789,208.411,278.803,197.869z"/>
		<path d="M326.795,259.455c0,0,11.65,13.591,2.219,21.914C329.014,281.368,341.772,276.097,326.795,259.455z"/>
		<path d="M324.021,284.421c0,0-12.207-1.111-20.808,6.38c-8.601,7.489-15.811,4.714-21.915,0
			c-6.103-4.715-17.479-4.438-17.479-4.438s4.441,1.662,11.375,4.438c6.935,2.772,9.71,4.991,11.651,6.102
			c1.94,1.11,12.481,0.833,17.753-3.605C309.871,288.858,327.626,285.253,324.021,284.421z"/>
		<path d="M260.493,261.117c0,0-6.657,5.55-2.772,18.865C257.721,279.981,250.787,267.221,260.493,261.117z"/>
		<path d="M306.926,313.607c0,0-5.217,2.705-10.552,4.593c0,0-7.413-0.904-12.282-3.569
			C284.091,314.631,293.156,319.221,306.926,313.607z"/>
		<path d="M306.266,356.452c0,0-13.563,4.596-19.598,2.262C286.668,358.714,294.005,365.329,306.266,356.452z"/>
		<path d="M239.411,386.879c0,0,11.096,34.766,40.687,35.508c29.591,0.737,61.397,2.957,71.017-19.234l15.533-41.428
			c0,0-8.137,39.208-17.011,49.563c-8.88,10.355-23.522,15.268-68.058,14.797C246.81,425.714,239.411,386.879,239.411,386.879z"/>
		<path d="M217.775,377.073c0,0,24.965,51.043,77.118,48.269c0,0,71.57,6.104,97.091-58.254c0,0-14.052,59.363-96.72,59.363
			C234.233,426.451,217.775,377.073,217.775,377.073z"/>
		<path d="M171.724,247.247c0,0-1.11-61.583,2.219-74.898c3.33-13.315-9.433-37.729,3.885-58.811
			c13.314-21.082,35.507-56.037,67.686-66.021c0,0,13.871,11.65,13.871,17.197c0,5.55,42.164,0,49.379-9.985l4.438-12.206
			c0,0,39.946,8.322,57.146,34.953c17.199,26.63,29.958,57.145,31.623,88.214c0,0,18.311,48.269,17.202,77.12
			c0,0,6.286-33.474,15.532-40.502c0,0,0-17.754-7.21-50.487c-7.215-32.734-7.771-42.722-7.771-42.722s-4.993-27.185-36.618-44.939
			c-31.62-17.754-62.691-38.281-100.418-39.393c-37.726-1.11-93.21,47.162-101.529,56.037c-8.324,8.877-26.634,30.516-27.189,64.914
			c0,0-2.92,63.325,1.273,77.236c0.285,0.935,0.601,1.647,0.947,2.101c5.547,7.213,15.534,27.187,15.534,36.062L171.724,247.247
			L171.724,247.247z"/>
		<path d="M446.909,214.144c0,0,1.11-6.658-7.026,0c0,0-9.246,6.288-10.723,9.617c0,0,6.288-12.206,18.121-15.905
			C447.281,207.856,449.871,207.118,446.909,214.144z"/>
		<path d="M422.129,243.362c0,0-2.218,5.921,1.112,9.618c3.327,3.699-1.112,10.728-1.112,10.728s5.922-5.178,4.07-11.467
			C424.349,245.954,422.129,243.362,422.129,243.362z"/>
		<path d="M439.883,214.144c0,0-0.742,19.603,1.107,24.782c1.851,5.179-4.807-12.208-3.327-24.042L439.883,214.144z"/>
		<path d="M147.687,242.993c0,0-14.058-25.15,10.725-5.178C158.412,237.814,130.67,213.403,147.687,242.993z"/>
		<path d="M169.506,249.65c0,0-9.612,7.029-10.354,12.579c0,0,7.769-9.62,11.098-10.359L169.506,249.65z"/>
		<path d="M156.19,274.064c0,0-3.327,15.535,15.536,10.726C171.726,284.79,153.234,295.516,156.19,274.064z"/>
		<path d="M182.82,315.029c1.033,2.275,1.759,1.035,2.961,3.418c0,0-1.794-4.071-4.123-10.623c-5-14.053-12.457-39.508-9.935-60.577
			C171.724,247.247,164.486,274.525,182.82,315.029z"/>
		<path d="M419.173,292.929c0,0,0.782-12.878,0.923-27.555c0.121-12.646-0.386-26.39-0.556-37.174c0,0-0.184,60.29-3.698,71.572
			L419.173,292.929z"/>
		<path opacity="0.15" enable-background="new    " d="M239.047,333.244c0,0-2.411-15.534,17.563-19.975
			c0,0,27.373-7.396,30.33-6.656c2.961,0.736,12.576,2.218,18.126,0.367c5.549-1.848,39.021,3.703,39.021,3.703
			s7.026,2.217,8.136,4.067c1.112,1.849,1.112,8.508,1.112,8.508s3.695,18.122,14.795-9.618c0,0,8.874-17.382-25.524-18.495
			c0,0-34.767-2.218-39.574-1.849c0,0-14.247,5.731-16.185,3.605l-4.897-4.346c0,0-43.649,7.767-48.084,12.577
			c0,0-12.949,3.329-1.11,23.303C232.757,328.436,239.047,340.271,239.047,333.244z"/>
		<path opacity="0.15" enable-background="new    " d="M243.296,395.383c0,0,4.992,6.104,13.87,4.994
			c8.877-1.109,59.92-12.206,79.896,0c19.972,12.205,21.079-13.87,21.079-13.87s-0.553,37.728-50.488,38.28
			C307.652,424.787,252.17,430.891,243.296,395.383z"/>
		<path fill="#CCCCCC" stroke="#000000" stroke-width="1.5" stroke-linecap="round" stroke-linejoin="round" d="M415.477,383.18
			c0,0,34.029,29.59,41.426,37.729c7.396,8.136,11.093,17.01,11.093,17.01s11.831,49.563,22.928,59.918
			c11.097,10.357-47.342-1.476-47.342-1.476s-11.647,19.602-36.061,21.081c0,0-69.354,28.853-84.887,57.7
			c0,0,1.854-23.299,10.733-33.654c8.876-10.356,45.861-44.384,53.26-57.701c7.396-13.315,36.979-45.125,38.465-43.647
			c0,0-2.591-37.817-9.529-54.463L415.477,383.18z"/>
		<path fill="none" stroke="#000000" stroke-width="0.5" stroke-linecap="round" stroke-linejoin="round" d="M443.58,496.359
			c0,0-16.085-37.175-18.305-57.702"/>
		<path fill="none" stroke="#000000" stroke-width="0.5" stroke-linecap="round" stroke-linejoin="round" d="M407.521,517.996
			c0,0-9.986-35.507-6.104-53.261"/>
		<path fill="#CCCCCC" stroke="#000000" stroke-width="1.5" stroke-linecap="round" stroke-linejoin="round" d="M209.452,408.145
			c0,0,2.217,58.257,10.54,70.461c0,0,12.762,7.768,16.644,11.648c0,0,71.574,56.039,85.998,85.998c0,0-55.482-42.165-94.875-45.494
			c0,0-27.738-1.109-33.841-13.316l-3.33-9.433c0,0,2.221,18.679-59.917,11.099c-2.96-0.359-7.03-2.309-3.421-4.599
			c19.119-12.137,37.004-46.514,44.475-58.649C180.602,441.432,196.69,412.582,209.452,408.145z"/>
		<path fill="none" stroke="#000000" stroke-width="0.5" stroke-linecap="round" stroke-linejoin="round" d="M190.587,508.009
			c0,0-4.442-71.566,18.489-92.28"/>
		<path fill="none" stroke="#000000" stroke-width="0.5" stroke-linecap="round" stroke-linejoin="round" d="M217.952,475.276
			c0,0,22.946,41.795,9.807,55.48"/>
		<path d="M326.735,326.193c-16.058,3.705-24.247,3.164-24.247,3.164s-5.604,1.94-7.106,2.123c-1.501,0.178-7.027-1.441-7.027-1.441
			s-18.5-1.844-28.42,0.107c0,0-7.462-2.914-12.486,1.75c0,0,3.689,1.082,13.201-0.061c9.506-1.141,23.235-1.009,29.191,2.087
			c5.952,3.093,15.476-1.928,19.196-2.762c6.688-1.485,16.743-3.562,20.662-3.548c6.101,0.033,15.021-1.799,19.625-3.619
			C349.323,323.995,342.791,322.491,326.735,326.193z"/>
	</g>
</g>
</svg>
