<?xml version="1.0" encoding="utf-8"?>
<!-- Generator: Adobe Illustrator 14.0.0, SVG Export Plug-In . SVG Version: 6.00 Build 43363)  -->
<!DOCTYPE svg PUBLIC "-//W3C//DTD SVG 1.1//EN" "http://www.w3.org/Graphics/SVG/1.1/DTD/svg11.dtd">
<svg version="1.1" id="Layer_1" xmlns="http://www.w3.org/2000/svg" xmlns:xlink="http://www.w3.org/1999/xlink" x="0px" y="0px"
	 width="285px" height="95.332px" viewBox="0 0 285 95.332" enable-background="new 0 0 285 95.332" xml:space="preserve">
<g>
	<path d="M0.318,20.063H9v7.472c4.342-6.361,9.592-9.188,17.164-9.188c13.831,0,23.12,10.6,23.12,27.965
		c0,17.567-9.491,28.167-23.221,28.167c-7.371,0-12.923-2.624-17.063-8.075v27.561H0.318V20.063z M24.346,66.606
		c9.794,0,15.649-7.27,15.649-20.9c0-12.114-6.058-19.384-15.75-19.384c-9.793,0-15.547,7.169-15.547,20.497
		C8.698,60.044,13.948,66.606,24.346,66.606z"/>
	<path d="M93.912,26.322c-9.491,0-15.044,6.967-15.044,19.991s5.352,20.092,14.438,20.092c8.278,0,13.328-4.342,14.538-12.52h8.481
		c-0.909,12.922-9.49,20.595-23.423,20.595c-14.336,0-23.222-10.398-23.222-27.863c0-17.771,9.289-28.27,24.232-28.27
		c13.427,0,21.806,7.571,22.312,19.283h-8.784C106.936,30.463,102.088,26.322,93.912,26.322z"/>
	<path d="M142.88,26.322c-9.49,0-15.044,6.967-15.044,19.991s5.352,20.092,14.438,20.092c8.278,0,13.328-4.342,14.538-12.52h8.482
		c-0.909,12.922-9.49,20.595-23.423,20.595c-14.337,0-23.222-10.398-23.222-27.863c0-17.771,9.289-28.27,24.232-28.27
		c13.427,0,21.807,7.571,22.312,19.283h-8.784C155.904,30.463,151.056,26.322,142.88,26.322z"/>
	<path d="M176.803,55.702c0.606,7.169,5.15,10.904,13.428,10.904c7.776,0,12.317-3.332,12.317-8.381
		c0-4.441-2.624-5.854-8.076-7.168l-9.895-2.523c-10.398-2.524-14.941-6.059-14.941-14.84c0-9.086,7.167-15.246,19.788-15.246
		s20.597,6.361,20.597,16.153c0,0.101,0,0.101,0,0.202h-8.682c-0.305-5.553-4.747-8.784-11.915-8.784
		c-7.167,0-10.902,2.625-10.902,7.371c0,3.838,2.624,5.25,8.276,6.562l8.583,2.019c10.803,2.525,16.053,5.856,16.053,15.146
		c0,10.801-7.874,17.364-22.01,17.364c-13.528,0-21-6.663-21.201-18.778H176.803z"/>
	<path d="M260.198,20.063l-22.21,60.979c-3.636,9.895-6.36,13.934-15.649,13.934c-1.918,0-3.635-0.303-5.249-0.809v-8.479
		c1.614,0.504,3.331,0.807,5.148,0.807c3.332,0,5.451-1.312,6.562-4.34l2.321-6.26l-19.99-55.832h9.895l14.641,42.707l14.637-42.707
		H260.198z"/>
	<path d="M55.042,20.063h8.884v52.803h-8.884V20.063z M55.042,20.063h8.884v52.803h-8.884V20.063z"/>
	<path d="M55.042,0.274h8.884v10.097h-8.884V0.274z"/>
</g>
<polygon fill="#D52027" points="281.493,3.679 281.493,0.336 278.151,0.336 274.809,0.336 274.809,3.679 271.467,3.679 
	271.467,0.336 268.125,0.336 264.784,0.336 264.784,3.679 261.442,3.679 261.442,7.02 261.442,10.361 261.442,13.703 
	264.784,13.703 264.784,17.045 268.125,17.045 268.125,20.386 271.467,20.386 271.467,23.728 274.809,23.728 274.809,20.386 
	278.151,20.386 278.151,17.045 281.493,17.045 281.493,13.703 284.833,13.703 284.833,10.361 284.833,7.02 284.833,3.679 "/>
</svg>
