<?xml version="1.0" encoding="utf-8"?>
<!-- Generator: Adobe Illustrator 14.0.0, SVG Export Plug-In . SVG Version: 6.00 Build 43363)  -->
<!DOCTYPE svg PUBLIC "-//W3C//DTD SVG 1.1//EN" "http://www.w3.org/Graphics/SVG/1.1/DTD/svg11.dtd">
<svg version="1.1" id="Layer_1" xmlns="http://www.w3.org/2000/svg" xmlns:xlink="http://www.w3.org/1999/xlink" x="0px" y="0px"
	 width="180.668px" height="343.502px" viewBox="27.167 126.833 180.668 343.502"
	 enable-background="new 27.167 126.833 180.668 343.502" xml:space="preserve">
<g id="Layer_2" display="none">
	<rect display="inline" width="235.043" height="600"/>
</g>
<g id="Layer_1_1_">
	<rect x="27.524" y="262.753" fill="#FFFFFF" width="180" height="1.75"/>
	<rect x="27.524" y="266.961" fill="#FFFFFF" width="180" height="1.75"/>
	<rect x="27.524" y="344.419" fill="#FFFFFF" width="180" height="1.75"/>
	<rect x="27.524" y="348.627" fill="#FFFFFF" width="180" height="1.75"/>
	<g>
		<g>
			<path fill="#FFFFFF" d="M71.72,208.467l-0.159-0.396l-0.586-1.442l-5.488,1.755c-1.464-2.595-3.549-4.666-5.993-6.112
				l1.836-5.439l-1.437-0.609l-0.393-0.165l-1.438-0.608l-2.624,5.096c-2.744-0.759-5.691-0.825-8.583-0.075l-2.54-5.127
				l-1.447,0.587l-0.395,0.159l-1.445,0.588l1.743,5.445c-2.597,1.475-4.67,3.575-6.111,6.029l-5.431-1.829l-0.606,1.435
				l-0.166,0.396l-0.607,1.436l5.102,2.63c-0.745,2.74-0.799,5.678-0.047,8.56l-5.16,2.559l0.586,1.448l0.158,0.395l0.586,1.447
				l5.502-1.762c1.473,2.571,3.559,4.627,5.998,6.058l-1.852,5.499l1.437,0.606l0.39,0.168l1.439,0.608l2.66-5.165
				c2.721,0.738,5.641,0.797,8.503,0.057l2.585,5.213l1.445-0.588l0.394-0.158l1.448-0.586l-1.775-5.541
				c2.572-1.464,4.628-3.536,6.064-5.962l5.508,1.855l0.605-1.436l0.168-0.39l0.608-1.439l-5.156-2.656
				c0.753-2.727,0.817-5.65,0.086-8.525l5.175-2.567L71.72,208.467z M44.816,219.089c-1.384-3.419,0.263-7.313,3.682-8.699
				c3.42-1.387,7.313,0.263,8.698,3.681c1.387,3.42-0.263,7.314-3.68,8.698C50.098,224.157,46.203,222.508,44.816,219.089z"/>
			<path fill="#FFFFFF" d="M99.709,157.132c-0.63-2.4-1.578-4.67-2.788-6.769l6.669-8.408l-3.634-3.637l-0.991-0.99l-3.635-3.634
				l-8.383,6.65c-2.105-1.233-4.387-2.194-6.801-2.832l-1.223-10.615h-5.141H72.38h-5.14l-1.225,10.615
				c-2.412,0.638-4.695,1.599-6.801,2.832l-8.383-6.65l-3.635,3.634l-0.992,0.99l-3.635,3.637l6.671,8.408
				c-1.212,2.099-2.161,4.368-2.786,6.769l-10.68,1.229v5.141v1.403v5.141l10.73,1.237c0.638,2.37,1.584,4.616,2.794,6.685
				l-6.729,8.483l3.638,3.637l0.989,0.99l3.635,3.634l8.51-6.749c2.064,1.194,4.295,2.125,6.652,2.756l1.246,10.791h5.141h1.402
				h5.141l1.244-10.791c2.355-0.631,4.588-1.562,6.651-2.756l8.511,6.749l3.635-3.634l0.991-0.99l3.634-3.637l-6.728-8.482
				c1.21-2.069,2.156-4.314,2.796-6.686l10.729-1.237v-5.141v-1.403v-5.141L99.709,157.132z M73.083,176.062
				c-6.6,0-11.947-5.35-11.947-11.945c0-6.598,5.348-11.944,11.947-11.944c6.594,0,11.943,5.347,11.943,11.944
				C85.026,170.713,79.677,176.062,73.083,176.062z"/>
		</g>
	</g>
	<g>
		<path fill="#FFFFFF" d="M118.079,202.663l11.436-75.726h13.6l11.436,75.726h-10.816l-2.061-15.454h-10.715l-2.062,15.454H118.079z
			 M136.932,151.562l-0.309-1.958h-0.619l-0.31,1.958l-3.192,23.902h7.623L136.932,151.562z"/>
		<path fill="#FFFFFF" d="M159.697,126.938c0,0,10.612,0,11.128,0c9.686,0,19.575,5.255,19.575,22.666
			c0,17.412-9.892,22.77-19.575,22.77v30.29h-11.128V126.938z M170.825,161.04c7.006,0,8.346-2.575,8.346-11.024
			c0-8.447-1.34-11.744-8.346-11.744V161.04z"/>
		<path fill="#FFFFFF" d="M195.959,126.938h11.127v75.726h-11.127V126.938z"/>
	</g>
	<g>
		<path fill="#FFFFFF" d="M92.086,252.967l-3.174-17.573h-1.645v17.573h-6.121v-41.664h6.121c7.256,0,10.431,4.194,10.431,12.017
			c0,4.139-1.077,7.88-3.401,9.467l3.912,20.181L92.086,252.967L92.086,252.967z M87.268,217.368v12.357
			c1.701,0,4.535-0.227,4.535-6.179S88.969,217.368,87.268,217.368z"/>
		<path fill="#FFFFFF" d="M101.609,211.303h14.002v6.292h-7.88v10.94h5.669v6.688h-5.669v11.451h7.88v6.292h-14.002V211.303z"/>
		<path fill="#FFFFFF" d="M119.012,211.303h6.121v35.995h8.107v5.669h-14.229L119.012,211.303L119.012,211.303z"/>
		<path fill="#FFFFFF" d="M135.734,211.303h14.001v6.292h-7.88v10.94h5.669v6.688h-5.669v11.451h7.88v6.292h-14.001V211.303z"/>
		<path fill="#FFFFFF" d="M151.547,252.967l6.291-41.664h7.482l6.292,41.664h-5.952l-1.134-8.503h-5.896l-1.135,8.503H151.547z
			 M161.92,224.851l-0.17-1.077h-0.34l-0.17,1.077l-1.759,13.151h4.195L161.92,224.851z"/>
		<path fill="#FFFFFF" d="M181.476,210.849c7.369-0.17,8.56,6.405,8.56,11.054l-6.008,0.567c0-2.778-0.396-6.009-2.438-6.009
			c-1.588,0.057-2.098,1.757-2.098,4.138c0,2.835,2.438,6.009,4.818,9.467c2.834,4.252,5.725,8.39,5.725,12.868
			c0,5.555-1.813,10.486-8.502,10.486c-7.881,0-8.9-5.952-8.9-12.131l6.01-0.566c0,3.458,0.34,7.086,2.891,7.086
			c1.813,0,2.495-1.984,2.495-4.592c0-2.777-2.608-6.122-4.933-9.637c-2.891-4.252-5.612-8.503-5.612-12.981
			C173.482,216.063,175.693,210.962,181.476,210.849z"/>
		<path fill="#FFFFFF" d="M193.322,211.303h14.003v6.292h-7.88v10.94h5.668v6.688h-5.668v11.451h7.88v6.292h-14.003V211.303z"/>
	</g>
	<polygon fill="#D52027" points="177.622,368.771 177.622,368.771 177.627,368.777 	"/>
	<g>
		<polygon fill="#FFFFFF" points="75.201,379.035 74.383,384.684 76.107,384.684 		"/>
		<path fill="#FFFFFF" d="M60.541,372.068c-0.134-0.072-0.311-0.125-0.59-0.125h-0.92v6.535h0.362c0.394,0,0.678-0.067,0.89-0.17
			c0.213-0.104,0.372-0.24,0.53-0.474c0.315-0.457,0.557-1.388,0.551-2.806c0.001-0.969-0.104-1.702-0.272-2.18
			C60.921,372.369,60.735,372.18,60.541,372.068z"/>
		<polygon fill="#FFFFFF" points="135.096,379.035 134.277,384.684 136.002,384.684 		"/>
		<path fill="#FFFFFF" d="M193.275,356.43H41.441c-7.594,0-13.75,6.154-13.75,13.75v69.916c0,7.595,6.156,13.75,13.75,13.75h11.584
			v16.25l27.666-16.25h112.584c7.595,0,13.75-6.155,13.75-13.75V370.18C207.025,362.584,200.87,356.43,193.275,356.43z
			 M182.112,368.596c0-0.25,0.102-0.494,0.278-0.672c0.178-0.178,0.423-0.279,0.673-0.279h3.678c0.42,0,0.791,0.277,0.911,0.681
			l2.832,9.485v-9.215c0-0.25,0.103-0.494,0.279-0.672c0.176-0.178,0.422-0.279,0.672-0.279h2.922c0.25,0,0.496,0.103,0.672,0.279
			c0.179,0.178,0.279,0.422,0.279,0.672v24.195c0,0.251-0.103,0.495-0.279,0.673c-0.176,0.179-0.422,0.278-0.672,0.278h-2.922
			c-0.42,0-0.791-0.276-0.911-0.678l-3.587-11.974v11.699c0,0.251-0.103,0.495-0.278,0.673c-0.178,0.178-0.423,0.278-0.673,0.278
			h-2.923c-0.25,0-0.495-0.101-0.673-0.278c-0.177-0.178-0.278-0.422-0.278-0.673V368.596z M158.372,368.596
			c0-0.25,0.102-0.496,0.278-0.672c0.177-0.178,0.422-0.279,0.672-0.279h3.351c0.25,0,0.494,0.103,0.672,0.279
			c0.177,0.176,0.279,0.422,0.279,0.672v24.195c0,0.251-0.104,0.495-0.279,0.673c-0.176,0.179-0.422,0.278-0.672,0.278h-3.351
			c-0.25,0-0.495-0.102-0.672-0.278c-0.178-0.178-0.278-0.422-0.278-0.673V368.596z M132.209,368.432
			c0.078-0.455,0.475-0.787,0.936-0.787h3.711c0.456,0,0.846,0.321,0.934,0.771l4.694,24.195c0.056,0.279-0.019,0.564-0.2,0.785
			s-0.447,0.347-0.732,0.347h-3.283c-0.469,0-0.866-0.341-0.938-0.802l-0.597-3.729h-3.125l-0.539,3.715
			c-0.067,0.471-0.467,0.814-0.94,0.814h-3.217c-0.283,0-0.547-0.123-0.729-0.34c-0.183-0.215-0.259-0.498-0.209-0.775
			L132.209,368.432z M98.701,384.879c0-0.25,0.102-0.496,0.279-0.672c0.176-0.178,0.422-0.279,0.672-0.279h3.119
			c0.25,0,0.496,0.102,0.673,0.279c0.177,0.176,0.278,0.422,0.278,0.672v2.232c-0.001,0.728,0.117,1.285,0.292,1.66
			c0.179,0.375,0.379,0.568,0.644,0.697c0.18,0.084,0.405,0.139,0.707,0.139c0.254,0,0.438-0.045,0.582-0.11
			c0.143-0.067,0.252-0.155,0.361-0.299c0.215-0.277,0.406-0.835,0.403-1.692c-0.005-0.719-0.151-1.309-0.581-2.074
			c-0.432-0.76-1.174-1.67-2.329-2.84l-0.98-0.979l-0.005-0.006c-1.002-1.021-2.018-2.131-2.793-3.492s-1.293-2.984-1.289-4.922
			c-0.006-1.709,0.646-3.24,1.814-4.293c1.164-1.055,2.791-1.618,4.652-1.616c0.927,0,1.781,0.131,2.551,0.407
			c0.768,0.274,1.447,0.699,1.995,1.262c1.104,1.13,1.628,2.747,1.625,4.634c0,0.517-0.038,0.849-0.102,1.622
			c-0.041,0.491-0.454,0.872-0.948,0.872h-3.02c-0.251,0-0.496-0.103-0.673-0.279c-0.178-0.177-0.278-0.421-0.278-0.672v-1.149
			c0.002-0.721-0.098-1.246-0.234-1.564c-0.144-0.324-0.27-0.436-0.459-0.529c-0.13-0.061-0.316-0.104-0.588-0.104
			c-0.406,0.006-0.633,0.128-0.82,0.329c-0.184,0.205-0.33,0.546-0.33,1.05c0.006,0.94,0.279,1.674,0.848,2.519
			c0.568,0.836,1.449,1.734,2.545,2.812l0.015,0.015c1.149,1.186,2.267,2.334,3.12,3.697c0.855,1.359,1.422,2.958,1.417,4.879
			c0.003,1.998-0.624,3.755-1.8,5.009c-1.172,1.257-2.871,1.956-4.798,1.95c-1.02,0-1.952-0.148-2.784-0.469
			c-0.832-0.319-1.559-0.817-2.13-1.475c-1.15-1.322-1.651-3.178-1.651-5.442V384.879L98.701,384.879z M84.154,368.596
			c0-0.25,0.102-0.494,0.279-0.672c0.176-0.178,0.422-0.279,0.672-0.279h3.678c0.419,0,0.791,0.277,0.91,0.681l2.833,9.485v-9.215
			c0-0.25,0.102-0.494,0.278-0.672c0.178-0.178,0.423-0.279,0.673-0.279h2.922c0.251,0,0.495,0.103,0.673,0.279
			c0.178,0.178,0.278,0.422,0.278,0.672v24.195c0,0.251-0.101,0.495-0.278,0.673c-0.177,0.179-0.422,0.278-0.673,0.278h-2.922
			c-0.419,0-0.791-0.276-0.911-0.678l-3.588-11.975v11.7c0,0.251-0.102,0.495-0.279,0.673c-0.176,0.178-0.422,0.278-0.672,0.278
			h-2.922c-0.25,0-0.496-0.101-0.672-0.278c-0.178-0.178-0.279-0.422-0.279-0.673V368.596z M72.314,368.432
			c0.08-0.455,0.475-0.787,0.937-0.787h3.71c0.456,0,0.846,0.321,0.934,0.771l4.695,24.195c0.055,0.279-0.019,0.564-0.2,0.785
			c-0.182,0.221-0.448,0.347-0.733,0.347h-3.283c-0.469,0-0.866-0.341-0.939-0.802l-0.595-3.729h-3.126l-0.539,3.715
			c-0.066,0.471-0.467,0.814-0.941,0.814h-3.217c-0.281,0-0.547-0.123-0.729-0.34c-0.182-0.215-0.257-0.498-0.208-0.775
			L72.314,368.432z M36.87,368.596c0-0.25,0.101-0.494,0.278-0.672c0.178-0.178,0.422-0.279,0.673-0.279h13.46
			c0.25,0,0.496,0.103,0.673,0.279c0.177,0.178,0.278,0.422,0.278,0.672v2.658c0,0.251-0.102,0.495-0.278,0.673
			c-0.176,0.179-0.423,0.278-0.673,0.278h-4.104v20.586c0,0.251-0.102,0.495-0.278,0.673c-0.178,0.179-0.422,0.278-0.673,0.278
			h-3.349c-0.25,0-0.496-0.102-0.672-0.278c-0.178-0.178-0.279-0.422-0.279-0.673v-20.586h-4.104c-0.251,0-0.495-0.102-0.673-0.278
			c-0.178-0.177-0.278-0.422-0.278-0.673L36.87,368.596L36.87,368.596z M61.137,433.96c-0.23,1.891-0.648,3.604-1.443,5.161
			c-0.524,1.03-1.217,1.979-2.074,2.82c0.001-0.001,0.002-0.003,0.004-0.004l-0.012,0.013c0.002-0.003,0.005-0.006,0.008-0.009
			c-1.137,1.14-2.465,1.963-3.916,2.457c-1.455,0.499-3.009,0.686-4.674,0.686c-2.359,0.001-4.373-0.447-6.037-1.312
			c-1.666-0.859-2.939-2.132-3.833-3.572c-0.599-0.963-1.042-1.998-1.376-3.065c-0.444-1.424-0.697-2.907-0.85-4.391
			c-0.201-1.978-0.221-3.958-0.221-5.786v-7.364c0-3.302,0.056-6.166,0.283-8.668c0.232-2.5,0.629-4.646,1.388-6.51
			c0.505-1.239,1.187-2.354,2.081-3.285l0.006-0.006c1.02-1.055,2.251-1.938,3.689-2.538c1.438-0.603,3.068-0.918,4.869-0.917
			c3.449-0.004,6.277,1.117,8.134,2.973l0.015,0.017c0.75,0.766,1.371,1.635,1.855,2.595c0.485,0.959,0.838,2.003,1.092,3.134
			c0.508,2.268,0.646,4.889,0.648,8.149c0,0.323-0.002,0.65-0.004,0.988c-0.009,1.044-0.857,1.886-1.902,1.886h-5.523
			c-0.516,0-1.013-0.211-1.37-0.582s-0.55-0.876-0.53-1.392c0.029-0.807,0.044-1.552,0.044-2.239
			c0.001-1.978-0.124-3.483-0.335-4.562c-0.207-1.083-0.502-1.71-0.732-2.012c-0.156-0.205-0.271-0.289-0.42-0.367
			c-0.192-0.099-0.508-0.18-1.028-0.18c-0.45,0.005-0.606,0.065-0.74,0.136c-0.132,0.073-0.329,0.229-0.634,0.66
			c-0.086,0.129-0.186,0.301-0.309,0.755c-0.12,0.45-0.241,1.162-0.335,2.212c-0.192,2.107-0.281,5.548-0.28,11.135
			c0,3.813,0.006,6.878,0.117,9.261c0.105,2.38,0.342,4.084,0.68,5.066c0.225,0.665,0.455,0.964,0.627,1.111
			c0.104,0.086,0.205,0.146,0.375,0.205c0.193,0.064,0.484,0.116,0.901,0.116c0.681-0.004,1.042-0.134,1.272-0.271
			c0.229-0.142,0.402-0.32,0.596-0.702c0.125-0.252,0.242-0.588,0.336-1c0.127-0.549,0.211-1.229,0.258-1.996
			c0.064-1.021,0.066-2.197,0.066-3.447v-4.087c0-0.5,0.202-0.99,0.557-1.345c0.354-0.354,0.844-0.558,1.346-0.558H59.5
			c1.045,0,1.895,0.844,1.902,1.889c0.006,0.814,0.011,1.597,0.011,2.348C61.412,429.972,61.366,432.064,61.137,433.96z
			 M61.709,393.464c-0.178-0.178-0.279-0.422-0.279-0.673v-7.648c0.001-0.658-0.115-1.146-0.276-1.465
			c-0.166-0.32-0.349-0.486-0.616-0.607c-0.181-0.077-0.414-0.129-0.717-0.129h-0.789v9.851c0,0.251-0.102,0.495-0.279,0.673
			c-0.176,0.178-0.422,0.278-0.672,0.278h-3.349c-0.251,0-0.495-0.101-0.673-0.278c-0.177-0.178-0.278-0.422-0.278-0.673v-24.194
			c0-0.252,0.101-0.496,0.278-0.673c0.178-0.178,0.422-0.278,0.673-0.278h5.647c1.006,0,1.918,0.139,2.73,0.451
			s1.518,0.812,2.059,1.477c1.089,1.339,1.51,3.199,1.514,5.557c-0.002,1.562-0.214,2.756-0.714,3.713
			c-0.385,0.744-0.958,1.29-1.606,1.682c0.74,0.483,1.423,1.236,1.814,2.314c0.287,0.779,0.439,1.709,0.439,2.829v7.124
			c0,0.251-0.102,0.495-0.279,0.673c-0.176,0.179-0.422,0.278-0.672,0.278h-3.283C62.131,393.742,61.885,393.643,61.709,393.464z
			 M89.248,442.664c0,0.501-0.203,0.991-0.559,1.346c-0.354,0.354-0.844,0.558-1.344,0.558H67.267c-0.501,0-0.991-0.203-1.345-0.558
			c-0.355-0.354-0.559-0.845-0.559-1.346v-42.401c0-0.501,0.203-0.99,0.559-1.345c0.354-0.354,0.844-0.558,1.345-0.558h19.101
			c0.501,0,0.991,0.202,1.345,0.558c0.354,0.354,0.558,0.844,0.558,1.345v5.006c0,0.5-0.203,0.991-0.558,1.346
			c-0.354,0.354-0.844,0.558-1.345,0.558h-11.33v9.254h8.281c0.501,0,0.99,0.204,1.345,0.559c0.355,0.354,0.558,0.845,0.558,1.345
			v5.121c0,0.501-0.203,0.991-0.558,1.345c-0.354,0.355-0.844,0.559-1.345,0.559h-8.281v10.291h12.309c0.5,0,0.99,0.203,1.344,0.558
			c0.355,0.354,0.559,0.845,0.559,1.345v5.117H89.248z M114.446,442.664c0,0.501-0.203,0.991-0.558,1.346
			c-0.354,0.354-0.844,0.558-1.345,0.558h-5.12c-0.84,0-1.582-0.554-1.822-1.355l-5.826-19.443v18.896
			c0,0.501-0.203,0.991-0.557,1.346s-0.844,0.558-1.346,0.558h-5.121c-0.5,0-0.99-0.203-1.344-0.558
			c-0.355-0.354-0.559-0.845-0.559-1.346v-42.401c0-0.501,0.203-0.99,0.559-1.345c0.354-0.354,0.844-0.558,1.344-0.558h6.444
			c0.839,0,1.583,0.555,1.823,1.356l4.502,15.08v-14.535c0-0.501,0.203-0.991,0.557-1.345s0.844-0.558,1.346-0.558h5.12
			c0.501,0,0.991,0.202,1.345,0.558c0.354,0.354,0.558,0.844,0.558,1.345V442.664z M114.445,393.464
			c-0.177-0.178-0.278-0.422-0.278-0.673v-24.195c0-0.251,0.102-0.496,0.278-0.672c0.178-0.178,0.423-0.279,0.673-0.279h3.349
			c0.25,0,0.496,0.103,0.673,0.279c0.177,0.176,0.278,0.421,0.278,0.672v20.159h7.059c0.251,0,0.496,0.101,0.674,0.278
			s0.277,0.422,0.277,0.673v3.085c0,0.251-0.102,0.495-0.277,0.673c-0.178,0.179-0.423,0.278-0.674,0.278h-11.358
			C114.868,393.742,114.623,393.643,114.445,393.464z M143.329,404.923c0,0.501-0.203,0.991-0.559,1.345
			c-0.354,0.355-0.846,0.559-1.346,0.559h-6.959v35.839c0,0.501-0.201,0.991-0.557,1.346c-0.354,0.354-0.844,0.558-1.346,0.558
			h-5.867c-0.502,0-0.992-0.203-1.346-0.558c-0.354-0.354-0.557-0.845-0.557-1.346v-35.839h-6.959c-0.5,0-0.99-0.202-1.344-0.559
			c-0.355-0.354-0.558-0.844-0.558-1.345v-4.66c0-0.501,0.202-0.99,0.558-1.345c0.354-0.354,0.844-0.558,1.344-0.558h23.59
			c0.5,0,0.99,0.202,1.345,0.558c0.354,0.354,0.558,0.844,0.558,1.345v4.66H143.329z M141.954,372.205
			c-0.252,0-0.496-0.102-0.675-0.278c-0.177-0.178-0.276-0.422-0.276-0.673v-2.658c0-0.251,0.101-0.494,0.276-0.672
			c0.179-0.178,0.423-0.279,0.675-0.279h13.459c0.25,0,0.496,0.103,0.672,0.279c0.178,0.178,0.278,0.421,0.278,0.672v2.658
			c0,0.251-0.102,0.495-0.278,0.673c-0.176,0.179-0.422,0.278-0.672,0.278h-4.104v20.586c0,0.251-0.103,0.495-0.279,0.673
			c-0.177,0.179-0.422,0.278-0.672,0.278h-3.351c-0.25,0-0.496-0.102-0.672-0.278c-0.178-0.178-0.278-0.422-0.278-0.673v-20.586
			H141.954z M170.195,442.664c0,0.501-0.202,0.991-0.558,1.346c-0.354,0.354-0.844,0.558-1.346,0.558h-20.078
			c-0.502,0-0.99-0.203-1.346-0.558c-0.354-0.354-0.558-0.845-0.558-1.346v-42.401c0-0.501,0.203-0.99,0.558-1.345
			c0.354-0.354,0.844-0.558,1.346-0.558h19.101c0.502,0,0.991,0.202,1.347,0.558c0.354,0.354,0.557,0.844,0.557,1.345v5.006
			c0,0.5-0.203,0.991-0.557,1.346c-0.354,0.354-0.845,0.558-1.347,0.558h-11.33v9.254h8.281c0.501,0,0.991,0.204,1.346,0.559
			c0.354,0.354,0.558,0.845,0.558,1.345v5.121c0,0.501-0.203,0.991-0.558,1.345c-0.354,0.355-0.845,0.559-1.346,0.559h-8.281v10.291
			h12.31c0.5,0,0.99,0.203,1.345,0.558c0.354,0.354,0.558,0.845,0.558,1.345L170.195,442.664L170.195,442.664z M168.895,392.282
			l-0.006-0.005c-0.6-0.609-1.04-1.352-1.362-2.18c-0.321-0.828-0.53-1.75-0.674-2.765c-0.283-2.024-0.304-4.435-0.306-7.248
			c0.002-1.817,0.022-3.584,0.188-5.21s0.465-3.116,1.076-4.391c0.408-0.848,0.967-1.601,1.715-2.17
			c0.998-0.768,2.303-1.168,3.852-1.164c0.863,0,1.658,0.13,2.373,0.404c0.715,0.271,1.344,0.688,1.871,1.217
			c0.582,0.567,1.041,1.228,1.383,1.979c0.343,0.751,0.568,1.589,0.725,2.541c0.309,1.905,0.343,4.289,0.346,7.549
			c0,2.274-0.031,4.113-0.183,5.665c-0.149,1.548-0.418,2.821-0.933,3.925c-0.34,0.729-0.791,1.373-1.354,1.938v0.001
			c-0.002,0.002-0.006,0.004-0.008,0.007c-0.002,0.001-0.002,0.003-0.004,0.005v-0.001c-1.119,1.143-2.7,1.654-4.252,1.658
			c-0.863,0-1.678-0.13-2.428-0.422C170.165,393.326,169.485,392.875,168.895,392.282z M193.186,422.467
			c0.625,0.732,1.152,1.627,1.538,2.673c0.515,1.398,0.784,3.057,0.786,5.04v12.484c0,0.501-0.203,0.991-0.559,1.346
			c-0.354,0.354-0.845,0.558-1.345,0.558h-5.754c-0.502,0-0.99-0.203-1.347-0.558c-0.354-0.354-0.557-0.845-0.557-1.346V429.26
			c0.002-1.127-0.197-1.946-0.459-2.463c-0.271-0.519-0.545-0.762-0.963-0.952c-0.283-0.121-0.658-0.206-1.164-0.206h-1.146v17.025
			c0,0.501-0.202,0.991-0.557,1.346c-0.354,0.354-0.844,0.558-1.346,0.558h-5.868c-0.501,0-0.991-0.203-1.345-0.558
			c-0.355-0.354-0.559-0.845-0.559-1.346v-42.401c0-0.501,0.203-0.99,0.559-1.345c0.354-0.354,0.844-0.558,1.345-0.558h9.896
			c2.008,0.001,3.818,0.31,5.408,1.034c1.59,0.721,2.916,1.884,3.848,3.372c0.624,0.99,1.083,2.114,1.404,3.352
			c0.43,1.648,0.619,3.506,0.621,5.594c-0.002,2.074-0.213,3.778-0.697,5.241c-0.479,1.459-1.272,2.675-2.297,3.562
			c-0.276,0.241-0.573,0.446-0.875,0.645C192.26,421.521,192.745,421.948,193.186,422.467z"/>
		<path fill="#FFFFFF" d="M184.938,406.931c-0.146-0.188-0.271-0.292-0.421-0.375c-0.196-0.104-0.464-0.188-0.921-0.19h-1.377v10.98
			h0.398c0.748-0.002,1.232-0.142,1.579-0.336c0.347-0.202,0.619-0.47,0.898-1.004c0.182-0.354,0.349-0.825,0.476-1.424
			c0.17-0.798,0.266-1.815,0.266-3.043c0.002-1.262-0.101-2.288-0.272-3.059C185.393,407.708,185.152,407.21,184.938,406.931z"/>
		<path fill="#FFFFFF" d="M173.736,389.457l0.179-0.137c0.131-0.141,0.312-0.514,0.433-1.151c0.252-1.272,0.28-3.463,0.276-6.508
			v-2.987c0.002-1.646,0-3.061-0.076-4.181c-0.069-1.119-0.238-1.946-0.453-2.36c-0.147-0.281-0.254-0.363-0.385-0.424
			c-0.08-0.033-0.191-0.061-0.367-0.061c-0.188,0-0.309,0.027-0.396,0.063c-0.088,0.037-0.15,0.08-0.226,0.162
			c-0.149,0.155-0.333,0.526-0.456,1.14c-0.258,1.221-0.271,3.27-0.268,5.924v3.184c0,1.854,0,3.376,0.08,4.549
			c0.073,1.174,0.256,1.99,0.473,2.373c0.15,0.26,0.246,0.33,0.412,0.4c0.101,0.037,0.242,0.065,0.447,0.065
			C173.57,389.509,173.668,389.484,173.736,389.457z"/>
		<polygon fill="#D52027" points="57.623,441.938 57.619,441.941 57.611,441.95 		"/>
	</g>
	<g>
		<path fill="#FFFFFF" d="M58.811,275.471H31.904c-2.512,0-4.547,2.035-4.547,4.547v52.521c0,2.512,2.035,4.548,4.547,4.548H58.81
			c2.512,0,4.547-2.036,4.547-4.548v-52.521C63.357,277.506,61.322,275.471,58.811,275.471z M41.03,280.316h8.654v1.385H41.03
			V280.316z M45.357,333.971c-1.625,0-2.942-1.316-2.942-2.941s1.317-2.942,2.942-2.942s2.942,1.317,2.942,2.942
			S46.982,333.971,45.357,333.971z M60.588,325.316H30.127v-39.461h30.461V325.316z"/>
	</g>
	<g>
		<path fill="#FFFFFF" d="M203.186,275.471H176.28c-2.512,0-4.547,2.035-4.547,4.547v52.521c0,2.512,2.035,4.548,4.547,4.548h26.906
			c2.512,0,4.547-2.036,4.547-4.548v-52.521C207.732,277.506,205.697,275.471,203.186,275.471z M195.232,333.586h-11v-2.5h11
			V333.586z M204.963,329.586h-30.461v-47h30.461V329.586z"/>
	</g>
	<g>
		<path fill="#FFFFFF" d="M79.217,286.562h6.553l8.291,42.733h-5.798l-1.275-8.002H78.58l-1.16,8.002h-5.683L79.217,286.562z
			 M82.58,293.867l-3.305,22.787h6.958L82.58,293.867z"/>
		<path fill="#FFFFFF" d="M97.656,286.562h8.988c8.523,0,11.308,3.015,11.308,12.234c0,10.669-4.698,11.308-11.366,11.308h-3.016
			v19.191h-5.914V286.562z M103.57,290.736v15.308h2.957c4.233,0,5.509-1.739,5.509-7.422c0-6.089-1.275-7.886-5.624-7.886H103.57
			L103.57,290.736z"/>
		<path fill="#FFFFFF" d="M121.952,286.562h8.986c8.523,0,11.309,3.015,11.309,12.234c0,10.669-4.697,11.308-11.365,11.308h-3.016
			v19.191h-5.914V286.562z M127.866,290.736v15.308h2.957c4.232,0,5.508-1.739,5.508-7.422c0-6.089-1.274-7.886-5.623-7.886H127.866
			L127.866,290.736z"/>
		<path fill="#FFFFFF" d="M149.842,315.32v3.943c0,3.885,1.623,6.088,4.58,6.088c2.608,0,4.059-1.914,4.059-5.393
			c0-3.072-1.449-5.625-5.624-9.857l-1.739-1.738c-3.479-3.537-6.727-7.422-6.727-13.685c0-5.219,3.826-8.755,9.74-8.755
			c5.916,0,9.221,3.362,9.221,9.451c0,0.812-0.059,1.333-0.174,2.725h-5.336v-2.029c0-3.769-1.274-5.566-3.941-5.566
			c-2.262,0-3.711,1.682-3.711,4.117c0,4.059,2.609,6.783,6.494,10.609c4.059,4.176,7.537,7.828,7.537,13.976
			c0,6.378-3.942,10.61-9.973,10.61c-6.553,0-9.916-3.826-9.916-11.364v-3.132H149.842L149.842,315.32z"/>
	</g>
</g>
</svg>
