<?xml version="1.0" encoding="utf-8"?>
<!-- Generator: Adobe Illustrator 14.0.0, SVG Export Plug-In . SVG Version: 6.00 Build 43363)  -->
<!DOCTYPE svg PUBLIC "-//W3C//DTD SVG 1.1//EN" "http://www.w3.org/Graphics/SVG/1.1/DTD/svg11.dtd">
<svg version="1.1" xmlns="http://www.w3.org/2000/svg" xmlns:xlink="http://www.w3.org/1999/xlink" x="0px" y="0px"
	 width="181px" height="445.5px" viewBox="0 0 181.998 445.5" enable-background="new 0 0 181.998 445.5" xml:space="preserve">
<g id="Layer_2_1_">
</g>
<g id="Layer_1">
	<g id="Layer_2" display="none">
		<rect display="inline" width="235.043" height="600"/>
	</g>
	<g>
		<circle fill="#FFFFFF" cx="4.295" cy="99.021" r="3.629"/>
		<circle fill="#FFFFFF" cx="17.602" cy="99.021" r="3.629"/>
		<circle fill="#FFFFFF" cx="30.91" cy="99.021" r="3.629"/>
		<circle fill="#FFFFFF" cx="44.216" cy="99.021" r="3.629"/>
		<circle fill="#FFFFFF" cx="57.523" cy="99.021" r="3.629"/>
		<circle fill="#FFFFFF" cx="70.83" cy="99.021" r="3.629"/>
		<circle fill="#FFFFFF" cx="84.138" cy="99.021" r="3.629"/>
		<circle fill="#FFFFFF" cx="97.444" cy="99.021" r="3.629"/>
		<circle fill="#FFFFFF" cx="110.752" cy="99.021" r="3.629"/>
		<circle fill="#FFFFFF" cx="124.06" cy="99.021" r="3.629"/>
		<circle fill="#FFFFFF" cx="137.366" cy="99.021" r="3.629"/>
		<circle fill="#FFFFFF" cx="150.672" cy="99.021" r="3.629"/>
		<circle fill="#FFFFFF" cx="163.979" cy="99.021" r="3.629"/>
		<circle fill="#FFFFFF" cx="177.288" cy="99.021" r="3.629"/>
	</g>
	<g>
		<path fill="#FFFFFF" d="M15.102,48.73H0.471V0.796h5.388v42.547h9.244L15.102,48.73L15.102,48.73z"/>
		<path fill="#FFFFFF" d="M36.774,48.73H20.918V0.796h15.856v5.387H26.306v15.183h6.061v5.387h-6.061v16.591h10.468V48.73z"/>
		<path fill="#FFFFFF" d="M60.527,0.796L53.609,48.73h-5.02L41.855,0.796h6.184l3.488,32.078l3.49-32.078H60.527z"/>
		<path fill="#FFFFFF" d="M82.076,48.73H66.222V0.796h15.854v5.387h-10.47v15.183h6.062v5.387h-6.062v16.591h10.47V48.73z"/>
		<path fill="#FFFFFF" d="M107.177,48.73h-5.388V31.834c0-4.407-1.287-5.265-4.651-5.265h-3.185V48.73h-5.39V0.796h9.308
			c5.813,0,8.998,3.306,8.998,9.611v6.611c0,3.428-1.713,5.632-4.285,6.489c2.511,0.796,4.593,3.183,4.593,7.652V48.73z
			 M101.481,11.326c0-3.429-0.795-5.143-4.713-5.143h-2.814V21.61h2.814c3.244,0,4.713-1.407,4.713-5.203V11.326z"/>
		<path fill="#FFFFFF" d="M133.011,48.73h-5.449l-0.795-5.938h-6.795l-0.734,5.938h-5.756l7.348-47.934h4.959L133.011,48.73z
			 M126.153,37.772l-2.756-20.998l-2.814,20.998H126.153z"/>
		<path fill="#FFFFFF" d="M157.743,48.73h-3.611l-0.551-2.021c-1.285,1.898-3.062,2.878-6.062,2.878
			c-4.408,0-8.877-2.938-8.877-9.306V9.305c0-5.877,4.227-9.305,9.307-9.305c5.203,0,9.307,3.611,9.307,9.305v1.592h-5.389V9.305
			c0-2.755-1.775-3.918-3.918-3.918c-2.203,0-3.918,1.286-3.918,3.918v30.977c0,2.204,1.959,3.918,4.162,3.918
			s4.162-1.714,4.162-3.918V27.243h-4.469v-4.959h9.856L157.743,48.73L157.743,48.73z"/>
		<path fill="#FFFFFF" d="M180.579,48.73h-15.855V0.796h15.855v5.387h-10.471v15.183h6.062v5.387h-6.062v16.591h10.471V48.73z"/>
	</g>
	<path fill="#FFFFFF" d="M13.419,62.928v1.778l-3.64-0.786v-0.992c0-1.448-1.2-2.647-2.648-2.647c-2.191,0-2.688,1.902-2.688,3.64
		c0,2.646,2.647,5.667,4.427,8.025c2.357,3.103,4.84,6.536,4.84,10.59c0,3.971-1.82,7.611-6.619,7.611
		c-3.806,0-6.246-2.771-6.246-6.288v-1.737l3.641,0.786v0.951c0,1.489,1.323,2.689,2.771,2.689c1.943,0,2.854-1.324,2.854-3.103
		c0-1.448-0.124-2.44-0.579-3.558c-1.323-3.393-3.888-6.205-5.998-9.101c-1.655-2.316-2.688-4.22-2.688-7.529
		c0-3.93,2.233-6.618,6.287-6.618C10.771,56.64,13.419,58.749,13.419,62.928z"/>
	<path fill="#FFFFFF" d="M30.751,83.859c0,3.724-2.771,6.288-6.288,6.288c-3.434,0-6.287-2.523-6.287-6.288V62.928
		c0-3.931,2.854-6.288,6.287-6.288c3.517,0,6.288,2.316,6.288,6.288V83.859z M27.111,62.928c0-1.655-1.2-2.647-2.648-2.647
		c-1.488,0-2.646,0.992-2.646,2.647v20.931c0,1.696,1.158,2.647,2.646,2.647c1.448,0,2.648-0.951,2.648-2.647V62.928z"/>
	<path fill="#FFFFFF" d="M48,83.859c0,4.013-2.771,6.288-6.287,6.288c-3.434,0-6.288-2.316-6.288-6.288V62.928
		c0-4.303,2.854-6.288,6.288-6.288c3.516,0,6.287,2.482,6.287,6.288v1.075h-3.64v-1.075c0-1.82-1.2-2.647-2.647-2.647
		c-1.489,0-2.647,0.827-2.647,2.647v20.931c0,1.489,1.158,2.647,2.647,2.647c1.447,0,2.647-1.158,2.647-2.647v-0.413l3.64-1.2
		V83.859z"/>
	<path fill="#FFFFFF" d="M56.191,89.568H52.55v-32.39h3.641V89.568z"/>
	<path fill="#FFFFFF" d="M73.771,89.568h-3.682l-0.537-4.013H64.96l-0.496,4.013h-3.889l4.963-32.39h3.352L73.771,89.568z
		 M69.14,82.163l-1.861-14.189l-1.903,14.189H69.14z"/>
	<path fill="#FFFFFF" d="M87.959,89.568h-9.886v-32.39h3.64v28.749h6.247L87.959,89.568L87.959,89.568z"/>
	<path fill="#FFFFFF" d="M114.476,89.568h-2.439l-0.373-1.365c-0.867,1.282-2.066,1.944-4.096,1.944
		c-2.979,0-5.998-1.985-5.998-6.288V62.928c0-3.972,2.854-6.288,6.289-6.288c3.516,0,6.287,2.44,6.287,6.288v1.075h-3.642v-1.075
		c0-1.862-1.198-2.647-2.646-2.647c-1.49,0-2.648,0.868-2.648,2.647v20.931c0,1.489,1.324,2.647,2.812,2.647
		c1.49,0,2.812-1.158,2.812-2.647v-8.811h-3.021v-3.351h6.66L114.476,89.568L114.476,89.568z"/>
	<path fill="#FFFFFF" d="M131.767,89.568h-3.642V78.151c0-2.979-0.867-3.558-3.144-3.558h-2.151v14.975h-3.64v-32.39h6.287
		c3.931,0,6.08,2.233,6.08,6.494v4.468c0,2.316-1.158,3.806-2.896,4.385c1.694,0.538,3.103,2.151,3.103,5.171L131.767,89.568
		L131.767,89.568z M127.918,64.292c0-2.316-0.537-3.475-3.185-3.475h-1.903v10.425h1.903c2.19,0,3.185-0.951,3.185-3.517V64.292z"/>
	<path fill="#FFFFFF" d="M164.766,69.587c0,3.558-1.902,6.578-6.08,6.578h-2.854v13.402h-3.642v-32.39h6.494
		c3.972,0,6.08,2.523,6.08,6.494v5.916H164.766z M161.124,64.292c0-2.564-0.867-3.475-3.144-3.475h-2.151v11.666h2.151
		c1.984,0,3.144-0.869,3.144-3.517V64.292z"/>
	<path fill="#FFFFFF" d="M148.828,89.568h-3.684l-0.537-4.013h-4.592l-0.496,4.013h-3.89l4.964-32.39h3.354L148.828,89.568z
		 M144.193,82.163l-1.859-14.189l-1.904,14.189H144.193z"/>
	<path fill="#FFFFFF" d="M180.372,89.568h-3.643V74.965h-5.295v14.603h-3.64v-32.39h3.64v14.147h5.295V57.178h3.643V89.568z"/>
	<g>
		<path fill="#FFFFFF" d="M8.875,112.532h0.787c1.246,0,2.4,0.171,3.463,0.512l2.871-0.02c0.014,0.013,0.02,0.026,0.02,0.039v5.606
			c0,0.026-0.006,0.039-0.02,0.039l-5.409,0.02c-0.013,0-0.02-0.013-0.02-0.039c0-0.669-0.092-1.449-0.275-2.341
			c-0.065-0.236-0.171-0.406-0.315-0.512c-0.288-0.223-0.583-0.334-0.885-0.334H9.033c-0.381,0-0.768,0.203-1.161,0.609
			c-0.341,0.446-0.511,0.978-0.511,1.594c0,0.786,0.256,1.357,0.767,1.711c0.682,0.564,1.253,0.99,1.712,1.278
			c0.773,0.499,1.75,0.748,2.931,0.748c0.275,0,0.63-0.02,1.062-0.059l0.08,0.078c-0.328,0.275-0.492,0.564-0.492,0.865
			c0,0.434,0.439,0.932,1.318,1.495c1.035,0.735,1.736,1.633,2.104,2.695c0.131,0.433,0.197,0.84,0.197,1.22v0.394
			c0,0.511-0.098,1.089-0.295,1.729c-0.473,0.958-1.453,1.837-2.941,2.637c-1.488,0.8-3.095,1.17-4.818,1.111
			c-1.725-0.06-3.119-0.22-4.181-0.482l-3.462-0.039c-0.027,0-0.039-0.007-0.039-0.02v-5.449c0.012-0.026,0.025-0.039,0.039-0.039
			l4.977,0.039c0.025,0.014,0.039,0.046,0.039,0.099c0,0.498,0.158,1.121,0.473,1.868c0.433,0.826,0.931,1.239,1.494,1.239
			c0.801,0,1.357-0.504,1.672-1.515c0.08-0.38,0.119-0.682,0.119-0.904c0-1.102-0.958-2.203-2.873-3.305
			c-1.153-0.774-2.479-1.161-3.973-1.161H3.054c-0.275,0-0.466,0.007-0.57,0.02l-0.039-0.059c0.327-0.184,0.498-0.466,0.512-0.846
			c0-0.381-0.256-0.768-0.768-1.161c-0.984-0.892-1.476-1.822-1.476-2.793V119c0-2.059,0.754-3.711,2.263-4.957
			c0.432-0.314,0.858-0.558,1.278-0.728C5.59,112.794,7.131,112.532,8.875,112.532z"/>
		<path fill="#FFFFFF" d="M19.25,113.043h17.98c0.012,0,0.02,0.007,0.02,0.02c0.039,3.449,0.059,5.737,0.059,6.865l-0.039,0.02
			h-3.719c-0.039,0-0.104-0.701-0.196-2.104c-0.065-0.708-0.145-1.26-0.235-1.652c-0.119-0.328-0.23-0.492-0.335-0.492
			c-0.118-0.118-0.649-0.177-1.594-0.177h-0.138c-0.014,0-0.02,0.007-0.02,0.02v4.8c0,0.472,0.17,0.932,0.512,1.377
			c0.328,0.314,0.682,0.531,1.062,0.649c0.196,0.052,0.327,0.085,0.393,0.098v0.079c-0.459,0.079-0.852,0.249-1.18,0.512
			c-0.314,0.288-0.512,0.551-0.59,0.786c-0.132,0.21-0.197,0.61-0.197,1.2v4.387c0,0.617,0.086,0.997,0.256,1.141
			c0.145,0.105,0.341,0.158,0.59,0.158h1.102c0.014,0,0.02,0.007,0.02,0.02v2.36h-9.54c-0.013,0-0.021-0.007-0.021-0.02v-2.341
			c0-0.013,0.008-0.02,0.021-0.02h1.102c0.394,0,0.642-0.138,0.747-0.413c0.079-0.236,0.118-0.571,0.118-1.004v-4.563
			c-0.092-0.551-0.335-1.056-0.728-1.515c-0.275-0.312-0.688-0.537-1.239-0.669c-0.013-0.013-0.013-0.039,0-0.078
			c0.314-0.026,0.675-0.19,1.081-0.492c0.367-0.288,0.637-0.768,0.807-1.437c0.053-0.183,0.079-0.308,0.079-0.373v-4.643
			c0-0.013-0.013-0.02-0.039-0.02h-0.02h-0.06H25.25c-0.971,0-1.515,0.065-1.633,0.196c-0.131,0.132-0.217,0.282-0.256,0.452
			c-0.157,0.656-0.236,1.404-0.236,2.243c-0.025,1.022-0.053,1.534-0.078,1.534h-3.738c-0.013,0-0.02-0.013-0.02-0.039
			c-0.025-3.986-0.046-6.269-0.059-6.846L19.25,113.043z"/>
		<path fill="#FFFFFF" d="M41.545,113.024H54.45c0.013,0,0.02,0.006,0.02,0.02v2.518c0,0.026-0.007,0.039-0.02,0.039h-0.925
			c-0.445,0-0.669,0.164-0.669,0.492l1.022,4.662c0.197,0.446,0.466,0.833,0.807,1.16c0.499,0.394,1.057,0.591,1.673,0.591h0.02
			v0.118c-0.591,0.104-1.003,0.406-1.239,0.904c-0.197,0.407-0.295,0.879-0.295,1.416c0,0.027-0.014,0.06-0.039,0.099
			c0.562,2.623,0.904,4.157,1.022,4.604c0.131,0.459,0.269,0.747,0.413,0.865c0.197,0.145,0.42,0.217,0.669,0.217h0.433
			c0.013,0,0.02,0.007,0.02,0.02v2.341c0,0.013-0.007,0.02-0.02,0.02h-8.479c-0.014,0-0.02-0.007-0.02-0.02v-2.341
			c0-0.013,0.006-0.02,0.02-0.02h0.609c0.342,0,0.564-0.06,0.67-0.178c0.064-0.078,0.098-0.184,0.098-0.314v-0.138
			c0-0.354-0.105-0.931-0.314-1.731h-5.272c-0.027,0-0.072,0.151-0.139,0.453c-0.156,0.604-0.236,0.931-0.236,0.983v0.059
			c0,0.394,0.1,0.643,0.296,0.748c0.157,0.078,0.314,0.118,0.472,0.118h0.314c0.014,0,0.02,0.007,0.02,0.02v2.341
			c0,0.013-0.006,0.02-0.02,0.02h-7.258c-0.014,0-0.02-0.007-0.02-0.02v-2.341c0-0.013,0.006-0.02,0.02-0.02h0.472
			c0.603,0,1.01-0.348,1.22-1.043c0.145-0.394,0.563-2.065,1.259-5.017c0-0.551-0.177-1.062-0.53-1.534
			c-0.342-0.341-0.631-0.531-0.866-0.57v-0.1c0.394,0,0.813-0.131,1.259-0.393c0.328-0.263,0.57-0.538,0.729-0.827
			c0.301-0.498,0.459-0.786,0.472-0.865c0.682-2.74,1.022-4.163,1.022-4.269v-0.02c0-0.328-0.196-0.492-0.59-0.492h-1.004
			c-0.013,0-0.02-0.013-0.02-0.039v-2.518C41.525,113.03,41.532,113.024,41.545,113.024z M47.289,117.411
			c-0.039,0.157-0.576,2.367-1.612,6.629h3.206c-0.157-0.761-0.643-2.971-1.455-6.629H47.289z"/>
		<path fill="#FFFFFF" d="M58.568,113.043h17.98c0.014,0,0.02,0.007,0.02,0.02c0.039,3.449,0.06,5.737,0.06,6.865l-0.039,0.02H72.87
			c-0.04,0-0.104-0.701-0.196-2.104c-0.065-0.708-0.145-1.26-0.235-1.652c-0.119-0.328-0.23-0.492-0.334-0.492
			c-0.119-0.118-0.65-0.177-1.594-0.177h-0.14c-0.013,0-0.021,0.007-0.021,0.02v4.8c0,0.472,0.172,0.932,0.513,1.377
			c0.327,0.314,0.682,0.531,1.062,0.649c0.197,0.052,0.328,0.085,0.395,0.098v0.079c-0.461,0.079-0.854,0.249-1.182,0.512
			c-0.313,0.288-0.512,0.551-0.59,0.786c-0.131,0.21-0.197,0.61-0.197,1.2v4.387c0,0.617,0.086,0.997,0.256,1.141
			c0.146,0.105,0.343,0.158,0.591,0.158H72.3c0.014,0,0.02,0.007,0.02,0.02v2.36H62.78c-0.014,0-0.021-0.007-0.021-0.02v-2.341
			c0-0.013,0.008-0.02,0.021-0.02h1.102c0.393,0,0.643-0.138,0.747-0.413c0.079-0.236,0.118-0.571,0.118-1.004v-4.563
			c-0.092-0.551-0.335-1.056-0.729-1.515c-0.275-0.312-0.688-0.537-1.238-0.669c-0.014-0.013-0.014-0.039,0-0.078
			c0.314-0.026,0.675-0.19,1.08-0.492c0.367-0.288,0.637-0.768,0.808-1.437c0.052-0.183,0.079-0.308,0.079-0.373v-4.643
			c0-0.013-0.014-0.02-0.039-0.02h-0.02h-0.061h-0.061c-0.971,0-1.514,0.065-1.633,0.196c-0.131,0.132-0.215,0.282-0.256,0.452
			c-0.156,0.656-0.234,1.404-0.234,2.243c-0.026,1.022-0.053,1.534-0.079,1.534h-3.737c-0.013,0-0.02-0.013-0.02-0.039
			c-0.026-3.986-0.046-6.269-0.06-6.846L58.568,113.043z"/>
		<path fill="#FFFFFF" d="M79.153,112.945h9.68c0.012,0,0.02,0.007,0.02,0.02v2.479c0,0.014-0.008,0.02-0.02,0.02H87.79
			c-0.395,0-0.648,0.099-0.77,0.295c-0.116,0.21-0.176,0.512-0.176,0.905v3.6c0.025,0.577,0.17,1.023,0.432,1.338
			c0.25,0.314,0.639,0.558,1.16,0.728v0.138c-0.301,0.132-0.582,0.282-0.847,0.453c-0.42,0.312-0.647,0.786-0.688,1.416
			c-0.039,0.118-0.059,0.21-0.059,0.275v4.977c0,0.63,0.137,1.004,0.412,1.121c0.104,0.079,0.381,0.118,0.826,0.118h0.748
			c0.012,0,0.02,0.007,0.02,0.021v2.242c0,0.013-0.008,0.02-0.02,0.02h-9.68c-0.014,0-0.021-0.007-0.021-0.02v-2.242
			c0-0.014,0.007-0.021,0.021-0.021h0.767c0.604,0,0.944-0.098,1.022-0.295c0.131-0.157,0.197-0.59,0.197-1.298v-4.269
			c0-0.722-0.139-1.246-0.414-1.574c-0.236-0.38-0.695-0.669-1.377-0.865v-0.157c0.539-0.105,0.932-0.295,1.182-0.57
			c0.263-0.21,0.451-0.577,0.57-1.103c0.025-0.17,0.039-0.295,0.039-0.373v-3.227c0-0.853-0.092-1.338-0.275-1.455
			c-0.145-0.118-0.366-0.178-0.67-0.178h-1.041c-0.014,0-0.021-0.006-0.021-0.021v-2.478
			C79.134,112.952,79.142,112.945,79.153,112.945z"/>
		<path fill="#FFFFFF" d="M99.383,112.532h0.787c1.246,0,2.399,0.171,3.463,0.512l2.871-0.02c0.015,0.013,0.021,0.026,0.021,0.039
			v5.606c0,0.026-0.006,0.039-0.021,0.039l-5.409,0.02c-0.013,0-0.021-0.013-0.021-0.039c0-0.669-0.093-1.449-0.274-2.341
			c-0.064-0.236-0.171-0.406-0.314-0.512c-0.287-0.223-0.584-0.334-0.885-0.334h-0.06c-0.381,0-0.769,0.203-1.162,0.609
			c-0.34,0.446-0.51,0.978-0.51,1.594c0,0.786,0.256,1.357,0.767,1.711c0.682,0.564,1.254,0.99,1.713,1.278
			c0.772,0.499,1.75,0.748,2.932,0.748c0.273,0,0.629-0.02,1.061-0.059l0.08,0.078c-0.326,0.275-0.49,0.564-0.49,0.865
			c0,0.434,0.438,0.932,1.316,1.495c1.035,0.735,1.736,1.633,2.104,2.695c0.131,0.433,0.196,0.84,0.196,1.22v0.394
			c0,0.511-0.098,1.089-0.295,1.729c-0.473,0.958-1.452,1.837-2.94,2.637c-1.486,0.8-3.094,1.17-4.816,1.111
			c-1.727-0.06-3.119-0.22-4.182-0.482l-3.463-0.039c-0.025,0-0.039-0.007-0.039-0.02v-5.449c0.014-0.026,0.024-0.039,0.039-0.039
			l4.979,0.039c0.023,0.014,0.039,0.046,0.039,0.099c0,0.498,0.156,1.121,0.473,1.868c0.434,0.826,0.932,1.239,1.494,1.239
			c0.801,0,1.355-0.504,1.672-1.515c0.08-0.38,0.119-0.682,0.119-0.904c0-1.102-0.959-2.203-2.873-3.305
			c-1.152-0.774-2.479-1.161-3.973-1.161h-0.219c-0.273,0-0.465,0.007-0.568,0.02l-0.039-0.059c0.326-0.184,0.498-0.466,0.512-0.846
			c0-0.381-0.256-0.768-0.768-1.161c-0.984-0.892-1.477-1.822-1.477-2.793V119c0-2.059,0.754-3.711,2.262-4.957
			c0.434-0.314,0.859-0.558,1.279-0.728C96.099,112.794,97.64,112.532,99.383,112.532z"/>
		<path fill="#FFFFFF" d="M109.758,113.043h17.98c0.012,0,0.02,0.007,0.02,0.02c0.039,3.449,0.06,5.737,0.06,6.865l-0.039,0.02
			h-3.719c-0.039,0-0.104-0.701-0.195-2.104c-0.066-0.708-0.146-1.26-0.236-1.652c-0.117-0.328-0.229-0.492-0.334-0.492
			c-0.117-0.118-0.648-0.177-1.594-0.177h-0.139c-0.015,0-0.021,0.007-0.021,0.02v4.8c0,0.472,0.17,0.932,0.513,1.377
			c0.327,0.314,0.682,0.531,1.062,0.649c0.194,0.052,0.325,0.085,0.393,0.098v0.079c-0.459,0.079-0.852,0.249-1.18,0.512
			c-0.313,0.288-0.513,0.551-0.59,0.786c-0.134,0.21-0.197,0.61-0.197,1.2v4.387c0,0.617,0.086,0.997,0.256,1.141
			c0.146,0.105,0.341,0.158,0.591,0.158h1.102c0.014,0,0.021,0.007,0.021,0.02v2.36h-9.541c-0.014,0-0.021-0.007-0.021-0.02v-2.341
			c0-0.013,0.008-0.02,0.021-0.02h1.103c0.396,0,0.643-0.138,0.747-0.413c0.078-0.236,0.117-0.571,0.117-1.004v-4.563
			c-0.092-0.551-0.334-1.056-0.729-1.515c-0.273-0.312-0.688-0.537-1.238-0.669c-0.014-0.013-0.014-0.039,0-0.078
			c0.314-0.026,0.676-0.19,1.082-0.492c0.365-0.288,0.637-0.768,0.807-1.437c0.054-0.183,0.078-0.308,0.078-0.373v-4.643
			c0-0.013-0.014-0.02-0.039-0.02h-0.02h-0.061h-0.06c-0.971,0-1.516,0.065-1.633,0.196c-0.131,0.132-0.217,0.282-0.256,0.452
			c-0.158,0.656-0.236,1.404-0.236,2.243c-0.024,1.022-0.053,1.534-0.077,1.534h-3.738c-0.014,0-0.021-0.013-0.021-0.039
			c-0.024-3.986-0.047-6.269-0.06-6.846L109.758,113.043z"/>
		<path fill="#FFFFFF" d="M130.343,112.945h9.678c0.014,0,0.021,0.007,0.021,0.02v2.479c0,0.014-0.008,0.02-0.021,0.02h-1.041
			c-0.396,0-0.65,0.099-0.769,0.295c-0.118,0.21-0.178,0.512-0.178,0.905v3.6c0.026,0.577,0.17,1.023,0.435,1.338
			c0.247,0.314,0.635,0.558,1.159,0.728v0.138c-0.303,0.132-0.584,0.282-0.846,0.453c-0.421,0.312-0.65,0.786-0.688,1.416
			c-0.039,0.118-0.06,0.21-0.06,0.275v4.977c0,0.63,0.139,1.004,0.414,1.121c0.104,0.079,0.379,0.118,0.825,0.118h0.746
			c0.015,0,0.021,0.007,0.021,0.021v2.242c0,0.013-0.006,0.02-0.021,0.02h-9.68c-0.012,0-0.02-0.007-0.02-0.02v-2.242
			c0-0.014,0.008-0.021,0.02-0.021h0.77c0.604,0,0.943-0.098,1.021-0.295c0.133-0.157,0.197-0.59,0.197-1.298v-4.269
			c0-0.722-0.139-1.246-0.414-1.574c-0.234-0.38-0.693-0.669-1.377-0.865v-0.157c0.537-0.105,0.932-0.295,1.182-0.57
			c0.262-0.21,0.451-0.577,0.568-1.103c0.027-0.17,0.041-0.295,0.041-0.373v-3.227c0-0.853-0.094-1.338-0.275-1.455
			c-0.145-0.118-0.367-0.178-0.669-0.178h-1.044c-0.012,0-0.02-0.006-0.02-0.021v-2.478
			C130.323,112.952,130.329,112.945,130.343,112.945z"/>
		<path fill="#FFFFFF" d="M152.284,112.611h0.607c1.508,0,2.979,0.373,4.405,1.121c0.447,0.235,0.945,0.604,1.496,1.102
			c0.522,0.511,0.904,0.944,1.142,1.298c0.903,1.377,1.356,2.892,1.356,4.544l-0.021,0.02h-6.453c-0.012,0-0.024-0.02-0.038-0.059
			c0-1.285-0.138-2.629-0.412-4.032c-0.08-0.354-0.203-0.604-0.375-0.748c-0.394-0.367-0.847-0.551-1.356-0.551
			c-0.771,0-1.267,0.224-1.476,0.669c-0.131,0.249-0.242,0.544-0.334,0.886c-0.093,0.235-0.179,1.331-0.257,3.284v0.021
			c0,0.433,0.125,0.858,0.373,1.278c0.275,0.394,0.683,0.669,1.222,0.826c0.117,0.039,0.229,0.065,0.334,0.079v0.078
			c-0.459,0.053-0.894,0.249-1.299,0.59c-0.354,0.368-0.563,0.702-0.63,1.004c0,0.026-0.008,0.053-0.02,0.078
			c0,0.669,0.137,2.171,0.412,4.505c0.092,0.446,0.197,0.807,0.312,1.082c0.264,0.564,0.572,0.912,0.928,1.043
			c0.195,0.078,0.426,0.118,0.688,0.118c0.84,0,1.424-1.017,1.752-3.05c0.117-0.878,0.176-1.776,0.176-2.694h0.021h6.945
			c0.024,0,0.039,0.007,0.039,0.02v0.059c0,1.338-0.361,2.741-1.082,4.21c-0.763,1.364-1.902,2.433-3.425,3.206
			c-1.271,0.616-2.805,0.925-4.604,0.925c-1.928,0-3.633-0.472-5.113-1.416c-0.328-0.197-0.768-0.57-1.317-1.121
			c-0.8-0.893-1.423-1.929-1.869-3.108c-0.155-0.42-0.319-0.997-0.49-1.731c-0.172-0.983-0.256-1.691-0.256-2.124
			c-0.131-0.473-0.349-0.833-0.649-1.082c-0.367-0.302-0.771-0.485-1.219-0.551v-0.079c0.629-0.065,1.088-0.223,1.377-0.472
			c0.327-0.302,0.498-0.505,0.512-0.61c0.063-0.052,0.125-0.256,0.178-0.609c0.234-1.114,0.49-1.98,0.768-2.597
			c0.211-0.498,0.492-1.022,0.846-1.574c1.09-1.625,2.506-2.76,4.25-3.402C150.657,112.754,151.511,112.611,152.284,112.611z"/>
		<path fill="#FFFFFF" d="M172.258,112.532h0.787c1.246,0,2.399,0.171,3.461,0.512l2.873-0.02c0.013,0.013,0.021,0.026,0.021,0.039
			v5.606c0,0.026-0.008,0.039-0.021,0.039l-5.409,0.02c-0.015,0-0.021-0.013-0.021-0.039c0-0.669-0.093-1.449-0.275-2.341
			c-0.065-0.236-0.17-0.406-0.313-0.512c-0.289-0.223-0.584-0.334-0.885-0.334h-0.062c-0.379,0-0.767,0.203-1.16,0.609
			c-0.34,0.446-0.512,0.978-0.512,1.594c0,0.786,0.256,1.357,0.769,1.711c0.682,0.564,1.252,0.99,1.711,1.278
			c0.774,0.499,1.752,0.748,2.932,0.748c0.275,0,0.631-0.02,1.062-0.059l0.078,0.078c-0.328,0.275-0.491,0.564-0.491,0.865
			c0,0.434,0.438,0.932,1.317,1.495c1.037,0.735,1.737,1.633,2.104,2.695c0.131,0.433,0.195,0.84,0.195,1.22v0.394
			c0,0.511-0.098,1.089-0.295,1.729c-0.473,0.958-1.453,1.837-2.939,2.637c-1.487,0.8-3.098,1.17-4.819,1.111
			c-1.726-0.06-3.117-0.22-4.181-0.482l-3.463-0.039c-0.024,0-0.039-0.007-0.039-0.02v-5.449c0.015-0.026,0.025-0.039,0.039-0.039
			l4.979,0.039c0.024,0.014,0.039,0.046,0.039,0.099c0,0.498,0.155,1.121,0.471,1.868c0.435,0.826,0.933,1.239,1.496,1.239
			c0.799,0,1.356-0.504,1.672-1.515c0.078-0.38,0.117-0.682,0.117-0.904c0-1.102-0.957-2.203-2.871-3.305
			c-1.153-0.774-2.479-1.161-3.976-1.161h-0.215c-0.274,0-0.467,0.007-0.569,0.02l-0.041-0.059c0.327-0.184,0.5-0.466,0.512-0.846
			c0-0.381-0.256-0.768-0.767-1.161c-0.983-0.892-1.477-1.822-1.477-2.793V119c0-2.059,0.754-3.711,2.262-4.957
			c0.435-0.314,0.857-0.558,1.278-0.728C168.974,112.794,170.515,112.532,172.258,112.532z"/>
	</g>
	<g>
		<path fill="#FFFFFF" d="M0.594,139.453h8.764c2.422,0,4.35,0.412,5.786,1.236c0.985,0.611,1.685,1.467,2.097,2.565
			c0.162,0.399,0.301,0.911,0.412,1.535c0.1,0.513,0.182,1.268,0.244,2.267c0.174,0.512,0.461,0.873,0.861,1.086
			c0.236,0.162,0.486,0.274,0.749,0.337v0.112c-0.288,0.087-0.493,0.175-0.618,0.262c-0.486,0.288-0.812,0.668-0.974,1.143
			c-0.013,0.013-0.019,0.031-0.019,0.057c0,1.123-0.156,2.446-0.469,3.97c-0.149,0.648-0.324,1.166-0.523,1.554
			c-0.176,0.338-0.475,0.712-0.899,1.124c-0.524,0.486-1.174,0.88-1.947,1.18c-0.562,0.225-1.273,0.418-2.136,0.58
			c-1.123,0.213-2.858,0.318-5.205,0.318H0.612c-0.012,0-0.018-0.012-0.018-0.037c0-0.162-0.014-0.88-0.038-2.152l0.038-0.02h0.449
			c0.536,0,0.849-0.068,0.936-0.206c0.15-0.162,0.225-0.543,0.225-1.144v-3.276c0-1.186-0.056-1.854-0.168-2.003
			c-0.188-0.5-0.549-0.881-1.086-1.143l-0.412-0.206c-0.025-0.05-0.025-0.1,0-0.15c0.6-0.187,1.036-0.479,1.311-0.88
			c0.237-0.399,0.355-0.904,0.355-1.517v-2.847c0-0.761-0.1-1.186-0.299-1.273c-0.125-0.074-0.387-0.112-0.787-0.112H0.594
			c-0.025,0-0.038-0.006-0.038-0.019v-2.322C0.568,139.459,0.58,139.453,0.594,139.453z M8.009,143.011v4.419
			c0.2,0.375,0.611,0.668,1.235,0.88v0.131c-0.149,0.025-0.424,0.176-0.823,0.45c-0.225,0.237-0.362,0.412-0.412,0.524v5.786
			c0,0.624,0.094,1.005,0.28,1.143c0.162,0.101,0.369,0.149,0.619,0.149c1.26,0,2.09-0.519,2.49-1.556
			c0.236-0.91,0.355-2.346,0.355-4.306v-0.766c-0.1-0.362-0.35-0.699-0.749-1.012c-0.263-0.175-0.543-0.318-0.843-0.431v-0.094
			c0.237-0.074,0.475-0.168,0.712-0.28c0.425-0.237,0.718-0.587,0.88-1.049v-0.019c0-1.586-0.105-2.884-0.318-3.896
			c-0.188-0.499-0.486-0.861-0.898-1.086c-0.425-0.225-0.962-0.337-1.611-0.337c-0.461,0-0.736,0.144-0.823,0.431
			C8.04,142.281,8.009,142.586,8.009,143.011z"/>
		<path fill="#FFFFFF" d="M25.226,139.509H37.51c0.012,0,0.019,0.006,0.019,0.019v2.396c0,0.025-0.007,0.038-0.019,0.038h-0.88
			c-0.425,0-0.637,0.156-0.637,0.468l0.974,4.438c0.188,0.424,0.443,0.793,0.768,1.104c0.475,0.375,1.005,0.562,1.592,0.562h0.02
			v0.112c-0.562,0.101-0.955,0.388-1.181,0.862c-0.187,0.387-0.28,0.836-0.28,1.348c0,0.025-0.014,0.057-0.038,0.094
			c0.536,2.497,0.862,3.958,0.974,4.382c0.125,0.438,0.256,0.712,0.394,0.824c0.188,0.138,0.399,0.206,0.637,0.206h0.412
			c0.013,0,0.019,0.006,0.019,0.019v2.229c0,0.014-0.006,0.021-0.019,0.021h-8.071c-0.012,0-0.019-0.007-0.019-0.021v-2.229
			c0-0.013,0.007-0.019,0.019-0.019h0.58c0.325,0,0.537-0.058,0.637-0.169c0.062-0.075,0.094-0.176,0.094-0.301v-0.131
			c0-0.336-0.1-0.886-0.299-1.646h-5.02c-0.024,0-0.068,0.145-0.131,0.432c-0.149,0.573-0.225,0.887-0.225,0.936v0.057
			c0,0.375,0.094,0.611,0.281,0.712c0.15,0.074,0.299,0.112,0.449,0.112h0.3c0.013,0,0.019,0.006,0.019,0.02v2.229
			c0,0.013-0.006,0.02-0.019,0.02h-6.91c-0.013,0-0.019-0.007-0.019-0.02v-2.229c0-0.014,0.006-0.02,0.019-0.02h0.45
			c0.573,0,0.961-0.331,1.16-0.993c0.138-0.374,0.537-1.966,1.199-4.774c0-0.524-0.169-1.012-0.506-1.461
			c-0.325-0.324-0.6-0.506-0.824-0.543v-0.094c0.375,0,0.773-0.125,1.199-0.374c0.311-0.25,0.543-0.513,0.692-0.787
			c0.286-0.475,0.437-0.749,0.449-0.824c0.649-2.608,0.974-3.963,0.974-4.063v-0.019c0-0.312-0.188-0.468-0.562-0.468h-0.955
			c-0.013,0-0.019-0.013-0.019-0.038v-2.396C25.207,139.515,25.213,139.509,25.226,139.509z M30.693,143.685
			c-0.037,0.149-0.549,2.254-1.535,6.311h3.053c-0.15-0.724-0.612-2.827-1.387-6.311H30.693z"/>
		<path fill="#FFFFFF" d="M50.346,139.04h0.748c1.186,0,2.285,0.163,3.297,0.487l2.733-0.019c0.013,0.013,0.019,0.025,0.019,0.037
			v5.337c0,0.025-0.006,0.037-0.019,0.037l-5.149,0.02c-0.014,0-0.02-0.013-0.02-0.038c0-0.637-0.087-1.379-0.262-2.229
			c-0.062-0.225-0.162-0.387-0.3-0.486c-0.274-0.212-0.556-0.318-0.843-0.318h-0.056c-0.362,0-0.73,0.193-1.104,0.58
			c-0.325,0.425-0.487,0.931-0.487,1.518c0,0.749,0.243,1.292,0.729,1.629c0.649,0.537,1.193,0.942,1.63,1.217
			c0.736,0.475,1.667,0.712,2.79,0.712c0.262,0,0.6-0.019,1.012-0.057l0.074,0.075c-0.312,0.263-0.468,0.537-0.468,0.824
			c0,0.412,0.418,0.887,1.255,1.423c0.986,0.699,1.654,1.555,2.004,2.564c0.124,0.412,0.187,0.8,0.187,1.162v0.375
			c0,0.485-0.093,1.035-0.28,1.646c-0.449,0.911-1.383,1.748-2.8,2.51s-2.946,1.114-4.588,1.059
			c-1.642-0.057-2.968-0.209-3.979-0.459l-3.296-0.037c-0.024,0-0.037-0.006-0.037-0.02v-5.188c0.013-0.023,0.024-0.037,0.037-0.037
			l4.737,0.037c0.025,0.013,0.038,0.044,0.038,0.094c0,0.475,0.149,1.066,0.449,1.779c0.412,0.785,0.886,1.18,1.423,1.18
			c0.762,0,1.293-0.48,1.592-1.441c0.075-0.363,0.113-0.648,0.113-0.861c0-1.049-0.912-2.098-2.734-3.146
			c-1.1-0.737-2.359-1.105-3.783-1.105h-0.205c-0.263,0-0.443,0.007-0.543,0.019l-0.038-0.056c0.312-0.175,0.474-0.443,0.487-0.806
			c0-0.361-0.244-0.73-0.73-1.104c-0.937-0.849-1.404-1.735-1.404-2.659v-0.094c0-1.96,0.717-3.532,2.152-4.719
			c0.412-0.3,0.818-0.53,1.218-0.693C47.218,139.29,48.685,139.04,50.346,139.04z"/>
		<path fill="#FFFFFF" d="M60.277,139.528h8.295c0.013,0,0.021,0.007,0.021,0.019v2.359c0,0.013-0.008,0.019-0.021,0.019h-0.111
			c-0.399,0-0.649,0.101-0.75,0.3c-0.101,0.225-0.149,0.487-0.149,0.787c-0.013,1.336-0.019,2.378-0.019,3.127v0.318h3.707v-2.06
			c0-0.325,0.007-0.737,0.021-1.236c0-0.637-0.125-1.018-0.375-1.143c-0.149-0.062-0.33-0.094-0.543-0.094H70.24
			c-0.024,0-0.038-0.006-0.038-0.019v-2.359c0-0.012,0.014-0.019,0.038-0.019h8.296c0.012,0,0.02,0.007,0.02,0.019v2.359
			c0,0.013-0.008,0.019-0.02,0.019h-0.975c-0.388,0-0.637,0.094-0.748,0.281c-0.102,0.213-0.15,0.493-0.15,0.843v0.188h-0.02
			l0.02,0.037v3.221c0,0.375,0.125,0.762,0.375,1.161c0.212,0.35,0.637,0.618,1.273,0.806l0.019,0.112
			c-0.425,0.1-0.769,0.287-1.03,0.562c-0.273,0.3-0.449,0.574-0.523,0.824c-0.075,0.175-0.112,0.486-0.112,0.936v4.419
			c0,0.574,0.131,0.931,0.394,1.068c0.125,0.062,0.387,0.094,0.787,0.094h0.692c0.012,0,0.019,0.006,0.019,0.019v2.116
			c0,0.013-0.007,0.02-0.019,0.02h-8.296c-0.023,0-0.038-0.007-0.038-0.02v-2.116c0-0.013,0.015-0.019,0.038-0.019
			c0.535,0,0.843-0.145,0.917-0.432c0.075-0.188,0.112-0.605,0.112-1.255v-4.176h-3.707v4.644c0,0.637,0.123,1.006,0.373,1.105
			c0.125,0.074,0.345,0.111,0.656,0.111v0.02v2.115c0,0.014-0.007,0.021-0.02,0.021h-8.295c-0.013,0-0.02-0.007-0.02-0.021v-2.115
			c0-0.014,0.007-0.02,0.02-0.02h0.692c0.524,0,0.837-0.067,0.937-0.205c0.175-0.139,0.262-0.543,0.262-1.219v-4.325
			c-0.037-0.399-0.094-0.687-0.168-0.861c-0.188-0.475-0.506-0.83-0.955-1.067l-0.318-0.112l-0.3-0.075
			c-0.062-0.037-0.081-0.075-0.056-0.112c0.124-0.024,0.412-0.144,0.861-0.355c0.362-0.2,0.63-0.543,0.805-1.03
			c0.088-0.3,0.131-0.556,0.131-0.768v-3.015c0-0.737-0.105-1.161-0.318-1.273c-0.148-0.088-0.35-0.132-0.599-0.132h-0.974
			c-0.013,0-0.02-0.006-0.02-0.019v-2.359C60.258,139.535,60.265,139.528,60.277,139.528z"/>
		<path fill="#FFFFFF" d="M81.332,139.509h7.886c2.37,0,4.243,0.324,5.616,0.974c1.322,0.699,1.983,1.741,1.983,3.127v0.169
			c0,0.849-0.256,1.897-0.769,3.146c-0.462,0.587-0.962,0.993-1.497,1.218c-0.522,0.199-0.904,0.299-1.143,0.299
			c-0.213,0.038-0.318,0.063-0.318,0.075v0.263c0.023,0.013,0.205,0.056,0.543,0.131c0.736,0.2,1.322,0.405,1.762,0.618
			c0.8,0.399,1.403,1.104,1.814,2.115c0.273,0.75,0.412,1.572,0.412,2.473v0.318c0,0.437-0.139,0.979-0.412,1.629
			c-0.398,0.824-1.115,1.441-2.152,1.854c-0.399,0.15-0.881,0.281-1.44,0.395c-0.986,0.213-2.879,0.318-5.675,0.318h-6.611
			c-0.012,0-0.018-0.007-0.018-0.021v-2.115c0-0.014,0.006-0.02,0.018-0.02h0.693c0.562,0,0.893-0.08,0.992-0.242
			c0.125-0.2,0.188-0.506,0.188-0.918v-4.963c0-0.337-0.168-0.718-0.506-1.142c-0.35-0.312-0.674-0.506-0.973-0.581l-0.356-0.056
			v-0.112c0.162-0.025,0.306-0.05,0.431-0.075c0.549-0.188,0.93-0.468,1.143-0.843c0.162-0.3,0.25-0.567,0.263-0.805v-3.727
			c0-0.587-0.125-0.937-0.375-1.049c-0.138-0.05-0.293-0.075-0.467-0.075h-1.031c-0.013,0-0.019-0.006-0.019-0.019v-2.341
			C81.313,139.515,81.319,139.509,81.332,139.509z M88.618,141.869l-0.02,0.019v1.704c0,0.799,0.006,1.941,0.02,3.427h1.18
			c0.498,0,0.938-0.35,1.311-1.049c0.214-0.337,0.318-0.974,0.318-1.91v-0.206c0-0.911-0.33-1.504-0.992-1.778
			c-0.336-0.138-0.688-0.206-1.049-0.206h-0.748L88.618,141.869L88.618,141.869z M88.618,151.176v5.299h1.086
			c0.822,0,1.396-0.6,1.723-1.797c0.088-0.338,0.131-0.662,0.131-0.975v-0.206c0-0.823-0.188-1.437-0.561-1.835
			c-0.463-0.324-1-0.486-1.611-0.486H88.618z"/>
		<path fill="#FFFFFF" d="M109.261,139.116h0.469c1.137,0,2.348,0.306,3.633,0.918c0.35,0.187,0.719,0.431,1.105,0.73
			c0.262,0.225,0.536,0.486,0.823,0.786c0.36,0.425,0.66,0.812,0.897,1.161c0.336,0.537,0.586,1.011,0.748,1.423
			c0.265,0.6,0.513,1.467,0.75,2.604c0.037,0.35,0.119,0.611,0.244,0.786c0.226,0.387,0.652,0.681,1.291,0.88
			c0.161,0.037,0.262,0.057,0.299,0.057v0.094c-0.299,0.062-0.522,0.137-0.674,0.225c-0.449,0.25-0.754,0.605-0.916,1.067
			c-0.016,0-0.045,0.337-0.096,1.011c-0.102,0.824-0.213,1.48-0.338,1.967c-0.262,0.911-0.537,1.635-0.824,2.172
			c-0.871,1.735-2.229,2.952-4.061,3.651c-1.037,0.361-2.066,0.543-3.092,0.543c-2.021,0-3.795-0.586-5.316-1.76
			c-0.537-0.487-0.918-0.881-1.145-1.181c-0.412-0.562-0.769-1.187-1.066-1.872c-0.25-0.6-0.438-1.174-0.562-1.724
			c-0.113-0.388-0.22-1.03-0.316-1.929c0-0.05-0.014-0.087-0.037-0.112v-0.019c0-0.05,0.006-0.094,0.018-0.132
			c-0.025-0.938-0.486-1.572-1.385-1.909l0.018-0.15c0.326-0.075,0.631-0.225,0.918-0.449c0.412-0.375,0.619-0.73,0.619-1.067
			c0.111-0.611,0.256-1.217,0.43-1.816c0.312-0.911,0.644-1.648,0.992-2.21c0.961-1.51,2.142-2.54,3.539-3.09
			C107.302,139.334,108.312,139.116,109.261,139.116z M107.519,147.505c0.199,0.374,0.567,0.661,1.104,0.861
			c0.174,0.062,0.256,0.094,0.242,0.094v0.112c-0.101,0.037-0.25,0.1-0.449,0.187c-0.461,0.25-0.769,0.544-0.918,0.881v0.094
			c0,1.997,0.131,3.772,0.396,5.317c0.125,0.487,0.324,0.838,0.6,1.049c0.273,0.213,0.645,0.318,1.104,0.318
			c0.912,0,1.504-0.637,1.778-1.91c0.074-0.361,0.113-0.843,0.113-1.441c-0.015-1.771-0.021-2.964-0.021-3.576
			c-0.25-0.412-0.574-0.698-0.975-0.861c-0.188-0.05-0.307-0.074-0.355-0.074v-0.132c0.125-0.012,0.351-0.1,0.674-0.262
			c0.226-0.112,0.443-0.318,0.656-0.618c-0.014-0.112-0.02-0.193-0.02-0.243v-0.524c0-1.873-0.074-3.027-0.227-3.465
			c-0.188-0.599-0.437-0.992-0.748-1.18c-0.263-0.149-0.566-0.225-0.918-0.225c-0.812,0-1.343,0.412-1.593,1.236
			c-0.161,0.524-0.25,0.942-0.262,1.255C107.582,145.832,107.519,146.869,107.519,147.505z"/>
		<path fill="#FFFFFF" d="M124.513,139.509h12.282c0.015,0,0.021,0.006,0.021,0.019v2.396c0,0.025-0.006,0.038-0.021,0.038h-0.879
			c-0.426,0-0.637,0.156-0.637,0.468l0.973,4.438c0.188,0.424,0.443,0.793,0.769,1.104c0.477,0.375,1.006,0.562,1.594,0.562h0.018
			v0.112c-0.561,0.101-0.953,0.388-1.18,0.862c-0.188,0.387-0.281,0.836-0.281,1.348c0,0.025-0.012,0.057-0.035,0.094
			c0.535,2.497,0.859,3.958,0.975,4.382c0.123,0.438,0.255,0.712,0.394,0.824c0.188,0.138,0.398,0.206,0.638,0.206h0.412
			c0.012,0,0.02,0.006,0.02,0.019v2.229c0,0.014-0.008,0.021-0.02,0.021h-8.072c-0.012,0-0.019-0.007-0.019-0.021v-2.229
			c0-0.013,0.007-0.019,0.019-0.019h0.582c0.324,0,0.535-0.058,0.637-0.169c0.062-0.075,0.094-0.176,0.094-0.301v-0.131
			c0-0.336-0.102-0.886-0.301-1.646h-5.018c-0.025,0-0.068,0.145-0.131,0.432c-0.15,0.573-0.226,0.887-0.226,0.936v0.057
			c0,0.375,0.092,0.611,0.278,0.712c0.148,0.074,0.302,0.112,0.449,0.112h0.301c0.013,0,0.019,0.006,0.019,0.02v2.229
			c0,0.013-0.006,0.02-0.019,0.02h-6.91c-0.012,0-0.02-0.007-0.02-0.02v-2.229c0-0.014,0.008-0.02,0.02-0.02h0.449
			c0.574,0,0.961-0.331,1.162-0.993c0.137-0.374,0.535-1.966,1.195-4.774c0-0.524-0.168-1.012-0.504-1.461
			c-0.326-0.324-0.602-0.506-0.824-0.543v-0.094c0.373,0,0.773-0.125,1.197-0.374c0.312-0.25,0.543-0.513,0.693-0.787
			c0.287-0.475,0.438-0.749,0.449-0.824c0.647-2.608,0.975-3.963,0.975-4.063v-0.019c0-0.312-0.188-0.468-0.562-0.468h-0.955
			c-0.014,0-0.02-0.013-0.02-0.038v-2.396C124.493,139.515,124.498,139.509,124.513,139.509z M129.979,143.685
			c-0.037,0.149-0.551,2.254-1.535,6.311h3.053c-0.148-0.724-0.611-2.827-1.387-6.311H129.979z"/>
		<path fill="#FFFFFF" d="M141.896,139.34h8.951c1.424,0,2.771,0.269,4.045,0.806c0.477,0.212,0.938,0.499,1.387,0.861
			c0.512,0.462,0.824,0.812,0.938,1.049c0.463,0.699,0.693,1.423,0.693,2.172v0.169c0,1.436-0.48,2.722-1.443,3.857
			c-0.449,0.449-0.83,0.755-1.143,0.917c-0.074,0.038-0.117,0.069-0.131,0.094v0.169c1.174,2.896,1.947,4.755,2.322,5.58
			c0.162,0.312,0.387,0.631,0.674,0.955c0.336,0.301,0.637,0.457,0.897,0.469c0.024,0,0.037,0.007,0.037,0.02v2.152
			c0,0.014-0.013,0.021-0.037,0.021h-7.979c-0.012,0-0.018-0.007-0.018-0.021v-2.172c0-0.012,0.104-0.03,0.318-0.057
			c0.35-0.111,0.521-0.361,0.521-0.748v-0.076c0-0.324-0.354-1.315-1.064-2.978c-0.25-0.647-0.389-0.985-0.412-1.011h-1.48
			c-0.012,0.013-0.018,0.025-0.018,0.037v3.332c0,0.726,0.08,1.156,0.242,1.293c0.125,0.138,0.398,0.205,0.822,0.205v0.15v1.93
			v0.019c0,0.037,0,0.069,0,0.094h-8.127c-0.023,0-0.037-0.006-0.037-0.019v-2.135c0.014-0.025,0.024-0.039,0.037-0.039h0.469
			c0.562,0,0.881-0.086,0.955-0.262c0.125-0.175,0.188-0.475,0.188-0.898v-5.093c-0.024-0.263-0.155-0.556-0.396-0.88
			c-0.262-0.362-0.637-0.612-1.123-0.749l-0.057-0.169c0.398-0.1,0.736-0.287,1.012-0.562c0.3-0.325,0.479-0.675,0.543-1.049
			c0.013-0.087,0.021-0.162,0.021-0.225v-3.671c0-0.536-0.106-0.873-0.317-1.011c-0.14-0.087-0.345-0.131-0.619-0.131h-0.674
			c-0.025,0-0.037-0.007-0.037-0.02v-2.359C141.872,139.347,141.886,139.34,141.896,139.34z M148.976,141.718
			c0.014,3.121,0.02,5.356,0.02,6.704h0.111c0.887,0,1.562-0.418,2.022-1.254c0.351-0.649,0.522-1.505,0.522-2.565v-0.206
			c0-1.148-0.438-1.948-1.312-2.397C149.956,141.812,149.5,141.718,148.976,141.718z"/>
		<path fill="#FFFFFF" d="M161.698,139.453h8.764c2.422,0,4.352,0.412,5.787,1.236c0.984,0.611,1.686,1.467,2.098,2.565
			c0.162,0.399,0.299,0.911,0.412,1.535c0.1,0.513,0.18,1.268,0.242,2.267c0.176,0.512,0.463,0.873,0.861,1.086
			c0.236,0.162,0.486,0.274,0.748,0.337v0.112c-0.285,0.087-0.492,0.175-0.617,0.262c-0.486,0.288-0.812,0.668-0.975,1.143
			c-0.013,0.013-0.021,0.031-0.021,0.057c0,1.123-0.155,2.446-0.467,3.97c-0.15,0.648-0.324,1.166-0.525,1.554
			c-0.174,0.338-0.475,0.712-0.897,1.124c-0.523,0.486-1.174,0.88-1.945,1.18c-0.562,0.225-1.273,0.418-2.137,0.58
			c-1.123,0.213-2.857,0.318-5.205,0.318h-6.104c-0.015,0-0.021-0.012-0.021-0.037c0-0.162-0.013-0.88-0.037-2.152l0.037-0.02h0.448
			c0.537,0,0.851-0.068,0.938-0.206c0.148-0.162,0.225-0.543,0.225-1.144v-3.276c0-1.186-0.057-1.854-0.168-2.003
			c-0.188-0.5-0.551-0.881-1.086-1.143l-0.412-0.206c-0.024-0.05-0.024-0.1,0-0.15c0.599-0.187,1.035-0.479,1.312-0.88
			c0.235-0.399,0.354-0.904,0.354-1.517v-2.847c0-0.761-0.102-1.186-0.299-1.273c-0.125-0.074-0.389-0.112-0.787-0.112h-0.524
			c-0.022,0-0.037-0.006-0.037-0.019v-2.322C161.672,139.459,161.685,139.453,161.698,139.453z M169.114,143.011v4.419
			c0.197,0.375,0.609,0.668,1.234,0.88v0.131c-0.148,0.025-0.425,0.176-0.824,0.45c-0.226,0.237-0.361,0.412-0.41,0.524v5.786
			c0,0.624,0.094,1.005,0.279,1.143c0.162,0.101,0.367,0.149,0.617,0.149c1.262,0,2.092-0.519,2.491-1.556
			c0.236-0.91,0.354-2.346,0.354-4.306v-0.766c-0.102-0.362-0.352-0.699-0.75-1.012c-0.262-0.175-0.543-0.318-0.842-0.431v-0.094
			c0.236-0.074,0.476-0.168,0.711-0.28c0.424-0.237,0.72-0.587,0.881-1.049v-0.019c0-1.586-0.106-2.884-0.317-3.896
			c-0.188-0.499-0.487-0.861-0.899-1.086c-0.424-0.225-0.961-0.337-1.607-0.337c-0.465,0-0.738,0.144-0.824,0.431
			C169.144,142.281,169.114,142.586,169.114,143.011z"/>
	</g>
	<polygon fill="#FFFFFF" points="80.884,169.854 88.784,175.268 80.884,180.68 0.999,175.268 	"/>
	<polygon fill="#FFFFFF" points="100.782,169.854 92.881,175.268 100.782,180.68 180.666,175.268 	"/>
	<g>
		<path fill="#FFFFFF" d="M28.916,217.704h-8.233l-2.542-3.392h-6.176l-0.928,3.392H3.489l-2.865-3.392l7.708-23.528h10.211
			l3.108,3.875L28.916,217.704z M8.978,191.713l-7.104,21.674h6.82l0.889-3.027h7.789l0.768,3.027H25l-7.103-21.674H8.978z
			 M16.445,206.605h-5.974l2.986-11.139L16.445,206.605z M13.458,205.799h1.856l-0.888-3.391L13.458,205.799z"/>
		<path fill="#FFFFFF" d="M50.831,203.7c-1.735-1.412-3.632-2.22-5.126-2.22c-2.583,0-4.601,2.018-4.601,4.602v0.727
			c0.968,0.283,1.815,0.443,2.3,0.443c1.494,0,3.148-0.688,4.803-1.979l2.624,3.311l-0.403,8.678c-2.1,0.768-3.553,1.01-5.61,1.01
			c-4.399,0-7.507-1.373-10.251-4.562c-1.01-1.211-2.705-3.512-3.27-4.521c-1.09-1.897-1.654-4.117-1.654-6.418
			c0-7.225,5.287-12.551,12.512-12.551c2.018,0,3.672,0.321,6.053,1.129l2.624,3.311L50.831,203.7L50.831,203.7z M47.199,192.036
			c-2.221-0.646-3.432-0.849-5.086-0.849c-6.699,0-11.502,4.764-11.502,11.463c0,4.076,1.855,7.588,5.085,9.605
			c1.856,1.131,4.076,1.694,6.78,1.694c1.493,0,2.583-0.121,4.398-0.563l0.324-6.377c-1.574,0.848-2.503,1.129-3.835,1.129
			c-3.35,0-5.812-2.34-5.812-5.447s2.502-5.569,5.69-5.569c1.292,0,2.22,0.322,3.956,1.331v-6.417H47.199z"/>
		<path fill="#FFFFFF" d="M57.567,200.471h-2.058l-2.584-3.27v-6.417h17.638l2.904,3.552v6.135h-4.479v17.233h-8.637l-2.785-3.392
			V200.471z M65.356,213.387v-16.549h4.723v-5.125H53.854v5.125h4.642v16.549H65.356z"/>
		<path fill="#FFFFFF" d="M88.077,217.704h-8.639l-2.705-3.392v-23.527h8.518l2.826,3.432V217.704z M77.663,191.713v21.674h6.779
			v-21.674H77.663z"/>
		<path fill="#FFFFFF" d="M117.456,194.7l-8.838,23.005h-7.75l-2.785-3.391l-8.717-23.529h8.717l2.744,3.311l2.02,6.537l3.229-9.848
			h8.192L117.456,194.7z M106.681,191.713l-4.603,14.166l-4.603-14.166h-6.899l8.192,21.674h6.578l8.232-21.674H106.681z"/>
		<path fill="#FFFFFF" d="M131.375,217.704h-8.637l-2.703-3.392v-23.527h8.517l2.823,3.432V217.704L131.375,217.704z
			 M120.963,191.713v21.674h6.781v-21.674H120.963z"/>
		<path fill="#FFFFFF" d="M138.599,200.471h-2.06l-2.582-3.27v-6.417h17.638l2.905,3.552v6.135h-4.479v17.233h-8.637l-2.785-3.392
			V200.471z M146.388,213.387v-16.549h4.723v-5.125h-16.225v5.125h4.641v16.549H146.388z"/>
		<path fill="#FFFFFF" d="M181.538,194.417l-7.104,11.704v11.583h-8.598l-2.744-3.392V203.98l-8.152-13.196h9.688l4.277,2.825
			l1.291-2.825h8.395L181.538,194.417z M170.802,191.713l-3.269,7.184l-3.433-7.184h-7.547l7.467,12.026v9.646h6.779v-9.404
			l6.9-12.268H170.802L170.802,191.713z"/>
	</g>
	<g>
		<path fill="#FFFFFF" d="M21.945,236.161c-2.312-1.77-3.673-2.402-5.123-2.402c-0.68,0-0.998,0.137-1.541,0.635
			c2.855,0.408,4.396,1.088,6.074,2.674c0.816,0.771,2.176,2.539,3.219,4.217c0.951,1.451,1.314,2.674,1.314,4.262
			c0,5.666-4.715,9.609-11.469,9.609c-3.265,0-6.483-0.861-10.064-2.719l-3.219-4.309l2.9-6.799
			c2.449,1.857,4.715,2.854,6.574,2.854c0.725,0,0.816,0,1.27-0.229c-2.766-0.77-3.264-0.996-4.08-1.586
			c-3.627-2.721-5.758-6.166-5.758-9.248c0-5.258,4.76-9.383,10.881-9.383c3.219,0,5.938,0.68,9.021,2.312l2.855,3.941
			L21.945,236.161z M21.084,226.729c-2.992-1.359-5.396-1.949-8.16-1.949c-5.668,0-9.838,3.627-9.838,8.479
			c0,2.492,1.359,4.576,3.672,5.666c0.771,0.361,1.723,0.635,3.128,0.859c2.177,0.408,2.493,0.5,3.128,0.816
			c0.635,0.316,1.043,0.998,1.043,1.812c0,1.633-1.405,2.721-3.536,2.721c-1.769,0-3.399-0.59-6.075-2.221l-2.132,5.033
			c1.769,0.861,2.584,1.18,3.491,1.496c1.723,0.545,3.763,0.861,5.622,0.861c6.165,0,10.518-3.49,10.518-8.389
			c0-2.086-0.953-4.033-2.449-5.076c-1.178-0.861-2.765-1.449-5.304-1.949c-1.587-0.316-1.995-0.453-2.538-0.814
			c-0.545-0.408-0.861-0.998-0.861-1.77c0-1.359,1.314-2.312,3.173-2.312c1.542,0,3.354,0.543,5.168,1.586L21.084,226.729z"/>
		<path fill="#FFFFFF" d="M33.328,235.206h-2.312l-2.9-3.672v-7.207h19.811l3.264,3.988v6.893h-5.032v19.355h-9.701l-3.128-3.807
			v-15.551H33.328L33.328,235.206z M42.078,249.713v-18.588h5.303v-5.758H29.157v5.758h5.214v18.588H42.078z"/>
		<path fill="#FFFFFF" d="M54.861,224.327h11.516c2.946,0,5.666,0.545,7.162,1.496c1.724,1.043,4.263,3.762,5.804,6.348
			c0.86,1.404,1.45,3.354,1.45,4.852c0,3.127-1.313,5.26-4.08,6.709l6.438,10.834H72.226l-3.445-4.215l-2.402-3.943v8.158h-8.342
			l-3.174-3.807L54.861,224.327L54.861,224.327z M62.297,249.713v-11.018l7.3,11.018h7.707l-6.076-10.154
			c3.672-0.906,5.485-2.945,5.485-6.211c0-2.584-1.313-5.123-3.264-6.393c-1.679-1.043-3.99-1.588-7.072-1.588H55.904v24.346H62.297
			z M62.297,230.493c1.224-0.045,1.812-0.092,2.539-0.092c1.586,0,2.447,0.137,3.127,0.545c0.816,0.545,1.406,1.678,1.406,2.855
			c0,2.086-1.542,3.264-4.171,3.264c-0.271,0-1.135-0.045-1.95-0.09h-0.315l-0.318-0.045h-0.316L62.297,230.493L62.297,230.493z
			 M65.651,236.114c1.723-0.092,2.63-0.68,2.63-1.812c0-1.041-0.771-1.586-2.177-1.586h-0.453V236.114z"/>
		<path fill="#FFFFFF" d="M85.735,224.327h17.408l3.49,4.354v5.482h-4.941l4.08,5.123v4.398h-3.082l3.943,4.984v5.895h-17.77
			l-3.129-3.809V224.327L85.735,224.327z M102.418,249.713v-5.17h-8.795v-4.67h8.069v-4.939h-8.069v-4.354h8.795v-5.213H86.776
			v24.346H102.418L102.418,249.713z"/>
		<path fill="#FFFFFF" d="M140.998,254.565h-9.248l-2.854-3.809h-6.937l-1.043,3.809h-8.479l-3.219-3.809l8.658-26.43h11.471
			l3.488,4.352L140.998,254.565z M118.603,225.37l-7.979,24.346h7.662l0.996-3.4h8.75l0.861,3.4h7.707l-7.979-24.346H118.603z
			 M126.991,242.098h-6.709l3.354-12.514L126.991,242.098z M123.636,241.192h2.086l-0.998-3.809L123.636,241.192z"/>
		<path fill="#FFFFFF" d="M145.034,224.327h10.926l3.129,3.854l1.633,5.623l2.855-9.477h10.924l3.129,3.854l3.4,26.385h-9.521
			l-3.13-3.807l-0.315-4.854l-2.945,8.658h-5.168l-3.084-3.807l-1.949-6.076l-0.951,9.883h-9.385l-3.127-3.809L145.034,224.327z
			 M150.202,249.713l1.902-17.816l5.531,17.816h4.172l5.938-17.816l1.588,17.816h7.523l-3.219-24.346h-9.248l-4.623,15.232
			l-4.578-15.232h-9.248l-3.219,24.346H150.202z"/>
	</g>
	<rect y="319.186" fill="#FFFFFF" width="180" height="4"/>
	<g>
		<path fill="#FFFFFF" d="M177.748,262.713v-0.195h-0.181l-0.1-0.107l-2.572,0.107H0.833v7.334l-0.084,0.004l0.084,0.1v0.16h0.135
			l1.78,2.111h177.668v-6.598L177.748,262.713z M1.833,263.518h174.916v5.598H1.833V263.518z"/>
	</g>
	<g>
		<path fill="#FFFFFF" d="M17.952,300.346c0.201-1.484-0.481-2.25-1.768-2.25H15.38l0.562-3.775c0,0,4.54,0.08,7.111,0.08
			c2.571,0,7.071-0.08,7.071-0.08l-0.562,3.775h-0.724c-1.165,0-1.486,0.604-1.688,2.131c-0.321,2.129-0.764,5.984-0.683,9.24
			c-1.567-0.121-4.942-0.121-6.509,0c0,0-0.361-1.326-0.764-2.936c-1.808,2.291-4.82,3.939-8.959,3.939
			c-5.906,0-11.691-3.256-9.844-14.906c1.567-9.803,6.75-14.625,14.304-14.625c3.374,0,5.103,0.443,6.87,1.607
			c1.365,0.885,2.611,0.521,2.973-1.205c0.844,0.08,3.054,0.08,3.897,0c-1.085,2.17-1.849,7.994-2.169,11.17
			c0,0-2.05-0.082-3.215-0.082c-1.165,0-3.615,0.041-3.615,0.041c0.964-4.02-0.604-5.504-2.854-5.504
			c-2.691,0-3.938,1.203-5.062,8.598c-1.125,7.594,0.242,8.678,2.492,8.678C15.822,304.245,17.39,304.042,17.952,300.346z"/>
		<path fill="#FFFFFF" d="M57.767,305.206c0.884,0,0.884-2.33,0.562-3.654l2.411-0.199c0.521,4.66-1.487,9.16-7.554,9.16
			c-6.268,0-7.474-2.855-7.071-7.111c0.361-4.219-0.562-5.424-3.254-5.545c-0.241,1.85-0.482,3.414-0.482,3.979
			c-0.08,1.688,0.522,2.371,1.969,2.371h0.844c-0.281,1.244-0.684,4.098-0.804,5.342c0,0-5.183-0.078-8.075-0.078
			s-7.714,0.078-7.714,0.078c0.281-1.283,0.643-4.057,0.763-5.342h0.643c1.406,0,1.729-0.402,2.211-2.332
			c0.401-1.646,1.888-10.928,1.969-12.494c0.08-1.566-0.201-2.369-1.688-2.369h-0.764c0.281-1.246,0.643-3.979,0.764-5.225
			c0.643,0,8.035,0.08,8.798,0.08h7.393c8.879,0,11.731,2.732,11.37,7.475c-0.321,4.098-3.415,6.227-6.951,7.109
			c2.854,0.805,3.697,3.055,3.777,5.945C56.923,304.286,57.164,305.206,57.767,305.206z M43.344,294.602h1.688
			c2.691,0,3.695-1.406,4.057-3.98c0.322-2.088-0.2-3.613-2.169-3.613h-0.442c-1.205,0-1.727,0.645-2.049,1.645
			C44.268,289.137,43.785,291.788,43.344,294.602z"/>
		<path fill="#FFFFFF" d="M61.864,295.565c1.566-10.324,8.035-14.623,17.275-14.623c9.924,0,14.143,5.184,12.735,14.584
			c-1.606,10.889-8.718,14.945-17.194,14.945C66.123,310.471,60.418,305.53,61.864,295.565z M80.347,295.526
			c1.084-6.869,0.603-8.559-2.05-8.559c-2.772,0-3.856,1.688-4.901,8.598c-1.004,6.83-0.441,8.922,2.09,8.922
			C78.337,304.487,79.343,302.356,80.347,295.526z"/>
		<path fill="#FFFFFF" d="M96.215,289.377c0.08-1.566-0.321-2.369-1.768-2.369h-0.685c0.279-1.246,0.644-3.98,0.764-5.225
			c0,0,5.546,0.08,8.56,0.08c3.013,0,7.754-0.08,8.396-0.08c-0.279,1.244-0.685,3.979-0.803,5.225h-1.287
			c-1.443,0-2.369,0.803-2.73,2.369s-0.844,5.465-1.365,9.4c-0.521,3.939,0.439,5.424,3.174,5.424c2.732,0,4.18-1.484,4.902-5.424
			c0.723-3.938,1.285-7.834,1.404-9.4s-0.521-2.369-1.969-2.369h-1.086c0.28-1.246,0.645-3.98,0.766-5.225
			c0,0,4.258,0.08,6.629,0.08s5.945-0.08,6.59-0.08c-0.281,1.244-0.645,3.979-0.766,5.225h-0.764c-1.445,0-2.089,0.803-2.451,2.369
			c-0.359,1.566-1.004,6.949-1.443,9.764c-1.326,8.479-6.551,11.33-14.021,11.33c-8.479,0-12.938-2.531-11.49-11.33
			C95.05,297.413,96.136,290.946,96.215,289.377z"/>
		<path fill="#FFFFFF" d="M137.075,300.747c-0.041,0.441-0.08,0.846-0.08,1.045c-0.082,1.729,0.48,2.41,1.928,2.41h1.969
			c-0.281,1.246-0.643,4.1-0.764,5.346c0,0-5.504-0.08-8.639-0.08s-8.396,0.08-8.396,0.08c0.281-1.285,0.684-4.061,0.805-5.346
			h0.724c1.446,0,1.646-0.52,2.129-2.41c0.562-2.17,1.931-11.369,1.97-12.814c0.041-1.445-0.481-1.969-1.646-1.969h-0.806
			c0.279-1.246,0.644-4.02,0.765-5.266c1.004,0.08,5.185,0.121,8.478,0.121h7.434c7.553,0,11.169,2.49,10.486,9.361
			c-0.685,6.91-5.265,9.682-13.259,9.682C138.961,300.911,137.877,300.827,137.075,300.747z M137.597,296.852h1.004
			c2.53,0,3.735-1.406,4.299-5.266c0.604-3.977-0.521-4.578-1.769-4.578h-0.481c-0.883,0-1.404,0.439-1.605,1.164
			C138.802,289.016,138.079,293.276,137.597,296.852z"/>
		<path fill="#FFFFFF" d="M163.147,287.811c-0.162,1.246,0.562,2.01,5.062,2.051c9.279,0.08,12.414,5.143,11.328,11.609
			c-0.924,5.586-5.785,9-12.733,9c-2.812,0-5.746-0.686-8.355-2.25c-1.205-0.725-1.971-0.4-2.492,1.246
			c-0.844-0.08-3.375-0.08-4.18,0c1.086-2.172,1.729-6.35,1.891-9c0.885,0.08,3.135,0.08,4.018,0
			c0.482,2.973,3.095,4.859,8.56,4.859c3.896,0,5.224-0.965,5.303-2.17c0.08-1.244-0.643-1.969-5.143-2.008
			c-7.955-0.08-12.334-4.861-11.209-11.371c1.125-6.508,6.307-8.838,12.534-8.838c3.414,0,5.865,1.084,7.109,1.688
			c1.646,0.805,2.332,0.361,2.854-1.285c0.845,0.08,3.056,0.08,3.896,0c-1.125,2.17-1.605,4.98-1.848,8.477
			c-0.885-0.08-2.691-0.08-3.576,0c-0.924-2.008-3.775-4.137-7.754-4.137C164.554,285.682,163.31,286.606,163.147,287.811z"/>
	</g>
	<g>
		<path fill="#FFFFFF" d="M45.242,333.428v28.521c0,14.068-8.824,20.465-22.318,20.465c-13.492,0-22.318-6.396-22.318-20.465
			v-28.521h17.523v26.859c0,3.771,0.127,7.098,4.795,7.098c4.669,0,4.797-3.324,4.797-7.098v-26.859H45.242z"/>
		<path fill="#FFFFFF" d="M55.853,364.379l0.896,0.705c3.134,2.43,6.907,4.412,10.936,4.412c1.728,0,4.478-0.703,4.478-2.881
			c0-2.174-2.302-2.363-3.901-2.686l-3.518-0.639c-6.842-1.217-12.598-5.244-12.598-12.791c0-11.447,10.424-17.844,20.913-17.844
			c5.5,0,10.551,1.346,15.282,4.223l-4.731,12.342c-3.006-2.045-6.396-3.645-10.168-3.645c-1.534,0-3.772,0.574-3.772,2.559
			c0,1.791,2.175,2.047,3.517,2.365l3.965,0.896c7.42,1.662,12.791,5.627,12.791,13.812c0,11.512-10.487,17.203-20.911,17.203
			c-6.075,0-13.109-1.664-18.545-4.414L55.853,364.379z"/>
		<path fill="#FFFFFF" d="M95.116,333.428h32.422v13.174h-14.771v4.605h13.494v12.531h-13.494v4.732h15.283v13.174H95.116V333.428
			L95.116,333.428z"/>
		<path fill="#FFFFFF" d="M135.272,333.428h21.166c10.871,0,20.08,4.604,20.08,16.756c0,7.289-2.812,10.359-9.336,12.533v0.385
			c0.896,0.703,1.981,1.471,2.94,2.877l10.487,15.668h-20.206l-7.675-15.477h-0.319v15.477h-17.14v-48.219H135.272z
			 M152.411,354.788h1.215c2.879,0,5.756-0.447,5.756-4.029c0-3.709-2.621-4.156-5.627-4.156h-1.344V354.788z"/>
	</g>
	<g>
		<path fill="#FFFFFF" d="M0.69,389.168h7.379c3.79,0,7,1.604,7,5.842c0,2.541-0.981,3.611-3.255,4.369v0.133
			c0.312,0.246,0.691,0.514,1.025,1.004l3.656,5.461H9.45l-2.675-5.395H6.664v5.395H0.689L0.69,389.168L0.69,389.168z
			 M6.665,396.614h0.423c1.004,0,2.007-0.154,2.007-1.402c0-1.293-0.914-1.449-1.962-1.449H6.665V396.614z"/>
		<path fill="#FFFFFF" d="M17.476,389.168h11.303v4.592h-5.15v1.604h4.704v4.369h-4.704v1.65h5.328v4.592h-11.48L17.476,389.168
			L17.476,389.168z"/>
		<path fill="#FFFFFF" d="M49.242,396.079c-0.045,2.74-0.045,5.037-2.028,7.18c-1.783,1.938-4.525,2.984-7.134,2.984
			c-5.127,0-9.273-3.164-9.273-8.561c0-5.484,4.035-8.783,9.318-8.783c2.92,0,6.933,1.449,8.248,4.324l-5.707,2.096
			c-0.469-0.846-1.338-1.293-2.318-1.293c-2.185,0-3.389,1.873-3.389,3.902c0,1.85,1.159,3.588,3.144,3.588
			c0.958,0,2.185-0.445,2.475-1.471h-2.765v-3.971L49.242,396.079L49.242,396.079z"/>
		<path fill="#FFFFFF" d="M51.382,389.168h6.108v16.809h-6.108V389.168z"/>
		<path fill="#FFFFFF" d="M61.324,399.958l0.312,0.244c1.094,0.85,2.407,1.539,3.812,1.539c0.602,0,1.561-0.244,1.561-1.004
			c0-0.758-0.803-0.822-1.359-0.936l-1.228-0.227c-2.385-0.422-4.391-1.826-4.391-4.457c0-3.99,3.633-6.221,7.288-6.221
			c1.919,0,3.68,0.469,5.328,1.473l-1.648,4.303c-1.048-0.713-2.229-1.271-3.544-1.271c-0.535,0-1.315,0.201-1.315,0.895
			c0,0.623,0.758,0.713,1.227,0.822l1.383,0.312c2.586,0.58,4.458,1.963,4.458,4.816c0,4.012-3.655,5.996-7.29,5.996
			c-2.117,0-4.57-0.58-6.465-1.537L61.324,399.958z"/>
		<path fill="#FFFFFF" d="M73.94,389.168h12.841v5.461l-3.366-0.154v11.502h-6.107v-11.502l-3.365,0.154L73.94,389.168
			L73.94,389.168z"/>
		<path fill="#FFFFFF" d="M88.388,389.168h7.379c3.789,0,7,1.604,7,5.842c0,2.541-0.98,3.611-3.256,4.369v0.133
			c0.312,0.246,0.69,0.514,1.024,1.004l3.655,5.461h-7.045l-2.674-5.395H94.36v5.395h-5.975L88.388,389.168L88.388,389.168z
			 M94.36,396.614h0.424c1.004,0,2.008-0.154,2.008-1.402c0-1.293-0.914-1.449-1.963-1.449H94.36V396.614z"/>
		<path fill="#FFFFFF" d="M110.209,405.977h-6.465l5.842-16.809h6.754l5.996,16.809h-6.465l-0.558-2.096h-4.614L110.209,405.977z
			 M114.245,399.891l-0.713-2.965c-0.18-0.713-0.289-1.449-0.402-2.162h-0.223l-1.113,5.127H114.245z"/>
		<path fill="#FFFFFF" d="M120.668,389.168h12.843v5.461l-3.367-0.154v11.502h-6.107v-11.502l-3.367,0.154L120.668,389.168
			L120.668,389.168z"/>
		<path fill="#FFFFFF" d="M135.159,389.168h6.105v16.809h-6.105V389.168z"/>
		<path fill="#FFFFFF" d="M162.088,397.618c0,5.396-4.17,8.629-9.297,8.629s-9.297-3.232-9.297-8.629
			c0-5.281,4.19-8.717,9.297-8.717S162.088,392.334,162.088,397.618z M149.647,397.708c0,1.916,1.293,3.23,3.145,3.23
			s3.145-1.314,3.145-3.23c0-1.783-1.205-3.277-3.145-3.277C150.851,394.43,149.647,395.924,149.647,397.708z"/>
		<path fill="#FFFFFF" d="M164.161,389.168h5.861l5.483,9.316h0.179c-0.246-1.402-0.515-2.854-0.515-4.277v-5.039h5.843v16.809
			h-5.843l-5.371-8.828h-0.18c0.201,1.16,0.379,2.252,0.379,3.367v5.461h-5.84v-16.809H164.161z"/>
	</g>
	<g>
		<path fill="#FFFFFF" d="M0.769,413.135h21.207v9.07h-9.617v3.273H20.8v8.23h-8.441v11.086H0.769V413.135z"/>
		<path fill="#FFFFFF" d="M55.195,413.135v18.729c0,9.238-5.795,13.438-14.655,13.438s-14.655-4.199-14.655-13.438v-18.729h11.506
			v17.637c0,2.479,0.084,4.66,3.149,4.66s3.149-2.184,3.149-4.66v-17.637H55.195L55.195,413.135z"/>
		<path fill="#FFFFFF" d="M60.113,413.135h11.044l10.33,17.553h0.336c-0.463-2.646-0.967-5.375-0.967-8.062v-9.49h11.002v31.662
			H80.856l-10.119-16.629h-0.336c0.378,2.184,0.714,4.24,0.714,6.342v10.287H60.113V413.135z"/>
		<path fill="#FFFFFF" d="M96.735,413.135h11.045l10.33,17.553h0.336c-0.463-2.646-0.967-5.375-0.967-8.062v-9.49h11.002v31.662
			h-11.002l-10.119-16.629h-0.336c0.377,2.184,0.715,4.24,0.715,6.342v10.287H96.735V413.135z"/>
		<path fill="#FFFFFF" d="M133.358,413.135h21.289v8.648h-9.697v3.023h8.857v8.23h-8.857v3.105h10.033v8.65h-21.625V413.135z"/>
		<path fill="#FFFFFF" d="M159.733,413.135h11.508v21.5h9.656v10.162h-21.164V413.135z"/>
	</g>
</g>
</svg>
