<?xml version="1.0" encoding="utf-8"?>
<!-- Generator: Adobe Illustrator 14.0.0, SVG Export Plug-In . SVG Version: 6.00 Build 43363)  -->
<!DOCTYPE svg PUBLIC "-//W3C//DTD SVG 1.1//EN" "http://www.w3.org/Graphics/SVG/1.1/DTD/svg11.dtd">
<svg version="1.1" id="Layer_1" xmlns="http://www.w3.org/2000/svg" xmlns:xlink="http://www.w3.org/1999/xlink" x="0px" y="0px"
	 width="194.166px" height="383.375px" viewBox="17.25 118 194.166 383.375" enable-background="new 17.25 118 194.166 383.375"
	 xml:space="preserve">
<g id="Layer_2" display="none">
	<rect display="inline" width="235.043" height="600"/>
</g>
<g id="Layer_1_1_">
	<g>
		<path fill="#FFFFFF" d="M52.718,145.7v-10.548c0-7.626-5.114-7.329-5.114-7.329h-5.022h-1.369h-5.022c0,0-5.113-0.297-5.113,7.329
			V145.7c-0.003,0.035-0.006,0.068-0.006,0.104c0,0.871,0.707,1.579,1.579,1.579s1.58-0.708,1.58-1.579
			c0-0.028-0.003-0.056-0.005-0.083h0.005l0.042-11.847l2.088-0.001v33.161c-0.002,0.036-0.005,0.07-0.005,0.105
			c0,1.275,1.031,2.306,2.304,2.306c1.254,0,2.271-1.002,2.301-2.247h0.002v-0.056l0.001-0.003h-0.001v-19.288h0.251h1.369h0.251
			v19.288l0,0v0.003v0.056h0.002c0.031,1.245,1.048,2.247,2.301,2.247c1.273,0,2.305-1.03,2.305-2.306
			c0-0.035-0.004-0.069-0.006-0.105v-33.161l2.088,0.001l0.043,11.847h0.004c-0.001,0.027-0.004,0.055-0.004,0.083
			c0,0.871,0.707,1.579,1.579,1.579s1.579-0.708,1.579-1.579C52.723,145.769,52.72,145.735,52.718,145.7z"/>
		<circle fill="#FFFFFF" cx="41.897" cy="122.838" r="4.091"/>
	</g>
	<g>
		<path fill="#FFFFFF" d="M78.883,145.7v-10.548c0-7.626-5.114-7.329-5.114-7.329h-5.022h-1.369h-5.023c0,0-5.113-0.297-5.113,7.329
			V145.7c-0.002,0.035-0.005,0.068-0.005,0.104c0,0.871,0.707,1.579,1.579,1.579c0.873,0,1.58-0.708,1.58-1.579
			c0-0.028-0.003-0.056-0.005-0.083h0.005l0.043-11.847l2.088-0.001l-0.002,33.161c-0.001,0.036-0.004,0.07-0.004,0.105
			c0,1.275,1.031,2.306,2.303,2.306c1.254,0,2.271-1.002,2.301-2.247h0.003v-0.056l0.001-0.003h-0.001v-19.288h0.251h1.369h0.25
			v19.288l0,0v0.003v0.056h0.003c0.031,1.245,1.048,2.247,2.301,2.247c1.272,0,2.304-1.03,2.304-2.306
			c0-0.035-0.004-0.069-0.006-0.105v-33.161l2.089,0.001l0.043,11.847h0.003c0,0.027-0.003,0.055-0.003,0.083
			c0,0.871,0.707,1.579,1.579,1.579c0.873,0,1.578-0.708,1.578-1.579C78.887,145.769,78.885,145.735,78.883,145.7z"/>
		<circle fill="#FFFFFF" cx="68.062" cy="122.838" r="4.091"/>
	</g>
	<g>
		<path fill="#FFFFFF" d="M105.047,145.7v-10.548c0-7.626-5.113-7.329-5.113-7.329h-5.022h-1.37H88.52c0,0-5.113-0.297-5.113,7.329
			V145.7c-0.003,0.035-0.006,0.068-0.006,0.104c0,0.871,0.707,1.579,1.578,1.579c0.873,0,1.58-0.708,1.58-1.579
			c0-0.028-0.002-0.056-0.004-0.083h0.004l0.043-11.847l2.088-0.001v33.161c-0.002,0.036-0.006,0.07-0.006,0.105
			c0,1.275,1.032,2.306,2.305,2.306c1.254,0,2.27-1.002,2.301-2.247h0.002v-0.056l0.001-0.003h-0.001v-19.288h0.25h1.37h0.25v19.288
			l0,0v0.003v0.056h0.003c0.031,1.245,1.048,2.247,2.301,2.247c1.273,0,2.304-1.03,2.304-2.306c0-0.035-0.003-0.069-0.005-0.105
			v-33.161l2.088,0.001l0.043,11.847h0.003c0,0.027-0.003,0.055-0.003,0.083c0,0.871,0.707,1.579,1.578,1.579
			c0.873,0,1.579-0.708,1.579-1.579C105.052,145.769,105.05,145.735,105.047,145.7z"/>
		<circle fill="#FFFFFF" cx="94.227" cy="122.838" r="4.09"/>
	</g>
	<g>
		<path fill="#FFFFFF" d="M131.213,145.7v-10.548c0-7.626-5.115-7.329-5.115-7.329h-5.021h-1.369h-5.022
			c0,0-5.113-0.297-5.113,7.329V145.7c-0.002,0.035-0.005,0.068-0.005,0.104c0,0.871,0.707,1.579,1.579,1.579
			c0.873,0,1.58-0.708,1.58-1.579c0-0.028-0.004-0.056-0.005-0.083h0.005l0.042-11.847l2.088-0.001l-0.001,33.161
			c-0.001,0.036-0.005,0.07-0.005,0.105c0,1.275,1.032,2.306,2.304,2.306c1.255,0,2.271-1.002,2.302-2.247h0.002v-0.056l0.002-0.003
			h-0.002v-19.288h0.252h1.369h0.25v19.288l0,0v0.003v0.056h0.002c0.03,1.245,1.049,2.247,2.301,2.247
			c1.272,0,2.305-1.03,2.305-2.306c0-0.035-0.004-0.069-0.006-0.105v-33.161l2.088,0.001l0.043,11.847h0.004
			c0,0.027-0.004,0.055-0.004,0.083c0,0.871,0.707,1.579,1.579,1.579c0.873,0,1.579-0.708,1.579-1.579
			C131.217,145.769,131.215,145.735,131.213,145.7z"/>
		<circle fill="#FFFFFF" cx="120.392" cy="122.838" r="4.091"/>
	</g>
	<g>
		<path fill="#FFFFFF" d="M150.27,118.506h4.669v44.222c0,5.66-4.245,7.288-8.278,7.288c-3.891,0-8.137-1.628-8.137-7.288v-44.222
			h4.67v42.736c0,3.679,1.203,4.811,3.537,4.811c2.406,0,3.539-1.132,3.539-4.811V118.506L150.27,118.506z"/>
		<path fill="#FFFFFF" d="M169.372,125.511c0-1.98-0.494-3.467-2.688-3.467s-2.688,1.485-2.688,3.467v5.377
			c0,1.628,0.282,3.255,1.062,4.6l7.429,12.735c1.062,1.769,1.699,3.963,1.699,6.227v8.066c0,4.812-2.83,7.5-7.5,7.5
			c-5.166,0-7.643-2.335-7.643-7.5v-7.005h4.67v6.722c0,2.405,0.92,3.82,2.973,3.82c1.91,0,2.83-1.415,2.83-3.82v-7.146
			c0-1.769-0.354-3.113-1.346-4.882l-6.862-11.958c-1.272-2.193-1.981-3.892-1.981-6.509v-6.156c0-5.023,2.618-7.5,7.359-7.5
			c5.234,0,7.357,2.477,7.357,7.146v6.51h-4.67V125.511L169.372,125.511z"/>
		<path fill="#FFFFFF" d="M178.286,118.506h12.383v3.962h-7.713v18.608h7.358v3.963h-7.358v20.59h7.713v3.962h-12.383V118.506z"/>
		<path fill="#FFFFFF" d="M206.303,148.152c0-2.477-1.485-3.113-3.68-3.113h-3.113v24.552h-4.67v-51.085h8.703
			c4.459,0,7.217,0.778,7.217,5.872v12.948c0,3.963-1.484,5.307-5.094,5.52v0.142c3.326,0.212,5.307,1.202,5.307,4.74v21.863h-4.67
			V148.152z M202.624,141.076c2.193,0,3.467-0.637,3.467-3.679v-11.463c0-2.972-1.557-3.467-3.961-3.467h-2.619v18.608
			L202.624,141.076L202.624,141.076z"/>
	</g>
	<g>
		<path fill="#FFFFFF" d="M34.814,192.807h4.766v13.533c-1.402,0.561-2.803,0.881-4.164,0.881c-3.645,0-4.965-1.762-4.965-5.085
			v-19.739c0-3.003,1.682-4.564,4.564-4.564c2.882,0,4.564,1.562,4.564,4.564v3.243h-2.643v-2.883c0-1.602-0.4-2.683-1.922-2.683
			s-1.922,1.081-1.922,2.683v19.339c0,2.362,1.16,2.883,2.082,2.883c0.721,0,1.4-0.16,1.762-0.4v-9.529h-2.123L34.814,192.807
			L34.814,192.807z"/>
		<path fill="#FFFFFF" d="M42.663,178.072h7.007v2.242h-4.364v10.53h4.164v2.242h-4.164v11.651h4.364v2.242h-7.007V178.072z"/>
		<path fill="#FFFFFF" d="M59.079,178.072h2.322v28.908h-3.764l-3.323-25.705h-0.08v25.705h-2.322v-28.908h3.844l3.243,24.744h0.08
			V178.072z"/>
		<path fill="#FFFFFF" d="M64.365,178.072h7.006v2.242h-4.363v10.53h4.164v2.242h-4.164v11.651h4.363v2.242h-7.006V178.072z"/>
		<path fill="#FFFFFF" d="M80.221,194.849c0-1.401-0.842-1.762-2.082-1.762h-1.762v13.894h-2.643v-28.908h4.924
			c2.523,0,4.084,0.44,4.084,3.323v7.327c0,2.242-0.84,3.003-2.883,3.123v0.08c1.883,0.12,3.004,0.681,3.004,2.683v12.372H80.22
			L80.221,194.849L80.221,194.849z M78.139,190.845c1.24,0,1.961-0.36,1.961-2.082v-6.486c0-1.682-0.881-1.962-2.242-1.962h-1.48
			v10.53H78.139z"/>
		<path fill="#FFFFFF" d="M92.993,198.973h-4.645l-1.081,8.008h-2.643l4.244-28.908h3.604l4.244,28.908h-2.643L92.993,198.973z
			 M90.711,180.074h-0.08l-2.002,16.656h4.084L90.711,180.074z"/>
		<path fill="#FFFFFF" d="M99.086,180.314h-2.963v-2.242h8.568v2.242h-2.963v26.666h-2.643L99.086,180.314L99.086,180.314z"/>
		<path fill="#FFFFFF" d="M106.654,178.072h7.006v2.242h-4.363v10.53h4.164v2.242h-4.164v11.651h4.363v2.242h-7.006V178.072z"/>
		<path fill="#FFFFFF" d="M116.144,178.072h4.524c3.604,0,4.483,1.842,4.483,4.685v19.539c0,2.843-0.881,4.685-4.483,4.685h-4.524
			V178.072z M120.188,204.738c1.762,0,2.322-0.562,2.322-2.242v-19.939c0-1.682-0.561-2.242-2.322-2.242h-1.4v24.424
			L120.188,204.738L120.188,204.738z"/>
		<path fill="#FFFFFF" d="M137.965,182.036c0-1.121-0.28-1.962-1.521-1.962c-1.24,0-1.521,0.841-1.521,1.962v3.043
			c0,0.921,0.16,1.842,0.602,2.603l4.204,7.207c0.601,1.001,0.961,2.242,0.961,3.523v4.564c0,2.723-1.603,4.244-4.244,4.244
			c-2.923,0-4.323-1.321-4.323-4.244v-3.964h2.643v3.804c0,1.361,0.521,2.162,1.682,2.162c1.081,0,1.602-0.801,1.602-2.162v-4.044
			c0-1.001-0.199-1.762-0.76-2.763l-3.885-6.767c-0.721-1.241-1.121-2.202-1.121-3.684v-3.483c0-2.843,1.481-4.244,4.164-4.244
			c2.963,0,4.164,1.401,4.164,4.044v3.684h-2.643v-3.523H137.965z"/>
		<path fill="#FFFFFF" d="M144.852,180.314h-2.963v-2.242h8.568v2.242h-2.963v26.666h-2.644L144.852,180.314L144.852,180.314z"/>
		<path fill="#FFFFFF" d="M158.907,194.849c0-1.401-0.842-1.762-2.082-1.762h-1.763v13.894h-2.644v-28.908h4.926
			c2.521,0,4.084,0.44,4.084,3.323v7.327c0,2.242-0.842,3.003-2.883,3.123v0.08c1.882,0.12,3.002,0.681,3.002,2.683v12.372h-2.643
			v-12.132H158.907z M156.825,190.845c1.24,0,1.961-0.36,1.961-2.082v-6.486c0-1.682-0.881-1.962-2.242-1.962h-1.48v10.53H156.825z"
			/>
		<path fill="#FFFFFF" d="M164.752,178.072h7.008v2.242h-4.365v10.53h4.164v2.242h-4.164v11.651h4.365v2.242h-7.008V178.072z"/>
		<path fill="#FFFFFF" d="M181.049,198.973h-4.646l-1.082,8.008h-2.643l4.243-28.908h3.604l4.244,28.908h-2.644L181.049,198.973z
			 M178.766,180.074h-0.08l-2.002,16.656h4.084L178.766,180.074z"/>
		<path fill="#FFFFFF" d="M196.264,178.072h4.084v28.908h-2.322v-26.666h-0.08l-3.043,26.666h-3.283l-3.043-26.666h-0.08v26.666
			h-2.322v-28.908h4.084l2.964,25.865h0.079L196.264,178.072z"/>
		<path fill="#FFFFFF" d="M208.275,182.036c0-1.121-0.278-1.962-1.521-1.962c-1.24,0-1.521,0.841-1.521,1.962v3.043
			c0,0.921,0.16,1.842,0.602,2.603l4.203,7.207c0.603,1.001,0.961,2.242,0.961,3.523v4.564c0,2.723-1.602,4.244-4.244,4.244
			c-2.922,0-4.323-1.321-4.323-4.244v-3.964h2.644v3.804c0,1.361,0.521,2.162,1.682,2.162c1.082,0,1.602-0.801,1.602-2.162v-4.044
			c0-1.001-0.199-1.762-0.76-2.763l-3.885-6.767c-0.721-1.241-1.121-2.202-1.121-3.684v-3.483c0-2.843,1.482-4.244,4.164-4.244
			c2.963,0,4.164,1.401,4.164,4.044v3.684h-2.644v-3.523H208.275z"/>
	</g>
	<rect x="30.42" y="216.087" fill="#FFFFFF" width="180" height="4"/>
	<g>
		<path fill="#FFFFFF" d="M36.471,230.303c5.156-0.119,5.988,4.481,5.988,7.733l-4.203,0.396c0-1.943-0.277-4.203-1.705-4.203
			c-1.111,0.039-1.468,1.229-1.468,2.895c0,1.983,1.706,4.204,3.371,6.623c1.983,2.975,4.005,5.869,4.005,9.002
			c0,3.887-1.269,7.337-5.948,7.337c-5.513,0-6.226-4.164-6.226-8.487l4.203-0.396c0,2.42,0.238,4.958,2.022,4.958
			c1.269,0,1.745-1.389,1.745-3.213c0-1.943-1.824-4.283-3.45-6.741c-2.022-2.975-3.927-5.949-3.927-9.082
			C30.879,233.951,32.426,230.382,36.471,230.303z"/>
		<path fill="#FFFFFF" d="M50.191,260.086c-5.751,0-5.711-6.306-5.711-6.306v-17.172c0,0-0.04-6.306,5.711-6.306
			c5.75,0,5.71,6.306,5.71,6.306v17.172C55.901,253.78,55.941,260.086,50.191,260.086z M50.191,234.467
			c-1.508,0-1.428,2.142-1.428,2.142v17.172c0,0-0.08,2.142,1.428,2.142c1.506,0,1.428-2.142,1.428-2.142v-17.172
			C51.619,236.608,51.697,234.467,50.191,234.467z"/>
		<path fill="#FFFFFF" d="M69.938,249.774v4.006c0,0,0.04,6.306-5.71,6.306c-5.751,0-5.711-6.306-5.711-6.306v-17.172
			c0,0-0.04-6.306,5.711-6.306c5.75,0,5.71,6.306,5.71,6.306v4.006h-4.005v-4.006c0,0,0.159-2.142-1.626-2.142
			c-1.507,0-1.507,2.142-1.507,2.142v17.172c0,0,0,2.142,1.507,2.142c1.785,0,1.626-2.142,1.626-2.142v-4.006H69.938z"/>
		<path fill="#FFFFFF" d="M72.514,230.62h4.283v29.148h-4.283V230.62z"/>
		<path fill="#FFFFFF" d="M78.778,259.769l4.401-29.148h5.235l4.402,29.148h-4.164l-0.794-5.948h-4.123l-0.794,5.948H78.778z
			 M86.035,240.099l-0.118-0.754h-0.238l-0.118,0.754l-1.23,9.2h2.936L86.035,240.099z"/>
		<path fill="#FFFFFF" d="M94.798,230.62h4.282v25.183h5.672v3.966h-9.954V230.62z"/>
		<path fill="#FFFFFF" d="M117.917,230.303c5.154-0.119,5.987,4.481,5.987,7.733l-4.204,0.396c0-1.943-0.277-4.203-1.705-4.203
			c-1.11,0.039-1.468,1.229-1.468,2.895c0,1.983,1.705,4.204,3.371,6.623c1.981,2.975,4.006,5.869,4.006,9.002
			c0,3.887-1.271,7.337-5.948,7.337c-5.513,0-6.228-4.164-6.228-8.487l4.204-0.396c0,2.42,0.237,4.958,2.021,4.958
			c1.271,0,1.746-1.389,1.746-3.213c0-1.943-1.824-4.283-3.451-6.741c-2.022-2.975-3.926-5.949-3.926-9.082
			C112.324,233.951,113.871,230.382,117.917,230.303z"/>
		<path fill="#FFFFFF" d="M124.695,235.022v-4.402h12.373v4.402h-4.045v24.746h-4.282v-24.746H124.695z"/>
		<path fill="#FFFFFF" d="M146.386,259.769l-2.222-12.294h-1.149v12.294h-4.282V230.62h4.282c5.075,0,7.298,2.935,7.298,8.407
			c0,2.896-0.754,5.513-2.38,6.623l2.735,14.118L146.386,259.769L146.386,259.769z M143.015,234.863v8.646
			c1.19,0,3.173-0.158,3.173-4.322S144.206,234.863,143.015,234.863z"/>
		<path fill="#FFFFFF" d="M153.047,230.62h9.795v4.402h-5.514v7.653h3.967v4.68h-3.967v8.011h5.514v4.402h-9.795V230.62z"/>
		<path fill="#FFFFFF" d="M164.107,259.769l4.401-29.148h5.234l4.402,29.148h-4.164l-0.794-5.948h-4.124l-0.793,5.948H164.107z
			 M171.364,240.099l-0.117-0.754h-0.238l-0.119,0.754l-1.229,9.2h2.935L171.364,240.099z"/>
		<path fill="#FFFFFF" d="M187.226,259.769l-2.735-18.322l-0.16-1.229h-0.236v1.229v18.322h-3.967V230.62h5.234l2.539,13.325
			l0.197,1.547h0.08l0.197-1.547l2.539-13.325h5.233v29.148h-3.966v-18.322v-1.229h-0.237l-0.159,1.229l-2.736,18.322
			L187.226,259.769L187.226,259.769z"/>
		<path fill="#FFFFFF" d="M204.633,230.303c5.154-0.119,5.988,4.481,5.988,7.733l-4.205,0.396c0-1.943-0.277-4.203-1.705-4.203
			c-1.109,0.039-1.467,1.229-1.467,2.895c0,1.983,1.705,4.204,3.371,6.623c1.981,2.975,4.006,5.869,4.006,9.002
			c0,3.887-1.271,7.337-5.949,7.337c-5.512,0-6.228-4.164-6.228-8.487l4.204-0.396c0,2.42,0.236,4.958,2.021,4.958
			c1.271,0,1.746-1.389,1.746-3.213c0-1.943-1.824-4.283-3.451-6.741c-2.021-2.975-3.926-5.949-3.926-9.082
			C199.042,233.951,200.588,230.382,204.633,230.303z"/>
	</g>
	<path fill="none" stroke="#FFFFFF" stroke-linecap="round" stroke-dasharray="5" d="M210.772,358.924
		c0,2.93-4.011,5.305-8.958,5.305H39.689c-4.947,0-8.958-2.375-8.958-5.305v-82.535c0-2.929,4.011-5.304,8.958-5.304h162.125
		c4.947,0,8.958,2.375,8.958,5.304V358.924z"/>
	<g>
		<path fill="#FFFFFF" d="M25.662,334.616l-0.631-1.064c-0.611-1.065-1.113-1.741-1.506-2.034c-0.393-0.291-0.954-0.416-1.684-0.373
			l-0.562,0.037c-0.438,0.024-0.717,0.037-0.835,0.037c-0.831,0-1.547-0.311-2.15-0.932c-0.611-0.631-0.917-1.379-0.917-2.247
			c0-0.858,0.311-1.599,0.931-2.22c0.621-0.621,1.365-0.932,2.231-0.932c1.616,0,2.702,1.055,3.259,3.164l0.138,0.479
			c0.383,1.461,1.213,2.462,2.49,3l0.575,0.918l0.562-0.862c1.343-0.677,2.239-1.832,2.687-3.467l0.192-0.671
			c0.466-1.681,1.49-2.521,3.071-2.521c0.868,0,1.605,0.303,2.214,0.91s0.912,1.354,0.912,2.24c0,0.932-0.32,1.689-0.96,2.273
			c-0.641,0.584-1.474,0.877-2.498,0.877h-0.22l-0.562-0.041c-0.146-0.026-0.292-0.041-0.439-0.041c-1.098,0-1.998,0.625-2.7,1.877
			l-0.904,1.59c-0.127-0.904-0.584-1.356-1.368-1.356C26.232,333.26,25.789,333.712,25.662,334.616z M28.357,334.616l2.6,4.21
			l-0.025,4.951l-3.942-6.887l-6.899,11.852l-0.383-0.26c-0.821-0.539-1.231-1.133-1.231-1.781c0-0.521,0.606-1.727,1.82-3.617
			l5.366-8.468c0.101,0.903,0.552,1.356,1.354,1.356C27.819,335.973,28.267,335.521,28.357,334.616z M20.502,326.245
			c-0.484,0-0.9,0.174-1.247,0.521c-0.347,0.348-0.521,0.769-0.521,1.262c0,0.492,0.171,0.91,0.514,1.254
			c0.343,0.342,0.76,0.514,1.254,0.514c0.493,0,0.913-0.174,1.26-0.521c0.348-0.348,0.521-0.763,0.521-1.246
			c0-0.493-0.174-0.914-0.521-1.262C21.415,326.419,20.995,326.245,20.502,326.245z M33.504,326.245
			c-0.484,0-0.899,0.174-1.246,0.521c-0.348,0.348-0.521,0.769-0.521,1.262c0,0.492,0.172,0.91,0.514,1.254
			c0.343,0.342,0.761,0.514,1.254,0.514c0.493,0,0.914-0.172,1.261-0.514c0.347-0.344,0.521-0.762,0.521-1.254
			c0-0.493-0.174-0.914-0.521-1.262C34.418,326.419,33.997,326.245,33.504,326.245z"/>
	</g>
	<g>
		<path fill="#FFFFFF" d="M47.385,301.975c-5.48,0-9.168-4.418-9.168-11.526c0-7.475,3.754-11.959,9.168-11.959
			c1.728,0,3.289,0.365,4.85,1.196v4.219c-1.461-0.831-2.756-1.229-3.72-1.229c-3.122,0-5.017,2.69-5.017,7.607
			c0,4.684,1.695,7.142,4.584,7.142c1.396,0,2.658-0.631,4.252-1.661v4.584C50.807,301.477,49.278,301.975,47.385,301.975z"/>
		<path fill="#FFFFFF" d="M60.605,278.887v15.348c0,2.259,0.631,3.255,2.623,3.255c1.994,0,2.592-0.996,2.592-3.255v-15.348h5.049
			v15.181c0,5.116-2.724,7.874-7.674,7.874c-4.949,0-7.706-2.757-7.706-7.874v-15.181H60.605z"/>
		<path fill="#FFFFFF" d="M74.289,295.031c1.926,1.728,3.521,2.558,4.684,2.558c1.195,0,1.927-0.764,1.927-1.927
			c0-1.528-1.03-2.491-2.425-3.92c-2.525-2.624-4.285-4.551-4.285-7.507c0-3.422,2.524-5.714,6.443-5.714
			c1.629,0,3.189,0.432,4.784,1.329v4.252c-1.96-1.097-3.521-1.595-4.617-1.595c-1.063,0-1.694,0.598-1.694,1.595
			c0,1.029,1.129,2.06,2.724,3.721c2.558,2.657,4.353,4.584,4.353,7.739c0,3.754-2.658,6.411-6.512,6.411
			c-1.926,0-3.621-0.664-5.381-1.959L74.289,295.031L74.289,295.031z"/>
		<path fill="#FFFFFF" d="M92.358,282.973H87.74v-4.086h14.352v4.086h-4.618v18.603h-5.115L92.358,282.973L92.358,282.973z"/>
		<path fill="#FFFFFF" d="M112.121,278.521c5.083,0,8.637,4.418,8.637,11.727c0,7.308-3.555,11.727-8.637,11.727
			c-5.082,0-8.67-4.484-8.67-11.727S107.039,278.521,112.121,278.521z M112.121,297.655c2.16,0,3.422-2.524,3.422-7.407
			c0-4.884-1.229-7.441-3.422-7.441c-2.158,0-3.421,2.558-3.421,7.441C108.7,295.098,109.996,297.655,112.121,297.655z"/>
		<path fill="#FFFFFF" d="M123.846,278.887h4.717l4.884,9.136l4.917-9.136h4.717v22.688h-4.916v-14.218l-4.285,8.238h-0.83
			l-4.219-8.039v14.019h-4.983L123.846,278.887L123.846,278.887z"/>
		<path fill="#FFFFFF" d="M147.196,278.887h5.149v22.688h-5.149V278.887z"/>
		<path fill="#FFFFFF" d="M162.245,282.906h-6.877v-4.021h13.918l-7.839,18.636h7.706v4.053h-14.749L162.245,282.906z"/>
		<path fill="#FFFFFF" d="M171.743,278.887h12.854v3.986h-7.772v5.116h7.143v3.919h-7.143v5.614h7.905v4.053h-12.987V278.887
			L171.743,278.887z"/>
		<path fill="#FFFFFF" d="M188.118,278.887h5.813c3.022,0,5.182,0.466,6.976,2.292c2.227,2.226,3.288,5.183,3.288,9.036
			s-1.062,6.843-3.288,9.068c-1.794,1.826-3.953,2.292-6.976,2.292h-5.813V278.887z M193.202,297.356h1.727
			c2.492,0,4.02-2.524,4.02-7.142c0-4.618-1.527-7.143-4.02-7.143h-1.727V297.356z"/>
	</g>
	<g>
		<path fill="#FFFFFF" d="M39.009,305.887h6.511c5.148,0,7.773,2.325,7.773,6.812c0,4.385-2.492,6.511-7.508,6.511h-1.693v9.367
			h-5.083V305.887z M45.055,315.354c2.259,0,3.223-0.631,3.223-2.689c0-1.96-1.03-2.824-3.189-2.824h-0.996v5.516h0.962V315.354z"/>
		<path fill="#FFFFFF" d="M57.721,305.887h5.314l5.78,22.688h-5.083l-0.93-4.685h-4.816l-0.964,4.685h-4.916L57.721,305.887z
			 M62.072,320.07l-1.694-7.84l-1.628,7.84H62.072z"/>
		<path fill="#FFFFFF" d="M70.607,305.887h6.512c5.049,0,7.706,2.26,7.706,6.312c0,2.625-1.263,4.385-3.653,5.183
			c0.93,0.632,1.594,1.894,2.191,3.82l2.293,7.374h-5.382l-1.396-5.281c-0.764-2.957-1.295-4.419-2.89-4.419
			c-0.1,0-0.232,0.033-0.332,0.033v9.667h-5.05L70.607,305.887L70.607,305.887z M76.621,314.989c2.191,0,3.121-0.599,3.121-2.525
			c0-1.858-0.996-2.624-3.088-2.624h-0.997v5.149H76.621z"/>
		<path fill="#FFFFFF" d="M91.533,305.887h5.315l5.78,22.688h-5.082l-0.931-4.685h-4.817l-0.963,4.685H85.92L91.533,305.887z
			 M95.885,320.07l-1.693-7.84l-1.628,7.84H95.885z"/>
		<path fill="#FFFFFF" d="M104.421,305.887h4.717l4.884,9.137l4.916-9.137h4.717v22.688h-4.916v-14.218l-4.285,8.238h-0.83
			l-4.219-8.039v14.019h-4.983L104.421,305.887L104.421,305.887z"/>
		<path fill="#FFFFFF" d="M127.639,305.887h12.855v3.986h-7.773v5.115h7.143v3.92h-7.143v5.613h7.906v4.054h-12.988V305.887
			L127.639,305.887z"/>
		<path fill="#FFFFFF" d="M146.938,309.973h-4.618v-4.086h14.351v4.086h-4.616v18.604h-5.115L146.938,309.973L146.938,309.973z"/>
		<path fill="#FFFFFF" d="M158.961,305.887h12.854v3.986h-7.772v5.115h7.143v3.92h-7.143v5.613h7.906v4.054h-12.988V305.887z"/>
		<path fill="#FFFFFF" d="M175.336,305.887h6.511c5.05,0,7.706,2.26,7.706,6.312c0,2.625-1.262,4.385-3.653,5.183
			c0.931,0.632,1.595,1.894,2.192,3.82l2.291,7.374h-5.381l-1.396-5.281c-0.765-2.957-1.296-4.419-2.892-4.419
			c-0.1,0-0.231,0.033-0.332,0.033v9.667h-5.049v-22.689H175.336z M181.349,314.989c2.192,0,3.122-0.599,3.122-2.525
			c0-1.858-0.996-2.624-3.09-2.624h-0.996v5.149H181.349z"/>
		<path fill="#FFFFFF" d="M192.243,322.031c1.926,1.728,3.521,2.558,4.684,2.558c1.195,0,1.928-0.764,1.928-1.927
			c0-1.528-1.029-2.491-2.426-3.92c-2.524-2.624-4.285-4.551-4.285-7.508c0-3.422,2.525-5.713,6.443-5.713
			c1.629,0,3.188,0.432,4.785,1.328v4.252c-1.961-1.097-3.521-1.595-4.619-1.595c-1.062,0-1.693,0.599-1.693,1.595
			c0,1.029,1.13,2.061,2.725,3.722c2.559,2.657,4.353,4.584,4.353,7.739c0,3.754-2.658,6.41-6.513,6.41
			c-1.926,0-3.619-0.664-5.381-1.959V322.031L192.243,322.031z"/>
	</g>
	<g>
		<path fill="#FFFFFF" d="M38.85,332.721h10.991v3.778h-6.142v4.817h5.984v3.748h-5.984v9.166h-4.85L38.85,332.721L38.85,332.721z"
			/>
		<path fill="#FFFFFF" d="M60.362,332.374c4.819,0,8.188,4.188,8.188,11.117s-3.369,11.116-8.188,11.116
			c-4.818,0-8.22-4.252-8.22-11.116C52.143,336.625,55.544,332.374,60.362,332.374z M60.362,350.516
			c2.048,0,3.244-2.396,3.244-7.023c0-4.631-1.165-7.055-3.244-7.055c-2.047,0-3.243,2.424-3.243,7.055
			C57.119,348.089,58.347,350.516,60.362,350.516z"/>
		<path fill="#FFFFFF" d="M71.482,332.721h6.174c4.787,0,7.307,2.141,7.307,5.983c0,2.487-1.197,4.157-3.465,4.913
			c0.882,0.599,1.512,1.795,2.078,3.622l2.174,6.991h-5.103l-1.322-5.008c-0.725-2.804-1.229-4.188-2.74-4.188
			c-0.095,0-0.221,0.03-0.315,0.03v9.166h-4.787L71.482,332.721L71.482,332.721z M77.184,341.35c2.078,0,2.96-0.566,2.96-2.394
			c0-1.765-0.944-2.488-2.929-2.488H76.27v4.882H77.184L77.184,341.35z"/>
		<path fill="#FFFFFF" d="M95.58,348.025c1.826,1.639,3.338,2.426,4.44,2.426c1.134,0,1.827-0.725,1.827-1.827
			c0-1.448-0.977-2.36-2.299-3.716c-2.395-2.488-4.063-4.314-4.063-7.118c0-3.243,2.394-5.416,6.11-5.416
			c1.543,0,3.023,0.409,4.535,1.26v4.031c-1.858-1.04-3.339-1.513-4.378-1.513c-1.008,0-1.606,0.566-1.606,1.513
			c0,0.976,1.071,1.952,2.583,3.526c2.425,2.521,4.126,4.347,4.126,7.339c0,3.559-2.52,6.077-6.174,6.077
			c-1.826,0-3.433-0.629-5.102-1.857L95.58,348.025L95.58,348.025z"/>
		<path fill="#FFFFFF" d="M112.715,336.594h-4.378v-3.873h13.605v3.873h-4.378v17.637h-4.85L112.715,336.594L112.715,336.594z"/>
		<path fill="#FFFFFF" d="M124.118,332.721h6.174c4.787,0,7.307,2.141,7.307,5.983c0,2.487-1.197,4.157-3.465,4.913
			c0.883,0.599,1.512,1.795,2.078,3.622l2.174,6.991h-5.102l-1.324-5.008c-0.724-2.804-1.228-4.188-2.738-4.188
			c-0.096,0-0.221,0.03-0.314,0.03v9.166h-4.787v-21.51H124.118z M129.818,341.35c2.079,0,2.961-0.566,2.961-2.394
			c0-1.765-0.944-2.488-2.93-2.488h-0.944v4.882H129.818L129.818,341.35z"/>
		<path fill="#FFFFFF" d="M140.655,332.721h12.188v3.778h-7.369v4.851h6.771v3.717h-6.771v5.322h7.496v3.842h-12.314V332.721
			L140.655,332.721z"/>
		<path fill="#FFFFFF" d="M159.491,332.721h5.039l5.48,21.51h-4.819l-0.881-4.439h-4.567l-0.912,4.439h-4.662L159.491,332.721z
			 M163.618,346.168l-1.606-7.434l-1.544,7.434H163.618z"/>
		<path fill="#FFFFFF" d="M171.713,332.721h4.473l4.63,8.66l4.661-8.66h4.473v21.51h-4.662v-13.479l-4.062,7.811h-0.787l-4-7.621
			v13.291h-4.726V332.721L171.713,332.721z"/>
		<path fill="#FFFFFF" d="M193.228,348.025c1.827,1.639,3.339,2.426,4.44,2.426c1.133,0,1.826-0.725,1.826-1.827
			c0-1.448-0.977-2.36-2.3-3.716c-2.394-2.488-4.062-4.314-4.062-7.118c0-3.243,2.394-5.416,6.109-5.416
			c1.543,0,3.023,0.409,4.535,1.26v4.031c-1.857-1.04-3.339-1.513-4.378-1.513c-1.008,0-1.606,0.566-1.606,1.513
			c0,0.976,1.072,1.952,2.584,3.526c2.424,2.521,4.125,4.347,4.125,7.339c0,3.559-2.521,6.077-6.172,6.077
			c-1.828,0-3.435-0.629-5.104-1.857L193.228,348.025L193.228,348.025z"/>
	</g>
	<g>
		<path fill="#FFFFFF" d="M120.6,387.115c0-1.805-0.564-4.658-2.874-4.658v9.129C119.979,391.698,120.6,388.881,120.6,387.115z"/>
		<path fill="#FFFFFF" d="M165.079,384.016c0-1.015-0.488-1.841-1.896-1.766h-0.375v3.775l0.488,0.019
			C164.572,386.044,165.079,385.182,165.079,384.016z"/>
		<polygon fill="#FFFFFF" points="126.795,405.804 126.743,405.804 126.319,408.816 125.474,414.129 128.249,414.129 
			127.245,408.816 		"/>
		<path fill="#FFFFFF" d="M112.521,403.928h-0.529v5.312l0.688,0.025c1.797,0,2.51-1.216,2.51-2.854
			C115.189,404.984,114.503,403.821,112.521,403.928z"/>
		<path fill="#FFFFFF" d="M88.197,403.928h-0.74v5.26c1.903,0.078,2.986-0.635,2.986-2.67
			C90.443,405.09,89.889,403.928,88.197,403.928z"/>
		<polygon fill="#FFFFFF" points="41.965,405.804 41.912,405.804 41.488,408.816 40.643,414.129 43.418,414.129 42.414,408.816 		
			"/>
		<path fill="#FFFFFF" d="M68.293,404.218v12.845c3.172,0.158,4.043-3.806,4.043-6.289
			C72.336,408.235,71.544,404.218,68.293,404.218z"/>
		<path fill="#FFFFFF" d="M41.797,384.016c0-1.015-0.488-1.841-1.896-1.766h-0.376v3.775l0.488,0.019
			C41.29,386.044,41.797,385.182,41.797,384.016z"/>
		<polygon fill="#FFFFFF" points="100.149,405.804 100.097,405.804 99.674,408.816 98.828,414.129 101.604,414.129 100.599,408.816 
					"/>
		<path fill="#FFFFFF" d="M67.577,387.021c0-1.26-0.132-4.715-1.991-4.715s-1.99,3.455-1.99,4.715c0,1.127,0.131,4.713,1.99,4.713
			S67.577,388.148,67.577,387.021z"/>
		<path fill="#FFFFFF" d="M134.098,382.457v9.129c2.254,0.112,2.874-2.705,2.874-4.471
			C136.972,385.312,136.409,382.457,134.098,382.457z"/>
		<polygon fill="#FFFFFF" points="180.211,383.584 180.174,383.584 179.874,385.725 179.272,389.501 181.245,389.501 
			180.532,385.725 		"/>
		<path fill="#FFFFFF" d="M187.276,403.928h-0.527v5.312l0.687,0.025c1.798,0,2.511-1.216,2.511-2.854
			C189.945,404.984,189.258,403.821,187.276,403.928z"/>
		<path fill="#FFFFFF" d="M30.419,372.837v53.833h180v-53.833H30.419z M169.489,379.939h5.635v2.629h-2.836v3.082h2.498v2.629
			h-2.498v3.193h2.875v2.629h-5.674V379.939L169.489,379.939z M160.008,379.939h2.816c1.784,0,4.979,0.188,4.979,4.058
			c0,1.56-0.62,2.894-2.01,3.663l2.461,6.441h-2.949l-2.461-6.537h-0.037v6.537h-2.799V379.939z M148.256,379.714
			c0.9,0,1.709,0.245,2.479,0.695v2.724c-0.562-0.488-1.258-0.9-2.027-0.9c-0.865,0-1.41,0.524-1.41,1.39
			c0,2.329,4.266,2.461,4.266,6.293c0,2.517-1.445,4.414-4.076,4.414c-0.789,0-1.766-0.244-2.404-0.714v-2.667
			c0.658,0.45,1.297,0.751,2.123,0.751c0.901,0,1.614-0.602,1.614-1.54c0-1.091-0.862-1.503-1.651-2.066
			c-1.615-1.09-2.611-2.142-2.611-4.208C144.555,381.648,145.852,379.714,148.256,379.714z M124.409,379.939h5.635v2.629h-2.836
			v3.082h2.498v2.629h-2.498v3.193h2.873v2.629h-5.672V379.939z M114.927,379.939h2.122c0.489,0,6.35-0.715,6.35,7.193
			c0,4.038-1.561,6.969-5.975,6.969h-2.498V379.939z M97.746,379.939h5.635v2.629h-2.836v3.082h2.498v2.629h-2.498v3.193h2.874
			v2.629h-5.673V379.939z M85.336,379.939h3.682l1.371,8.358h0.038l1.127-8.358h3.757l1.484,14.162H93.92l-0.676-10.199h-0.037
			l-0.451,3.494l-1.202,6.705h-2.16l-1.371-6.781l-0.47-3.154v-0.264h-0.037l-0.414,10.199h-3.005L85.336,379.939z M58.732,379.771
			c0.489,0,0.959,0.094,1.428,0.263v2.573c-0.356-0.094-0.694-0.149-1.051-0.149c-2.461,0-3.531,2.235-3.531,4.414
			c0,2.104,1.07,4.694,3.512,4.694c0.357,0,0.714-0.094,1.07-0.205v2.647c-0.412,0.169-0.845,0.244-1.295,0.244
			c-4.039,0-6.274-3.646-6.274-7.362C52.591,383.377,54.92,379.771,58.732,379.771z M46.207,379.939h5.635v2.629h-2.836v3.082h2.498
			v2.629h-2.498v3.193h2.874v2.629h-5.673V379.939z M36.726,379.939h2.817c1.785,0,4.978,0.188,4.978,4.058
			c0,1.56-0.62,2.894-2.01,3.663l2.461,6.441h-2.949l-2.46-6.537h-0.038v6.537h-2.799V379.939z M44.739,420.604L44,417.247h-3.991
			l-0.714,3.355h-3.911l4.625-19.927h4.149l4.783,19.927L44.739,420.604L44.739,420.604z M62.238,420.604h-3.727l-4.863-12.023
			l-0.053,0.053l0.186,2.008l0.025,0.819v9.146h-3.938v-19.928h3.779l4.916,12.024l0.053-0.053
			c-0.238-0.951-0.317-1.982-0.317-3.014v-8.959h3.938L62.238,420.604L62.238,420.604z M60.608,387.021
			c0-5.316,2.479-7.309,4.978-7.309s4.979,1.991,4.979,7.309c0,5.314-2.48,7.307-4.979,7.307S60.608,392.337,60.608,387.021z
			 M67.87,420.604h-3.515v-19.927h2.986c0.688,0,8.933-1.005,8.933,10.122C76.274,416.48,74.081,420.604,67.87,420.604z
			 M80.158,383.902H80.12l-0.45,3.494l-1.203,6.705h-2.16l-1.371-6.781l-0.469-3.154v-0.264h-0.038l-0.413,10.199H71.01l1.24-14.162
			h3.682l1.371,8.358h0.037l1.127-8.358h3.758l1.483,14.162h-2.874L80.158,383.902z M88.33,412.438l-0.873-0.053v8.219H83.52
			v-19.927h4.097c0.846,0,6.766-0.527,6.766,5.895C94.382,410.297,91.977,412.438,88.33,412.438z M102.924,420.604l-0.739-3.355
			h-3.991l-0.713,3.355h-3.912l4.625-19.927h4.149l4.784,19.927H102.924z M107.437,394.104h-2.799v-14.164h2.687l3.493,8.547
			l0.038-0.037c-0.17-0.676-0.227-1.408-0.227-2.141v-6.369h2.799v14.164h-2.648l-3.455-8.547l-0.038,0.037l0.132,1.428l0.019,0.582
			L107.437,394.104L107.437,394.104z M115.508,420.604l-3.463-9.196h-0.053v9.196h-3.938v-19.927h3.964
			c2.511,0,7.004,0.266,7.004,5.708c0,2.194-0.872,4.07-2.828,5.154l3.462,9.063L115.508,420.604L115.508,420.604z M129.57,420.604
			l-0.739-3.355h-3.99l-0.715,3.355h-3.91l4.625-19.927h4.147l4.783,19.927H129.57z M131.299,394.104v-14.164h2.123
			c0.488,0,6.349-0.713,6.349,7.194c0,4.038-1.56,6.97-5.974,6.97H131.299z M147.729,420.604l-0.951-14.351h-0.053l-0.635,4.916
			l-1.691,9.435h-3.039l-1.929-9.541l-0.661-4.438v-0.37h-0.053l-0.581,14.352h-4.229l1.744-19.928h5.18l1.931,11.762h0.053
			l1.585-11.762h5.286l2.088,19.928h-4.044V420.604z M151.991,379.939h7.213v2.629h-2.218v11.533h-2.799v-11.533h-2.196V379.939z
			 M161.105,420.604h-7.979v-19.927h7.928v3.7h-3.99v4.334h3.516v3.7h-3.516v4.492h4.043L161.105,420.604L161.105,420.604z
			 M171.971,404.377h-3.119v16.227h-3.938v-16.227h-3.093v-3.7h10.148L171.971,404.377L171.971,404.377z M181.09,420.604h-7.981
			v-19.927h7.929v3.7h-3.99v4.334h3.515v3.7h-3.515v4.492h4.043V420.604L181.09,420.604z M181.659,391.717h-2.837l-0.508,2.387
			h-2.778l3.286-14.164h2.948l3.398,14.164h-2.985L181.659,391.717z M190.263,420.604l-3.462-9.196h-0.053v9.196h-3.938v-19.927
			h3.963c2.513,0,7.004,0.266,7.004,5.708c0,2.194-0.872,4.07-2.827,5.154l3.463,9.063L190.263,420.604L190.263,420.604z
			 M194.409,383.902h-0.037l-0.451,3.494l-1.203,6.705h-2.159l-1.371-6.781l-0.47-3.154v-0.264h-0.037l-0.414,10.199h-3.006
			l1.24-14.162h3.682l1.371,8.358h0.037l1.127-8.358h3.758l1.484,14.162h-2.875L194.409,383.902z M199.779,420.921
			c-1.108,0-2.483-0.344-3.383-1.005v-3.752c0.926,0.634,1.824,1.057,2.985,1.057c1.271,0,2.273-0.846,2.273-2.167
			c0-1.532-1.216-2.113-2.326-2.907c-2.271-1.532-3.674-3.013-3.674-5.92c0-3.145,1.824-5.866,5.207-5.866
			c1.27,0,2.404,0.344,3.488,0.978v3.833c-0.793-0.688-1.771-1.27-2.854-1.27c-1.218,0-1.982,0.739-1.982,1.956
			c0,3.276,5.999,3.462,5.999,8.854C205.515,418.251,203.479,420.921,199.779,420.921z M201.484,394.328
			c-0.789,0-1.767-0.244-2.403-0.714v-2.667c0.656,0.449,1.295,0.751,2.123,0.751c0.9,0,1.614-0.603,1.614-1.54
			c0-1.09-0.864-1.503-1.653-2.066c-1.615-1.09-2.609-2.142-2.609-4.208c0-2.233,1.295-4.17,3.699-4.17
			c0.901,0,1.709,0.245,2.479,0.695v2.724c-0.563-0.488-1.259-0.9-2.028-0.9c-0.863,0-1.408,0.524-1.408,1.39
			c0,2.329,4.264,2.461,4.264,6.293C205.561,392.432,204.114,394.328,201.484,394.328z"/>
	</g>
	<g>
		<g>
			<path fill="#FFFFFF" d="M30.732,434.088c0,0,4.766,0,4.998,0c4.35,0,8.792,2.361,8.792,10.181c0,7.82-4.442,10.229-8.792,10.229
				v13.604h-4.998V434.088z M35.73,449.404c3.146,0,3.748-1.155,3.748-4.95s-0.602-5.275-3.748-5.275V449.404z"/>
			<path fill="#FFFFFF" d="M58.268,468.101l-2.592-14.346h-1.343v14.346h-4.997v-34.013h4.997c5.924,0,8.515,3.425,8.515,9.812
				c0,3.378-0.879,6.432-2.775,7.729l3.192,16.473L58.268,468.101L58.268,468.101z M54.333,439.04v10.088
				c1.389,0,3.703-0.186,3.703-5.044S55.722,439.04,54.333,439.04z"/>
			<path fill="#FFFFFF" d="M74.695,468.471c-6.71,0-6.664-7.355-6.664-7.355v-20.038c0,0-0.046-7.358,6.664-7.358
				s6.664,7.358,6.664,7.358v20.038C81.359,461.114,81.405,468.471,74.695,468.471z M74.695,438.577
				c-1.758,0-1.666,2.499-1.666,2.499v20.038c0,0-0.092,2.498,1.666,2.498c1.758,0,1.666-2.498,1.666-2.498v-20.038
				C76.361,441.076,76.453,438.577,74.695,438.577z"/>
			<path fill="#FFFFFF" d="M98.945,439.226h-6.896v8.931h4.628v5.139h-4.628v14.807h-4.997v-34.013c0,0,0.509,0,11.894,0
				L98.945,439.226L98.945,439.226z"/>
			<path fill="#FFFFFF" d="M103.295,434.088h4.998v34.013h-4.998V434.088z"/>
			<path fill="#FFFFFF" d="M114.309,434.088h4.998v29.386h6.617v4.627h-11.615V434.088z"/>
			<path fill="#FFFFFF" d="M130.274,434.088h11.432v5.138h-6.435v8.931h4.628v5.462h-4.628v9.348h6.435v5.136h-11.432V434.088z"/>
			<path fill="#FFFFFF" d="M154.848,468.101l5.137-34.013h6.107l5.138,34.013h-4.858l-0.926-6.939h-4.812l-0.926,6.939H154.848z
				 M163.316,445.148l-0.14-0.881H162.9l-0.14,0.881l-1.436,10.735h3.424L163.316,445.148z"/>
			<path fill="#FFFFFF" d="M181.133,450.379l-0.418-1.575h-0.275v1.575v17.722h-4.582v-34.013h4.441l4.859,17.726l0.416,1.572h0.278
				v-1.572v-17.726h4.58v34.013h-4.442L181.133,450.379z"/>
			<path fill="#FFFFFF" d="M200.385,468.101h-3.934v-34.013h3.934c9.254,0.047,9.949,3.702,9.949,17.03
				C210.334,464.398,209.639,468.055,200.385,468.101z M201.448,463.104c3.518,0,3.749-0.88,3.702-12.03
				c0.047-11.106-0.187-11.986-3.702-11.986V463.104z"/>
		</g>
		<g>
			<path fill="#FFFFFF" d="M36.656,484.862v-3.894c0,0,0.07-1.86-1.24-1.86c-1.309,0-1.24,1.86-1.24,1.86v15.229
				c0,0-0.068,1.86,1.24,1.86c1.311,0,1.24-1.86,1.24-1.86v-4.583h-1.48v-3.135h5.203v12.609h-2.205l-0.448-1.206
				c-0.689,0.86-1.724,1.481-2.895,1.481c-4.721,0-4.376-5.479-4.376-5.479V480.97c0,0-0.035-5.479,4.961-5.479
				c4.997,0,4.963,5.479,4.963,5.479v3.894L36.656,484.862L36.656,484.862z"/>
			<path fill="#FFFFFF" d="M43.789,501.092l3.825-25.326h4.548l3.824,25.326h-3.617l-0.689-5.168h-3.583l-0.689,5.168H43.789z
				 M50.095,484.001l-0.104-0.654h-0.206l-0.104,0.654l-1.068,7.995h2.549L50.095,484.001z"/>
			<path fill="#FFFFFF" d="M59.433,475.766h3.722v21.881h4.927v3.445h-8.648L59.433,475.766L59.433,475.766z"/>
			<path fill="#FFFFFF" d="M71.32,475.766h3.722v21.881h4.927v3.445H71.32V475.766z"/>
			<path fill="#FFFFFF" d="M83.208,475.766h8.511v3.825H86.93v6.651h3.445v4.064H86.93v6.96h4.789v3.824h-8.511V475.766z"/>
			<path fill="#FFFFFF" d="M102.159,501.092l-1.93-10.682H99.23v10.682h-3.722v-25.326h3.722c4.41,0,6.34,2.552,6.34,7.308
				c0,2.514-0.654,4.788-2.068,5.753l2.378,12.267L102.159,501.092L102.159,501.092z M99.23,479.453v7.512
				c1.033,0,2.756-0.139,2.756-3.756C101.986,479.591,100.264,479.453,99.23,479.453z"/>
			<path fill="#FFFFFF" d="M114.047,483.864l0.104,0.239h0.068l0.104-0.239l1.861-8.1h3.652l-3.791,14.542v10.784h-3.722v-10.784
				l-3.791-14.542h3.652L114.047,483.864z"/>
			<path fill="#FFFFFF" d="M128.898,479.591v-3.825h10.75v3.825h-3.515v21.501h-3.723v-21.501H128.898z"/>
			<path fill="#FFFFFF" d="M149.434,490.065h-2.895v11.025h-3.722c0,0,0-25.153,0-25.326h3.722v10.478h2.895v-10.478h3.721v25.326
				h-3.721V490.065z"/>
			<path fill="#FFFFFF" d="M157.635,475.766h8.51v3.825h-4.789v6.651h3.445v4.064h-3.445v6.96h4.789v3.824h-8.51V475.766z"/>
			<path fill="#FFFFFF" d="M176.103,501.092l-2.378-15.919l-0.137-1.067h-0.207v1.067v15.919h-3.445v-25.326h4.548l2.205,11.577
				l0.173,1.346h0.068l0.172-1.346l2.205-11.577h4.549v25.326h-3.445v-15.919v-1.067h-0.207l-0.138,1.067l-2.378,15.919H176.103z"/>
			<path fill="#FFFFFF" d="M188.336,475.766h8.51v3.825h-4.789v6.651h3.445v4.064h-3.445v6.96h4.789v3.824h-8.51V475.766z"/>
			<path fill="#FFFFFF" d="M205.254,475.49c4.479-0.104,5.201,3.895,5.201,6.72l-3.651,0.345c0-1.688-0.241-3.652-1.481-3.652
				c-0.965,0.035-1.275,1.068-1.275,2.517c0,1.721,1.482,3.65,2.931,5.753c1.724,2.585,3.479,5.1,3.479,7.822
				c0,3.377-1.104,6.374-5.17,6.374c-4.789,0-5.408-3.617-5.408-7.373l3.651-0.345c0,2.102,0.207,4.307,1.757,4.307
				c1.104,0,1.518-1.205,1.518-2.791c0-1.688-1.585-3.721-2.997-5.857c-1.759-2.584-3.412-5.168-3.412-7.89
				C200.395,478.66,201.738,475.56,205.254,475.49z"/>
		</g>
	</g>
</g>
</svg>
