<?xml version="1.0" encoding="utf-8"?>
<!-- Generator: Adobe Illustrator 14.0.0, SVG Export Plug-In . SVG Version: 6.00 Build 43363)  -->
<!DOCTYPE svg PUBLIC "-//W3C//DTD SVG 1.1//EN" "http://www.w3.org/Graphics/SVG/1.1/DTD/svg11.dtd">
<svg version="1.1" id="Layer_1" xmlns="http://www.w3.org/2000/svg" xmlns:xlink="http://www.w3.org/1999/xlink" x="0px" y="0px"
	 width="181.668px" height="406.159px" viewBox="30.335 91.834 181.668 406.159"
	 enable-background="new 30.335 91.834 181.668 406.159" xml:space="preserve">
<g id="Layer_2" display="none">
	<rect display="inline" width="235.043" height="600"/>
</g>
<g id="Layer_1_1_">
	<rect x="31.585" y="386.336" fill="#FFFFFF" width="180" height="2.5"/>
	<rect x="31.585" y="426.336" fill="#FFFFFF" width="180" height="2.5"/>
	<g>
		<path fill="#FFFFFF" d="M103.713,472.12c-4.864,0-5.164,4.783-5.164,8.145c0,0.737,0.081,4.182,0.3,5.984
			c0.246,1.667,1.476,4.236,5.001,4.236c1.258,0,2.624-0.521,3.416-1.312c1.23-1.285,1.723-3.307,1.723-7.188
			c0-1.585-0.164-4.482-0.301-5.521C108.305,473.651,106.337,472.12,103.713,472.12z"/>
		<path fill="#FFFFFF" d="M211.75,437.251h-76.332h-27.667H31.418l18,29.15l-18,31.517h76.333h27.667h76.332l-17.998-31.517
			L211.75,437.251z M139.277,467.966h0.718c1.129,0,2.461-0.479,3.178-1.161c1.367-1.299,1.367-3.144,1.367-5.809v-9.497
			c0-3.759-1.299-5.604-3.931-5.604h-1.264v-0.512h7.618l12.847,18.653v-11.069c0-2.768-0.581-4.611-1.776-5.808
			c-0.752-0.718-2.152-1.266-3.383-1.266h-0.648v-0.512h10.762v0.512h-0.717c-1.127,0-2.118,0.343-2.733,0.957
			c-0.854,0.854-1.024,1.913-1.024,6.115v16.297h-1.024l-14.246-20.704v12.471c0,4.578,1.64,6.936,4.815,6.936h1.129v0.513h-11.686
			L139.277,467.966L139.277,467.966z M126.5,467.966h2.903c1.095,0,1.604-0.614,1.709-1.98v-18.107c0-1.264-0.614-1.98-1.674-1.98
			H126.5v-0.513h12.095v0.513h-2.356c-1.06,0-1.709,0.718-1.709,1.98v18.107c0,1.265,0.649,1.98,1.709,1.98h2.356v0.513H126.5
			V467.966z M104.705,445.384h20.807v8.645h-0.514c-0.545-4.578-3.519-7.995-6.935-7.995h-4.101c-0.581,0-0.854,0.342-0.854,1.128
			v9.259h1.709c1.708,0,3.313-1.162,4.031-2.904c0.376-0.854,0.479-1.674,0.479-3.349h0.58v13.153h-0.548v-0.273
			c0-3.758-1.707-6.081-4.406-6.081h-1.846c-0.068,1.708-0.102,3.383-0.102,5.091c0,4.271,0.068,4.92,0.615,5.467
			c0.307,0.308,0.683,0.443,1.195,0.443h2.357v0.514H105.08v-0.514h2.869c1.094,0,1.708-0.717,1.708-1.98v-18.107
			c0-1.264-0.614-1.98-1.708-1.98h-3.246v-0.515H104.705z M81.51,467.966h3.143c1.06,0,1.709-0.717,1.709-1.98v-18.143
			c0-1.229-0.581-1.946-1.674-1.946h-3.144v-0.513h21.216v8.507h-0.512c-0.547-2.255-1.947-7.893-7.38-7.893h-4.305
			c-0.547,0-0.786,0.342-0.786,1.094v9.327h1.195c3.349,0,5.125-1.981,5.228-5.979l0.513,0.033v12.812h-0.547
			c0-2.493-0.342-3.621-1.435-4.748c-0.956-1.025-2.187-1.538-3.587-1.538h-1.367v9.737c0,0.854,0.273,1.161,1.059,1.161h4.408
			c2.527,0,4.715-1.47,6.184-4.101c0.752-1.366,1.059-2.732,1.298-3.826h0.547l-0.205,8.508H81.51V467.966z M56.367,467.966h2.903
			c1.06,0,1.708-0.717,1.708-1.98v-18.143c0-1.229-0.615-1.946-1.674-1.946h-2.528v-0.513h10.728c6.014,0,10.215,2.392,10.215,5.809
			c0,1.57-1.127,3.143-2.972,4.134c-1.265,0.684-2.562,1.094-5.228,1.64c3.417,1.538,6.901,3.145,7.346,8.474
			c0.137,1.641,0.444,2.187,1.195,2.187c2.084,0,2.084-4.064,2.084-5.808V461.1h0.547v1.061c0,3.143-0.342,4.476-1.332,5.5
			c-0.649,0.648-1.469,0.991-2.357,0.991c-0.922,0-1.811-0.343-2.46-0.991c-0.923-0.888-1.298-2.016-1.47-4.441
			c-0.204-2.664-0.648-3.792-1.947-4.815c-1.161-0.89-2.63-1.333-4.406-1.333h-2.324c-0.068,1.674-0.102,3.349-0.102,5.021
			c0,4.271,0.068,4.887,0.615,5.433c0.307,0.308,0.717,0.443,1.195,0.443h2.357v0.514H56.367V467.966z M66.769,481.74h-3.307
			c-0.055,1.229-0.082,2.486-0.082,3.717c0,3.197,0.055,3.717,0.492,4.126c0.246,0.246,0.546,0.355,0.929,0.355h1.887v0.409H57.04
			v-0.409h2.296c0.874,0,1.365-0.573,1.365-1.585v-14.484c0-1.011-0.491-1.585-1.338-1.585h-2.378v-0.409h9.101
			c4.563,0,7.652,2.104,7.652,5.22C73.738,479.663,70.622,481.74,66.769,481.74z M93.576,485.293c0,2.514-0.273,3.58-1.065,4.399
			c-0.52,0.52-1.175,0.793-1.886,0.793c-0.738,0-1.449-0.273-1.968-0.793c-0.737-0.71-1.038-1.612-1.175-3.554
			c-0.164-2.131-0.52-3.032-1.559-3.853c-0.929-0.711-2.104-1.066-3.525-1.066h-1.857c-0.055,1.339-0.082,2.68-0.082,4.019
			c0,3.416,0.055,3.907,0.492,4.345c0.246,0.246,0.573,0.354,0.956,0.354h1.886v0.41h-9.674v-0.41h2.322
			c0.848,0,1.366-0.572,1.366-1.585v-14.512c0-0.982-0.491-1.558-1.339-1.558h-2.022v-0.409h8.581c4.811,0,8.172,1.912,8.172,4.646
			c0,1.258-0.902,2.515-2.378,3.308c-1.011,0.547-2.05,0.875-4.181,1.312c2.732,1.23,5.52,2.516,5.875,6.777
			c0.109,1.312,0.355,1.749,0.957,1.749c1.666,0,1.666-3.252,1.666-4.646v-0.573h0.438V485.293z M103.768,490.95
			c-4.509,0-8.417-4.51-8.417-9.729c0-4.509,3.498-9.537,8.335-9.537c4.92,0,8.5,4.92,8.5,9.537
			C112.186,486.413,108.277,490.95,103.768,490.95z M123.361,490.349h-9.92v-0.409h2.596c0.875,0,1.366-0.573,1.366-1.586V473.87
			c0-1.011-0.491-1.585-1.339-1.585h-2.65v-0.409h10.221c4.973,0,9.209,4.345,9.209,9.4
			C132.844,486.14,128.444,490.349,123.361,490.349z M153.693,472.284c-2.213,0.108-3.226,1.422-3.226,4.235v6.941
			c0,4.372-2.868,7.461-6.94,7.461c-1.938,0-3.881-0.738-5.056-1.939c-1.586-1.585-1.667-3.58-1.723-5.11v-10.003
			c0-1.011-0.492-1.585-1.338-1.585h-2.188v-0.409h9.947v0.409h-2.377c-0.931,0-1.312,0.492-1.312,1.694v10.467
			c0,2.132,0.383,3.442,1.258,4.428c0.848,0.901,1.994,1.366,3.471,1.366c3.472,0,5.82-2.76,5.82-6.859v-6.229
			c0-1.723-0.382-3.09-1.064-3.826c-0.547-0.603-1.612-1.039-2.461-1.039h-0.654v-0.409h7.843V472.284z M167.958,486.851
			c-1.119,2.46-3.635,4.101-5.902,4.101c-4.428,0-8.227-4.4-8.227-9.511c0-6.341,4.481-9.865,7.651-9.865
			c2.952,0,4.291,2.05,5.002,3.115c0.847-1.202,1.229-1.94,1.558-3.115h0.41l0.163,8.335h-0.409
			c-0.684-2.678-1.83-5.028-3.226-6.422c-0.847-0.931-2.158-1.504-3.308-1.504c-3.307,0-5,3.361-5,9.947
			c0,3.636,0.602,5.713,2.131,7.242c0.82,0.848,1.941,1.312,3.115,1.312c2.379,0,4.646-1.559,5.713-3.937
			c0.52-1.146,0.601-2.214,0.654-2.951h0.41C168.559,485.238,168.422,485.84,167.958,486.851z M186.211,478.816h-0.41
			c-0.135-2.022-0.928-4.072-2.021-5.303c-0.792-0.875-1.529-1.176-3.006-1.176c-1.175,0-1.339,0.109-1.365,0.875v15.141
			c0,1.012,0.518,1.585,1.365,1.585h1.887v0.409h-9.676v-0.409h2.323c0.849,0,1.366-0.573,1.366-1.585v-15.141
			c0-0.684-0.246-0.875-1.065-0.875c-2.05,0-4.345,0.328-5.384,6.479h-0.438v-6.941h16.424V478.816L186.211,478.816z
			 M186.627,468.479H165.07v-0.513h3.144c1.059,0,1.707-0.717,1.707-1.98v-18.143c0-1.229-0.58-1.946-1.674-1.946h-3.144v-0.513
			h21.217v8.507h-0.513c-0.547-2.255-1.947-7.893-7.381-7.893h-4.305c-0.547,0-0.785,0.342-0.785,1.094v9.327h1.195
			c3.348,0,5.125-1.981,5.227-5.979l0.515,0.033v12.812h-0.547c0-2.493-0.343-3.621-1.437-4.748
			c-0.955-1.025-2.186-1.538-3.586-1.538h-1.367v9.737c0,0.854,0.273,1.161,1.06,1.161h4.407c2.527,0,4.715-1.47,6.185-4.101
			c0.751-1.366,1.06-2.732,1.298-3.826h0.547L186.627,468.479z"/>
		<path fill="#FFFFFF" d="M88.166,476.411c0-2.46-1.695-4.045-4.346-4.045h-2.515c-0.491,0-0.765,0.328-0.765,0.901v7.516h2.869
			C86.334,480.783,88.166,479.089,88.166,476.411z"/>
		<path fill="#FFFFFF" d="M123.745,472.366h-2.844c-0.464,0-0.736,0.301-0.736,0.793v15.714c0,0.628,0.301,1.011,0.791,1.011h2.598
			c3.771,0,6.094-3.225,6.094-8.443c0-3.826-0.602-6.066-2.049-7.599C126.641,472.858,125.383,472.366,123.745,472.366z"/>
		<path fill="#FFFFFF" d="M73.928,451.055c0-3.074-2.119-5.057-5.433-5.057h-3.144c-0.615,0-0.957,0.41-0.957,1.128v9.395h3.588
			C71.639,456.521,73.928,454.402,73.928,451.055z"/>
		<path fill="#FFFFFF" d="M66.305,472.366h-1.777c-0.874,0-1.065,0.164-1.065,0.901v8.034h2.706c1.639,0,2.623-0.301,3.334-1.064
			c0.711-0.711,1.147-1.969,1.147-3.226C70.649,473.896,69.229,472.366,66.305,472.366z"/>
	</g>
	<polygon fill="#FFFFFF" points="48.377,401.359 48.377,398.643 45.658,398.643 42.943,398.643 42.943,401.359 40.225,401.359 
		40.225,398.643 37.506,398.643 34.797,398.643 34.797,401.359 32.084,401.359 32.084,404.075 32.084,406.789 32.084,409.503 
		34.797,409.503 34.797,412.219 37.506,412.219 37.506,414.936 40.225,414.936 40.225,417.648 42.943,417.648 42.943,414.936 
		45.658,414.936 45.658,412.219 48.377,412.219 48.377,409.503 51.085,409.503 51.085,406.789 51.085,404.075 51.085,401.359 	"/>
	<polygon fill="#FFFFFF" points="208.377,401.359 208.377,398.643 205.659,398.643 202.943,398.643 202.943,401.359 
		200.225,401.359 200.225,398.643 197.506,398.643 194.797,398.643 194.797,401.359 192.084,401.359 192.084,404.075 
		192.084,406.789 192.084,409.503 194.797,409.503 194.797,412.219 197.506,412.219 197.506,414.936 200.225,414.936 
		200.225,417.648 202.943,417.648 202.943,414.936 205.659,414.936 205.659,412.219 208.377,412.219 208.377,409.503 
		211.084,409.503 211.084,406.789 211.084,404.075 211.084,401.359 	"/>
	<g>
		<path fill="#FFFFFF" d="M57.826,398.12h4.356c1.595,0,2.762,0.37,3.759,1.424c0.996,1.053,1.309,2.334,1.309,4.755
			c0,1.766-0.142,2.961-0.825,4.071c-0.797,1.31-2.078,2.106-4.214,2.106h-1.48v7.915h-2.904L57.826,398.12L57.826,398.12z
			 M60.73,407.744h1.395c2.363,0,2.393-1.396,2.393-3.417c0-1.908,0-3.475-2.278-3.475h-1.51V407.744z"/>
		<path fill="#FFFFFF" d="M71.441,398.12h2.42l4.527,20.271h-2.904l-0.854-4.355h-3.958l-0.854,4.355h-2.904L71.441,398.12z
			 M72.666,403.957h-0.058l-1.424,7.346h2.904L72.666,403.957z"/>
		<path fill="#FFFFFF" d="M79.671,398.12h4.669c3.445,0,5.126,2.021,5.126,5.95c0,2.335-0.655,4.044-2.506,5.067l3.132,9.254h-3.074
			l-2.705-8.654h-1.737v8.654h-2.904L79.671,398.12L79.671,398.12z M82.575,407.174h1.651c2.021,0,2.335-1.139,2.335-3.16
			c0-2.05-0.342-3.16-2.478-3.16h-1.509L82.575,407.174L82.575,407.174z"/>
		<path fill="#FFFFFF" d="M93.059,400.854H89.7v-2.732h9.624v2.732h-3.36v17.539H93.06L93.059,400.854L93.059,400.854z"/>
		<path fill="#FFFFFF" d="M100.35,398.12h2.789l4.386,12.215h0.057V398.12h2.904v20.271h-2.733l-4.441-12.187h-0.057v12.187h-2.904
			L100.35,398.12L100.35,398.12z"/>
		<path fill="#FFFFFF" d="M112.963,398.12h8.657v2.732h-5.752v5.95h5.012v2.733h-5.012v5.951h5.752v2.903h-8.657V398.12z"/>
		<path fill="#FFFFFF" d="M123.356,398.12h4.669c3.445,0,5.126,2.021,5.126,5.95c0,2.335-0.654,4.044-2.506,5.067l3.132,9.254
			h-3.073l-2.705-8.654h-1.737v8.654h-2.904L123.356,398.12L123.356,398.12z M126.261,407.174h1.651c2.021,0,2.334-1.139,2.334-3.16
			c0-2.05-0.342-3.16-2.478-3.16h-1.509L126.261,407.174L126.261,407.174z"/>
		<path fill="#FFFFFF" d="M144.741,403.957h-2.904v-0.655c0-1.338-0.568-2.448-2.049-2.448c-1.597,0-1.966,1.281-1.966,2.619
			c0,1.566,0.144,2.107,1.65,2.705l2.222,0.883c2.562,0.969,3.047,2.592,3.047,5.553c0,3.417-1.253,5.951-5.012,5.951
			c-2.818,0-4.954-2.078-4.954-4.812v-1.082h2.904v0.911c0,1.053,0.569,2.078,2.05,2.078c1.965,0,2.105-1.167,2.105-3.02
			c0-2.163-0.256-2.505-1.68-3.073l-2.078-0.854c-2.506-1.025-3.16-2.677-3.16-5.211c0-3.075,1.65-5.552,4.982-5.552
			c2.904,0,4.84,2.335,4.84,4.584v1.424H144.741z"/>
		<path fill="#FFFFFF" d="M146.764,398.12h2.904v8.684h3.586v-8.684h2.904v20.271h-2.904v-9.025h-3.586v9.025h-2.904V398.12z"/>
		<path fill="#FFFFFF" d="M158.836,398.12h2.904v20.271h-2.904V398.12z"/>
		<path fill="#FFFFFF" d="M164.418,398.12h4.355c1.596,0,2.762,0.37,3.76,1.424c0.995,1.053,1.309,2.334,1.309,4.755
			c0,1.766-0.143,2.961-0.825,4.071c-0.797,1.31-2.078,2.106-4.214,2.106h-1.48v7.915h-2.904V398.12L164.418,398.12z
			 M167.322,407.744h1.396c2.363,0,2.393-1.396,2.393-3.417c0-1.908,0-3.475-2.277-3.475h-1.51L167.322,407.744L167.322,407.744z"/>
		<path fill="#FFFFFF" d="M185.262,403.957h-2.904v-0.655c0-1.338-0.57-2.448-2.051-2.448c-1.594,0-1.965,1.281-1.965,2.619
			c0,1.566,0.143,2.107,1.652,2.705l2.221,0.883c2.562,0.969,3.047,2.592,3.047,5.553c0,3.417-1.254,5.951-5.012,5.951
			c-2.818,0-4.955-2.078-4.955-4.812v-1.082h2.904v0.911c0,1.053,0.569,2.078,2.051,2.078c1.965,0,2.106-1.167,2.106-3.02
			c0-2.163-0.257-2.505-1.681-3.073l-2.078-0.854c-2.506-1.025-3.161-2.677-3.161-5.211c0-3.075,1.651-5.552,4.983-5.552
			c2.904,0,4.841,2.335,4.841,4.584L185.262,403.957L185.262,403.957z"/>
	</g>
	<g>
		<path fill="#FFFFFF" d="M31.91,270.176h15.623v7.021h-8.791v12.207h6.324v7.463h-6.324v12.775h8.791v7.021H31.91V270.176z"/>
		<path fill="#FFFFFF" d="M57.59,316.663h-6.704l7.526-24.414l-7.4-22.073h6.705l3.731,11.765l0.19,0.569h0.252l0.189-0.569
			l3.732-11.765h6.704l-7.399,22.073l7.525,24.414h-6.703l-3.922-13.853l-0.127-0.568h-0.252l-0.127,0.568L57.59,316.663z"/>
		<path fill="#FFFFFF" d="M74.857,277.196v-7.021H94.59v7.021h-6.45v39.467h-6.831v-39.467H74.857z"/>
		<path fill="#FFFFFF" d="M98.83,270.176h15.621v7.021h-8.791v12.207h6.325v7.463h-6.325v12.775h8.791v7.021H98.83V270.176z"/>
		<path fill="#FFFFFF" d="M132.036,316.663l-3.541-19.606h-1.834v19.606h-6.832v-46.487h6.832c8.096,0,11.637,4.681,11.637,13.409
			c0,4.616-1.201,8.791-3.795,10.562l4.363,22.517L132.036,316.663L132.036,316.663z M126.661,276.943v13.788
			c1.896,0,5.059-0.253,5.059-6.894C131.719,277.196,128.557,276.943,126.661,276.943z"/>
		<path fill="#FFFFFF" d="M151.454,292.439l-0.568-2.15h-0.381v2.15v24.224h-6.262v-46.487h6.071l6.642,24.225l0.569,2.15h0.379
			v-2.15v-24.225h6.263v46.487h-6.071L151.454,292.439z"/>
		<path fill="#FFFFFF" d="M168.911,316.663l7.021-46.487h8.349l7.021,46.487h-6.641l-1.266-9.487h-6.577l-1.265,9.487H168.911z
			 M180.486,285.292l-0.19-1.201h-0.379l-0.189,1.201l-1.961,14.674h4.681L180.486,285.292z"/>
		<path fill="#FFFFFF" d="M196.045,270.176h6.832v40.162h9.043v6.325h-15.875V270.176z"/>
	</g>
	<g>
		<path fill="#FFFFFF" d="M43.893,377.811H37.86l-7.111-52.791h7.183l3.089,27.438l0.144,1.725h0.574l0.216-1.725l3.304-27.438
			c0,0,5.53,0,5.603,0l3.304,27.438l0.216,1.725h0.574l0.144-1.725l3.089-27.438h7.182l-7.11,52.791h-6.033l-3.591-24.994
			l-0.432-3.09h-0.287l-0.431,3.09L43.893,377.811z"/>
		<path fill="#FFFFFF" d="M70.897,325.02h7.757v52.791h-7.757V325.02z"/>
		<path fill="#FFFFFF" d="M92.3,377.811h-6.104V325.02H92.3c14.364,0.072,15.442,5.746,15.442,26.432
			C107.742,372.062,106.664,377.736,92.3,377.811z M93.951,370.053c5.459,0,5.818-1.363,5.746-18.674
			c0.072-17.238-0.287-18.604-5.746-18.604V370.053z"/>
		<path fill="#FFFFFF" d="M127.133,343.98v-8.115c0,0,0.144-3.879-2.586-3.879s-2.586,3.879-2.586,3.879v31.744
			c0,0-0.144,3.88,2.586,3.88c2.729,0,2.586-3.88,2.586-3.88v-9.551h-3.088v-6.537h10.845v26.287h-4.597l-0.935-2.514
			c-1.437,1.796-3.592,3.088-6.032,3.088c-9.841,0-9.122-11.42-9.122-11.42v-31.1c0,0-0.072-11.42,10.342-11.42
			c10.414,0,10.343,11.42,10.343,11.42v8.115h-7.757V343.98z"/>
		<path fill="#FFFFFF" d="M142.358,325.02h17.74v7.974h-9.982v13.86h7.182v8.477h-7.182v14.508h9.982v7.973h-17.74V325.02z"/>
		<path fill="#FFFFFF" d="M163.473,332.992v-7.973h22.408v7.973h-7.324v44.816h-7.758v-44.816H163.473z"/>
		<path fill="#FFFFFF" d="M200.318,324.445c9.337-0.217,10.845,8.115,10.845,14.005l-7.611,0.719c0-3.521-0.504-7.612-3.09-7.612
			c-2.01,0.07-2.656,2.227-2.656,5.242c0,3.592,3.088,7.613,6.104,11.994c3.592,5.387,7.254,10.63,7.254,16.305
			c0,7.038-2.297,13.286-10.772,13.286c-9.983,0-11.276-7.541-11.276-15.37l7.613-0.718c0,4.381,0.432,8.978,3.663,8.978
			c2.298,0,3.161-2.514,3.161-5.816c0-3.52-3.305-7.757-6.25-12.21c-3.662-5.388-7.109-10.772-7.109-16.447
			C190.191,331.053,192.993,324.589,200.318,324.445z"/>
	</g>
	<g>
		<path fill="#FFFFFF" d="M211.086,259.255L211.086,259.255c0.275,0,0.5-0.224,0.5-0.5c0-0.276-0.225-0.5-0.5-0.5l0,0
			c-0.276,0-0.5,0.224-0.5,0.5C210.586,259.031,210.81,259.255,211.086,259.255z M201.086,259.255h5c0.275,0,0.5-0.224,0.5-0.5
			c0-0.276-0.225-0.5-0.5-0.5h-5c-0.276,0-0.5,0.224-0.5,0.5C200.586,259.031,200.81,259.255,201.086,259.255z M191.086,259.255h5
			c0.275,0,0.5-0.224,0.5-0.5c0-0.276-0.225-0.5-0.5-0.5h-5c-0.276,0-0.5,0.224-0.5,0.5
			C190.586,259.031,190.81,259.255,191.086,259.255z M181.086,259.255h5c0.275,0,0.5-0.224,0.5-0.5c0-0.276-0.225-0.5-0.5-0.5h-5
			c-0.276,0-0.5,0.224-0.5,0.5C180.586,259.031,180.81,259.255,181.086,259.255z M171.086,259.255h5c0.275,0,0.5-0.224,0.5-0.5
			c0-0.276-0.225-0.5-0.5-0.5h-5c-0.276,0-0.5,0.224-0.5,0.5C170.586,259.031,170.81,259.255,171.086,259.255z M161.086,259.255h5
			c0.275,0,0.5-0.224,0.5-0.5c0-0.276-0.225-0.5-0.5-0.5h-5c-0.276,0-0.5,0.224-0.5,0.5
			C160.586,259.031,160.81,259.255,161.086,259.255z M151.086,259.255h5c0.275,0,0.5-0.224,0.5-0.5c0-0.276-0.225-0.5-0.5-0.5h-5
			c-0.276,0-0.5,0.224-0.5,0.5C150.586,259.031,150.81,259.255,151.086,259.255z M141.086,259.255h5c0.275,0,0.5-0.224,0.5-0.5
			c0-0.276-0.225-0.5-0.5-0.5h-5c-0.276,0-0.5,0.224-0.5,0.5C140.586,259.031,140.81,259.255,141.086,259.255z M131.086,259.255h5
			c0.275,0,0.5-0.224,0.5-0.5c0-0.276-0.225-0.5-0.5-0.5h-5c-0.276,0-0.5,0.224-0.5,0.5
			C130.586,259.031,130.81,259.255,131.086,259.255z M121.086,259.255h5c0.275,0,0.5-0.224,0.5-0.5c0-0.276-0.225-0.5-0.5-0.5h-5
			c-0.276,0-0.5,0.224-0.5,0.5C120.586,259.031,120.81,259.255,121.086,259.255z M111.086,259.255h5c0.276,0,0.5-0.224,0.5-0.5
			c0-0.276-0.224-0.5-0.5-0.5h-5c-0.276,0-0.5,0.224-0.5,0.5C110.586,259.031,110.81,259.255,111.086,259.255z M101.086,259.255h5
			c0.276,0,0.5-0.224,0.5-0.5c0-0.276-0.224-0.5-0.5-0.5h-5c-0.276,0-0.5,0.224-0.5,0.5
			C100.586,259.031,100.81,259.255,101.086,259.255z M91.086,259.255h5c0.276,0,0.5-0.224,0.5-0.5c0-0.276-0.224-0.5-0.5-0.5h-5
			c-0.276,0-0.5,0.224-0.5,0.5C90.586,259.031,90.81,259.255,91.086,259.255z M81.086,259.255h5c0.276,0,0.5-0.224,0.5-0.5
			c0-0.276-0.224-0.5-0.5-0.5h-5c-0.276,0-0.5,0.224-0.5,0.5C80.586,259.031,80.81,259.255,81.086,259.255z M71.086,259.255h5
			c0.276,0,0.5-0.224,0.5-0.5c0-0.276-0.224-0.5-0.5-0.5h-5c-0.276,0-0.5,0.224-0.5,0.5
			C70.586,259.031,70.81,259.255,71.086,259.255z M61.086,259.255h5c0.276,0,0.5-0.224,0.5-0.5c0-0.276-0.224-0.5-0.5-0.5h-5
			c-0.276,0-0.5,0.224-0.5,0.5C60.586,259.031,60.81,259.255,61.086,259.255z M51.086,259.255h5c0.276,0,0.5-0.224,0.5-0.5
			c0-0.276-0.224-0.5-0.5-0.5h-5c-0.276,0-0.5,0.224-0.5,0.5C50.586,259.031,50.81,259.255,51.086,259.255z M41.086,259.255h5
			c0.276,0,0.5-0.224,0.5-0.5c0-0.276-0.224-0.5-0.5-0.5h-5c-0.276,0-0.5,0.224-0.5,0.5
			C40.586,259.031,40.81,259.255,41.086,259.255z M31.086,259.255h5c0.276,0,0.5-0.224,0.5-0.5c0-0.276-0.224-0.5-0.5-0.5h-5
			c-0.276,0-0.5,0.224-0.5,0.5C30.586,259.031,30.81,259.255,31.086,259.255z"/>
	</g>
	<path fill="#FFFFFF" d="M138.48,237.81l-0.541-2.557c-0.019,0.089-0.035,0.183-0.053,0.27v-0.001l-0.001,0.005l0.001-0.004
		l-0.474,2.287H138.48z"/>
	<polygon fill="#FFFFFF" points="179.648,228.151 179.646,228.153 179.647,228.153 	"/>
	<path fill="#FFFFFF" d="M40.699,153.613l-0.011-0.008c1.292,0.897,2.023,1.416,2.483,1.756c0.463,0.344,0.635,0.491,0.912,0.733
		l0.008,0.007c0.699,0.605,1.05,1.062,1.257,1.51c0.206,0.448,0.31,0.969,0.312,1.819c-0.006,1.131-0.408,1.996-1.078,2.636
		c-0.673,0.634-1.648,1.046-2.895,1.049c-1.134-0.003-2.023-0.139-2.986-0.479c-0.963-0.343-2.018-0.917-3.359-1.846
		c-0.461-0.318-1.055-0.355-1.551-0.095c-0.496,0.26-0.803,0.769-0.803,1.328v9.072c0,0.496,0.242,0.956,0.65,1.237
		c1.377,0.945,2.817,1.638,4.373,2.078c1.555,0.441,3.213,0.633,5.045,0.633c1.788-0.001,3.619-0.36,5.322-0.982
		c1.701-0.626,3.277-1.512,4.537-2.643l-0.001,0.001c1.617-1.454,2.861-3.396,3.717-5.584c0.854-2.189,1.317-4.633,1.317-7.125
		c0.004-3.037-0.713-5.788-2.158-8.188l-0.004-0.007c-0.664-1.104-1.433-2.062-2.6-3.126c-1.168-1.07-2.741-2.292-5.199-4.137
		l0.008,0.005c-1.896-1.435-3.064-2.535-3.695-3.439c-0.318-0.453-0.512-0.852-0.639-1.263c-0.125-0.41-0.186-0.844-0.186-1.375
		c0.006-1.075,0.338-1.813,0.851-2.327c0.519-0.507,1.281-0.848,2.401-0.854c0.965,0.004,1.758,0.167,2.688,0.574
		c0.925,0.407,1.98,1.088,3.296,2.127c0.45,0.356,1.067,0.424,1.583,0.173c0.518-0.25,0.846-0.775,0.846-1.35v-9.217
		c0-0.541-0.286-1.034-0.756-1.303c-1.582-0.904-3.031-1.557-4.51-1.977c-1.479-0.42-2.969-0.598-4.586-0.597
		c-4.129-0.01-7.742,1.621-10.23,4.438c-2.497,2.812-3.873,6.736-3.871,11.248c-0.008,3.238,0.631,6.037,2.197,8.542
		C34.949,149.165,37.34,151.322,40.699,153.613z"/>
	<path fill="#FFFFFF" d="M65.865,167.622L65.865,167.622c0,0,0.003,0.003,0.004,0.005c0.004,0.006,0.008,0.013,0.012,0.019
		l0.002-0.001c1.551,2.257,3.666,4.092,6.044,5.375c2.388,1.285,5.048,2.022,7.706,2.024c2.625-0.002,5.266-0.74,7.645-2.026
		c2.367-1.283,4.48-3.116,6.032-5.373l0.002,0.001c0.005-0.006,0.008-0.013,0.012-0.019c0,0,0.003-0.003,0.004-0.005h-0.001
		c1.627-2.291,2.798-4.96,3.551-8.071c0.757-3.125,1.104-6.697,1.104-10.849c-0.001-4.117-0.348-7.688-1.104-10.812
		c-0.753-3.109-1.922-5.778-3.554-8.04l0.001-0.001c-0.004-0.007-0.01-0.013-0.014-0.019c-0.002-0.004-0.004-0.007-0.006-0.01
		h-0.001c-3.169-4.557-8.384-7.377-13.671-7.389c-2.658,0.002-5.318,0.739-7.706,2.024c-2.378,1.284-4.493,3.118-6.044,5.375
		l-0.002-0.001c-0.004,0.006-0.008,0.013-0.012,0.019c-0.001,0.002-0.003,0.003-0.003,0.003l-0.001,0.002
		c-1.627,2.291-2.797,4.959-3.551,8.062c-0.756,3.115-1.104,6.67-1.104,10.787c0,4.151,0.348,7.724,1.104,10.849
		C63.068,162.662,64.238,165.331,65.865,167.622z M84.326,155.658c-0.322,1.964-0.803,3.503-1.34,4.511l-0.007,0.014
		c-0.483,0.939-1.089,1.643-1.687,2.087c-0.602,0.447-1.177,0.631-1.66,0.63c-0.469-0.001-0.959-0.132-1.453-0.422
		c-0.492-0.29-0.984-0.743-1.412-1.371l-0.031-0.044c-0.712-0.961-1.332-2.488-1.744-4.595c-0.415-2.104-0.629-4.771-0.629-7.981
		c0-2.744,0.177-5.116,0.502-7.072c0.322-1.956,0.801-3.494,1.349-4.555l-0.001,0.001c0.484-0.938,1.086-1.638,1.689-2.081
		c0.607-0.445,1.194-0.635,1.73-0.635c0.392-0.001,0.868,0.131,1.369,0.438c0.499,0.304,1.01,0.775,1.441,1.383l0.013,0.017
		c0.712,0.961,1.332,2.487,1.743,4.594c0.416,2.104,0.63,4.772,0.629,7.982C84.829,151.302,84.652,153.693,84.326,155.658z"/>
	<path fill="#FFFFFF" d="M108.494,167.199c4.059,4.693,9.828,7.562,16.354,7.557c0.834,0,1.572-0.038,2.343-0.176
		c0.771-0.138,1.544-0.365,2.485-0.705c0.598-0.215,0.992-0.777,0.992-1.411v-9.072c0-0.486-0.234-0.94-0.631-1.223
		c-0.396-0.282-0.901-0.354-1.361-0.194c-0.789,0.274-1.346,0.43-1.818,0.519c-0.473,0.088-0.878,0.117-1.434,0.118
		c-1.396-0.001-2.711-0.356-3.934-1.021c-1.83-0.994-3.447-2.705-4.604-4.938c-1.155-2.23-1.845-4.968-1.845-7.951
		c-0.001-4.433,1.131-7.947,2.975-10.289c0.923-1.174,2.021-2.066,3.284-2.678c1.267-0.61,2.707-0.941,4.339-0.942
		c0.514,0.001,0.905,0.029,1.379,0.101c0.474,0.07,1.034,0.188,1.815,0.366c0.443,0.101,0.912-0.006,1.269-0.291
		c0.356-0.283,0.563-0.717,0.563-1.172v-8.713c0-0.639-0.406-1.21-1.01-1.418c-1.082-0.374-1.953-0.621-2.853-0.766
		c-0.9-0.145-1.784-0.181-2.894-0.181c-5.308,0.008-10.62,2.507-14.618,6.651l0.003-0.003c-4.837,4.981-7.272,11.683-7.264,19.334
		C102.034,156.013,104.428,162.508,108.494,167.199z"/>
	<path fill="#FFFFFF" d="M137.086,174.252h9.504c0.396,0,0.781-0.16,1.062-0.439s0.438-0.666,0.438-1.061v-48.028
		c0-0.396-0.159-0.781-0.438-1.061c-0.278-0.28-0.665-0.439-1.062-0.439h-9.504c-0.396,0-0.781,0.16-1.062,0.439
		c-0.28,0.279-0.438,0.665-0.438,1.061v48.028c0,0.395,0.16,0.781,0.438,1.061C136.304,174.093,136.691,174.252,137.086,174.252z"/>
	<path fill="#FFFFFF" d="M163.323,173.054l1.41-6.866h7.213l1.475,6.879c0.147,0.69,0.761,1.186,1.467,1.186h10.082
		c0.461,0,0.891-0.209,1.177-0.57s0.39-0.829,0.282-1.277l-11.449-48.028c-0.161-0.675-0.768-1.152-1.459-1.152h-10.01
		c-0.697,0-1.303,0.481-1.461,1.16l-11.16,48.028c-0.104,0.443,0.002,0.916,0.285,1.272s0.72,0.567,1.176,0.567h9.504
		C162.564,174.252,163.18,173.75,163.323,173.054z M168.668,150.095L168.668,150.095l1.201,5.676h-3.007l0.996-4.82l-0.001,0.007
		c0.165-0.781,0.321-1.624,0.473-2.494C168.437,148.994,168.549,149.537,168.668,150.095z"/>
	<path fill="#FFFFFF" d="M211.299,162.69c-0.279-0.279-0.666-0.439-1.062-0.439h-8.438v-37.527c0-0.396-0.159-0.781-0.438-1.061
		c-0.278-0.28-0.665-0.439-1.062-0.439h-9.504c-0.396,0-0.78,0.16-1.061,0.439c-0.279,0.279-0.439,0.665-0.439,1.061v48.028
		c0,0.395,0.16,0.781,0.439,1.061s0.665,0.439,1.061,0.439h19.441c0.395,0,0.781-0.16,1.061-0.439
		c0.281-0.279,0.439-0.666,0.439-1.061v-9.001C211.738,163.355,211.579,162.97,211.299,162.69z"/>
	<path fill="#FFFFFF" d="M46.626,215.244c0.191,0.472,0.649,0.78,1.158,0.78h6.323c0.328,0,0.65-0.134,0.883-0.366
		c0.233-0.232,0.367-0.555,0.367-0.884v-33.739c0-0.329-0.134-0.651-0.367-0.884c-0.232-0.233-0.555-0.366-0.883-0.366h-6.829
		c-0.329,0-0.651,0.133-0.884,0.366c-0.232,0.232-0.366,0.555-0.366,0.884v12.711l-5.331-13.18c-0.19-0.473-0.648-0.781-1.158-0.781
		h-6.322c-0.33,0-0.652,0.133-0.885,0.366c-0.232,0.232-0.365,0.555-0.365,0.884v33.739c0,0.329,0.133,0.651,0.365,0.884
		c0.232,0.233,0.555,0.366,0.885,0.366h6.676c0.33,0,0.652-0.134,0.885-0.366c0.233-0.232,0.365-0.555,0.365-0.884v-13.052
		L46.626,215.244z"/>
	<path fill="#FFFFFF" d="M72.475,207.303h-5.578v-5.088h4.668c0.33,0,0.652-0.134,0.885-0.366c0.233-0.232,0.365-0.555,0.365-0.884
		v-6.373c0-0.329-0.133-0.651-0.365-0.884c-0.232-0.233-0.555-0.366-0.885-0.366h-4.668v-4.834h5.478
		c0.329,0,0.651-0.134,0.884-0.366c0.233-0.232,0.366-0.555,0.366-0.884v-6.223c0-0.329-0.134-0.651-0.366-0.884
		c-0.232-0.233-0.555-0.366-0.884-0.366H58.97c-0.329,0-0.651,0.133-0.884,0.366c-0.232,0.232-0.366,0.555-0.366,0.884v33.739
		c0,0.329,0.134,0.651,0.366,0.884c0.232,0.233,0.555,0.366,0.884,0.366h13.505c0.33,0,0.652-0.134,0.885-0.366
		c0.233-0.232,0.365-0.555,0.365-0.884v-6.222c0-0.329-0.133-0.651-0.365-0.884C73.127,207.436,72.805,207.303,72.475,207.303z"/>
	<path fill="#FFFFFF" d="M90.367,188.457h4.01c0.33,0,0.651-0.134,0.885-0.366c0.232-0.232,0.365-0.555,0.365-0.884v-6.172
		c0-0.329-0.133-0.651-0.365-0.884c-0.232-0.233-0.555-0.366-0.885-0.366H77.23c-0.33,0-0.652,0.133-0.885,0.366
		c-0.232,0.232-0.365,0.555-0.365,0.884v6.172c0,0.329,0.133,0.651,0.365,0.884c0.232,0.233,0.555,0.366,0.885,0.366h3.959v26.317
		c0,0.329,0.134,0.651,0.367,0.884c0.232,0.232,0.555,0.366,0.883,0.366h6.678c0.329,0,0.651-0.134,0.884-0.366
		c0.233-0.232,0.366-0.555,0.366-0.884V188.457z"/>
	<path fill="#FFFFFF" d="M115.901,200.351c0.118,0.539,0.253,1.125,0.411,1.809l0.002,0.003l3.035,12.898
		c0.133,0.566,0.635,0.964,1.217,0.964h5.815c0.593,0,1.105-0.418,1.226-0.999l6.931-33.738c0.075-0.368-0.019-0.751-0.256-1.042
		c-0.236-0.291-0.595-0.46-0.97-0.46h-6.931c-0.604,0-1.123,0.434-1.229,1.028l-2.428,13.455c-0.021,0.11-0.037,0.21-0.056,0.312
		l-2.801-13.794c-0.119-0.584-0.629-1.001-1.226-1.001h-5.261c-0.592,0-1.104,0.417-1.224,0.997l-2.926,14.157l-2.613-14.132
		c-0.11-0.594-0.626-1.022-1.229-1.022h-6.828c-0.375,0-0.73,0.168-0.968,0.459c-0.237,0.29-0.332,0.671-0.257,1.039l6.828,33.739
		c0.118,0.584,0.629,1.002,1.225,1.002h5.817c0.581,0,1.083-0.396,1.216-0.962l3.137-13.253
		C115.696,201.236,115.805,200.775,115.901,200.351z"/>
	<path fill="#FFFFFF" d="M137.303,211.281L137.303,211.281c0.002,0.004,0.004,0.007,0.006,0.011
		c0.002,0.003,0.004,0.006,0.004,0.006l0.004,0.002c1.107,1.612,2.616,2.92,4.312,3.835c1.703,0.918,3.602,1.445,5.506,1.446
		c1.882-0.002,3.768-0.53,5.464-1.447c1.688-0.915,3.196-2.222,4.305-3.834l0.001,0.001c0.002-0.003,0.004-0.006,0.006-0.009
		c0.002-0.004,0.006-0.007,0.008-0.01l-0.002-0.001c1.158-1.631,1.99-3.529,2.523-5.734c0.537-2.215,0.781-4.739,0.781-7.667
		c0-2.903-0.244-5.427-0.781-7.642c-0.533-2.202-1.363-4.103-2.525-5.713l0.002-0.001c-0.004-0.005-0.008-0.009-0.012-0.015
		c-0.002-0.002-0.004-0.006-0.006-0.009l-0.002,0.001c-2.264-3.252-5.977-5.263-9.762-5.272c-1.903,0.001-3.803,0.528-5.506,1.445
		c-1.696,0.915-3.205,2.224-4.312,3.836l-0.002-0.001c0,0-0.004,0.006-0.006,0.009c-0.002,0.004-0.004,0.007-0.008,0.01l0.002,0.001
		c-1.158,1.63-1.99,3.529-2.523,5.728c-0.535,2.208-0.781,4.72-0.781,7.623c0,2.928,0.244,5.452,0.781,7.667
		C135.312,207.752,136.145,209.65,137.303,211.281z M150.239,202.734c-0.224,1.365-0.558,2.429-0.921,3.109l-0.006,0.012
		c-0.328,0.636-0.735,1.106-1.129,1.397c-0.396,0.294-0.759,0.405-1.05,0.404c-0.57,0.002-1.268-0.33-1.85-1.175l-0.025-0.036
		c-0.477-0.641-0.905-1.687-1.19-3.149c-0.288-1.46-0.438-3.323-0.438-5.569c0-1.919,0.123-3.575,0.351-4.936
		c0.226-1.359,0.556-2.422,0.929-3.142c0.327-0.636,0.731-1.103,1.127-1.393c0.398-0.292,0.771-0.408,1.1-0.408
		c0.232-0.001,0.533,0.079,0.859,0.278c0.325,0.198,0.666,0.512,0.957,0.918l0.01,0.014c0.475,0.641,0.904,1.688,1.189,3.149
		c0.288,1.461,0.438,3.323,0.438,5.569C150.59,199.697,150.465,201.367,150.239,202.734z"/>
	<path fill="#FFFFFF" d="M171.924,179.785h-7.232c-0.329,0-0.65,0.133-0.884,0.366c-0.233,0.232-0.366,0.555-0.366,0.884v33.739
		c0,0.329,0.133,0.651,0.366,0.884c0.231,0.232,0.555,0.366,0.884,0.366h6.678c0.328,0,0.65-0.134,0.883-0.366
		c0.233-0.232,0.367-0.555,0.367-0.884v-8.769l3.5,9.213c0.185,0.486,0.646,0.806,1.168,0.806h7.03c0.409,0,0.798-0.204,1.029-0.541
		s0.284-0.772,0.139-1.154l-5.517-14.456c1.338-0.953,2.423-2.066,3.18-3.379c0.92-1.588,1.359-3.423,1.357-5.443
		c0-2.012-0.399-3.89-1.17-5.518c-0.771-1.626-1.918-3.004-3.387-3.971c-0.979-0.653-2.105-1.105-3.414-1.383
		C175.223,179.9,173.725,179.785,171.924,179.785z M172.618,187.557c0.381,0.008,0.664,0.021,0.862,0.041
		c0.354,0.039,0.444,0.065,0.685,0.153c0.381,0.179,0.682,0.462,0.938,0.988c0.256,0.53,0.429,1.311,0.428,2.312
		c-0.004,1.188-0.329,1.972-0.81,2.473c-0.245,0.254-0.54,0.452-0.924,0.598c-0.322,0.122-0.725,0.191-1.18,0.213V187.557
		L172.618,187.557z"/>
	<polygon fill="#FFFFFF" points="179.947,181.561 179.95,181.562 179.952,181.563 	"/>
	<path fill="#FFFFFF" d="M189.885,216.024h6.677c0.329,0,0.651-0.134,0.884-0.366c0.233-0.232,0.366-0.555,0.366-0.884v-10.038
		l3.797,10.465c0.179,0.492,0.649,0.823,1.175,0.823h6.98c0.414,0,0.796-0.201,1.029-0.542c0.234-0.342,0.285-0.771,0.138-1.156
		l-6.806-17.702l6.041-15.125c0.152-0.385,0.104-0.822-0.127-1.165s-0.621-0.549-1.035-0.549h-6.828
		c-0.521,0-0.989,0.325-1.172,0.813l-3.192,8.573v-8.137c0-0.329-0.134-0.651-0.366-0.884s-0.555-0.366-0.884-0.366h-6.677
		c-0.329,0-0.651,0.133-0.885,0.366c-0.232,0.232-0.365,0.555-0.365,0.884v33.739c0,0.329,0.133,0.651,0.365,0.884
		C189.233,215.891,189.556,216.024,189.885,216.024z"/>
	<path fill="#FFFFFF" d="M37.96,220.663h-5.007c-0.264,0-0.521,0.106-0.707,0.293c-0.187,0.187-0.293,0.443-0.293,0.707v25.302
		c0,0.264,0.106,0.521,0.293,0.707c0.186,0.187,0.443,0.293,0.707,0.293h5.007c0.263,0,0.521-0.106,0.707-0.293
		s0.293-0.443,0.293-0.707v-25.302c0-0.264-0.106-0.521-0.293-0.707S38.223,220.663,37.96,220.663z"/>
	<path fill="#FFFFFF" d="M57.771,220.663H52.65c-0.263,0-0.521,0.106-0.707,0.293s-0.293,0.443-0.293,0.707v9.209l-3.876-9.584
		c-0.153-0.378-0.52-0.625-0.927-0.625h-4.742c-0.264,0-0.521,0.106-0.707,0.293c-0.187,0.187-0.293,0.443-0.293,0.707v25.302
		c0,0.264,0.106,0.521,0.293,0.707c0.186,0.187,0.443,0.293,0.707,0.293h5.007c0.263,0,0.521-0.106,0.707-0.293
		s0.293-0.443,0.293-0.707v-9.467l3.991,9.843c0.153,0.377,0.52,0.624,0.927,0.624h4.741c0.264,0,0.521-0.106,0.707-0.293
		c0.187-0.187,0.293-0.443,0.293-0.707v-25.302c0-0.264-0.106-0.521-0.293-0.707C58.293,220.77,58.035,220.663,57.771,220.663z"/>
	<path fill="#FFFFFF" d="M74.306,220.663h-12.86c-0.263,0-0.521,0.106-0.707,0.293c-0.186,0.187-0.293,0.443-0.293,0.707v4.628
		c0,0.264,0.106,0.521,0.293,0.707s0.444,0.293,0.707,0.293h2.907v19.674c0,0.264,0.106,0.521,0.293,0.707
		c0.186,0.187,0.443,0.293,0.707,0.293h5.008c0.263,0,0.521-0.106,0.707-0.293s0.293-0.443,0.293-0.707v-19.674h2.944
		c0.263,0,0.521-0.106,0.707-0.293s0.293-0.443,0.293-0.707v-4.628c0-0.264-0.106-0.521-0.293-0.707S74.568,220.663,74.306,220.663z
		"/>
	<path fill="#FFFFFF" d="M88.357,241.299h-4.121v-3.689h3.438c0.264,0,0.521-0.106,0.707-0.293c0.187-0.187,0.293-0.443,0.293-0.707
		v-4.78c0-0.264-0.105-0.521-0.293-0.707c-0.186-0.187-0.443-0.293-0.707-0.293h-3.438v-3.5h4.045c0.264,0,0.521-0.106,0.707-0.293
		s0.293-0.443,0.293-0.707v-4.666c0-0.264-0.106-0.521-0.293-0.707c-0.186-0.187-0.443-0.293-0.707-0.293H78.229
		c-0.263,0-0.521,0.106-0.707,0.293s-0.293,0.443-0.293,0.707v25.302c0,0.264,0.107,0.521,0.293,0.707
		c0.187,0.187,0.444,0.293,0.707,0.293h10.129c0.263,0,0.521-0.106,0.707-0.293s0.293-0.443,0.293-0.707V242.3
		c0-0.264-0.107-0.521-0.293-0.707C88.878,241.405,88.62,241.299,88.357,241.299z"/>
	<path fill="#FFFFFF" d="M108.185,231.892h-8.155c-0.264,0-0.521,0.106-0.707,0.293c-0.187,0.187-0.293,0.443-0.293,0.707v4.477
		c0,0.264,0.106,0.521,0.293,0.707c0.186,0.187,0.443,0.293,0.707,0.293h2.146c-0.016,0.255-0.035,0.475-0.061,0.666
		c-0.055,0.409-0.129,0.715-0.266,1.129l-0.013,0.041c-0.192,0.673-0.458,1.089-0.72,1.321c-0.266,0.229-0.533,0.336-0.975,0.343
		c-0.428-0.005-0.722-0.106-1.016-0.324c-0.437-0.323-0.893-1.031-1.209-2.239c-0.318-1.2-0.494-2.855-0.492-4.934
		c0.002-2.552,0.252-4.186,0.816-5.854c0.266-0.752,0.578-1.221,0.867-1.474c0.294-0.251,0.555-0.352,0.996-0.359
		c0.433,0.002,0.839,0.247,1.069,0.72c0.117,0.254,0.18,0.41,0.249,0.669c0.069,0.262,0.142,0.638,0.234,1.25
		c0.045,0.3,0.225,0.563,0.486,0.716c0.264,0.152,0.58,0.177,0.863,0.067l4.894-1.896c0.487-0.188,0.747-0.721,0.597-1.221
		c-0.632-2.103-1.689-3.803-3.143-4.972c-1.449-1.172-3.275-1.775-5.289-1.771c-1.549-0.001-2.986,0.344-4.244,1.018
		c-1.893,1.009-3.346,2.736-4.301,4.969c-0.957,2.236-1.443,4.988-1.445,8.177c0.003,4.091,0.907,7.53,2.631,10.016
		c0.861,1.24,1.936,2.237,3.189,2.918c1.252,0.682,2.68,1.04,4.209,1.039c1.375,0.001,2.666-0.3,3.805-0.903
		c1.137-0.6,2.111-1.494,2.891-2.63l0,0c0.002-0.002,0.002-0.004,0.004-0.005c0.002-0.003,0.004-0.005,0.004-0.005v-0.003
		c0.85-1.203,1.453-2.562,1.831-4.127c0.381-1.57,0.544-3.346,0.545-5.428v-2.39c0-0.264-0.106-0.521-0.293-0.707
		S108.447,231.892,108.185,231.892z"/>
	<path fill="#FFFFFF" d="M124.008,235.814c0.99-0.713,1.797-1.547,2.363-2.526c0.694-1.202,1.026-2.591,1.024-4.114
		c0-1.517-0.301-2.934-0.883-4.164c-0.582-1.229-1.451-2.272-2.562-3.006l0.002,0.003c-0.74-0.495-1.596-0.838-2.584-1.047
		c-0.99-0.21-2.119-0.297-3.471-0.297h-5.425c-0.263,0-0.521,0.106-0.707,0.293s-0.293,0.443-0.293,0.707v25.302
		c0,0.264,0.107,0.521,0.293,0.707c0.187,0.187,0.444,0.293,0.707,0.293h5.008c0.265,0,0.521-0.106,0.707-0.293
		s0.293-0.443,0.293-0.707v-6.235l2.503,6.591c0.146,0.389,0.52,0.645,0.936,0.645h5.272c0.328,0,0.638-0.163,0.824-0.433
		c0.187-0.271,0.228-0.618,0.108-0.924L124.008,235.814z M118.482,226.617c0.254,0.006,0.44,0.016,0.578,0.029
		c0.26,0.029,0.319,0.048,0.494,0.11c0.271,0.128,0.483,0.327,0.672,0.711c0.188,0.386,0.315,0.963,0.313,1.706
		c-0.002,0.879-0.242,1.449-0.59,1.812c-0.312,0.32-0.772,0.535-1.469,0.583L118.482,226.617L118.482,226.617z"/>
	<polygon fill="#FFFFFF" points="137.887,235.521 137.887,235.522 137.886,235.526 	"/>
	<path fill="#FFFFFF" d="M142.385,221.432c-0.106-0.45-0.51-0.769-0.973-0.769h-5.271c-0.465,0-0.869,0.32-0.975,0.773
		l-5.881,25.302c-0.068,0.296,0.002,0.61,0.19,0.849c0.188,0.237,0.479,0.378,0.782,0.378h5.009c0.476,0,0.885-0.335,0.979-0.799
		l0.707-3.449h3.459l0.741,3.457c0.099,0.461,0.507,0.791,0.978,0.791h5.312c0.309,0,0.596-0.14,0.784-0.381
		c0.19-0.24,0.26-0.553,0.188-0.852L142.385,221.432z M138.689,235.253l0.541,2.557h-1.065l0.473-2.287
		C138.654,235.436,138.672,235.342,138.689,235.253z"/>
	<path fill="#FFFFFF" d="M160.092,220.663h-12.859c-0.264,0-0.521,0.106-0.707,0.293c-0.188,0.187-0.293,0.443-0.293,0.707v4.628
		c0,0.264,0.105,0.521,0.293,0.707c0.186,0.187,0.443,0.293,0.707,0.293h2.906v19.674c0,0.264,0.107,0.521,0.293,0.707
		c0.188,0.187,0.443,0.293,0.707,0.293h5.008c0.264,0,0.521-0.106,0.707-0.293c0.188-0.187,0.293-0.443,0.293-0.707v-19.674h2.945
		c0.263,0,0.521-0.106,0.707-0.293c0.186-0.187,0.293-0.443,0.293-0.707v-4.628c0-0.264-0.107-0.521-0.293-0.707
		C160.612,220.77,160.354,220.663,160.092,220.663z"/>
	<path fill="#FFFFFF" d="M168.021,220.663h-5.007c-0.264,0-0.521,0.106-0.707,0.293s-0.293,0.443-0.293,0.707v25.302
		c0,0.264,0.105,0.521,0.293,0.707s0.443,0.293,0.707,0.293h5.007c0.265,0,0.521-0.106,0.707-0.293s0.293-0.443,0.293-0.707v-25.302
		c0-0.264-0.106-0.521-0.293-0.707C168.543,220.77,168.286,220.663,168.021,220.663z"/>
	<line fill="none" x1="179.646" y1="228.153" x2="179.647" y2="228.153"/>
	<path fill="#FFFFFF" d="M188.648,224.244l-0.004-0.004c-0.004-0.006-0.006-0.011-0.011-0.016l-0.002,0.001
		c-1.709-2.454-4.51-3.972-7.37-3.979c-2.868,0.014-5.728,1.555-7.414,3.986v-0.001c-0.003,0.003-0.005,0.007-0.007,0.011
		c-0.002,0.002-0.004,0.003-0.006,0.005h0.002c-0.873,1.23-1.5,2.662-1.901,4.316c-0.404,1.662-0.588,3.551-0.588,5.731
		c0,2.199,0.185,4.098,0.588,5.765c0.401,1.659,1.028,3.091,1.901,4.321h-0.002c0.002,0.002,0.004,0.004,0.006,0.006
		c0.002,0.003,0.004,0.007,0.007,0.01v-0.001c1.687,2.432,4.546,3.973,7.414,3.986c1.424-0.001,2.848-0.4,4.127-1.093
		c1.274-0.69,2.411-1.676,3.25-2.894v0.001c0.003-0.003,0.004-0.007,0.007-0.01c0.001-0.002,0.003-0.004,0.005-0.006h-0.001
		c0.873-1.23,1.5-2.662,1.9-4.321c0.404-1.667,0.589-3.565,0.589-5.765C191.139,229.955,190.409,226.694,188.648,224.244
		L188.648,224.244z M179.646,228.153l0.002-0.002L179.646,228.153c0.243-0.471,0.541-0.813,0.829-1.023
		c0.29-0.213,0.556-0.294,0.785-0.294c0.162-0.001,0.375,0.055,0.613,0.199c0.235,0.144,0.485,0.373,0.698,0.672l0.009,0.012
		c0.349,0.469,0.668,1.245,0.881,2.336c0.215,1.089,0.328,2.482,0.328,4.164c0,1.438-0.094,2.687-0.263,3.706
		c-0.167,1.021-0.417,1.812-0.685,2.313l-0.004,0.009c-0.242,0.47-0.543,0.815-0.828,1.026c-0.287,0.214-0.547,0.291-0.75,0.291
		c-0.404,0.001-0.908-0.233-1.336-0.854l-0.021-0.029c-0.35-0.469-0.67-1.245-0.883-2.336c-0.215-1.09-0.328-2.482-0.327-4.164
		C178.688,231.312,179.088,229.219,179.646,228.153z"/>
	<path fill="#FFFFFF" d="M210.096,220.663h-5.121c-0.264,0-0.521,0.106-0.707,0.293c-0.188,0.187-0.293,0.443-0.293,0.707v9.209
		l-3.877-9.584c-0.152-0.378-0.52-0.625-0.928-0.625h-4.741c-0.263,0-0.521,0.106-0.707,0.293s-0.293,0.443-0.293,0.707v25.302
		c0,0.264,0.106,0.521,0.293,0.707s0.444,0.293,0.707,0.293h5.007c0.264,0,0.521-0.106,0.707-0.293
		c0.188-0.187,0.293-0.443,0.293-0.707v-9.467l3.99,9.843c0.154,0.377,0.52,0.624,0.928,0.624h4.742
		c0.263,0,0.521-0.106,0.707-0.293s0.293-0.443,0.293-0.707v-25.302c0-0.264-0.107-0.521-0.293-0.707
		C210.616,220.77,210.358,220.663,210.096,220.663z"/>
	<g>
		<path fill="#FFFFFF" d="M65.005,92.25c5.979,3.691,11.936,11.582,19.708,12.474c0.799,0.091,2.51,0.174,3.493,0
			c3.317-0.589,4.788-4.682,10.229-3.742c0.995,0.669,1.985,1.341,2.745,2.245c1.691,0.137,3.951-0.293,5.238,0.249
			c-10.81,1.17-9.432,15.843-22.203,14.221c-0.93,0.983-0.974,2.852-0.998,4.739c1.383,0.771,3.717,3.001,2.744,4.491
			c-1.08-0.666-1.027-2.466-2.245-2.994c-0.386,0.439,1.255,3.976-0.499,4.241c-0.411-1.584-0.17-3.822-0.998-4.989
			c-1.293-0.369-2.916,0.707-3.243-0.249c0.064-1.184,1.886-0.609,2.993-0.749c0.529-1.218,0.636-2.857,0.749-4.49
			c-0.932-0.815-2.603-0.89-3.493-1.747c-0.588,2.405-1.367,4.62-1.995,6.986c0.948,1.571,3.69,2.594,2.993,4.989
			c-1.316-0.513-1.069-2.59-2.494-2.994c0.066,1.431,0.972,3.259-0.25,3.992c-0.768-0.812-0.049-3.72-1.247-4.74
			c-1.419-0.242-2.723,0.514-3.243-0.25c0.064-1.183,1.886-0.608,2.994-0.748c1.176-2.149,1.271-5.382,2.494-7.484
			c-1.549-1.929-2.921-3.065-3.492-5.488c-0.254-1.073,0.168-2.569-0.25-3.742c-0.369-1.038-1.181-1.196-1.996-1.996
			c-0.966-0.948-2.113-2.578-3.492-3.991C66.695,97.87,64.256,97.1,65.005,92.25z M95.441,104.973
			c1.477,0.231,2.056-0.914,1.496-1.996C95.387,101.721,94.132,104.067,95.441,104.973z"/>
	</g>
</g>
</svg>
