<?xml version="1.0" encoding="utf-8"?>
<!-- Generator: Adobe Illustrator 14.0.0, SVG Export Plug-In . SVG Version: 6.00 Build 43363)  -->
<!DOCTYPE svg PUBLIC "-//W3C//DTD SVG 1.1//EN" "http://www.w3.org/Graphics/SVG/1.1/DTD/svg11.dtd">
<svg version="1.1" xmlns="http://www.w3.org/2000/svg" xmlns:xlink="http://www.w3.org/1999/xlink" x="0px" y="0px" width="100px"
	 height="100px" viewBox="0 0 100 100" enable-background="new 0 0 100 100" xml:space="preserve">
<g id="Layer_2">
	<rect x="0" y="0" width="100" height="100"/>
	<g>
		<path fill-rule="evenodd" clip-rule="evenodd" fill="#FFFFFF" d="M35.867,35.894c-0.666-1.041-1.163-2.253-2.086-3.036
			C35.513,31.323,37.45,34.62,35.867,35.894z"/>
		<path fill-rule="evenodd" clip-rule="evenodd" fill="#FFFFFF" d="M64.512,66.435c2.391-0.961,4.987-1.717,8.536-1.519
			c-0.403-1.382-1.925-1.889-3.034-2.655c-1.103-0.762-2.258-1.834-3.605-2.466c-1.582-0.742-3.771-0.726-5.311-1.706
			c-2.236-1.425-3.443-6.395-4.553-8.727c-1.493-3.137-2.876-6.344-4.553-8.727c-3.279-4.657-9.031-10.256-14.797-11.572
			c-1.014-0.23-2.889,0.082-4.362-0.379c-2.63-0.819-4.296-4.385-8.347-3.225c0.031,0.221-0.042,0.338-0.189,0.379
			c0.257,2.832,2.673,4.241,3.982,6.639c1.368,2.504,1.634,5.68,3.036,8.158c0.539,0.951,2.072,2.061,2.277,3.225
			c0.326,1.854-1.259,3.561-1.519,5.881c-0.497,4.45,0.107,8.588,3.036,10.434c0.511-3.156,0.881-6.453,2.845-8.157
			c2.486,5.355,4.854,10.828,9.106,14.417c-3.216-2.286-7.227-5.42-8.727-10.054c-1.23,1.976-0.174,5.688-2.846,5.88
			c-5.326,0.385-6.288-13.741-3.415-17.833c-2.546-1.963-3.051-6.447-4.931-10.622c-1.097-2.437-4.529-4.515-4.553-7.397
			c-0.048-5.705,9.104-2.235,11.003,0.379c9.124,0.639,14.665,5.773,19.158,11.383c3.236,4.035,4.775,8.546,7.21,13.467
			c0.651,1.318,1.425,3.773,2.276,4.553c0.968,0.891,2.76,1.023,4.172,1.709c3.771,1.826,7.02,4.639,9.106,7.965
			c-2.565,0.598-5.321,1.004-7.968,1.519c2.87,3.518,7.729,5.045,9.864,9.294c-1.345-0.344-2.107-1.668-3.414-2.465
			C70.453,72.052,65.608,71.159,64.512,66.435z"/>
	</g>
</g>
<g id="Layer_1">
</g>
</svg>
