<?xml version="1.0" encoding="utf-8"?>
<!-- Generator: Adobe Illustrator 14.0.0, SVG Export Plug-In . SVG Version: 6.00 Build 43363)  -->
<!DOCTYPE svg PUBLIC "-//W3C//DTD SVG 1.1//EN" "http://www.w3.org/Graphics/SVG/1.1/DTD/svg11.dtd">
<svg version="1.1" xmlns="http://www.w3.org/2000/svg" xmlns:xlink="http://www.w3.org/1999/xlink" x="0px" y="0px" width="100px"
	 height="100px" viewBox="0 0 100 100" enable-background="new 0 0 100 100" xml:space="preserve">
<g id="Layer_2">
	<rect x="0" width="100" height="100"/>
	<g>
		<path fill-rule="evenodd" clip-rule="evenodd" fill="#FFFFFF" d="M77.801,72.541c0,0.288,0,0.576,0,0.861
			c-1.336,2.003-3.852,2.743-6.151,3.998c-1.156,0.63-2.147,1.348-3.013,2.092c-0.917,0.786-1.613,1.772-2.645,2.396
			c-1.475,0.897-5.083,0.913-6.396-0.183c-0.689-0.573-1.037-1.875-1.723-2.213c-0.675-0.333-2.527-0.214-3.566-0.247
			c-3.52-0.111-8.19-0.408-10.703,0.738c-1.285,0.587-2.604,2.414-4.122,2.643c-1.57,0.24-3.302-0.679-4.489-1.166
			c-1.335-0.55-2.581-1.053-4.183-1.477c-1.342-0.355-3.04-0.664-4.612-1.047c-1.335-0.322-3.489-0.586-3.998-1.721
			c0-0.41,0-0.821,0-1.23c0.288-0.807,0.597-1.365,0.737-2.337c0.31-2.142-1.577-5.147,0.308-6.274
			c1.008-0.602,2.785,0.004,3.937-0.491c0.745-0.321,1.144-0.985,1.414-1.661c0.179-0.448,0.193-1.141,0.8-1.477
			c0.371,0.733,0.116,1.615-0.062,2.215c-0.409,1.383-1.286,2.086-3.136,2.03c-1.196-0.038-2.426-0.532-2.829,0.307
			c-0.378,0.787,0.198,1.489,0.43,2.03c0.274,0.636,0.6,1.385,0.677,2.029c0.166,1.402-0.329,2.25-0.862,3.014
			c-0.121,0.173-0.646,0.77-0.554,1.229c0.103,0.509,1.185,0.712,1.785,0.861c3.726,0.925,7.228,1.724,10.885,2.645
			c1.366,0.345,3.156,0.884,4.491,0.308c0.683-0.295,1.244-0.921,1.538-1.661c1.017-2.548-0.357-4.782-1.477-6.519
			c-1.654-2.57-3.125-4.951-5.043-7.381c-0.837-1.061-2.035-2.734-3.382-2.828c-0.949-0.066-0.973,0.459-1.97,0.43
			c-0.8-2.328,0.16-4.104,0.984-5.658c0.478-0.899,0.859-1.846,1.23-2.707c0.81-1.877,1.435-3.949,2.276-5.594
			c0.82-1.613,2.154-3.042,3.259-4.615c0.491-0.697,0.95-1.549,1.537-2.398c0.543-0.783,1.36-1.628,1.538-2.4
			c0.2-0.865-0.019-2.041-0.062-3.013c-0.317-7.245-1.376-15.027,3.628-17.713c2.887-1.548,7.743-1.179,10.396,0.062
			c2.766,1.29,4.622,3.624,5.105,7.442c0.461,3.669,0.178,7.858,1.598,10.948c1.204,2.623,2.896,5.422,4.736,7.811
			c1.79,2.324,3.422,4.736,4.551,7.994c0.953,2.751,2.346,7.841,0.861,10.334c-0.896,1.504-3.228,3.677-5.044,4.182
			c-2.946,0.82-4.003-1.822-4.798-3.566c-2.761-0.018-1.924,4.494-1.537,6.581c0.275,1.479,0.397,2.601,0.246,3.935
			c-0.139,1.22-0.625,2.729-0.307,3.998c0.493,1.973,2.952,3.08,5.104,2.154c1.016-0.437,1.811-1.295,2.769-2.029
			c0.897-0.689,1.886-1.395,3.015-1.847c1.066-0.425,2.318-0.698,3.566-1.229c1.016-0.431,2.559-1.291,2.46-2.398
			c-0.136-1.528-2.616-1.192-3.752-2.029c-0.537-0.398-1.068-1.428-1.292-2.399c-0.193-0.843-0.405-2.461,0.492-3.013
			c0.366,0.732,0.251,1.657,0.431,2.213C73.689,69.993,76.658,70.589,77.801,72.541z M53.998,20.876
			c-0.643,0.012-0.586,0.692-0.676,1.477c-0.088,0.203-0.482,0.35-0.309,0.617c0.602,0.202,0.926-0.486,1.477-0.617
			c0.325-0.078,0.653,0.107,0.984-0.123C55.31,21.731,54.568,20.866,53.998,20.876z M43.85,78.752
			c0.927-0.573,1.193-2.142,0.615-3.26c-0.305-0.589-1.133-0.856-0.983-1.536c1.216-0.115,1.398,0.731,2.151,1.107
			c0.513,0.255,1.235,0.385,1.846,0.429c3.189,0.229,6.623-0.563,8.18-2.09c0.508-0.497,1.316-2.249,2.152-2.091
			c0.568,0.107,0.56,1.327,0.432,2.028c-0.12,0.655-0.489,1.593-0.678,2.583c-0.154,0.826-0.534,2.273,0.617,2.338
			c0.606-2.517,0.932-6.578,0.922-10.024c-0.004-1.533-0.362-3.634,0.246-4.675c0.424-0.727,1.449-0.907,2.398-0.861
			c0.01-0.922,0.465-1.482,1.045-1.783c1.422-0.741,3.772-0.238,4.982,0.368c-0.387-0.822-1.31-1.109-2.091-1.536
			c0.366-1.93,0.94-3.806,0.614-5.966c-0.261-1.731-1.076-3.462-1.906-4.921c-0.84-1.478-1.902-3.023-3.26-3.506
			c0.973,1.295,2.274,3.215,3.321,5.411c1.014,2.13,1.657,5.111,1.046,7.384c-0.373,1.381-1.508,2.68-3.384,1.904
			c-0.402-1.195-0.245-2.338-0.245-3.383c0-3.881-1.129-5.896-2.521-8.488c-0.879-1.633-1.141-3.523-1.906-5.412
			c-0.664-1.634-2.441-3.037-2.522-4.797c-0.046-0.988,0.716-2.152,0.554-3.137c-0.142-0.857-1.486-1.039-2.584-1.415
			c-0.91-0.313-1.986-0.735-2.336-1.476c-0.623-1.312,0.141-3.029,1.229-3.199c1.738-0.271,2.567,1.01,2.277,2.522
			c-0.053,0.275-0.41,0.81-0.309,1.169c0.104,0.366,0.82,0.523,1.107,0.43c1.238-0.4,0.537-3.891-0.123-5.105
			c-0.527-0.971-2.729-1.856-4.059-1.045c-1.378,0.842-1.631,3.004-1.539,4.982c-0.801-0.265-1.966-0.166-2.828-0.369
			c-0.076-1.846-0.119-4.193-1.784-4.49c-3.057-0.545-3.114,4.838-1.538,6.334c0.447-0.066,0.501-0.521,0.738-0.797
			c-0.293-0.309-0.622-0.371-0.86-0.801c-0.655-1.18-0.31-3.335,1.413-2.83c0.875,0.256,1.449,1.859,1.108,2.83
			c-0.173,0.492-0.976,0.925-1.538,1.416c-0.734,0.637-2.079,1.277-1.906,2.396c0.081,0.525,0.826,0.677,1.107,0.924
			c0.563,0.489,0.761,1.164,1.291,1.415c0.326,0.151,0.904,0.239,1.415,0.245c1.731,0.019,4.019-0.73,5.474-1.291
			c0.599-0.232,1.296-0.402,1.66-0.616c0.425-0.247,0.41-0.894,1.17-0.8c0.721,0.67-0.607,1.197-1.17,1.416
			c-0.679,0.26-1.385,0.477-1.906,0.676c-1.213,0.461-2.529,1.24-3.752,1.354c-1.087,0.101-2.242-0.087-3.137-0.063
			c0.592,0.889,1.688,1.861,3.383,1.537c1.469-0.277,3.449-1.277,4.798-2.029c0.494-0.273,1.392-0.777,1.599-0.244
			c0.209,0.537-0.393,0.703-0.676,0.858c-1.318,0.728-2.332,1.204-3.506,2.031c-0.736,0.519-1.355,1.424-2.215,1.722
			c-3.2,1.114-3.443-2.649-5.166-3.445c-0.275,2.695-2.466,4.141-2.46,7.198c0.001,0.497,0.173,1.059,0.062,1.599
			c-0.159,0.769-1.119,1.663-1.477,2.338c-1.322,2.493-2.349,5.812-2.338,9.224c0.002,0.513,0.244,1.844-0.307,1.972
			c-0.523,0.115-1.363-0.938-1.66-1.416c-0.844-1.357-0.555-3.751-0.123-5.291c-0.411,0.083-0.504,0.636-0.615,0.984
			c-1.334,4.182,1.319,6.34,3.751,8.549c0.885,0.804,1.835,1.49,2.707,2.215c1.302,1.08,3.046,2.021,3.629,3.508
			c0.597,1.519-0.767,2.496-1.907,2.951C42.359,74.496,44.573,76.241,43.85,78.752z M52.029,29.302c0,0.063,0,0.123,0,0.186
			c0.137,0.047,0.24,0.13,0.432,0.123c0.479,0.301,0.51,1.049,0.861,1.477C53.992,30.333,53.076,28.935,52.029,29.302z
			 M44.157,29.425c-0.246-0.021-0.275,0.177-0.246,0.432c0.47,0.249,0.505,0.93,0.677,1.477
			C45.135,30.886,44.607,29.666,44.157,29.425z M59.533,39.452c0.299-0.256,0.453-0.655,0.492-1.168
			c-0.722-0.612-1.707-0.957-2.398-1.6C57.521,38.104,58.454,39.011,59.533,39.452z M36.654,48.923
			c0.063-0.211,0.134-0.615-0.123-0.799c-0.053-0.182-0.156,0.078-0.309,0c-0.212,0.854-0.762,1.37-1.046,2.152
			C35.675,50.122,36.486,49.48,36.654,48.923z"/>
		<path fill-rule="evenodd" clip-rule="evenodd" fill="#FFFFFF" d="M46.371,32.192c0.04,0.248-0.232,0.178-0.43,0.188
			c-0.219,0.128-0.197,0.497-0.432,0.615C44.395,32.728,45.76,31.663,46.371,32.192z"/>
		<path fill-rule="evenodd" clip-rule="evenodd" fill="#FFFFFF" d="M48.217,32.069c0.514,0.061,1.369-0.219,1.292,0.432
			c-0.058,0.046-0.093,0.112-0.124,0.184C48.876,32.601,48.256,32.627,48.217,32.069z"/>
	</g>
</g>
<g id="Layer_1">
</g>
</svg>
