<?xml version="1.0" encoding="utf-8"?>
<!-- Generator: Adobe Illustrator 14.0.0, SVG Export Plug-In . SVG Version: 6.00 Build 43363)  -->
<!DOCTYPE svg PUBLIC "-//W3C//DTD SVG 1.1//EN" "http://www.w3.org/Graphics/SVG/1.1/DTD/svg11.dtd">
<svg version="1.1" xmlns="http://www.w3.org/2000/svg" xmlns:xlink="http://www.w3.org/1999/xlink" x="0px" y="0px" width="100px"
	 height="100px" viewBox="0 0 100 100" enable-background="new 0 0 100 100" xml:space="preserve">
<g id="Layer_2">
	<rect x="0" y="0" width="100" height="100"/>
	<path fill="#FFFFFF" d="M13.906,42.381c-1.666-0.774-6.177-3.704-6.177-3.704s-1.111-0.126-0.248,0.74
		c0.867,0.863,6.303,3.953,6.303,3.953c0.74,3.334-2.72,4.323-2.72,4.323c2.101,0.247,3.337-2.717,3.337-2.717
		c-0.249,5.063-6.795,4.569-6.795,4.569c7.289,1.976,7.289-4.818,7.289-4.818c0.741,5.065-0.989,6.671-0.989,6.671
		c1.73-1.358,1.606-4.446,1.606-4.446s0.493,1.235,1.11,3.334c0.617,2.102,2.844,2.967,2.844,2.967
		c1.481-1.236,1.481-3.088,1.481-3.088c0.864,1.233,0.248,3.582,0.248,3.582c10.993,8.031,32.489,8.154,32.489,8.154
		c-7.288-2.102-10.748-5.189-10.748-5.189c2.348,1.482,14.578,5.559,21.496,5.807c6.919,0.246,13.342-2.225,13.342-2.225
		c-0.74-0.617-1.234-1.356-1.234-1.356c1.359,0,3.583,1.233,3.583,1.233c10.13-0.989,12.724-5.561,12.724-5.561
		s-6.299,1.854-10.625-0.369c-4.323-2.225-7.042-2.1-7.042-2.1c-1.481,0.123-8.152,1.852-8.152,1.852
		c1.111-0.74,4.694-2.348,4.694-2.348c-2.223-0.74-10.747-2.717-10.747-2.717c-9.76-2.594-19.521-1.235-19.521-1.235
		c0.494-0.124,3.213-1.483,3.213-1.483s-1.607-0.494-11.367-3.211c-9.758-2.719-12.847-2.594-12.847-2.594
		c1.235-0.865,3.831-1.237,3.831-1.237c-1.978-0.493-6.056,1.112-6.056,1.112c-0.246-4.694-2.717-2.1-2.717-2.1
		c2.596-0.494,1.977,1.483,1.977,1.483c-0.142,0.706-1.294,1.493-2.254,2.038c0,0,22.664,12.584,67.518,14.356
		C82.753,56.059,45.79,57.212,13.906,42.381z"/>
</g>
<g id="Layer_1">
</g>
</svg>
