<?xml version="1.0" encoding="utf-8"?>
<!-- Generator: Adobe Illustrator 14.0.0, SVG Export Plug-In . SVG Version: 6.00 Build 43363)  -->
<!DOCTYPE svg PUBLIC "-//W3C//DTD SVG 1.1//EN" "http://www.w3.org/Graphics/SVG/1.1/DTD/svg11.dtd">
<svg version="1.1" xmlns="http://www.w3.org/2000/svg" xmlns:xlink="http://www.w3.org/1999/xlink" x="0px" y="0px" width="100px"
	 height="100px" viewBox="0 0 100 100" enable-background="new 0 0 100 100" xml:space="preserve">
<g id="Layer_2">
	<rect x="0" width="100" height="100"/>
	<g>
		<path fill="none" d="M29.135,44.401h-5.271l-2.11,11.293h4.905c3.071,0,4.853-2.279,4.853-2.279
			c2.477-2.674,1.684-6.635,1.684-6.635C32.602,44.401,29.135,44.401,29.135,44.401z"/>
		<path fill="none" d="M76.095,44.401h-5.271l-2.109,11.293h4.905c3.07,0,4.854-2.279,4.854-2.279
			c2.476-2.674,1.684-6.635,1.684-6.635C79.562,44.401,76.095,44.401,76.095,44.401z"/>
		<path fill="#FFFFFF" d="M55.591,40.243h-6.816l1.369-7.33h-5.942l-5.053,27.039h5.943l2.887-15.45h4.74
			c3.665,0,3.252,1.765,3.252,1.765l-2.559,13.686h5.943l2.572-13.768C63.016,39.645,55.591,40.243,55.591,40.243z"/>
		<path fill="#FFFFFF" d="M31.71,40.044h-7.032h-0.396h-5.547l-5.051,27.042h5.942l1.333-7.134h6.691c0,0,6.24,0.202,9.509-5.051
			c0,0,2.18-3.169,2.18-6.24C39.338,48.661,40.13,40.044,31.71,40.044z M31.512,53.415c0,0-1.782,2.279-4.853,2.279h-4.905
			l2.11-11.293h5.271c0,0,3.467,0,4.061,2.379C33.195,46.78,33.988,50.741,31.512,53.415z"/>
		<path fill="#FFFFFF" d="M78.67,40.044h-7.032h-0.396h-5.547l-5.052,27.042h5.943l1.333-7.134h6.69c0,0,6.24,0.202,9.509-5.051
			c0,0,2.179-3.169,2.179-6.24C86.297,48.661,87.09,40.044,78.67,40.044z M78.473,53.415c0,0-1.783,2.279-4.854,2.279h-4.905
			l2.109-11.293h5.271c0,0,3.467,0,4.062,2.379C80.156,46.78,80.948,50.741,78.473,53.415z"/>
	</g>
</g>
<g id="Layer_1">
</g>
</svg>
