<?xml version="1.0" encoding="utf-8"?>
<!-- Generator: Adobe Illustrator 14.0.0, SVG Export Plug-In . SVG Version: 6.00 Build 43363)  -->
<!DOCTYPE svg PUBLIC "-//W3C//DTD SVG 1.1//EN" "http://www.w3.org/Graphics/SVG/1.1/DTD/svg11.dtd">
<svg version="1.1" xmlns="http://www.w3.org/2000/svg" xmlns:xlink="http://www.w3.org/1999/xlink" x="0px" y="0px" width="100px"
	 height="100px" viewBox="0 0 100 100" enable-background="new 0 0 100 100" xml:space="preserve">
<g id="Layer_2">
	<rect y="0" width="100" height="100"/>
	<path fill="#FFFFFF" d="M55.182,31.374c-6.477,0-17,3.076-20.562,4.694c-3.562,1.62-11.98,3.725-11.98,3.725
		C30.086,53.716,50.324,59.06,50.324,59.06c2.914,10.362,9.552,9.552,9.552,9.552c-0.972-1.133-2.428-4.856-2.428-4.856
		c-1.296-4.695,2.914-5.344,10.037-7.934c7.124-2.592,5.829-6.637,5.829-6.637c-5.829,4.693-16.561,6.084-16.561,6.084
		c-12.467,0-21.973-12.724-21.973-12.724c5.1-2.371,9.961-3.939,14.4-4.669c-1.207,1.499-1.934,3.402-1.934,5.477
		c0,4.83,3.915,8.742,8.743,8.742s8.742-3.912,8.742-8.742c0-1.69-0.487-3.262-1.317-4.599c8.89,2.647,13.945,8.163,13.945,8.163
		V39.47C73.152,34.45,61.657,31.374,55.182,31.374z"/>
</g>
<g id="Layer_1">
</g>
</svg>
