<?xml version="1.0" encoding="utf-8"?>
<!-- Generator: Adobe Illustrator 14.0.0, SVG Export Plug-In . SVG Version: 6.00 Build 43363)  -->
<!DOCTYPE svg PUBLIC "-//W3C//DTD SVG 1.1//EN" "http://www.w3.org/Graphics/SVG/1.1/DTD/svg11.dtd">
<svg version="1.1" xmlns="http://www.w3.org/2000/svg" xmlns:xlink="http://www.w3.org/1999/xlink" x="0px" y="0px" width="100px"
	 height="100px" viewBox="0 0 100 100" enable-background="new 0 0 100 100" xml:space="preserve">
<g id="Layer_2">
	<rect x="0" y="0" width="100" height="100"/>
	<g>
		<path fill="#FFFFFF" d="M67.713,50.277l4.774-4.776l-11.479-11.48l-0.001,0.002l-0.004-0.002l-11.478,11.48l4.775,4.776
			l3.083-3.083v20.772c-0.002,2.285-0.137,3.801-0.581,4.807c-0.338,0.756-0.708,1.244-1.068,1.602
			c-0.538,0.531-1.092,0.791-1.515,0.93c-0.21,0.066-0.376,0.1-0.464,0.113l-1.176,0.002h-4.97
			c-1.337-0.002-2.129-0.256-2.646-0.531c-0.392-0.211-0.655-0.443-0.892-0.734c-0.351-0.432-0.627-1.041-0.797-1.738
			c-0.169-0.691-0.227-1.443-0.224-2.014c-0.001-0.32,0.017-1.604,0.03-1.773l0.018-0.174h-0.001l-8.261-0.012
			c-0.02,0.129-0.037,0.828-0.037,1.926c0,0.871-0.022,2.006,0.232,3.23c0.193,0.922,0.494,1.916,0.981,2.922
			c0.724,1.504,2.144,3.057,3.913,4.156c1.76,1.109,3.991,1.705,6.521,1.699h7.503l0.071-0.002c0.214-0.008,1.764-0.049,2.779-0.332
			c0.761-0.217,1.692-0.572,2.675-1.172c1.473-0.891,3.049-2.377,4.159-4.539c1.122-2.162,0.953-4.928,0.952-8.365V47.154
			L67.713,50.277z"/>
		<path fill="#FFFFFF" d="M32.29,49.723L27.514,54.5l11.479,11.479l0.002-0.002l0.003,0.002L50.479,54.5l-4.778-4.777l-3.082,3.082
			V32.033c0.001-2.283,0.136-3.8,0.58-4.807c0.338-0.756,0.71-1.243,1.068-1.602c0.538-0.529,1.094-0.791,1.517-0.93
			c0.207-0.066,0.376-0.1,0.463-0.113l1.177-0.002h4.969c1.336,0.004,2.128,0.256,2.646,0.531c0.391,0.211,0.655,0.443,0.892,0.734
			c0.352,0.433,0.626,1.041,0.796,1.738c0.171,0.693,0.227,1.443,0.225,2.013c0.001,0.321-0.015,1.606-0.029,1.775l-0.018,0.173
			h0.001l8.259,0.012c0.02-0.128,0.038-0.828,0.038-1.926c0-0.869,0.022-2.004-0.233-3.23c-0.192-0.921-0.492-1.916-0.981-2.922
			c-0.722-1.504-2.145-3.057-3.91-4.158c-1.762-1.107-3.994-1.701-6.522-1.697h-7.503l-0.072,0.002
			c-0.213,0.01-1.762,0.05-2.779,0.334c-0.761,0.215-1.691,0.569-2.674,1.17c-1.474,0.891-3.048,2.377-4.159,4.539
			c-1.123,2.162-0.952,4.928-0.951,8.365v20.813L32.29,49.723z"/>
	</g>
</g>
<g id="Layer_1">
</g>
</svg>
