<?xml version="1.0" encoding="utf-8"?>
<!-- Generator: Adobe Illustrator 14.0.0, SVG Export Plug-In . SVG Version: 6.00 Build 43363)  -->
<!DOCTYPE svg PUBLIC "-//W3C//DTD SVG 1.1//EN" "http://www.w3.org/Graphics/SVG/1.1/DTD/svg11.dtd">
<svg version="1.1" xmlns="http://www.w3.org/2000/svg" xmlns:xlink="http://www.w3.org/1999/xlink" x="0px" y="0px" width="100px"
	 height="100px" viewBox="0 0 100 100" enable-background="new 0 0 100 100" xml:space="preserve">
<g id="Layer_2">
	<rect width="100" height="100"/>
	<path fill="#FFFFFF" d="M47.452,49.945l-2.503,17.939c-0.196,1.542-0.397,1.72-1.938,1.72H31.89c-1.54,0-1.696-0.178-1.508-1.72
		l5.726-42.575c0.188-1.539,0.391-1.717,1.956-1.717h11.299c1.563,0,1.723,0.178,1.526,1.717l-2.047,14.669
		c-0.189,1.474,1.928,1.138,1.928,1.138c2.273,0,3.016-3.335,3.016-3.335l1.048-7.788c0.188-1.542,0.392-1.719,1.955-1.719h11.3
		c1.564,0,1.723,0.177,1.525,1.719l-1.33,9.535c-1.209,7.83-6.6,8.914-7.68,9.054c-1.006,0.157-2.492,2.563,4.675,2.563
		c1.564,0,1.723,0.178,1.526,1.72L63.73,74.687c-0.195,1.539-0.396,1.717-1.936,1.717c-0.002,0-7.28,0-7.28,0
		s-5.751,0.424-4.489-8.282l1.999-15.256c0,0,0.751-4.262-2.86-4.262C49.164,48.604,47.611,48.345,47.452,49.945z"/>
</g>
<g id="Layer_1">
</g>
</svg>
